<svg width="905" height="169" viewBox="0 0 905 169" fill="none" xmlns="http://www.w3.org/2000/svg">
<path d="M74.4536 82.7319C74.4536 67.5482 63.0334 56.8768 49.0053 56.8768C34.9771 56.8768 23.5569 67.728 23.5569 82.7319C23.5569 97.5559 34.9771 108.588 49.0053 108.588C63.0475 108.573 74.4536 97.9155 74.4536 82.7319ZM74.6541 127.924V116.172C67.7331 124.311 57.4306 129.363 45.0934 129.363C19.4588 129.363 0 109.473 0 82.7319C0 56.1569 20.2039 35.921 45.6666 35.921C57.6459 35.921 67.7478 40.9869 74.6683 48.9317V37.5404H97.6809V127.924H74.6541Z" fill="white"/>
<path d="M209.46 107.854C201.408 107.854 199.172 104.961 199.172 97.376V57.25H213.96V37.5403H199.172V15.4913H175.587V37.5403H145.209V32.0454C145.209 24.4465 148.204 21.5537 156.443 21.5537H161.616V4.01688H150.267C130.809 4.01688 121.638 10.1624 121.638 28.9588V37.5265H108.541V57.2364H121.638V127.91H145.224V57.2364H175.601V101.528C175.601 119.965 182.895 127.924 201.981 127.924H214.146V107.854H209.46Z" fill="white"/>
<path d="M294.046 74.5931C292.369 62.8416 282.439 55.7963 270.847 55.7963C259.24 55.7963 249.698 62.6617 247.276 74.5931H294.046ZM247.075 88.6972C248.766 102.068 258.682 109.667 271.22 109.667C281.135 109.667 288.816 105.14 293.3 97.9152H317.445C311.828 117.072 294.046 129.363 270.661 129.363C242.404 129.363 222.573 110.206 222.573 82.9114C222.573 55.6165 243.536 35.9067 271.234 35.9067C299.118 35.9067 319.322 55.7969 319.322 82.9114C319.322 84.9048 319.136 86.8841 318.763 88.6972H247.075Z" fill="white"/>
<path d="M469.275 82.7319C469.275 68.0877 457.855 56.8768 443.827 56.8768C429.799 56.8768 418.378 67.728 418.378 82.7319C418.378 97.5559 429.799 108.588 443.827 108.588C457.855 108.573 469.275 97.376 469.275 82.7319ZM395.166 37.5404H418.178V49.2916C425.099 40.973 435.387 35.921 447.738 35.921C473.001 35.921 492.832 55.9907 492.832 82.552C492.832 109.127 472.628 129.377 447.18 129.377C435.387 129.377 425.658 124.851 418.923 117.266V165.115H395.166V37.5404Z" fill="white"/>
<path d="M575.783 82.7319C575.783 67.5482 564.377 56.8768 550.333 56.8768C536.306 56.8768 524.885 67.728 524.885 82.7319C524.885 97.5559 536.306 108.588 550.333 108.588C564.377 108.573 575.783 97.9155 575.783 82.7319ZM575.984 127.924V116.172C569.063 124.311 558.758 129.363 546.42 129.363C520.787 129.363 501.329 109.473 501.329 82.7319C501.329 56.1569 521.533 35.921 546.981 35.921C558.96 35.921 569.063 40.9869 575.984 48.9317V37.5404H598.998V127.924H575.984Z" fill="white"/>
<path d="M353.682 46.3988C353.682 46.3988 359.543 35.921 373.886 35.921C380.019 35.921 383.989 37.9556 383.989 37.9556V61.0152C383.989 61.0152 375.334 55.8522 367.381 56.8904C359.428 57.9285 354.399 64.9874 354.428 74.4272V127.937H330.67V37.5542H353.682V46.3988Z" fill="white"/>
<path d="M706.475 37.5402L648.371 164.824H623.87L646.682 115.618L608.11 37.5402H635.881L658.448 89.7077L681.603 37.5402H706.475Z" fill="white"/>
<path d="M891.954 35.4918L834.352 3.38013C817.441 -6.04571 796.308 5.73317 796.308 24.5987V27.8929C796.308 30.8688 797.954 33.6232 800.619 35.1042L811.496 41.1667C814.689 42.9522 818.673 40.7238 818.673 37.1666V28.9726C818.673 24.8756 823.262 22.315 826.929 24.3635L876.82 52.1843C880.493 54.2328 880.493 59.3541 876.82 61.3889L826.929 89.2097C823.262 91.2582 818.673 88.6974 818.673 84.6004V80.2402C818.673 61.3748 797.539 49.5822 780.618 59.0216L723.016 91.1334C706.106 100.56 706.106 124.145 723.016 133.571L780.618 165.682C797.523 175.108 818.673 163.329 818.673 144.464V141.169C818.673 138.193 817.027 135.453 814.362 133.958L803.485 127.882C800.292 126.096 796.308 128.325 796.308 131.882V140.076C796.308 144.173 791.725 146.734 788.052 144.685L738.161 116.864C734.493 114.816 734.493 109.695 738.161 107.646L788.052 79.8249C791.725 77.7764 796.308 80.3372 796.308 84.4342V88.7944C796.308 107.66 817.441 119.453 834.352 110.013L891.954 77.9012C908.864 68.5028 908.864 44.9176 891.954 35.4918Z" fill="white"/>
</svg>
