<svg width="792" height="99" viewBox="0 0 792 99" fill="none" xmlns="http://www.w3.org/2000/svg">
<path d="M28.9381 45.5767C28.6497 45.1992 28.2688 44.9026 27.8322 44.7154C27.3956 44.5283 26.9181 44.4569 26.4459 44.5082C25.9737 44.5595 25.5227 44.7318 25.1365 45.0083C24.7503 45.2849 24.442 45.6564 24.2414 46.0869L0.44234 93.6701C0.225534 94.1038 0.12317 94.5856 0.144966 95.07C0.166763 95.5543 0.311996 96.0251 0.566877 96.4375C0.821759 96.8499 1.17783 97.1904 1.60128 97.4265C2.02473 97.6626 2.5015 97.7866 2.98634 97.7866H36.1252C36.656 97.799 37.1789 97.6569 37.6305 97.3778C38.0821 97.0986 38.443 96.6944 38.6692 96.2141C45.8177 81.4426 41.4855 58.9825 28.9381 45.5767Z" fill="white"/>
<path d="M46.3923 2.29732C40.4623 11.4217 37.0065 21.9312 36.3641 32.7944C35.7217 43.6575 37.9148 54.501 42.7281 64.2608L58.7047 96.214C58.9409 96.6865 59.304 97.0838 59.7533 97.3616C60.2027 97.6393 60.7205 97.7864 61.2487 97.7865H94.3817C94.8665 97.7865 95.3433 97.6625 95.7667 97.4264C96.1902 97.1902 96.5463 96.8498 96.8011 96.4374C97.056 96.0249 97.2012 95.5542 97.223 95.0699C97.2448 94.5855 97.1425 94.1036 96.9257 93.67C96.9257 93.67 52.3507 4.50955 51.2304 2.27947C51.0089 1.82553 50.664 1.44321 50.2351 1.17638C49.8062 0.909544 49.3109 0.768998 48.8058 0.770862C48.3007 0.772726 47.8063 0.916924 47.3795 1.18692C46.9526 1.45691 46.6105 1.84176 46.3923 2.29732V2.29732Z" fill="white"/>
<path d="M435.027 40.4498C435.027 52.2325 440.493 61.5873 461.873 65.7172C474.629 68.3951 477.301 70.4541 477.301 74.706C477.301 78.8359 474.623 81.5093 465.638 81.5093C454.78 81.3141 444.138 78.4345 434.663 73.1275V92.3191C441.101 95.4775 449.604 99.0004 465.396 99.0004C487.747 99.0004 496.616 89.0327 496.616 74.2195L435.027 40.4498ZM496.616 74.2195C496.616 60.2498 489.205 53.689 468.312 49.1961C456.772 46.6446 453.978 44.0947 453.978 40.4498C453.978 35.8378 458.108 33.8904 465.76 33.8904C474.993 33.8904 484.104 36.6844 492.728 40.5718V22.2282C484.458 18.4642 475.452 16.5967 466.367 16.7623C445.716 16.7623 435.027 25.7511 435.027 40.4498" fill="white"/>
<path d="M722.181 17.9766V97.7867H739.187V36.9271L746.355 53.0823L770.407 97.7867H791.787V17.9766H774.781V69.4829L768.342 54.5402L749.027 17.9766H722.181Z" fill="white"/>
<path d="M614.016 17.9766H595.43V97.7867H614.016V17.9766Z" fill="white"/>
<path d="M573.984 74.2189C573.984 60.2492 566.574 53.6884 545.681 49.1955C534.14 46.644 531.347 44.0941 531.347 40.4492C531.347 35.8372 535.476 33.8898 543.129 33.8898C552.362 33.8898 561.473 36.6837 570.097 40.5712V22.2276C561.827 18.4636 552.821 16.5961 543.736 16.7617C523.085 16.7617 512.396 25.7505 512.396 40.4492C512.396 52.2319 517.862 61.5867 539.242 65.7166C551.997 68.3945 554.669 70.4535 554.669 74.7053C554.669 78.8353 551.992 81.5087 543.007 81.5087C532.149 81.3134 521.507 78.4339 512.031 73.1269V92.3184C518.47 95.4769 526.973 98.9998 542.765 98.9998C565.116 98.9998 573.984 89.0321 573.984 74.2189" fill="white"/>
<path d="M290.641 17.9766V97.7867H328.842L334.857 80.5366H309.347V17.9766H290.641Z" fill="white"/>
<path d="M215.17 17.9766V35.2252H235.821V97.7867H254.528V35.2252H276.636V17.9766H215.17Z" fill="white"/>
<path d="M188.044 17.9766H163.528L135.697 97.7867H156.95L160.896 84.3452C170.613 87.1984 180.945 87.1984 190.662 84.3452L194.607 97.7867H215.865L188.044 17.9766ZM175.785 69.953C172.323 69.9528 168.879 69.4573 165.557 68.4816L175.785 33.6527L186.013 68.4935C182.691 69.4652 179.246 69.9567 175.785 69.953V69.953Z" fill="white"/>
<path d="M394.704 17.9766H370.19L342.359 97.7867H363.617L367.563 84.3452C377.28 87.1984 387.612 87.1984 397.329 84.3452L401.274 97.7867H422.532L394.704 17.9766ZM382.447 69.953C378.985 69.9528 375.541 69.4573 372.219 68.4816L382.447 33.6527L392.675 68.4935C389.353 69.4652 385.909 69.9567 382.447 69.953Z" fill="white"/>
<path d="M680.99 17.9766H656.475L628.645 97.7867H649.903L653.848 84.3452C663.565 87.1984 673.897 87.1984 683.614 84.3452L687.56 97.7867H708.819L680.99 17.9766ZM668.725 69.953C665.263 69.9528 661.819 69.4573 658.497 68.4816L668.725 33.6527L678.953 68.4935C675.631 69.4652 672.187 69.9567 668.725 69.953V69.953Z" fill="white"/>
</svg>
