<svg width="311" height="265" viewBox="0 0 311 265" fill="none" xmlns="http://www.w3.org/2000/svg">
<path d="M14.144 69.656V34.84H4.224V79H32.576V69.656H14.144ZM51.56 79.768C60.904 79.768 66.984 74.264 66.984 65.944V46.36H57.64V64.664C57.64 68.312 55.208 70.744 51.56 70.744C47.912 70.744 45.48 68.312 45.48 64.664V46.36H36.136V65.944C36.136 74.264 42.28 79.768 51.56 79.768ZM90.3475 40.664C91.8835 40.664 93.2275 41.048 94.4435 41.816V33.56C92.5875 32.6 90.6675 32.152 88.2355 32.152C80.2355 32.152 76.7155 37.016 76.7155 43.928V46.36H71.7875V54.872H76.7155V79H86.0595V54.872H93.8035V46.36H86.0595V44.568C86.0595 42.072 87.4675 40.664 90.3475 40.664ZM118.637 78.68H108.461C106.733 78.68 105.517 77.72 105.517 76.248C105.517 75.288 106.029 74.392 106.989 73.752C108.525 74.2 110.125 74.392 111.789 74.392C120.621 74.392 127.277 68.248 127.277 59.992C127.277 56.856 126.317 54.104 124.717 51.8C125.037 50.584 126.253 49.816 127.789 49.816H130.093V41.176H127.341C122.861 41.176 119.597 43.416 118.637 46.936C116.589 46.104 114.285 45.592 111.789 45.592C102.957 45.592 96.365 51.736 96.365 59.992C96.365 64.024 97.965 67.608 100.653 70.168C97.901 71.832 96.173 75.16 96.173 78.616C96.173 84.056 100.333 87.704 106.669 87.704H116.845C119.469 87.704 121.261 89.112 121.517 91.224L131.117 88.6C129.901 82.328 125.229 78.68 118.637 78.68ZM111.789 54.424C115.117 54.424 117.677 56.792 117.677 59.992C117.677 63.192 115.117 65.56 111.789 65.56C108.461 65.56 105.965 63.192 105.965 59.992C105.965 56.792 108.397 54.424 111.789 54.424ZM157.458 46.36V49.624C154.962 47.064 151.57 45.592 147.602 45.592C138.642 45.592 131.858 52.952 131.858 62.68C131.858 72.408 138.642 79.768 147.602 79.768C151.57 79.768 154.962 78.296 157.458 75.736V79H166.802V46.36H157.458ZM149.458 70.744C144.914 70.744 141.522 67.288 141.522 62.68C141.522 58.072 144.914 54.616 149.458 54.616C154.066 54.616 157.458 58.072 157.458 62.68C157.458 67.288 154.066 70.744 149.458 70.744Z" fill="white"/>
<path d="M3.88494 14V3.81818H7.90199C8.67424 3.81818 9.33215 3.96567 9.87571 4.26065C10.4193 4.55232 10.8336 4.95833 11.1186 5.47869C11.407 5.99574 11.5511 6.59233 11.5511 7.26847C11.5511 7.9446 11.4053 8.54119 11.1136 9.05824C10.822 9.57528 10.3994 9.97798 9.84588 10.2663C9.29569 10.5547 8.6295 10.6989 7.8473 10.6989H5.28693V8.97372H7.49929C7.91359 8.97372 8.25497 8.90246 8.52344 8.75994C8.79522 8.61411 8.9974 8.41359 9.12997 8.15838C9.26586 7.89986 9.33381 7.60322 9.33381 7.26847C9.33381 6.9304 9.26586 6.63542 9.12997 6.38352C8.9974 6.12831 8.79522 5.93111 8.52344 5.7919C8.25166 5.64938 7.90696 5.57812 7.48935 5.57812H6.03764V14H3.88494ZM12.9096 14V6.36364H14.9629V7.69602H15.0424C15.1816 7.22206 15.4153 6.86411 15.7434 6.62216C16.0716 6.37689 16.4494 6.25426 16.877 6.25426C16.983 6.25426 17.0974 6.26089 17.22 6.27415C17.3426 6.28741 17.4503 6.30563 17.5431 6.32883V8.2081C17.4437 8.17827 17.3062 8.15175 17.1305 8.12855C16.9548 8.10535 16.7941 8.09375 16.6483 8.09375C16.3367 8.09375 16.0583 8.1617 15.813 8.29759C15.5711 8.43016 15.3788 8.61577 15.2363 8.8544C15.0971 9.09304 15.0275 9.36813 15.0275 9.67969V14H12.9096ZM18.6381 14V6.36364H20.756V14H18.6381ZM19.7021 5.37926C19.3872 5.37926 19.1171 5.27486 18.8917 5.06605C18.6696 4.85393 18.5586 4.60038 18.5586 4.3054C18.5586 4.01373 18.6696 3.76349 18.8917 3.55469C19.1171 3.34257 19.3872 3.23651 19.7021 3.23651C20.0169 3.23651 20.2854 3.34257 20.5075 3.55469C20.7328 3.76349 20.8455 4.01373 20.8455 4.3054C20.8455 4.60038 20.7328 4.85393 20.5075 5.06605C20.2854 5.27486 20.0169 5.37926 19.7021 5.37926ZM22.4526 14V6.36364H24.4711V7.71094H24.5605C24.7196 7.26349 24.9848 6.91051 25.356 6.65199C25.7272 6.39347 26.1713 6.2642 26.6884 6.2642C27.2121 6.2642 27.6578 6.39512 28.0257 6.65696C28.3936 6.91548 28.6389 7.26681 28.7615 7.71094H28.8411C28.9969 7.27344 29.2786 6.92377 29.6863 6.66193C30.0972 6.39678 30.5828 6.2642 31.1429 6.2642C31.8555 6.2642 32.4339 6.49124 32.878 6.94531C33.3255 7.39607 33.5492 8.03575 33.5492 8.86435V14H31.4363V9.28196C31.4363 8.85772 31.3236 8.53954 31.0982 8.32741C30.8728 8.11529 30.5911 8.00923 30.253 8.00923C29.8685 8.00923 29.5686 8.13187 29.3532 8.37713C29.1377 8.61908 29.03 8.93892 29.03 9.33665V14H26.9767V9.23722C26.9767 8.86269 26.869 8.56439 26.6536 8.34233C26.4415 8.12026 26.1614 8.00923 25.8134 8.00923C25.5781 8.00923 25.3659 8.06889 25.177 8.18821C24.9914 8.30421 24.8439 8.46828 24.7346 8.6804C24.6252 8.8892 24.5705 9.13447 24.5705 9.41619V14H22.4526ZM37.3997 14.1442C36.9125 14.1442 36.4783 14.0597 36.0971 13.8906C35.716 13.7183 35.4144 13.4647 35.1923 13.13C34.9735 12.7919 34.8642 12.371 34.8642 11.8672C34.8642 11.4429 34.9421 11.0866 35.0978 10.7983C35.2536 10.5099 35.4657 10.2779 35.7342 10.1023C36.0027 9.92661 36.3076 9.79403 36.649 9.70455C36.9937 9.61506 37.3549 9.55208 37.7328 9.51562C38.1769 9.46922 38.5349 9.42614 38.8066 9.38636C39.0784 9.34328 39.2756 9.2803 39.3983 9.19744C39.5209 9.11458 39.5822 8.99195 39.5822 8.82955V8.79972C39.5822 8.48485 39.4828 8.24124 39.2839 8.06889C39.0884 7.89654 38.81 7.81037 38.4487 7.81037C38.0675 7.81037 37.7643 7.89489 37.5389 8.06392C37.3135 8.22964 37.1644 8.43845 37.0914 8.69034L35.1326 8.53125C35.2321 8.06723 35.4276 7.66619 35.7193 7.32812C36.0109 6.98674 36.3871 6.7249 36.8478 6.54261C37.3118 6.35701 37.8488 6.2642 38.4586 6.2642C38.8829 6.2642 39.2889 6.31392 39.6767 6.41335C40.0678 6.51278 40.4141 6.6669 40.7157 6.87571C41.0207 7.08452 41.2609 7.35298 41.4366 7.68111C41.6123 8.00592 41.7001 8.39536 41.7001 8.84943V14H39.6916V12.9411H39.6319C39.5093 13.1797 39.3452 13.3902 39.1397 13.5724C38.9342 13.7514 38.6873 13.8923 38.399 13.995C38.1106 14.0945 37.7775 14.1442 37.3997 14.1442ZM38.0062 12.6825C38.3178 12.6825 38.5929 12.6212 38.8315 12.4986C39.0701 12.3726 39.2574 12.2036 39.3933 11.9915C39.5292 11.7794 39.5971 11.5391 39.5971 11.2706V10.4602C39.5308 10.5033 39.4397 10.5431 39.3237 10.5795C39.211 10.6127 39.0834 10.6442 38.9409 10.674C38.7984 10.7005 38.6558 10.7254 38.5133 10.7486C38.3708 10.7685 38.2415 10.7867 38.1255 10.8033C37.877 10.8397 37.6599 10.8977 37.4743 10.9773C37.2886 11.0568 37.1445 11.1645 37.0417 11.3004C36.939 11.433 36.8876 11.5987 36.8876 11.7976C36.8876 12.0859 36.992 12.3063 37.2008 12.4588C37.4129 12.608 37.6814 12.6825 38.0062 12.6825ZM43.3432 14V6.36364H45.3965V7.69602H45.476C45.6152 7.22206 45.8489 6.86411 46.177 6.62216C46.5051 6.37689 46.883 6.25426 47.3105 6.25426C47.4166 6.25426 47.531 6.26089 47.6536 6.27415C47.7762 6.28741 47.8839 6.30563 47.9767 6.32883V8.2081C47.8773 8.17827 47.7398 8.15175 47.5641 8.12855C47.3884 8.10535 47.2277 8.09375 47.0819 8.09375C46.7703 8.09375 46.4919 8.1617 46.2466 8.29759C46.0047 8.43016 45.8124 8.61577 45.6699 8.8544C45.5307 9.09304 45.4611 9.36813 45.4611 9.67969V14H43.3432ZM50.6117 16.8636C50.3432 16.8636 50.0913 16.8421 49.856 16.799C49.624 16.7592 49.4318 16.7079 49.2793 16.6449L49.7566 15.0639C50.0051 15.1402 50.2289 15.1816 50.4277 15.1882C50.6299 15.1948 50.8039 15.1484 50.9498 15.049C51.0989 14.9496 51.2199 14.7805 51.3127 14.5419L51.437 14.2188L48.6976 6.36364H50.9249L52.5059 11.9716H52.5854L54.1813 6.36364H56.4235L53.4554 14.8253C53.3129 15.2363 53.119 15.5942 52.8738 15.8991C52.6318 16.2074 52.3252 16.4444 51.954 16.6101C51.5828 16.7791 51.1354 16.8636 50.6117 16.8636ZM60.3995 5.59304V3.81818H68.7617V5.59304H65.6445V14H63.5167V5.59304H60.3995ZM70.5316 16.8636C70.2631 16.8636 70.0112 16.8421 69.7759 16.799C69.5439 16.7592 69.3517 16.7079 69.1992 16.6449L69.6765 15.0639C69.9251 15.1402 70.1488 15.1816 70.3477 15.1882C70.5498 15.1948 70.7238 15.1484 70.8697 15.049C71.0188 14.9496 71.1398 14.7805 71.2326 14.5419L71.3569 14.2188L68.6175 6.36364H70.8448L72.4258 11.9716H72.5053L74.1012 6.36364H76.3434L73.3754 14.8253C73.2328 15.2363 73.0389 15.5942 72.7937 15.8991C72.5517 16.2074 72.2451 16.4444 71.8739 16.6101C71.5027 16.7791 71.0553 16.8636 70.5316 16.8636ZM77.4272 16.8636V6.36364H79.5153V7.64631H79.6097C79.7025 7.44081 79.8368 7.23201 80.0124 7.01989C80.1914 6.80445 80.4234 6.62547 80.7085 6.48295C80.9968 6.33712 81.3548 6.2642 81.7823 6.2642C82.3391 6.2642 82.8529 6.41004 83.3235 6.7017C83.7942 6.99006 84.1703 7.4259 84.4521 8.00923C84.7338 8.58925 84.8746 9.31676 84.8746 10.1918C84.8746 11.0436 84.7371 11.7628 84.462 12.3494C84.1902 12.9328 83.819 13.3752 83.3484 13.6768C82.881 13.9751 82.3574 14.1243 81.7773 14.1243C81.3664 14.1243 81.0167 14.0563 80.7283 13.9205C80.4433 13.7846 80.2096 13.6139 80.0273 13.4084C79.8451 13.1996 79.7058 12.9891 79.6097 12.777H79.5451V16.8636H77.4272ZM79.5004 10.1818C79.5004 10.6359 79.5633 11.032 79.6893 11.37C79.8152 11.7081 79.9975 11.9716 80.2362 12.1605C80.4748 12.3461 80.7648 12.4389 81.1062 12.4389C81.4509 12.4389 81.7425 12.3445 81.9812 12.1555C82.2198 11.9633 82.4004 11.6982 82.5231 11.3601C82.649 11.0187 82.712 10.6259 82.712 10.1818C82.712 9.741 82.6507 9.35322 82.5281 9.01847C82.4054 8.68371 82.2248 8.42187 81.9862 8.23295C81.7475 8.04403 81.4542 7.94957 81.1062 7.94957C80.7615 7.94957 80.4698 8.04072 80.2312 8.22301C79.9959 8.4053 79.8152 8.66383 79.6893 8.99858C79.5633 9.33333 79.5004 9.72775 79.5004 10.1818ZM89.7667 14.1491C88.9812 14.1491 88.305 13.9901 87.7383 13.6719C87.1748 13.3504 86.7406 12.8963 86.4357 12.3097C86.1308 11.7197 85.9783 11.022 85.9783 10.2166C85.9783 9.43111 86.1308 8.74171 86.4357 8.14844C86.7406 7.55516 87.1699 7.0928 87.7234 6.76136C88.2802 6.42992 88.9331 6.2642 89.6822 6.2642C90.186 6.2642 90.6549 6.34541 91.0891 6.50781C91.5266 6.6669 91.9078 6.9072 92.2326 7.22869C92.5607 7.55019 92.8159 7.95455 92.9982 8.44176C93.1805 8.92566 93.2717 9.49242 93.2717 10.142V10.7237H86.8235V9.41122H91.2781C91.2781 9.1063 91.2118 8.83617 91.0792 8.60085C90.9466 8.36553 90.7627 8.18158 90.5273 8.04901C90.2953 7.91312 90.0252 7.84517 89.717 7.84517C89.3955 7.84517 89.1104 7.91974 88.8619 8.06889C88.6166 8.21473 88.4244 8.41193 88.2852 8.66051C88.146 8.90578 88.0747 9.17921 88.0714 9.48082V10.7287C88.0714 11.1065 88.141 11.433 88.2802 11.7081C88.4227 11.9832 88.6232 12.1953 88.8817 12.3445C89.1403 12.4936 89.4469 12.5682 89.8015 12.5682C90.0368 12.5682 90.2522 12.535 90.4478 12.4688C90.6433 12.4025 90.8107 12.303 90.9499 12.1705C91.0891 12.0379 91.1952 11.8755 91.2681 11.6832L93.2269 11.8125C93.1275 12.2831 92.9237 12.6941 92.6154 13.0455C92.3105 13.3935 91.9161 13.6652 91.4322 13.8608C90.9516 14.053 90.3964 14.1491 89.7667 14.1491ZM98.7603 6.36364V7.95455H94.0472V6.36364H98.7603ZM95.1261 14V5.81179C95.1261 5.25829 95.2338 4.79924 95.4492 4.43466C95.668 4.07008 95.9663 3.79664 96.3441 3.61435C96.7219 3.43205 97.1512 3.34091 97.6317 3.34091C97.9566 3.34091 98.2532 3.36577 98.5217 3.41548C98.7934 3.4652 98.9956 3.50994 99.1282 3.54972L98.7504 5.14062C98.6675 5.11411 98.5647 5.08925 98.4421 5.06605C98.3228 5.04285 98.2002 5.03125 98.0742 5.03125C97.7627 5.03125 97.5456 5.10417 97.4229 5.25C97.3003 5.39252 97.239 5.59304 97.239 5.85156V14H95.1261ZM101.958 14.1442C101.471 14.1442 101.037 14.0597 100.656 13.8906C100.275 13.7183 99.973 13.4647 99.7509 13.13C99.5321 12.7919 99.4228 12.371 99.4228 11.8672C99.4228 11.4429 99.5007 11.0866 99.6564 10.7983C99.8122 10.5099 100.024 10.2779 100.293 10.1023C100.561 9.92661 100.866 9.79403 101.208 9.70455C101.552 9.61506 101.914 9.55208 102.291 9.51562C102.735 9.46922 103.093 9.42614 103.365 9.38636C103.637 9.34328 103.834 9.2803 103.957 9.19744C104.079 9.11458 104.141 8.99195 104.141 8.82955V8.79972C104.141 8.48485 104.041 8.24124 103.843 8.06889C103.647 7.89654 103.369 7.81037 103.007 7.81037C102.626 7.81037 102.323 7.89489 102.097 8.06392C101.872 8.22964 101.723 8.43845 101.65 8.69034L99.6912 8.53125C99.7907 8.06723 99.9862 7.66619 100.278 7.32812C100.57 6.98674 100.946 6.7249 101.406 6.54261C101.87 6.35701 102.407 6.2642 103.017 6.2642C103.441 6.2642 103.847 6.31392 104.235 6.41335C104.626 6.51278 104.973 6.6669 105.274 6.87571C105.579 7.08452 105.82 7.35298 105.995 7.68111C106.171 8.00592 106.259 8.39536 106.259 8.84943V14H104.25V12.9411H104.191C104.068 13.1797 103.904 13.3902 103.698 13.5724C103.493 13.7514 103.246 13.8923 102.958 13.995C102.669 14.0945 102.336 14.1442 101.958 14.1442ZM102.565 12.6825C102.876 12.6825 103.151 12.6212 103.39 12.4986C103.629 12.3726 103.816 12.2036 103.952 11.9915C104.088 11.7794 104.156 11.5391 104.156 11.2706V10.4602C104.089 10.5033 103.998 10.5431 103.882 10.5795C103.77 10.6127 103.642 10.6442 103.499 10.674C103.357 10.7005 103.214 10.7254 103.072 10.7486C102.929 10.7685 102.8 10.7867 102.684 10.8033C102.436 10.8397 102.218 10.8977 102.033 10.9773C101.847 11.0568 101.703 11.1645 101.6 11.3004C101.498 11.433 101.446 11.5987 101.446 11.7976C101.446 12.0859 101.551 12.3063 101.759 12.4588C101.972 12.608 102.24 12.6825 102.565 12.6825ZM111.352 14.1491C110.57 14.1491 109.897 13.9834 109.334 13.652C108.773 13.3172 108.343 12.8532 108.041 12.2599C107.743 11.6667 107.594 10.9839 107.594 10.2116C107.594 9.42945 107.744 8.74337 108.046 8.15341C108.351 7.56013 108.783 7.09777 109.344 6.76633C109.904 6.43158 110.57 6.2642 111.342 6.2642C112.008 6.2642 112.592 6.38518 113.092 6.62713C113.593 6.86908 113.989 7.20881 114.28 7.64631C114.572 8.08381 114.733 8.59754 114.763 9.1875H112.764C112.708 8.80634 112.559 8.49976 112.317 8.26776C112.078 8.03243 111.765 7.91477 111.377 7.91477C111.049 7.91477 110.762 8.00426 110.517 8.18324C110.275 8.3589 110.086 8.61577 109.95 8.95384C109.814 9.2919 109.746 9.70123 109.746 10.1818C109.746 10.669 109.813 11.0833 109.945 11.4247C110.081 11.7661 110.272 12.0263 110.517 12.2053C110.762 12.3842 111.049 12.4737 111.377 12.4737C111.619 12.4737 111.836 12.424 112.028 12.3246C112.224 12.2251 112.385 12.081 112.51 11.892C112.64 11.6998 112.724 11.4695 112.764 11.201H114.763C114.729 11.7843 114.57 12.2981 114.285 12.7422C114.004 13.183 113.614 13.5277 113.117 13.7763C112.62 14.0249 112.032 14.1491 111.352 14.1491ZM119.599 14.1491C118.813 14.1491 118.137 13.9901 117.57 13.6719C117.007 13.3504 116.573 12.8963 116.268 12.3097C115.963 11.7197 115.81 11.022 115.81 10.2166C115.81 9.43111 115.963 8.74171 116.268 8.14844C116.573 7.55516 117.002 7.0928 117.555 6.76136C118.112 6.42992 118.765 6.2642 119.514 6.2642C120.018 6.2642 120.487 6.34541 120.921 6.50781C121.359 6.6669 121.74 6.9072 122.065 7.22869C122.393 7.55019 122.648 7.95455 122.83 8.44176C123.013 8.92566 123.104 9.49242 123.104 10.142V10.7237H116.656V9.41122H121.11C121.11 9.1063 121.044 8.83617 120.911 8.60085C120.779 8.36553 120.595 8.18158 120.359 8.04901C120.127 7.91312 119.857 7.84517 119.549 7.84517C119.228 7.84517 118.942 7.91974 118.694 8.06889C118.449 8.21473 118.256 8.41193 118.117 8.66051C117.978 8.90578 117.907 9.17921 117.903 9.48082V10.7287C117.903 11.1065 117.973 11.433 118.112 11.7081C118.255 11.9832 118.455 12.1953 118.714 12.3445C118.972 12.4936 119.279 12.5682 119.634 12.5682C119.869 12.5682 120.084 12.535 120.28 12.4688C120.475 12.4025 120.643 12.303 120.782 12.1705C120.921 12.0379 121.027 11.8755 121.1 11.6832L123.059 11.8125C122.96 12.2831 122.756 12.6941 122.447 13.0455C122.143 13.3935 121.748 13.6652 121.264 13.8608C120.784 14.053 120.228 14.1491 119.599 14.1491Z" fill="#A3A5C1"/>
<path d="M9.416 145.84V147.728C8.744 146.464 7.464 145.648 5.896 145.648C3.528 145.648 1.752 147.488 1.752 149.92C1.752 152.352 3.528 154.192 5.896 154.192C7.464 154.192 8.744 153.376 9.416 152.112V154H10.344V145.84H9.416ZM6.056 153.296C4.152 153.296 2.712 151.84 2.712 149.92C2.712 148 4.152 146.544 6.056 146.544C7.976 146.544 9.416 148 9.416 149.92C9.416 151.84 7.976 153.296 6.056 153.296ZM20.5214 145.648C18.9694 145.648 17.6734 146.464 17.0014 147.728V142.48H16.0734V154H17.0014V152.112C17.6734 153.376 18.9694 154.192 20.5214 154.192C22.9054 154.192 24.6814 152.352 24.6814 149.92C24.6814 147.488 22.9054 145.648 20.5214 145.648ZM20.3614 153.296C18.4414 153.296 17.0014 151.84 17.0014 149.92C17.0014 148 18.4414 146.544 20.3614 146.544C22.2814 146.544 23.7214 148 23.7214 149.92C23.7214 151.84 22.2814 153.296 20.3614 153.296ZM33.6747 154.192C35.2908 154.192 36.6508 153.392 37.3868 152.144L36.5707 151.648C36.0107 152.64 34.9387 153.296 33.6747 153.296C31.7547 153.296 30.3147 151.84 30.3147 149.92C30.3147 148 31.7547 146.544 33.6747 146.544C34.9387 146.544 36.0107 147.2 36.5707 148.192L37.3868 147.696C36.6508 146.448 35.2908 145.648 33.6747 145.648C31.2107 145.648 29.3547 147.488 29.3547 149.92C29.3547 152.352 31.2107 154.192 33.6747 154.192ZM49.5941 142.48V147.728C48.9221 146.464 47.6421 145.648 46.0741 145.648C43.7061 145.648 41.9301 147.488 41.9301 149.92C41.9301 152.352 43.7061 154.192 46.0741 154.192C47.6421 154.192 48.9221 153.376 49.5941 152.112V154H50.5221V142.48H49.5941ZM46.2341 153.296C44.3301 153.296 42.8901 151.84 42.8901 149.92C42.8901 148 44.3301 146.544 46.2341 146.544C48.1541 146.544 49.5941 148 49.5941 149.92C49.5941 151.84 48.1541 153.296 46.2341 153.296ZM64.2195 149.92C64.2195 147.472 62.3955 145.648 59.9795 145.648C57.5475 145.648 55.7235 147.472 55.7235 149.904C55.7235 152.336 57.6115 154.192 60.1395 154.192C61.7395 154.192 63.0995 153.472 63.8835 152.32L63.2275 151.776C62.6355 152.688 61.4995 153.328 60.1715 153.328C58.2995 153.328 56.8915 152.08 56.6995 150.32H64.1875C64.2035 150.192 64.2195 150.048 64.2195 149.92ZM59.9635 146.512C61.7075 146.512 63.0515 147.744 63.2435 149.488H56.6995C56.8915 147.744 58.2195 146.512 59.9635 146.512ZM72.1229 143.152C72.6029 143.152 72.9389 143.248 73.2909 143.44V142.608C72.8749 142.4 72.4909 142.288 71.9309 142.288C70.5389 142.288 69.7549 143.024 69.7549 144.464V145.84H68.1549V146.688H69.7549V154H70.6829V146.688H73.2429V145.84H70.6829V144.528C70.6829 143.536 71.2269 143.152 72.1229 143.152ZM82.8344 154.352H79.6184C78.8184 154.352 78.2744 153.92 78.2744 153.248C78.2744 152.816 78.4984 152.4 78.8984 152.176C79.4424 152.496 80.1144 152.672 80.8344 152.672C82.9144 152.672 84.4824 151.168 84.4824 149.168C84.4824 148.256 84.1624 147.456 83.6184 146.848V146.8C83.6184 146.16 84.0664 145.744 84.7224 145.744H85.2824V144.88H84.6744C83.7304 144.88 83.0744 145.424 82.9624 146.272C82.3704 145.872 81.6344 145.648 80.8344 145.648C78.7384 145.648 77.1704 147.168 77.1704 149.168C77.1704 150.208 77.6024 151.12 78.3064 151.76C77.7144 152.08 77.3464 152.752 77.3464 153.472C77.3464 154.544 78.1944 155.264 79.4584 155.264H82.6744C83.7464 155.264 84.4664 155.808 84.4824 156.624L85.4424 156.4C85.3464 155.136 84.3224 154.352 82.8344 154.352ZM78.1304 149.168C78.1304 147.664 79.2824 146.528 80.8344 146.528C82.3704 146.528 83.5224 147.664 83.5224 149.168C83.5224 150.656 82.3704 151.792 80.8344 151.792C79.2984 151.792 78.1304 150.656 78.1304 149.168ZM93.9631 145.648C92.5231 145.648 91.4031 146.288 90.7951 147.408V142.48H89.8671V154H90.7951V149.36C90.7951 147.664 91.9631 146.544 93.6911 146.544C95.3551 146.544 96.4591 147.648 96.4591 149.328V154H97.3871V149.056C97.3871 146.992 96.0111 145.648 93.9631 145.648ZM103.484 143.92C103.868 143.92 104.172 143.632 104.172 143.248C104.172 142.88 103.868 142.592 103.484 142.592C103.116 142.592 102.812 142.88 102.812 143.248C102.812 143.632 103.116 143.92 103.484 143.92ZM103.02 154H103.948V145.84H103.02V154ZM110.265 143.92C110.633 143.92 110.937 143.632 110.937 143.248C110.937 142.88 110.633 142.592 110.265 142.592C109.881 142.592 109.577 142.88 109.577 143.248C109.577 143.632 109.881 143.92 110.265 143.92ZM108.745 157.232C109.977 157.232 110.729 156.544 110.729 155.216V145.84H109.801V155.104C109.801 156.016 109.305 156.368 108.585 156.368C108.249 156.368 107.993 156.304 107.769 156.176V157.024C108.041 157.152 108.345 157.232 108.745 157.232ZM121.956 154H123.188L119.316 149.744L123.076 145.84H121.86L117.38 150.496V142.48H116.452V154H117.38V151.744L118.66 150.416L121.956 154ZM127.808 154H128.736V142.48H127.808V154ZM144.172 145.648C142.748 145.648 141.66 146.304 141.116 147.44C140.668 146.32 139.628 145.648 138.252 145.648C136.972 145.648 135.98 146.208 135.404 147.184V145.84H134.476V154H135.404V149.04C135.404 147.536 136.444 146.544 137.98 146.544C139.452 146.544 140.428 147.52 140.428 149.008V154H141.356V149.04C141.356 147.536 142.38 146.544 143.916 146.544C145.404 146.544 146.364 147.52 146.364 149.008V154H147.292V148.752C147.292 146.88 146.06 145.648 144.172 145.648ZM157.023 145.648C155.583 145.648 154.463 146.272 153.855 147.376V145.84H152.927V154H153.855V149.36C153.855 147.664 155.023 146.544 156.751 146.544C158.415 146.544 159.519 147.648 159.519 149.328V154H160.447V149.056C160.447 146.992 159.071 145.648 157.023 145.648ZM169.872 154.192C172.32 154.192 174.176 152.352 174.176 149.92C174.176 147.488 172.32 145.648 169.872 145.648C167.408 145.648 165.552 147.488 165.552 149.92C165.552 152.352 167.408 154.192 169.872 154.192ZM169.872 153.296C167.952 153.296 166.512 151.84 166.512 149.92C166.512 148 167.952 146.544 169.872 146.544C171.792 146.544 173.216 148 173.216 149.92C173.216 151.84 171.792 153.296 169.872 153.296ZM183.821 145.648C182.269 145.648 180.973 146.464 180.301 147.728V145.84H179.373V157.04H180.301V152.112C180.973 153.376 182.269 154.192 183.821 154.192C186.205 154.192 187.981 152.352 187.981 149.92C187.981 147.488 186.205 145.648 183.821 145.648ZM183.661 153.296C181.741 153.296 180.301 151.84 180.301 149.92C180.301 148 181.741 146.544 183.661 146.544C185.581 146.544 187.021 148 187.021 149.92C187.021 151.84 185.581 153.296 183.661 153.296ZM200.335 145.84V147.728C199.663 146.464 198.383 145.648 196.815 145.648C194.447 145.648 192.671 147.488 192.671 149.92C192.671 152.352 194.447 154.192 196.815 154.192C198.383 154.192 199.663 153.376 200.335 152.112V157.04H201.263V145.84H200.335ZM196.975 153.296C195.071 153.296 193.631 151.84 193.631 149.92C193.631 148 195.071 146.544 196.975 146.544C198.895 146.544 200.335 148 200.335 149.92C200.335 151.84 198.895 153.296 196.975 153.296ZM210.992 145.712C209.6 145.712 208.512 146.4 207.92 147.552V145.84H206.992V154H207.92V149.792C207.92 147.888 209.12 146.672 210.992 146.672H211.232V145.712H210.992ZM218.519 154.192C220.311 154.192 221.703 153.296 221.703 151.776C221.703 150.176 220.199 149.792 218.839 149.456C217.623 149.168 216.535 148.88 216.535 147.872C216.535 147.024 217.447 146.496 218.583 146.496C219.543 146.496 220.375 146.88 220.919 147.472L221.447 146.784C220.791 146.128 219.799 145.648 218.567 145.648C216.967 145.648 215.575 146.448 215.575 147.936C215.575 149.552 217.111 149.952 218.487 150.304C219.671 150.592 220.743 150.88 220.743 151.872C220.743 152.768 219.783 153.344 218.503 153.344C217.383 153.344 216.439 152.912 215.831 152.224L215.303 152.896C216.023 153.648 217.143 154.192 218.519 154.192ZM231.06 146.688V145.84H228.452V143.568H227.524V145.84H225.94V146.688H227.524V152.048C227.524 153.472 228.308 154.192 229.716 154.192C230.276 154.192 230.66 154.08 231.06 153.872V152.992C230.724 153.168 230.372 153.296 229.892 153.296C228.996 153.296 228.452 152.912 228.452 151.904V146.688H231.06ZM239.675 154.192C241.851 154.192 243.275 152.832 243.275 150.784V145.84H242.347V150.656C242.347 152.24 241.291 153.296 239.675 153.296C238.059 153.296 236.987 152.24 236.987 150.656V145.84H236.059V150.784C236.059 152.832 237.499 154.192 239.675 154.192ZM255.365 145.84L252.213 152.928L249.045 145.84H247.973L251.685 154H252.693L256.405 145.84H255.365ZM272.602 145.84L270.058 152.912L267.482 145.84H266.506L263.93 152.912L261.386 145.84H260.346L263.402 154H264.394L266.986 146.928L269.562 154H270.554L273.61 145.84H272.602ZM285.564 154L282.284 149.904L285.516 145.84H284.38L281.644 149.296L278.892 145.84H277.756L280.988 149.904L277.708 154H278.844L281.628 150.496L284.412 154H285.564ZM296.996 145.84L293.844 152.928L290.676 145.84H289.604L293.3 153.984L292.548 155.536C292.26 156.112 291.86 156.336 291.428 156.336C290.98 156.336 290.548 156.112 290.276 155.776L289.86 156.48C290.276 156.928 290.948 157.232 291.556 157.232C292.308 157.232 293.012 156.768 293.396 155.904L298.036 145.84H296.996ZM303.643 153.104L308.699 146.512V145.84H302.395V146.736H307.387L302.331 153.328V154H308.811V153.104H303.643Z" fill="white"/>
<path d="M2.05682 131V122.273H3.11364V130.062H7.17045V131H2.05682ZM8.67045 131V124.455H9.67614V131H8.67045ZM9.18182 123.364C8.9858 123.364 8.81676 123.297 8.67472 123.163C8.53551 123.03 8.46591 122.869 8.46591 122.682C8.46591 122.494 8.53551 122.334 8.67472 122.2C8.81676 122.067 8.9858 122 9.18182 122C9.37784 122 9.54545 122.067 9.68466 122.2C9.8267 122.334 9.89773 122.494 9.89773 122.682C9.89773 122.869 9.8267 123.03 9.68466 123.163C9.54545 123.297 9.37784 123.364 9.18182 123.364ZM14.1602 133.591C13.6744 133.591 13.2567 133.528 12.9073 133.403C12.5579 133.281 12.2667 133.119 12.0337 132.918C11.8036 132.719 11.6204 132.506 11.484 132.278L12.2852 131.716C12.3761 131.835 12.4911 131.972 12.6303 132.125C12.7695 132.281 12.9599 132.416 13.2013 132.53C13.4457 132.646 13.7653 132.705 14.1602 132.705C14.6886 132.705 15.1246 132.577 15.4684 132.321C15.8121 132.065 15.984 131.665 15.984 131.119V129.79H15.8988C15.8249 129.909 15.7198 130.057 15.5835 130.233C15.4499 130.406 15.2567 130.561 15.0039 130.697C14.7539 130.831 14.4158 130.898 13.9897 130.898C13.4613 130.898 12.9869 130.773 12.5664 130.523C12.1488 130.273 11.8178 129.909 11.5735 129.432C11.332 128.955 11.2113 128.375 11.2113 127.693C11.2113 127.023 11.3292 126.439 11.565 125.942C11.8008 125.442 12.1289 125.055 12.5494 124.783C12.9698 124.507 13.4556 124.369 14.0067 124.369C14.4329 124.369 14.771 124.44 15.021 124.582C15.2738 124.722 15.467 124.881 15.6005 125.06C15.7369 125.236 15.842 125.381 15.9158 125.494H16.0181V124.455H16.9897V131.188C16.9897 131.75 16.8619 132.207 16.6062 132.56C16.3533 132.915 16.0124 133.175 15.5835 133.339C15.1573 133.507 14.6829 133.591 14.1602 133.591ZM14.1261 129.994C14.5295 129.994 14.8704 129.902 15.1488 129.717C15.4272 129.533 15.6388 129.267 15.7837 128.92C15.9286 128.574 16.0011 128.159 16.0011 127.676C16.0011 127.205 15.93 126.788 15.788 126.428C15.646 126.067 15.4357 125.784 15.1573 125.58C14.8789 125.375 14.5352 125.273 14.1261 125.273C13.6999 125.273 13.3448 125.381 13.0607 125.597C12.7795 125.812 12.5678 126.102 12.4258 126.466C12.2866 126.83 12.217 127.233 12.217 127.676C12.217 128.131 12.288 128.533 12.43 128.882C12.5749 129.229 12.788 129.501 13.0692 129.7C13.3533 129.896 13.7056 129.994 14.1261 129.994ZM19.8363 127.062V131H18.8306V122.273H19.8363V125.477H19.9215C20.0749 125.139 20.305 124.871 20.6119 124.672C20.9215 124.47 21.3335 124.369 21.8477 124.369C22.2937 124.369 22.6843 124.459 23.0195 124.638C23.3548 124.814 23.6147 125.085 23.7994 125.452C23.9869 125.815 24.0806 126.278 24.0806 126.841V131H23.0749V126.909C23.0749 126.389 22.94 125.987 22.6701 125.703C22.4031 125.416 22.0323 125.273 21.5579 125.273C21.2283 125.273 20.9329 125.342 20.6715 125.482C20.413 125.621 20.2085 125.824 20.0579 126.091C19.9102 126.358 19.8363 126.682 19.8363 127.062ZM28.767 124.455V125.307H25.375V124.455H28.767ZM26.3636 122.886H27.3693V129.125C27.3693 129.409 27.4105 129.622 27.4929 129.764C27.5781 129.903 27.6861 129.997 27.8168 130.045C27.9503 130.091 28.0909 130.114 28.2386 130.114C28.3494 130.114 28.4403 130.108 28.5114 130.097C28.5824 130.082 28.6392 130.071 28.6818 130.062L28.8864 130.966C28.8182 130.991 28.723 131.017 28.6009 131.043C28.4787 131.071 28.3239 131.085 28.1364 131.085C27.8523 131.085 27.5739 131.024 27.3011 130.902C27.0313 130.78 26.8068 130.594 26.6278 130.344C26.4517 130.094 26.3636 129.778 26.3636 129.398V122.886Z" fill="#A3A5C1"/>
<path d="M9.92 197.84V199.312C9.232 198.288 8.112 197.648 6.752 197.648C4.416 197.648 2.672 199.488 2.672 201.92C2.672 204.352 4.416 206.192 6.752 206.192C8.112 206.192 9.232 205.552 9.92 204.528V206H11.296V197.84H9.92ZM7.008 204.864C5.328 204.864 4.08 203.6 4.08 201.92C4.08 200.24 5.328 198.976 7.008 198.976C8.672 198.976 9.92 200.24 9.92 201.92C9.92 203.6 8.672 204.864 7.008 204.864ZM21.3808 197.648C20.0208 197.648 18.9007 198.288 18.2127 199.312V194.48H16.8367V206H18.2127V204.528C18.9007 205.552 20.0208 206.192 21.3808 206.192C23.7168 206.192 25.4768 204.352 25.4768 201.92C25.4768 199.488 23.7168 197.648 21.3808 197.648ZM21.1248 204.864C19.4608 204.864 18.2127 203.6 18.2127 201.92C18.2127 200.24 19.4608 198.976 21.1248 198.976C22.8047 198.976 24.0528 200.24 24.0528 201.92C24.0528 203.6 22.8047 204.864 21.1248 204.864ZM34.3295 206.192C35.9455 206.192 37.3215 205.392 38.0575 204.144L36.8575 203.424C36.3615 204.288 35.4335 204.864 34.3295 204.864C32.6495 204.864 31.4015 203.6 31.4015 201.92C31.4015 200.24 32.6495 198.976 34.3295 198.976C35.4335 198.976 36.3615 199.552 36.8575 200.416L38.0575 199.696C37.3215 198.448 35.9455 197.648 34.3295 197.648C31.8495 197.648 29.9775 199.488 29.9775 201.92C29.9775 204.352 31.8495 206.192 34.3295 206.192ZM49.5981 194.48V199.312C48.9101 198.288 47.7901 197.648 46.4301 197.648C44.0941 197.648 42.3501 199.488 42.3501 201.92C42.3501 204.352 44.0941 206.192 46.4301 206.192C47.7901 206.192 48.9101 205.552 49.5981 204.528V206H50.9741V194.48H49.5981ZM46.6861 204.864C45.0061 204.864 43.7581 203.6 43.7581 201.92C43.7581 200.24 45.0061 198.976 46.6861 198.976C48.3501 198.976 49.5981 200.24 49.5981 201.92C49.5981 203.6 48.3501 204.864 46.6861 204.864ZM64.5309 201.92C64.5309 199.472 62.7069 197.648 60.2749 197.648C57.8269 197.648 55.9869 199.472 55.9869 201.888C55.9869 204.336 57.8909 206.192 60.4509 206.192C62.0349 206.192 63.3789 205.504 64.1949 204.416L63.2509 203.6C62.7229 204.352 61.6989 204.928 60.4989 204.928C58.9149 204.928 57.7469 203.952 57.4749 202.528H64.4989C64.5149 202.336 64.5309 202.112 64.5309 201.92ZM60.2589 198.912C61.6989 198.912 62.8189 199.872 63.0749 201.28H57.4589C57.7149 199.888 58.8349 198.912 60.2589 198.912ZM72.5794 195.552C73.0274 195.552 73.3634 195.664 73.6994 195.84V194.624C73.2674 194.4 72.8674 194.288 72.2914 194.288C70.7074 194.288 69.8914 195.168 69.8914 196.704V197.84H68.4034V199.088H69.8914V206H71.2674V199.088H73.6194V197.84H71.2674V196.8C71.2674 195.92 71.7474 195.552 72.5794 195.552ZM83.1602 206.208H80.1682C79.4802 206.208 79.0162 205.84 79.0162 205.264C79.0162 204.912 79.2082 204.56 79.5282 204.352C80.0402 204.608 80.6162 204.736 81.2562 204.736C83.3682 204.736 84.9842 203.2 84.9842 201.184C84.9842 200.32 84.6962 199.552 84.1842 198.944C84.2002 198.4 84.6002 198.048 85.1922 198.048H85.7362V196.768H85.1122C84.1202 196.768 83.4162 197.312 83.2562 198.176C82.6802 197.84 82.0082 197.648 81.2562 197.648C79.1282 197.648 77.5282 199.168 77.5282 201.184C77.5282 202.224 77.9602 203.136 78.6482 203.776C78.0242 204.128 77.6402 204.848 77.6402 205.616C77.6402 206.768 78.5522 207.552 79.9122 207.552H82.9202C83.8482 207.552 84.4882 208.032 84.5202 208.768L85.9442 208.4C85.7842 207.04 84.6962 206.208 83.1602 206.208ZM81.2562 198.96C82.5682 198.96 83.5602 199.92 83.5602 201.184C83.5602 202.464 82.5682 203.424 81.2562 203.424C79.9442 203.424 78.9522 202.464 78.9522 201.184C78.9522 199.92 79.9282 198.96 81.2562 198.96ZM94.5286 197.648C93.2486 197.648 92.2246 198.176 91.5846 199.136V194.48H90.2086V206H91.5846V201.424C91.5846 199.952 92.5766 198.976 94.0806 198.976C95.5366 198.976 96.4646 199.936 96.4646 201.392V206H97.8406V200.96C97.8406 198.96 96.5126 197.648 94.5286 197.648ZM103.956 196.208C104.468 196.208 104.868 195.808 104.868 195.296C104.868 194.768 104.468 194.384 103.956 194.384C103.428 194.384 103.028 194.768 103.028 195.296C103.028 195.808 103.428 196.208 103.956 196.208ZM103.268 206H104.644V197.84H103.268V206ZM110.939 196.208C111.467 196.208 111.867 195.808 111.867 195.296C111.867 194.768 111.467 194.384 110.939 194.384C110.427 194.384 110.027 194.768 110.027 195.296C110.027 195.808 110.427 196.208 110.939 196.208ZM109.419 209.232C110.859 209.232 111.627 208.416 111.627 207.008V197.84H110.251V206.864C110.251 207.632 109.835 207.968 109.179 207.968C108.875 207.968 108.619 207.904 108.395 207.792V209.024C108.683 209.152 109.003 209.232 109.419 209.232ZM122.528 206H124.352L120.576 201.696L124.24 197.84H122.448L118.544 201.984V194.48H117.168V206H118.544V203.84L119.6 202.72L122.528 206ZM128.774 206H130.15V194.48H128.774V206ZM145.421 197.648C144.109 197.648 143.069 198.224 142.461 199.248C141.981 198.24 141.005 197.648 139.725 197.648C138.573 197.648 137.645 198.112 137.053 198.944V197.84H135.677V206H137.053V201.152C137.053 199.84 137.949 198.976 139.277 198.976C140.573 198.976 141.405 199.824 141.405 201.12V206H142.781V201.152C142.781 199.84 143.677 198.976 145.005 198.976C146.301 198.976 147.133 199.824 147.133 201.12V206H148.509V200.736C148.509 198.864 147.293 197.648 145.421 197.648ZM158.244 197.648C156.964 197.648 155.94 198.16 155.3 199.088V197.84H153.924V206H155.3V201.424C155.3 199.952 156.292 198.976 157.796 198.976C159.252 198.976 160.18 199.936 160.18 201.392V206H161.556V200.96C161.556 198.96 160.228 197.648 158.244 197.648ZM170.808 206.192C173.272 206.192 175.144 204.352 175.144 201.92C175.144 199.488 173.272 197.648 170.808 197.648C168.328 197.648 166.456 199.488 166.456 201.92C166.456 204.352 168.328 206.192 170.808 206.192ZM170.808 204.864C169.128 204.864 167.88 203.6 167.88 201.92C167.88 200.24 169.128 198.976 170.808 198.976C172.472 198.976 173.72 200.24 173.72 201.92C173.72 203.6 172.472 204.864 170.808 204.864ZM184.696 197.648C183.336 197.648 182.216 198.288 181.528 199.312V197.84H180.152V209.04H181.528V204.528C182.216 205.552 183.336 206.192 184.696 206.192C187.032 206.192 188.792 204.352 188.792 201.92C188.792 199.488 187.032 197.648 184.696 197.648ZM184.44 204.864C182.776 204.864 181.528 203.6 181.528 201.92C181.528 200.24 182.776 198.976 184.44 198.976C186.12 198.976 187.368 200.24 187.368 201.92C187.368 203.6 186.12 204.864 184.44 204.864ZM200.573 197.84V199.312C199.885 198.288 198.765 197.648 197.405 197.648C195.069 197.648 193.325 199.488 193.325 201.92C193.325 204.352 195.069 206.192 197.405 206.192C198.765 206.192 199.885 205.552 200.573 204.528V209.04H201.949V197.84H200.573ZM197.661 204.864C195.981 204.864 194.733 203.6 194.733 201.92C194.733 200.24 195.981 198.976 197.661 198.976C199.325 198.976 200.573 200.24 200.573 201.92C200.573 203.6 199.325 204.864 197.661 204.864ZM211.65 197.712C210.434 197.712 209.474 198.272 208.866 199.248V197.84H207.49V206H208.866V201.92C208.866 200.224 209.922 199.136 211.65 199.136H211.922V197.712H211.65ZM219.206 206.192C221.046 206.192 222.502 205.28 222.502 203.664C222.502 201.968 220.934 201.568 219.59 201.248C218.502 200.992 217.574 200.768 217.574 199.968C217.574 199.264 218.358 198.896 219.302 198.896C220.198 198.896 220.966 199.248 221.51 199.776L222.278 198.768C221.59 198.144 220.582 197.648 219.286 197.648C217.606 197.648 216.166 198.464 216.166 200.048C216.166 201.76 217.75 202.176 219.094 202.512C220.166 202.768 221.078 203.008 221.078 203.792C221.078 204.528 220.262 204.944 219.19 204.944C218.134 204.944 217.27 204.544 216.662 203.92L215.894 204.912C216.646 205.632 217.766 206.192 219.206 206.192ZM231.906 199.088V197.84H229.458V195.648H228.082V197.84H226.61V199.088H228.082V203.824C228.082 205.328 228.898 206.192 230.482 206.192C231.058 206.192 231.49 206.08 231.906 205.856V204.56C231.57 204.736 231.218 204.864 230.77 204.864C229.938 204.864 229.458 204.48 229.458 203.6V199.088H231.906ZM240.439 206.192C242.663 206.192 244.135 204.832 244.135 202.768V197.84H242.759V202.576C242.759 203.952 241.831 204.864 240.439 204.864C239.047 204.864 238.119 203.952 238.119 202.576V197.84H236.743V202.768C236.743 204.832 238.215 206.192 240.439 206.192ZM255.684 197.84L252.932 204.352L250.18 197.84H248.596L252.18 206H253.636L257.22 197.84H255.684ZM272.872 197.84L270.664 204.336L268.408 197.84H267L264.76 204.32L262.552 197.84H261L263.992 206H265.432L267.688 199.472L269.944 206H271.384L274.376 197.84H272.872ZM286.459 206L283.307 201.904L286.411 197.84H284.731L282.363 200.976L279.995 197.84H278.315L281.419 201.904L278.267 206H279.947L282.347 202.816L284.763 206H286.459ZM297.393 197.84L294.641 204.352L291.889 197.84H290.305L293.857 205.952L293.265 207.168C293.009 207.696 292.641 207.904 292.225 207.904C291.809 207.904 291.409 207.696 291.137 207.392L290.561 208.448C291.041 208.928 291.793 209.232 292.433 209.232C293.313 209.232 294.113 208.688 294.529 207.728L298.929 197.84H297.393ZM304.983 204.672L309.543 198.832V197.84H303.127V199.168H307.623L303.063 205.008V206H309.655V204.672H304.983Z" fill="white"/>
<path d="M3.05682 183V174.273H6.00568C6.6875 174.273 7.24716 174.389 7.68466 174.622C8.12216 174.852 8.44602 175.169 8.65625 175.572C8.86648 175.976 8.97159 176.435 8.97159 176.949C8.97159 177.463 8.86648 177.919 8.65625 178.317C8.44602 178.714 8.12358 179.027 7.68892 179.254C7.25426 179.479 6.69886 179.591 6.02273 179.591H3.63636V178.636H5.98864C6.45455 178.636 6.82955 178.568 7.11364 178.432C7.40057 178.295 7.60795 178.102 7.7358 177.852C7.86648 177.599 7.93182 177.298 7.93182 176.949C7.93182 176.599 7.86648 176.294 7.7358 176.033C7.60511 175.771 7.39631 175.57 7.10938 175.428C6.82244 175.283 6.44318 175.21 5.97159 175.21H4.11364V183H3.05682ZM7.16477 179.08L9.3125 183H8.08523L5.97159 179.08H7.16477ZM13.2702 183.136C12.6396 183.136 12.0955 182.997 11.6381 182.719C11.1836 182.438 10.8327 182.045 10.5856 181.543C10.3413 181.037 10.2191 180.449 10.2191 179.778C10.2191 179.108 10.3413 178.517 10.5856 178.006C10.8327 177.491 11.1765 177.091 11.6168 176.804C12.06 176.514 12.5771 176.369 13.168 176.369C13.5089 176.369 13.8455 176.426 14.1779 176.54C14.5103 176.653 14.8129 176.838 15.0856 177.094C15.3583 177.347 15.5756 177.682 15.7376 178.099C15.8995 178.517 15.9805 179.031 15.9805 179.642V180.068H10.935V179.199H14.9577C14.9577 178.83 14.8839 178.5 14.7362 178.21C14.5913 177.92 14.3839 177.692 14.114 177.524C13.8469 177.357 13.5316 177.273 13.168 177.273C12.7674 177.273 12.4208 177.372 12.1282 177.571C11.8384 177.767 11.6154 178.023 11.4592 178.338C11.3029 178.653 11.2248 178.991 11.2248 179.352V179.932C11.2248 180.426 11.31 180.845 11.4805 181.189C11.6538 181.53 11.8938 181.79 12.2006 181.969C12.5075 182.145 12.864 182.233 13.2702 182.233C13.5344 182.233 13.7731 182.196 13.9862 182.122C14.2021 182.045 14.3881 181.932 14.5444 181.781C14.7006 181.628 14.8214 181.437 14.9066 181.21L15.8782 181.483C15.7759 181.812 15.604 182.102 15.3626 182.352C15.1211 182.599 14.8228 182.793 14.4677 182.932C14.1126 183.068 13.7134 183.136 13.2702 183.136ZM20.1523 185.591C19.6665 185.591 19.2489 185.528 18.8995 185.403C18.5501 185.281 18.2589 185.119 18.0259 184.918C17.7958 184.719 17.6126 184.506 17.4762 184.278L18.2773 183.716C18.3683 183.835 18.4833 183.972 18.6225 184.125C18.7617 184.281 18.9521 184.416 19.1935 184.53C19.4379 184.646 19.7575 184.705 20.1523 184.705C20.6808 184.705 21.1168 184.577 21.4606 184.321C21.8043 184.065 21.9762 183.665 21.9762 183.119V181.79H21.891C21.8171 181.909 21.712 182.057 21.5756 182.233C21.4421 182.406 21.2489 182.561 20.9961 182.697C20.7461 182.831 20.408 182.898 19.9819 182.898C19.4535 182.898 18.979 182.773 18.5586 182.523C18.141 182.273 17.81 181.909 17.5657 181.432C17.3242 180.955 17.2035 180.375 17.2035 179.693C17.2035 179.023 17.3214 178.439 17.5572 177.942C17.793 177.442 18.1211 177.055 18.5415 176.783C18.962 176.507 19.4478 176.369 19.9989 176.369C20.4251 176.369 20.7631 176.44 21.0131 176.582C21.266 176.722 21.4592 176.881 21.5927 177.06C21.729 177.236 21.8342 177.381 21.908 177.494H22.0103V176.455H22.9819V183.188C22.9819 183.75 22.854 184.207 22.5984 184.56C22.3455 184.915 22.0046 185.175 21.5756 185.339C21.1495 185.507 20.6751 185.591 20.1523 185.591ZM20.1183 181.994C20.5217 181.994 20.8626 181.902 21.141 181.717C21.4194 181.533 21.631 181.267 21.7759 180.92C21.9208 180.574 21.9933 180.159 21.9933 179.676C21.9933 179.205 21.9222 178.788 21.7802 178.428C21.6381 178.067 21.4279 177.784 21.1495 177.58C20.8711 177.375 20.5273 177.273 20.1183 177.273C19.6921 177.273 19.337 177.381 19.0529 177.597C18.7717 177.812 18.56 178.102 18.418 178.466C18.2788 178.83 18.2092 179.233 18.2092 179.676C18.2092 180.131 18.2802 180.533 18.4222 180.882C18.5671 181.229 18.7802 181.501 19.0614 181.7C19.3455 181.896 19.6978 181.994 20.1183 181.994ZM28.9478 180.324V176.455H29.9535V183H28.9478V181.892H28.8796C28.7262 182.224 28.4876 182.507 28.1637 182.74C27.8398 182.97 27.4308 183.085 26.9364 183.085C26.5273 183.085 26.1637 182.996 25.8455 182.817C25.5273 182.635 25.2773 182.362 25.0955 181.999C24.9137 181.632 24.8228 181.17 24.8228 180.614V176.455H25.8285V180.545C25.8285 181.023 25.962 181.403 26.229 181.688C26.4989 181.972 26.8427 182.114 27.2603 182.114C27.5103 182.114 27.7646 182.05 28.0231 181.922C28.2844 181.794 28.5032 181.598 28.6793 181.334C28.8583 181.07 28.9478 180.733 28.9478 180.324ZM32.8011 174.273V183H31.7955V174.273H32.8011ZM36.5692 183.153C36.1545 183.153 35.7781 183.075 35.44 182.919C35.1019 182.76 34.8335 182.531 34.6346 182.233C34.4357 181.932 34.3363 181.568 34.3363 181.142C34.3363 180.767 34.4102 180.463 34.5579 180.23C34.7056 179.994 34.9031 179.81 35.1502 179.676C35.3974 179.543 35.6701 179.443 35.9684 179.378C36.2695 179.31 36.5721 179.256 36.8761 179.216C37.2738 179.165 37.5962 179.126 37.8434 179.101C38.0934 179.072 38.2752 179.026 38.3888 178.96C38.5053 178.895 38.5636 178.781 38.5636 178.619V178.585C38.5636 178.165 38.4485 177.838 38.2184 177.605C37.9911 177.372 37.646 177.256 37.1829 177.256C36.7028 177.256 36.3263 177.361 36.0536 177.571C35.7809 177.781 35.5891 178.006 35.4783 178.244L34.5238 177.903C34.6942 177.506 34.9215 177.196 35.2056 176.974C35.4925 176.75 35.805 176.594 36.1431 176.506C36.484 176.415 36.8192 176.369 37.1488 176.369C37.359 176.369 37.6005 176.395 37.8732 176.446C38.1488 176.494 38.4144 176.595 38.6701 176.749C38.9286 176.902 39.1431 177.134 39.3136 177.443C39.484 177.753 39.5692 178.168 39.5692 178.688V183H38.5636V182.114H38.5124C38.4442 182.256 38.3306 182.408 38.1715 182.57C38.0124 182.732 37.8008 182.869 37.5366 182.983C37.2724 183.097 36.9499 183.153 36.5692 183.153ZM36.7227 182.25C37.1204 182.25 37.4556 182.172 37.7283 182.016C38.0039 181.859 38.2113 181.658 38.3505 181.411C38.4925 181.163 38.5636 180.903 38.5636 180.631V179.71C38.521 179.761 38.4272 179.808 38.2823 179.851C38.1403 179.891 37.9755 179.926 37.788 179.957C37.6033 179.986 37.4229 180.011 37.2468 180.034C37.0735 180.054 36.9329 180.071 36.8249 180.085C36.5636 180.119 36.3192 180.175 36.092 180.251C35.8675 180.325 35.6857 180.437 35.5465 180.588C35.4102 180.736 35.342 180.937 35.342 181.193C35.342 181.543 35.4712 181.807 35.7298 181.986C35.9911 182.162 36.3221 182.25 36.7227 182.25ZM41.4048 183V176.455H42.3764V177.443H42.4446C42.5639 177.119 42.7798 176.857 43.0923 176.655C43.4048 176.453 43.7571 176.352 44.1491 176.352C44.223 176.352 44.3153 176.354 44.4261 176.357C44.5369 176.359 44.6207 176.364 44.6776 176.369V177.392C44.6435 177.384 44.5653 177.371 44.4432 177.354C44.3239 177.334 44.1974 177.324 44.0639 177.324C43.7457 177.324 43.4616 177.391 43.2116 177.524C42.9645 177.655 42.7685 177.837 42.6236 178.07C42.4815 178.3 42.4105 178.562 42.4105 178.858V183H41.4048Z" fill="#A3A5C1"/>
<path d="M8.88 249.84V250.656C8.256 250.016 7.408 249.648 6.416 249.648C4.176 249.648 2.48 251.488 2.48 253.92C2.48 256.352 4.176 258.192 6.416 258.192C7.408 258.192 8.256 257.824 8.88 257.184V258H11.216V249.84H8.88ZM6.88 255.936C5.744 255.936 4.896 255.072 4.896 253.92C4.896 252.768 5.744 251.904 6.88 251.904C8.032 251.904 8.88 252.768 8.88 253.92C8.88 255.072 8.032 255.936 6.88 255.936ZM21.0686 249.648C20.0766 249.648 19.2286 250.016 18.6046 250.656V246.48H16.2686V258H18.6046V257.184C19.2286 257.824 20.0766 258.192 21.0686 258.192C23.3246 258.192 25.0046 256.352 25.0046 253.92C25.0046 251.488 23.3246 249.648 21.0686 249.648ZM20.6046 255.936C19.4526 255.936 18.6046 255.072 18.6046 253.92C18.6046 252.768 19.4526 251.904 20.6046 251.904C21.7566 251.904 22.6046 252.768 22.6046 253.92C22.6046 255.072 21.7566 255.936 20.6046 255.936ZM33.5292 258.192C35.1772 258.192 36.5532 257.408 37.3053 256.16L35.2733 254.928C34.9373 255.536 34.2972 255.936 33.5292 255.936C32.3772 255.936 31.5292 255.072 31.5292 253.92C31.5292 252.768 32.3772 251.904 33.5292 251.904C34.2972 251.904 34.9373 252.304 35.2733 252.912L37.3053 251.68C36.5532 250.432 35.1772 249.648 33.5292 249.648C31.0172 249.648 29.1292 251.488 29.1292 253.92C29.1292 256.352 31.0172 258.192 33.5292 258.192ZM47.4487 246.48V250.656C46.8247 250.016 45.9767 249.648 44.9847 249.648C42.7447 249.648 41.0487 251.488 41.0487 253.92C41.0487 256.352 42.7447 258.192 44.9847 258.192C45.9767 258.192 46.8247 257.824 47.4487 257.184V258H49.7847V246.48H47.4487ZM45.4487 255.936C44.3127 255.936 43.4647 255.072 43.4647 253.92C43.4647 252.768 44.3127 251.904 45.4487 251.904C46.6007 251.904 47.4487 252.768 47.4487 253.92C47.4487 255.072 46.6007 255.936 45.4487 255.936ZM62.9974 253.952C62.9974 251.472 61.1574 249.648 58.7094 249.648C56.2294 249.648 54.3574 251.472 54.3574 253.872C54.3574 256.336 56.3094 258.192 58.9014 258.192C60.4054 258.192 61.7174 257.584 62.5814 256.608L61.0134 255.248C60.6294 255.728 59.8934 256.16 58.9654 256.16C57.9414 256.16 57.1574 255.6 56.8694 254.688H62.9494C62.9814 254.48 62.9974 254.176 62.9974 253.952ZM58.6774 251.664C59.5574 251.664 60.2614 252.224 60.5174 253.136H56.8534C57.0934 252.24 57.7974 251.664 58.6774 251.664ZM71.415 248.416C71.799 248.416 72.135 248.512 72.439 248.704V246.64C71.975 246.4 71.495 246.288 70.887 246.288C68.887 246.288 68.007 247.504 68.007 249.232V249.84H66.775V251.968H68.007V258H70.343V251.968H72.279V249.84H70.343V249.392C70.343 248.768 70.695 248.416 71.415 248.416ZM81.6874 257.92H79.1434C78.7114 257.92 78.4074 257.68 78.4074 257.312C78.4074 257.072 78.5354 256.848 78.7754 256.688C79.1594 256.8 79.5594 256.848 79.9754 256.848C82.1834 256.848 83.8474 255.312 83.8474 253.248C83.8474 252.464 83.6074 251.776 83.2074 251.2C83.2874 250.896 83.5914 250.704 83.9754 250.704H84.5514V248.544H83.8634C82.7434 248.544 81.9274 249.104 81.6874 249.984C81.1754 249.776 80.5994 249.648 79.9754 249.648C77.7674 249.648 76.1194 251.184 76.1194 253.248C76.1194 254.256 76.5194 255.152 77.1914 255.792C76.5034 256.208 76.0714 257.04 76.0714 257.904C76.0714 259.264 77.1114 260.176 78.6954 260.176H81.2394C81.8954 260.176 82.3434 260.528 82.4074 261.056L84.8074 260.4C84.5034 258.832 83.3354 257.92 81.6874 257.92ZM79.9754 251.856C80.8074 251.856 81.4474 252.448 81.4474 253.248C81.4474 254.048 80.8074 254.64 79.9754 254.64C79.1434 254.64 78.5194 254.048 78.5194 253.248C78.5194 252.448 79.1274 251.856 79.9754 251.856ZM93.5503 249.648C92.5423 249.648 91.7103 250.016 91.0703 250.704V246.48H88.7343V258H91.0703V253.568C91.0703 252.56 91.7583 251.904 92.7663 251.904C93.7103 251.904 94.3343 252.544 94.3343 253.536V258H96.6703V252.752C96.6703 250.88 95.4223 249.648 93.5503 249.648ZM102.743 248.8C103.575 248.8 104.199 248.192 104.199 247.36C104.199 246.544 103.575 245.936 102.743 245.936C101.927 245.936 101.303 246.544 101.303 247.36C101.303 248.192 101.927 248.8 102.743 248.8ZM101.575 258H103.911V249.84H101.575V258ZM110.21 248.8C111.026 248.8 111.65 248.192 111.65 247.36C111.65 246.544 111.026 245.936 110.21 245.936C109.378 245.936 108.754 246.544 108.754 247.36C108.754 248.192 109.378 248.8 110.21 248.8ZM108.674 261.232C110.53 261.232 111.378 260.144 111.378 258.592V249.84H109.042V258.32C109.042 258.832 108.77 259.104 108.242 259.104C108.002 259.104 107.762 259.04 107.522 258.944V261.04C107.858 261.168 108.226 261.232 108.674 261.232ZM121.516 258H124.588L121.02 253.6L124.476 249.84H121.452L118.764 252.88V246.48H116.428V258H118.764V256.032L119.372 255.376L121.516 258ZM128.534 258H130.87V246.48H128.534V258ZM145.794 249.648C144.658 249.648 143.73 250.08 143.074 250.912C142.562 250.112 141.682 249.648 140.578 249.648C139.634 249.648 138.85 249.984 138.258 250.624V249.84H135.922V258H138.258V253.408C138.258 252.512 138.882 251.904 139.778 251.904C140.642 251.904 141.202 252.496 141.202 253.376V258H143.538V253.408C143.538 252.512 144.162 251.904 145.058 251.904C145.922 251.904 146.482 252.496 146.482 253.376V258H148.818V252.672C148.818 250.848 147.634 249.648 145.794 249.648ZM158.547 249.648C157.539 249.648 156.707 250 156.067 250.656V249.84H153.731V258H156.067V253.568C156.067 252.56 156.755 251.904 157.747 251.904C158.707 251.904 159.331 252.544 159.331 253.536V258H161.667V252.752C161.667 250.88 160.419 249.648 158.547 249.648ZM170.492 258.192C173.004 258.192 174.892 256.352 174.892 253.92C174.892 251.488 173.004 249.648 170.492 249.648C167.98 249.648 166.092 251.488 166.092 253.92C166.092 256.352 167.98 258.192 170.492 258.192ZM170.492 255.936C169.34 255.936 168.492 255.072 168.492 253.92C168.492 252.768 169.34 251.904 170.492 251.904C171.644 251.904 172.492 252.768 172.492 253.92C172.492 255.072 171.644 255.936 170.492 255.936ZM184.275 249.648C183.283 249.648 182.435 250.016 181.811 250.656V249.84H179.475V261.04H181.811V257.184C182.435 257.824 183.283 258.192 184.275 258.192C186.531 258.192 188.211 256.352 188.211 253.92C188.211 251.488 186.531 249.648 184.275 249.648ZM183.811 255.936C182.659 255.936 181.811 255.072 181.811 253.92C181.811 252.768 182.659 251.904 183.811 251.904C184.963 251.904 185.811 252.768 185.811 253.92C185.811 255.072 184.963 255.936 183.811 255.936ZM198.767 249.84V250.656C198.143 250.016 197.295 249.648 196.303 249.648C194.063 249.648 192.367 251.488 192.367 253.92C192.367 256.352 194.063 258.192 196.303 258.192C197.295 258.192 198.143 257.824 198.767 257.184V261.04H201.103V249.84H198.767ZM196.767 255.936C195.631 255.936 194.783 255.072 194.783 253.92C194.783 252.768 195.631 251.904 196.767 251.904C197.919 251.904 198.767 252.768 198.767 253.92C198.767 255.072 197.919 255.936 196.767 255.936ZM210.7 249.712C209.82 249.712 209.068 250.096 208.492 250.768V249.84H206.156V258H208.492V254.192C208.492 252.928 209.276 252.112 210.7 252.112H211.052V249.712H210.7ZM218.283 258.192C220.267 258.192 221.835 257.248 221.835 255.456C221.835 253.552 220.107 253.152 218.827 252.88C217.995 252.704 217.371 252.56 217.371 252.096C217.371 251.68 217.883 251.504 218.507 251.504C219.307 251.504 219.979 251.808 220.587 252.224L221.675 250.72C220.907 250.16 219.867 249.648 218.427 249.648C216.571 249.648 215.035 250.512 215.035 252.272C215.035 254.192 216.747 254.576 218.043 254.864C218.875 255.056 219.499 255.216 219.499 255.68C219.499 256.112 218.971 256.336 218.203 256.336C217.259 256.336 216.491 255.984 215.867 255.456L214.779 256.96C215.579 257.616 216.731 258.192 218.283 258.192ZM231.333 251.968V249.84H229.237V247.824H226.901V249.84H225.669V251.968H226.901V255.344C226.901 257.024 227.781 258.192 229.765 258.192C230.389 258.192 230.853 258.08 231.333 257.84V255.648C231.029 255.808 230.677 255.936 230.261 255.936C229.573 255.936 229.237 255.584 229.237 254.96V251.968H231.333ZM239.687 258.192C242.023 258.192 243.543 256.816 243.543 254.736V249.84H241.207V254.416C241.207 255.328 240.599 255.936 239.687 255.936C238.775 255.936 238.167 255.328 238.167 254.416V249.84H235.831V254.736C235.831 256.816 237.367 258.192 239.687 258.192ZM253.992 249.84L252.12 255.04L250.232 249.84H247.56L250.888 258H253.288L256.6 249.84H253.992ZM271.114 249.84L269.61 254.976L268.074 249.84H265.706L264.17 254.96L262.666 249.84H260.058L262.922 258H265.322L266.858 252.736L268.394 258H270.794L273.658 249.84H271.114ZM286.044 258L283.18 253.904L285.996 249.84H283.196L281.628 252.256L280.06 249.84H277.228L280.044 253.904L277.18 258H279.98L281.596 255.536L283.212 258H286.044ZM295.935 249.84L294.063 255.024L292.175 249.84H289.503L292.767 257.856L292.527 258.368C292.319 258.8 291.999 258.976 291.647 258.976C291.295 258.976 290.927 258.816 290.687 258.576L289.791 260.4C290.367 260.912 291.263 261.232 292.031 261.232C293.167 261.232 294.191 260.496 294.655 259.312L298.543 249.84H295.935ZM305.637 255.744L309.045 251.536V249.84H302.405V252.096H305.749L302.341 256.304V258H309.157V255.744H305.637Z" fill="white"/>
<path d="M3.05682 235V226.273H6.10795C6.71591 226.273 7.21733 226.378 7.61222 226.588C8.0071 226.795 8.30114 227.075 8.49432 227.428C8.6875 227.777 8.78409 228.165 8.78409 228.591C8.78409 228.966 8.71733 229.276 8.58381 229.52C8.45313 229.764 8.27983 229.957 8.06392 230.099C7.85085 230.241 7.61932 230.347 7.36932 230.415V230.5C7.63636 230.517 7.90483 230.611 8.17472 230.781C8.4446 230.952 8.67045 231.196 8.85227 231.514C9.03409 231.832 9.125 232.222 9.125 232.682C9.125 233.119 9.02557 233.513 8.8267 233.862C8.62784 234.212 8.31392 234.489 7.88494 234.693C7.45597 234.898 6.89773 235 6.21023 235H3.05682ZM4.11364 234.062H6.21023C6.90057 234.062 7.39063 233.929 7.6804 233.662C7.97301 233.392 8.11932 233.065 8.11932 232.682C8.11932 232.386 8.04403 232.114 7.89347 231.864C7.7429 231.611 7.52841 231.409 7.25 231.259C6.97159 231.105 6.64205 231.028 6.26136 231.028H4.11364V234.062ZM4.11364 230.108H6.07386C6.39205 230.108 6.67898 230.045 6.93466 229.92C7.19318 229.795 7.39773 229.619 7.5483 229.392C7.7017 229.165 7.77841 228.898 7.77841 228.591C7.77841 228.207 7.64489 227.882 7.37784 227.615C7.1108 227.345 6.6875 227.21 6.10795 227.21H4.11364V230.108ZM13.3842 235.136C12.7933 235.136 12.2749 234.996 11.8288 234.714C11.3857 234.433 11.0391 234.04 10.7891 233.534C10.5419 233.028 10.4183 232.437 10.4183 231.761C10.4183 231.08 10.5419 230.484 10.7891 229.976C11.0391 229.467 11.3857 229.072 11.8288 228.791C12.2749 228.51 12.7933 228.369 13.3842 228.369C13.9751 228.369 14.4922 228.51 14.9354 228.791C15.3814 229.072 15.728 229.467 15.9751 229.976C16.2251 230.484 16.3501 231.08 16.3501 231.761C16.3501 232.437 16.2251 233.028 15.9751 233.534C15.728 234.04 15.3814 234.433 14.9354 234.714C14.4922 234.996 13.9751 235.136 13.3842 235.136ZM13.3842 234.233C13.8331 234.233 14.2024 234.118 14.4922 233.888C14.782 233.658 14.9964 233.355 15.1357 232.98C15.2749 232.605 15.3445 232.199 15.3445 231.761C15.3445 231.324 15.2749 230.916 15.1357 230.538C14.9964 230.161 14.782 229.855 14.4922 229.622C14.2024 229.389 13.8331 229.273 13.3842 229.273C12.9354 229.273 12.5661 229.389 12.2763 229.622C11.9865 229.855 11.772 230.161 11.6328 230.538C11.4936 230.916 11.424 231.324 11.424 231.761C11.424 232.199 11.4936 232.605 11.6328 232.98C11.772 233.355 11.9865 233.658 12.2763 233.888C12.5661 234.118 12.9354 234.233 13.3842 234.233ZM18.891 226.273V235H17.8853V226.273H18.891ZM23.2045 235.136C22.6591 235.136 22.1776 234.999 21.7599 234.723C21.3423 234.445 21.0156 234.053 20.7798 233.547C20.544 233.038 20.4261 232.438 20.4261 231.744C20.4261 231.057 20.544 230.46 20.7798 229.955C21.0156 229.449 21.3438 229.058 21.7642 228.783C22.1847 228.507 22.6705 228.369 23.2216 228.369C23.6477 228.369 23.9844 228.44 24.2315 228.582C24.4815 228.722 24.6719 228.881 24.8026 229.06C24.9361 229.236 25.0398 229.381 25.1136 229.494H25.1989V226.273H26.2045V235H25.233V233.994H25.1136C25.0398 234.114 24.9347 234.264 24.7983 234.446C24.6619 234.625 24.4673 234.786 24.2145 234.928C23.9616 235.067 23.625 235.136 23.2045 235.136ZM23.3409 234.233C23.7443 234.233 24.0852 234.128 24.3636 233.918C24.642 233.705 24.8537 233.411 24.9986 233.036C25.1435 232.658 25.2159 232.222 25.2159 231.727C25.2159 231.239 25.1449 230.811 25.0028 230.445C24.8608 230.075 24.6506 229.788 24.3722 229.584C24.0938 229.376 23.75 229.273 23.3409 229.273C22.9148 229.273 22.5597 229.382 22.2756 229.601C21.9943 229.817 21.7827 230.111 21.6406 230.483C21.5014 230.852 21.4318 231.267 21.4318 231.727C21.4318 232.193 21.5028 232.616 21.6449 232.997C21.7898 233.375 22.0028 233.676 22.2841 233.901C22.5682 234.122 22.9205 234.233 23.3409 234.233Z" fill="#A3A5C1"/>
</svg>
