<svg width="319" height="265" viewBox="0 0 319 265" fill="none" xmlns="http://www.w3.org/2000/svg">
<path d="M7.77273 154.199C7.24621 154.199 6.76515 154.097 6.32955 153.892C5.89394 153.684 5.54735 153.384 5.28977 152.994C5.0322 152.6 4.90341 152.123 4.90341 151.562C4.90341 151.131 4.98485 150.767 5.14773 150.472C5.31061 150.176 5.54167 149.934 5.84091 149.744C6.14015 149.555 6.49432 149.405 6.90341 149.295C7.3125 149.186 7.76326 149.1 8.25568 149.04C8.74432 148.979 9.1572 148.926 9.49432 148.881C9.83523 148.835 10.0947 148.763 10.2727 148.665C10.4508 148.566 10.5398 148.407 10.5398 148.188V147.983C10.5398 147.388 10.3617 146.92 10.0057 146.58C9.65341 146.235 9.14583 146.062 8.48295 146.062C7.85417 146.062 7.34091 146.201 6.94318 146.477C6.54924 146.754 6.27273 147.08 6.11364 147.455L5.15341 147.108C5.35038 146.631 5.62311 146.25 5.97159 145.966C6.32008 145.678 6.71023 145.472 7.14205 145.347C7.57386 145.218 8.01136 145.153 8.45455 145.153C8.78788 145.153 9.13447 145.197 9.49432 145.284C9.85795 145.371 10.1951 145.523 10.5057 145.739C10.8163 145.951 11.0682 146.248 11.2614 146.631C11.4545 147.009 11.5511 147.491 11.5511 148.074V154H10.5398V152.619H10.4773C10.3561 152.877 10.1761 153.127 9.9375 153.369C9.69886 153.612 9.39962 153.811 9.03977 153.966C8.67992 154.121 8.25758 154.199 7.77273 154.199ZM7.90909 153.273C8.44697 153.273 8.91288 153.153 9.30682 152.915C9.70076 152.676 10.0038 152.36 10.2159 151.966C10.4318 151.568 10.5398 151.131 10.5398 150.653V149.392C10.464 149.464 10.3371 149.528 10.1591 149.585C9.98485 149.642 9.7822 149.693 9.55114 149.739C9.32386 149.78 9.09659 149.816 8.86932 149.847C8.64205 149.877 8.4375 149.903 8.25568 149.926C7.76326 149.987 7.3428 150.081 6.99432 150.21C6.64583 150.339 6.37879 150.517 6.19318 150.744C6.00758 150.968 5.91477 151.256 5.91477 151.608C5.91477 152.138 6.10417 152.549 6.48295 152.841C6.86174 153.129 7.33712 153.273 7.90909 153.273ZM17.6517 154V142.364H18.6687V146.938H18.7597C18.8733 146.676 19.0362 146.407 19.2483 146.131C19.4642 145.854 19.7464 145.623 20.0949 145.438C20.4472 145.248 20.8903 145.153 21.4244 145.153C22.1403 145.153 22.7691 145.343 23.3108 145.722C23.8525 146.097 24.2748 146.623 24.5778 147.301C24.8809 147.975 25.0324 148.761 25.0324 149.659C25.0324 150.561 24.8809 151.35 24.5778 152.028C24.2786 152.706 23.8581 153.235 23.3165 153.614C22.7786 153.992 22.1536 154.182 21.4415 154.182C20.9112 154.182 20.468 154.087 20.1119 153.898C19.7597 153.708 19.4756 153.475 19.2597 153.199C19.0437 152.919 18.8771 152.646 18.7597 152.381H18.6347V154H17.6517ZM18.6517 149.642C18.6517 150.347 18.7559 150.972 18.9642 151.517C19.1763 152.059 19.4794 152.485 19.8733 152.795C20.271 153.102 20.7521 153.256 21.3165 153.256C21.896 153.256 22.3866 153.097 22.7881 152.778C23.1896 152.456 23.4945 152.023 23.7028 151.477C23.9112 150.932 24.0153 150.32 24.0153 149.642C24.0153 148.972 23.9112 148.367 23.7028 147.83C23.4983 147.292 23.1953 146.866 22.7937 146.551C22.3922 146.233 21.8998 146.074 21.3165 146.074C20.7483 146.074 20.2653 146.227 19.8676 146.534C19.4737 146.837 19.1725 147.258 18.9642 147.795C18.7559 148.33 18.6517 148.945 18.6517 149.642ZM33.8631 154.182C33.0828 154.182 32.4028 153.987 31.8233 153.597C31.2475 153.206 30.8006 152.672 30.4824 151.994C30.1642 151.316 30.0051 150.544 30.0051 149.676C30.0051 148.801 30.1661 148.023 30.4881 147.341C30.8138 146.659 31.2646 146.125 31.8403 145.739C32.4161 145.348 33.0847 145.153 33.846 145.153C34.4294 145.153 34.9578 145.267 35.4312 145.494C35.9047 145.718 36.2949 146.034 36.6017 146.443C36.9123 146.848 37.1074 147.322 37.1869 147.864H36.1642C36.0581 147.371 35.8025 146.951 35.3972 146.602C34.9956 146.25 34.4843 146.074 33.8631 146.074C33.3062 146.074 32.8138 146.225 32.3858 146.528C31.9578 146.828 31.6225 147.246 31.3801 147.784C31.1415 148.318 31.0222 148.937 31.0222 149.642C31.0222 150.35 31.1396 150.977 31.3744 151.523C31.6093 152.064 31.9388 152.489 32.3631 152.795C32.7911 153.102 33.2911 153.256 33.8631 153.256C34.2494 153.256 34.6017 153.184 34.9199 153.04C35.2419 152.892 35.5108 152.684 35.7267 152.415C35.9464 152.146 36.0941 151.826 36.1699 151.455H37.1926C37.1169 151.981 36.9294 152.451 36.6301 152.864C36.3347 153.273 35.9502 153.595 35.4767 153.83C35.007 154.064 34.4691 154.182 33.8631 154.182ZM45.7023 154.182C44.9864 154.182 44.3595 153.992 43.8216 153.614C43.2837 153.235 42.8633 152.706 42.5602 152.028C42.261 151.35 42.1114 150.561 42.1114 149.659C42.1114 148.761 42.261 147.975 42.5602 147.301C42.8633 146.623 43.2856 146.097 43.8273 145.722C44.3689 145.343 44.9996 145.153 45.7193 145.153C46.2496 145.153 46.6909 145.248 47.0432 145.438C47.3955 145.623 47.6777 145.854 47.8898 146.131C48.1019 146.407 48.2667 146.676 48.3841 146.938H48.475V142.364H49.492V154H48.5034V152.381H48.3841C48.2667 152.646 48.1 152.919 47.8841 153.199C47.6682 153.475 47.3822 153.708 47.0261 153.898C46.6739 154.087 46.2326 154.182 45.7023 154.182ZM45.8216 153.256C46.386 153.256 46.867 153.102 47.2648 152.795C47.6625 152.485 47.9655 152.059 48.1739 151.517C48.386 150.972 48.492 150.347 48.492 149.642C48.492 148.945 48.3879 148.33 48.1795 147.795C47.9712 147.258 47.6682 146.837 47.2705 146.534C46.8727 146.227 46.3898 146.074 45.8216 146.074C45.2383 146.074 44.7458 146.233 44.3443 146.551C43.9466 146.866 43.6436 147.292 43.4352 147.83C43.2307 148.367 43.1284 148.972 43.1284 149.642C43.1284 150.32 43.2326 150.932 43.4409 151.477C43.6492 152.023 43.9523 152.456 44.35 152.778C44.7515 153.097 45.242 153.256 45.8216 153.256ZM59.1011 154.182C58.2867 154.182 57.5822 153.992 56.9875 153.614C56.3928 153.231 55.9326 152.703 55.6068 152.028C55.2848 151.35 55.1239 150.57 55.1239 149.688C55.1239 148.809 55.2848 148.028 55.6068 147.347C55.9326 146.661 56.3814 146.125 56.9534 145.739C57.5292 145.348 58.1939 145.153 58.9477 145.153C59.4212 145.153 59.8777 145.241 60.317 145.415C60.7564 145.585 61.1504 145.848 61.4989 146.205C61.8511 146.557 62.1295 147.002 62.3341 147.54C62.5386 148.074 62.6409 148.706 62.6409 149.438V149.938H55.8227V149.045H61.6068C61.6068 148.485 61.4932 147.981 61.2659 147.534C61.0424 147.083 60.7299 146.727 60.3284 146.466C59.9307 146.205 59.4705 146.074 58.9477 146.074C58.3947 146.074 57.908 146.222 57.4875 146.517C57.067 146.812 56.7375 147.203 56.4989 147.688C56.264 148.172 56.1447 148.703 56.1409 149.278V149.812C56.1409 150.506 56.2602 151.112 56.4989 151.631C56.7413 152.146 57.0841 152.545 57.5273 152.83C57.9705 153.114 58.4951 153.256 59.1011 153.256C59.514 153.256 59.8758 153.191 60.1864 153.062C60.5008 152.934 60.764 152.761 60.9761 152.545C61.192 152.326 61.3549 152.085 61.4648 151.824L62.425 152.136C62.2924 152.504 62.0746 152.843 61.7716 153.153C61.4723 153.464 61.0973 153.714 60.6466 153.903C60.1996 154.089 59.6845 154.182 59.1011 154.182ZM71.6605 145.273V146.153H67.3707V145.273H71.6605ZM68.7116 154V143.994C68.7116 143.525 68.8196 143.129 69.0355 142.807C69.2552 142.485 69.5412 142.241 69.8935 142.074C70.2457 141.907 70.6188 141.824 71.0128 141.824C71.2779 141.824 71.4976 141.847 71.6719 141.892C71.8499 141.934 71.9901 141.975 72.0923 142.017L71.7969 142.903C71.7211 142.881 71.6283 142.854 71.5185 142.824C71.4086 142.794 71.2704 142.778 71.1037 142.778C70.6643 142.778 70.3253 142.902 70.0866 143.148C69.848 143.394 69.7287 143.746 69.7287 144.205L69.723 154H68.7116ZM79.8491 157.455C79.2544 157.455 78.7336 157.377 78.2866 157.222C77.8397 157.07 77.4628 156.862 77.156 156.597C76.8491 156.331 76.6105 156.034 76.4401 155.705L77.2696 155.159C77.3946 155.379 77.5613 155.595 77.7696 155.807C77.9817 156.019 78.2563 156.195 78.5935 156.335C78.9344 156.475 79.3529 156.545 79.8491 156.545C80.6219 156.545 81.245 156.352 81.7185 155.966C82.1957 155.58 82.4344 154.979 82.4344 154.165V152.199H82.3435C82.226 152.464 82.0575 152.729 81.8378 152.994C81.6181 153.256 81.3302 153.473 80.9741 153.648C80.6219 153.822 80.1844 153.909 79.6616 153.909C78.9647 153.909 78.3454 153.737 77.8037 153.392C77.2658 153.047 76.8416 152.555 76.531 151.915C76.2241 151.271 76.0707 150.504 76.0707 149.614C76.0707 148.731 76.2204 147.955 76.5196 147.284C76.8226 146.614 77.245 146.091 77.7866 145.716C78.3283 145.341 78.959 145.153 79.6787 145.153C80.2128 145.153 80.656 145.248 81.0082 145.438C81.3605 145.623 81.6427 145.854 81.8548 146.131C82.0707 146.407 82.2393 146.676 82.3605 146.938H82.4628V145.273H83.4514V154.227C83.4514 154.966 83.2942 155.574 82.9798 156.051C82.6654 156.528 82.2374 156.881 81.6957 157.108C81.1541 157.339 80.5385 157.455 79.8491 157.455ZM79.781 152.983C80.3416 152.983 80.8207 152.848 81.2185 152.58C81.6162 152.307 81.9211 151.917 82.1332 151.409C82.3454 150.902 82.4514 150.297 82.4514 149.597C82.4514 148.915 82.3473 148.311 82.1389 147.784C81.9306 147.254 81.6276 146.837 81.2298 146.534C80.8359 146.227 80.3529 146.074 79.781 146.074C79.1976 146.074 78.7052 146.231 78.3037 146.545C77.9022 146.86 77.5991 147.284 77.3946 147.818C77.1901 148.348 77.0878 148.941 77.0878 149.597C77.0878 150.263 77.1919 150.852 77.4003 151.364C77.6086 151.871 77.9135 152.269 78.3151 152.557C78.7166 152.841 79.2052 152.983 79.781 152.983ZM90.3403 148.545V154H89.329V142.364H90.3403V146.642H90.4313C90.6358 146.191 90.9521 145.831 91.3801 145.562C91.8119 145.294 92.3574 145.159 93.0165 145.159C93.6074 145.159 94.1263 145.28 94.5733 145.523C95.0203 145.765 95.3688 146.123 95.6188 146.597C95.8688 147.07 95.9938 147.653 95.9938 148.347V154H94.9767V148.409C94.9767 147.689 94.7759 147.123 94.3744 146.71C93.9767 146.294 93.4388 146.085 92.7608 146.085C92.2949 146.085 91.8801 146.184 91.5165 146.381C91.1528 146.578 90.865 146.862 90.6528 147.233C90.4445 147.6 90.3403 148.038 90.3403 148.545ZM101.868 154V145.273H102.886V154H101.868ZM102.386 143.773C102.177 143.773 101.999 143.703 101.851 143.562C101.704 143.419 101.63 143.246 101.63 143.045C101.63 142.845 101.704 142.674 101.851 142.534C101.999 142.39 102.177 142.318 102.386 142.318C102.594 142.318 102.772 142.39 102.92 142.534C103.067 142.674 103.141 142.845 103.141 143.045C103.141 143.246 103.067 143.419 102.92 143.562C102.772 143.703 102.594 143.773 102.386 143.773ZM108.772 145.273H109.789V154.847C109.789 155.343 109.696 155.771 109.51 156.131C109.328 156.494 109.063 156.775 108.715 156.972C108.366 157.172 107.946 157.273 107.453 157.273C107.416 157.273 107.378 157.273 107.34 157.273C107.302 157.273 107.26 157.271 107.215 157.267L107.226 156.318C107.264 156.318 107.3 156.318 107.334 156.318C107.368 156.318 107.404 156.318 107.442 156.318C107.859 156.318 108.184 156.189 108.419 155.932C108.654 155.674 108.772 155.313 108.772 154.847V145.273ZM109.272 143.773C109.067 143.773 108.889 143.703 108.738 143.562C108.59 143.419 108.516 143.246 108.516 143.045C108.516 142.845 108.59 142.674 108.738 142.534C108.889 142.39 109.067 142.318 109.272 142.318C109.48 142.318 109.658 142.39 109.806 142.534C109.957 142.674 110.033 142.845 110.033 143.045C110.033 143.246 109.957 143.419 109.806 143.562C109.658 143.703 109.48 143.773 109.272 143.773ZM116.584 150.705L116.572 149.381H116.8L120.891 145.273H122.169L118.129 149.318L118.038 149.335L116.584 150.705ZM115.663 154V142.364H116.675V154H115.663ZM121.101 154L117.555 149.517L118.283 148.818L122.396 154H121.101ZM128.281 142.364V154H127.27V142.364H128.281ZM134.157 154V145.273H135.14V146.614H135.231C135.405 146.163 135.695 145.809 136.1 145.551C136.509 145.29 137 145.159 137.572 145.159C138.174 145.159 138.668 145.301 139.055 145.585C139.445 145.866 139.737 146.252 139.93 146.744H140.004C140.201 146.259 140.521 145.875 140.964 145.591C141.411 145.303 141.953 145.159 142.589 145.159C143.4 145.159 144.04 145.415 144.509 145.926C144.979 146.434 145.214 147.176 145.214 148.153V154H144.203V148.153C144.203 147.464 144.026 146.947 143.674 146.602C143.322 146.258 142.858 146.085 142.282 146.085C141.615 146.085 141.102 146.29 140.742 146.699C140.382 147.108 140.203 147.627 140.203 148.256V154H139.168V148.062C139.168 147.472 139.004 146.994 138.674 146.631C138.345 146.267 137.881 146.085 137.282 146.085C136.881 146.085 136.519 146.184 136.197 146.381C135.879 146.578 135.627 146.852 135.441 147.205C135.259 147.553 135.168 147.955 135.168 148.409V154H134.157ZM152.103 148.545V154H151.091V145.273H152.074V146.642H152.165C152.37 146.195 152.688 145.837 153.12 145.568C153.555 145.295 154.093 145.159 154.734 145.159C155.321 145.159 155.836 145.282 156.279 145.528C156.726 145.771 157.073 146.129 157.319 146.602C157.569 147.076 157.694 147.657 157.694 148.347V154H156.682V148.409C156.682 147.693 156.482 147.127 156.08 146.71C155.682 146.294 155.148 146.085 154.478 146.085C154.02 146.085 153.612 146.184 153.256 146.381C152.9 146.578 152.618 146.862 152.41 147.233C152.205 147.6 152.103 148.038 152.103 148.545ZM166.949 154.182C166.195 154.182 165.529 153.991 164.949 153.608C164.373 153.225 163.923 152.697 163.597 152.023C163.271 151.345 163.108 150.562 163.108 149.676C163.108 148.782 163.271 147.996 163.597 147.318C163.923 146.636 164.373 146.106 164.949 145.727C165.529 145.345 166.195 145.153 166.949 145.153C167.703 145.153 168.368 145.345 168.943 145.727C169.519 146.11 169.97 146.64 170.296 147.318C170.625 147.996 170.79 148.782 170.79 149.676C170.79 150.562 170.627 151.345 170.301 152.023C169.976 152.697 169.523 153.225 168.943 153.608C168.368 153.991 167.703 154.182 166.949 154.182ZM166.949 153.256C167.555 153.256 168.068 153.093 168.489 152.767C168.909 152.441 169.228 152.008 169.443 151.466C169.663 150.924 169.773 150.328 169.773 149.676C169.773 149.025 169.663 148.426 169.443 147.881C169.228 147.335 168.909 146.898 168.489 146.568C168.068 146.239 167.555 146.074 166.949 146.074C166.347 146.074 165.834 146.239 165.409 146.568C164.989 146.898 164.669 147.335 164.449 147.881C164.233 148.426 164.125 149.025 164.125 149.676C164.125 150.328 164.233 150.924 164.449 151.466C164.669 152.008 164.989 152.441 165.409 152.767C165.83 153.093 166.343 153.256 166.949 153.256ZM176.21 157.273V145.273H177.193V146.938H177.312C177.434 146.676 177.6 146.409 177.812 146.136C178.025 145.86 178.305 145.627 178.653 145.438C179.006 145.248 179.449 145.153 179.983 145.153C180.703 145.153 181.331 145.343 181.869 145.722C182.411 146.097 182.831 146.623 183.131 147.301C183.434 147.975 183.585 148.761 183.585 149.659C183.585 150.561 183.434 151.35 183.131 152.028C182.831 152.706 182.411 153.235 181.869 153.614C181.331 153.992 180.706 154.182 179.994 154.182C179.468 154.182 179.027 154.087 178.67 153.898C178.318 153.708 178.032 153.475 177.812 153.199C177.597 152.919 177.43 152.646 177.312 152.381H177.222V157.273H176.21ZM177.21 149.642C177.21 150.347 177.314 150.972 177.523 151.517C177.735 152.059 178.038 152.485 178.432 152.795C178.83 153.102 179.311 153.256 179.875 153.256C180.455 153.256 180.943 153.097 181.341 152.778C181.742 152.456 182.047 152.023 182.256 151.477C182.468 150.932 182.574 150.32 182.574 149.642C182.574 148.972 182.47 148.367 182.261 147.83C182.057 147.292 181.754 146.866 181.352 146.551C180.951 146.233 180.458 146.074 179.875 146.074C179.307 146.074 178.824 146.227 178.426 146.534C178.028 146.837 177.725 147.258 177.517 147.795C177.312 148.33 177.21 148.945 177.21 149.642ZM194.919 157.273V152.381H194.828C194.71 152.646 194.544 152.919 194.328 153.199C194.112 153.475 193.826 153.708 193.47 153.898C193.114 154.087 192.673 154.182 192.146 154.182C191.434 154.182 190.807 153.992 190.265 153.614C189.727 153.235 189.307 152.706 189.004 152.028C188.705 151.35 188.555 150.561 188.555 149.659C188.555 148.761 188.705 147.975 189.004 147.301C189.307 146.623 189.729 146.097 190.271 145.722C190.813 145.343 191.443 145.153 192.163 145.153C192.697 145.153 193.138 145.248 193.487 145.438C193.839 145.627 194.121 145.86 194.334 146.136C194.546 146.409 194.71 146.676 194.828 146.938H194.947V145.273H195.936V157.273H194.919ZM192.265 153.256C192.83 153.256 193.311 153.102 193.709 152.795C194.106 152.485 194.409 152.059 194.618 151.517C194.83 150.972 194.936 150.347 194.936 149.642C194.936 148.945 194.832 148.33 194.623 147.795C194.415 147.258 194.112 146.837 193.714 146.534C193.32 146.227 192.837 146.074 192.265 146.074C191.682 146.074 191.19 146.233 190.788 146.551C190.387 146.866 190.084 147.292 189.879 147.83C189.674 148.367 189.572 148.972 189.572 149.642C189.572 150.32 189.676 150.932 189.885 151.477C190.093 152.023 190.398 152.456 190.799 152.778C191.201 153.097 191.69 153.256 192.265 153.256ZM201.798 154V145.273H202.781V146.614H202.855C203.029 146.174 203.332 145.82 203.764 145.551C204.199 145.278 204.692 145.142 205.241 145.142C205.324 145.142 205.417 145.144 205.519 145.148C205.622 145.152 205.707 145.155 205.775 145.159V146.188C205.73 146.18 205.65 146.169 205.536 146.153C205.423 146.138 205.3 146.131 205.167 146.131C204.712 146.131 204.307 146.227 203.951 146.42C203.599 146.61 203.32 146.873 203.116 147.21C202.911 147.547 202.809 147.932 202.809 148.364V154H201.798ZM216.564 147.188L215.638 147.449C215.547 147.187 215.419 146.951 215.252 146.739C215.085 146.527 214.868 146.358 214.599 146.233C214.333 146.108 214.004 146.045 213.61 146.045C213.019 146.045 212.534 146.186 212.155 146.466C211.777 146.746 211.587 147.108 211.587 147.551C211.587 147.926 211.716 148.231 211.974 148.466C212.235 148.697 212.636 148.881 213.178 149.017L214.496 149.341C215.227 149.519 215.775 149.801 216.138 150.188C216.506 150.574 216.689 151.059 216.689 151.642C216.689 152.134 216.553 152.572 216.28 152.955C216.008 153.337 215.627 153.638 215.138 153.858C214.654 154.074 214.091 154.182 213.451 154.182C212.599 154.182 211.896 153.991 211.343 153.608C210.79 153.222 210.436 152.665 210.28 151.938L211.252 151.699C211.377 152.218 211.621 152.61 211.985 152.875C212.352 153.14 212.835 153.273 213.434 153.273C214.104 153.273 214.64 153.123 215.042 152.824C215.443 152.521 215.644 152.142 215.644 151.688C215.644 151.335 215.527 151.04 215.292 150.801C215.057 150.559 214.701 150.381 214.224 150.267L212.797 149.926C212.04 149.744 211.479 149.456 211.116 149.062C210.752 148.669 210.57 148.18 210.57 147.597C210.57 147.116 210.701 146.693 210.962 146.33C211.224 145.962 211.583 145.674 212.042 145.466C212.5 145.258 213.023 145.153 213.61 145.153C214.409 145.153 215.047 145.335 215.525 145.699C216.006 146.059 216.352 146.555 216.564 147.188ZM225.541 145.273V146.153H221.377V145.273H225.541ZM222.678 143.182H223.695V151.722C223.695 152.085 223.757 152.371 223.882 152.58C224.007 152.784 224.17 152.93 224.371 153.017C224.572 153.1 224.786 153.142 225.013 153.142C225.146 153.142 225.259 153.134 225.354 153.119C225.449 153.1 225.532 153.081 225.604 153.062L225.82 153.977C225.721 154.015 225.6 154.049 225.456 154.08C225.312 154.114 225.134 154.131 224.922 154.131C224.551 154.131 224.193 154.049 223.848 153.886C223.507 153.723 223.227 153.481 223.007 153.159C222.788 152.837 222.678 152.438 222.678 151.96V143.182ZM236.584 150.665V145.273H237.595V154H236.584V152.551H236.504C236.3 152.998 235.976 153.371 235.533 153.67C235.089 153.966 234.548 154.114 233.908 154.114C233.351 154.114 232.857 153.992 232.425 153.75C231.993 153.504 231.654 153.144 231.408 152.67C231.161 152.197 231.038 151.616 231.038 150.926V145.273H232.05V150.864C232.05 151.545 232.25 152.095 232.652 152.511C233.054 152.924 233.569 153.131 234.197 153.131C234.591 153.131 234.97 153.036 235.334 152.847C235.697 152.657 235.997 152.381 236.232 152.017C236.466 151.65 236.584 151.199 236.584 150.665ZM250.228 145.273L247.041 154H245.961L242.774 145.273H243.87L246.461 152.665H246.541L249.132 145.273H250.228ZM257.345 154L254.708 145.273H255.776L257.845 152.472H257.918L259.981 145.273H261.055L263.1 152.455H263.18L265.248 145.273H266.316L263.68 154H262.634L260.566 146.847H260.458L258.39 154H257.345ZM272.107 145.273L274.357 148.994L276.607 145.273H277.783L274.976 149.636L277.783 154H276.607L274.357 150.398L272.107 154H270.937L273.709 149.636L270.937 145.273H272.107ZM283.809 157.273C283.608 157.273 283.42 157.254 283.246 157.216C283.072 157.178 282.934 157.136 282.831 157.091L283.104 156.199C283.449 156.305 283.755 156.343 284.024 156.312C284.293 156.286 284.532 156.165 284.74 155.949C284.949 155.737 285.134 155.411 285.297 154.972L285.615 154.085L282.405 145.273H283.502L286.093 152.665H286.172L288.763 145.273H289.86L286.166 155.381C286.011 155.801 285.82 156.152 285.593 156.432C285.365 156.716 285.102 156.926 284.803 157.062C284.507 157.203 284.176 157.273 283.809 157.273ZM294.766 154V153.199L299.811 146.301V146.227H294.982V145.273H301.112V146.108L296.158 152.972V153.045H301.294V154H294.766Z" fill="white"/>
<path d="M5.05682 131V122.273H6.11364V130.062H10.1705V131H5.05682ZM11.6705 131V124.455H12.6761V131H11.6705ZM12.1818 123.364C11.9858 123.364 11.8168 123.297 11.6747 123.163C11.5355 123.03 11.4659 122.869 11.4659 122.682C11.4659 122.494 11.5355 122.334 11.6747 122.2C11.8168 122.067 11.9858 122 12.1818 122C12.3778 122 12.5455 122.067 12.6847 122.2C12.8267 122.334 12.8977 122.494 12.8977 122.682C12.8977 122.869 12.8267 123.03 12.6847 123.163C12.5455 123.297 12.3778 123.364 12.1818 123.364ZM17.1602 133.591C16.6744 133.591 16.2567 133.528 15.9073 133.403C15.5579 133.281 15.2667 133.119 15.0337 132.918C14.8036 132.719 14.6204 132.506 14.484 132.278L15.2852 131.716C15.3761 131.835 15.4911 131.972 15.6303 132.125C15.7695 132.281 15.9599 132.416 16.2013 132.53C16.4457 132.646 16.7653 132.705 17.1602 132.705C17.6886 132.705 18.1246 132.577 18.4684 132.321C18.8121 132.065 18.984 131.665 18.984 131.119V129.79H18.8988C18.8249 129.909 18.7198 130.057 18.5835 130.233C18.4499 130.406 18.2567 130.561 18.0039 130.697C17.7539 130.831 17.4158 130.898 16.9897 130.898C16.4613 130.898 15.9869 130.773 15.5664 130.523C15.1488 130.273 14.8178 129.909 14.5735 129.432C14.332 128.955 14.2113 128.375 14.2113 127.693C14.2113 127.023 14.3292 126.439 14.565 125.942C14.8008 125.442 15.1289 125.055 15.5494 124.783C15.9698 124.507 16.4556 124.369 17.0067 124.369C17.4329 124.369 17.771 124.44 18.021 124.582C18.2738 124.722 18.467 124.881 18.6005 125.06C18.7369 125.236 18.842 125.381 18.9158 125.494H19.0181V124.455H19.9897V131.188C19.9897 131.75 19.8619 132.207 19.6062 132.56C19.3533 132.915 19.0124 133.175 18.5835 133.339C18.1573 133.507 17.6829 133.591 17.1602 133.591ZM17.1261 129.994C17.5295 129.994 17.8704 129.902 18.1488 129.717C18.4272 129.533 18.6388 129.267 18.7837 128.92C18.9286 128.574 19.0011 128.159 19.0011 127.676C19.0011 127.205 18.93 126.788 18.788 126.428C18.646 126.067 18.4357 125.784 18.1573 125.58C17.8789 125.375 17.5352 125.273 17.1261 125.273C16.6999 125.273 16.3448 125.381 16.0607 125.597C15.7795 125.812 15.5678 126.102 15.4258 126.466C15.2866 126.83 15.217 127.233 15.217 127.676C15.217 128.131 15.288 128.533 15.43 128.882C15.5749 129.229 15.788 129.501 16.0692 129.7C16.3533 129.896 16.7056 129.994 17.1261 129.994ZM22.8363 127.062V131H21.8306V122.273H22.8363V125.477H22.9215C23.0749 125.139 23.305 124.871 23.6119 124.672C23.9215 124.47 24.3335 124.369 24.8477 124.369C25.2937 124.369 25.6843 124.459 26.0195 124.638C26.3548 124.814 26.6147 125.085 26.7994 125.452C26.9869 125.815 27.0806 126.278 27.0806 126.841V131H26.0749V126.909C26.0749 126.389 25.94 125.987 25.6701 125.703C25.4031 125.416 25.0323 125.273 24.5579 125.273C24.2283 125.273 23.9329 125.342 23.6715 125.482C23.413 125.621 23.2085 125.824 23.0579 126.091C22.9102 126.358 22.8363 126.682 22.8363 127.062ZM31.767 124.455V125.307H28.375V124.455H31.767ZM29.3636 122.886H30.3693V129.125C30.3693 129.409 30.4105 129.622 30.4929 129.764C30.5781 129.903 30.6861 129.997 30.8168 130.045C30.9503 130.091 31.0909 130.114 31.2386 130.114C31.3494 130.114 31.4403 130.108 31.5114 130.097C31.5824 130.082 31.6392 130.071 31.6818 130.062L31.8864 130.966C31.8182 130.991 31.723 131.017 31.6009 131.043C31.4787 131.071 31.3239 131.085 31.1364 131.085C30.8523 131.085 30.5739 131.024 30.3011 130.902C30.0313 130.78 29.8068 130.594 29.6278 130.344C29.4517 130.094 29.3636 129.778 29.3636 129.398V122.886Z" fill="#A3A5C1"/>
<path d="M8.79545 206.205C8.24242 206.205 7.74053 206.1 7.28977 205.892C6.83902 205.68 6.48106 205.375 6.21591 204.977C5.95076 204.576 5.81818 204.091 5.81818 203.523C5.81818 203.023 5.91667 202.617 6.11364 202.307C6.31061 201.992 6.57386 201.746 6.90341 201.568C7.23295 201.39 7.59659 201.258 7.99432 201.17C8.39583 201.08 8.79924 201.008 9.20455 200.955C9.73485 200.886 10.1648 200.835 10.4943 200.801C10.8277 200.763 11.0701 200.701 11.2216 200.614C11.3769 200.527 11.4545 200.375 11.4545 200.159V200.114C11.4545 199.553 11.3011 199.117 10.9943 198.807C10.6913 198.496 10.2311 198.341 9.61364 198.341C8.97348 198.341 8.47159 198.481 8.10795 198.761C7.74432 199.042 7.48864 199.341 7.34091 199.659L6.06818 199.205C6.29545 198.674 6.59848 198.261 6.97727 197.966C7.35985 197.667 7.77652 197.458 8.22727 197.341C8.68182 197.22 9.12879 197.159 9.56818 197.159C9.84848 197.159 10.1705 197.193 10.5341 197.261C10.9015 197.326 11.2557 197.46 11.5966 197.665C11.9413 197.869 12.2273 198.178 12.4545 198.591C12.6818 199.004 12.7955 199.557 12.7955 200.25V206H11.4545V204.818H11.3864C11.2955 205.008 11.1439 205.21 10.9318 205.426C10.7197 205.642 10.4375 205.826 10.0852 205.977C9.73295 206.129 9.30303 206.205 8.79545 206.205ZM9 205C9.5303 205 9.97727 204.896 10.3409 204.688C10.7083 204.479 10.9848 204.21 11.1705 203.881C11.3598 203.551 11.4545 203.205 11.4545 202.841V201.614C11.3977 201.682 11.2727 201.744 11.0795 201.801C10.8902 201.854 10.6705 201.902 10.4205 201.943C10.1742 201.981 9.93371 202.015 9.69886 202.045C9.4678 202.072 9.2803 202.095 9.13636 202.114C8.78788 202.159 8.46212 202.233 8.15909 202.335C7.85985 202.434 7.61742 202.583 7.43182 202.784C7.25 202.981 7.15909 203.25 7.15909 203.591C7.15909 204.057 7.33144 204.409 7.67614 204.648C8.02462 204.883 8.46591 205 9 205ZM18.6247 206V194.364H19.9656V198.659H20.0793C20.1777 198.508 20.3141 198.314 20.4884 198.08C20.6664 197.841 20.9202 197.629 21.2497 197.443C21.583 197.254 22.0338 197.159 22.602 197.159C23.3368 197.159 23.9846 197.343 24.5452 197.71C25.1058 198.078 25.5433 198.598 25.8577 199.273C26.1721 199.947 26.3293 200.742 26.3293 201.659C26.3293 202.583 26.1721 203.384 25.8577 204.062C25.5433 204.737 25.1077 205.259 24.5509 205.631C23.994 205.998 23.352 206.182 22.6247 206.182C22.0641 206.182 21.6152 206.089 21.2781 205.903C20.941 205.714 20.6815 205.5 20.4997 205.261C20.3179 205.019 20.1777 204.818 20.0793 204.659H19.9202V206H18.6247ZM19.9429 201.636C19.9429 202.295 20.0395 202.877 20.2327 203.381C20.4259 203.881 20.708 204.273 21.0793 204.557C21.4505 204.837 21.905 204.977 22.4429 204.977C23.0035 204.977 23.4713 204.83 23.8463 204.534C24.2251 204.235 24.5092 203.833 24.6986 203.33C24.8918 202.822 24.9884 202.258 24.9884 201.636C24.9884 201.023 24.8937 200.47 24.7043 199.977C24.5187 199.481 24.2365 199.089 23.8577 198.801C23.4827 198.509 23.0111 198.364 22.4429 198.364C21.8974 198.364 21.4391 198.502 21.0679 198.778C20.6967 199.051 20.4164 199.434 20.227 199.926C20.0376 200.415 19.9429 200.985 19.9429 201.636ZM35.1259 206.182C34.3077 206.182 33.6031 205.989 33.0122 205.602C32.4213 205.216 31.9668 204.684 31.6486 204.006C31.3304 203.328 31.1713 202.553 31.1713 201.682C31.1713 200.795 31.3342 200.013 31.6599 199.335C31.9895 198.653 32.4478 198.121 33.0349 197.739C33.6259 197.352 34.3152 197.159 35.1031 197.159C35.7168 197.159 36.2698 197.273 36.7622 197.5C37.2546 197.727 37.658 198.045 37.9724 198.455C38.2868 198.864 38.4819 199.341 38.5577 199.886H37.2168C37.1145 199.489 36.8872 199.136 36.5349 198.83C36.1865 198.519 35.7168 198.364 35.1259 198.364C34.6031 198.364 34.1448 198.5 33.7509 198.773C33.3607 199.042 33.0558 199.422 32.8361 199.915C32.6202 200.403 32.5122 200.977 32.5122 201.636C32.5122 202.311 32.6183 202.898 32.8304 203.398C33.0463 203.898 33.3493 204.286 33.7395 204.562C34.1334 204.839 34.5955 204.977 35.1259 204.977C35.4743 204.977 35.7906 204.917 36.0747 204.795C36.3588 204.674 36.5993 204.5 36.7963 204.273C36.9933 204.045 37.1334 203.773 37.2168 203.455H38.5577C38.4819 203.97 38.2944 204.434 37.9952 204.847C37.6997 205.256 37.3077 205.581 36.819 205.824C36.3342 206.062 35.7698 206.182 35.1259 206.182ZM47.0134 206.182C46.2861 206.182 45.644 205.998 45.0872 205.631C44.5304 205.259 44.0948 204.737 43.7804 204.062C43.466 203.384 43.3088 202.583 43.3088 201.659C43.3088 200.742 43.466 199.947 43.7804 199.273C44.0948 198.598 44.5323 198.078 45.0929 197.71C45.6535 197.343 46.3012 197.159 47.0361 197.159C47.6043 197.159 48.0531 197.254 48.3827 197.443C48.716 197.629 48.9698 197.841 49.144 198.08C49.3221 198.314 49.4603 198.508 49.5588 198.659H49.6724V194.364H51.0134V206H49.7179V204.659H49.5588C49.4603 204.818 49.3202 205.019 49.1384 205.261C48.9565 205.5 48.6971 205.714 48.3599 205.903C48.0228 206.089 47.574 206.182 47.0134 206.182ZM47.1952 204.977C47.733 204.977 48.1876 204.837 48.5588 204.557C48.93 204.273 49.2122 203.881 49.4054 203.381C49.5986 202.877 49.6952 202.295 49.6952 201.636C49.6952 200.985 49.6005 200.415 49.4111 199.926C49.2217 199.434 48.9414 199.051 48.5702 198.778C48.199 198.502 47.7406 198.364 47.1952 198.364C46.627 198.364 46.1535 198.509 45.7747 198.801C45.3997 199.089 45.1175 199.481 44.9281 199.977C44.7425 200.47 44.6497 201.023 44.6497 201.636C44.6497 202.258 44.7444 202.822 44.9338 203.33C45.127 203.833 45.4111 204.235 45.7861 204.534C46.1649 204.83 46.6346 204.977 47.1952 204.977ZM60.5145 206.182C59.6736 206.182 58.9482 205.996 58.3384 205.625C57.7323 205.25 57.2645 204.727 56.9349 204.057C56.6092 203.383 56.4463 202.598 56.4463 201.705C56.4463 200.811 56.6092 200.023 56.9349 199.341C57.2645 198.655 57.7228 198.121 58.3099 197.739C58.9009 197.352 59.5902 197.159 60.3781 197.159C60.8327 197.159 61.2815 197.235 61.7247 197.386C62.1679 197.538 62.5713 197.784 62.9349 198.125C63.2986 198.462 63.5884 198.909 63.8043 199.466C64.0202 200.023 64.1281 200.708 64.1281 201.523V202.091H57.4009V200.932H62.7645C62.7645 200.439 62.666 200 62.469 199.614C62.2759 199.227 61.9993 198.922 61.6395 198.699C61.2834 198.475 60.863 198.364 60.3781 198.364C59.844 198.364 59.3819 198.496 58.9918 198.761C58.6054 199.023 58.308 199.364 58.0997 199.784C57.8914 200.205 57.7872 200.655 57.7872 201.136V201.909C57.7872 202.568 57.9009 203.127 58.1281 203.585C58.3592 204.04 58.6793 204.386 59.0884 204.625C59.4974 204.86 59.9728 204.977 60.5145 204.977C60.8668 204.977 61.1849 204.928 61.469 204.83C61.7569 204.727 62.005 204.576 62.2134 204.375C62.4217 204.17 62.5827 203.917 62.6963 203.614L63.9918 203.977C63.8554 204.417 63.6262 204.803 63.3043 205.136C62.9823 205.466 62.5846 205.723 62.1111 205.909C61.6376 206.091 61.1054 206.182 60.5145 206.182ZM73.2543 197.273V198.409H68.5497V197.273H73.2543ZM69.9588 206V196.068C69.9588 195.568 70.0762 195.152 70.3111 194.818C70.5459 194.485 70.8509 194.235 71.2259 194.068C71.6009 193.902 71.9967 193.818 72.4134 193.818C72.7429 193.818 73.0118 193.845 73.2202 193.898C73.4285 193.951 73.5838 194 73.6861 194.045L73.2997 195.205C73.2315 195.182 73.1368 195.153 73.0156 195.119C72.8982 195.085 72.7429 195.068 72.5497 195.068C72.1065 195.068 71.7865 195.18 71.5895 195.403C71.3963 195.627 71.2997 195.955 71.2997 196.386V206H69.9588ZM81.4969 209.455C80.8491 209.455 80.2923 209.371 79.8264 209.205C79.3605 209.042 78.9723 208.826 78.6616 208.557C78.3548 208.292 78.1105 208.008 77.9287 207.705L78.9969 206.955C79.1181 207.114 79.2715 207.295 79.4571 207.5C79.6427 207.708 79.8965 207.888 80.2185 208.04C80.5442 208.195 80.9704 208.273 81.4969 208.273C82.2014 208.273 82.7829 208.102 83.2412 207.761C83.6995 207.42 83.9287 206.886 83.9287 206.159V204.386H83.8151C83.7166 204.545 83.5764 204.742 83.3946 204.977C83.2166 205.208 82.959 205.415 82.6219 205.597C82.2885 205.775 81.8378 205.864 81.2696 205.864C80.5651 205.864 79.9325 205.697 79.3719 205.364C78.8151 205.03 78.3738 204.545 78.048 203.909C77.726 203.273 77.5651 202.5 77.5651 201.591C77.5651 200.697 77.7223 199.919 78.0366 199.256C78.351 198.589 78.7885 198.074 79.3491 197.71C79.9098 197.343 80.5575 197.159 81.2923 197.159C81.8605 197.159 82.3113 197.254 82.6446 197.443C82.9817 197.629 83.2393 197.841 83.4173 198.08C83.5991 198.314 83.7393 198.508 83.8378 198.659H83.9741V197.273H85.2696V206.25C85.2696 207 85.0991 207.61 84.7582 208.08C84.4211 208.553 83.9666 208.9 83.3946 209.119C82.8264 209.343 82.1938 209.455 81.4969 209.455ZM81.4514 204.659C81.9893 204.659 82.4438 204.536 82.8151 204.29C83.1863 204.044 83.4685 203.689 83.6616 203.227C83.8548 202.765 83.9514 202.212 83.9514 201.568C83.9514 200.939 83.8567 200.384 83.6673 199.903C83.4779 199.422 83.1976 199.045 82.8264 198.773C82.4552 198.5 81.9969 198.364 81.4514 198.364C80.8832 198.364 80.4098 198.508 80.031 198.795C79.656 199.083 79.3738 199.47 79.1844 199.955C78.9988 200.439 78.906 200.977 78.906 201.568C78.906 202.174 79.0007 202.71 79.1901 203.176C79.3832 203.638 79.6673 204.002 80.0423 204.267C80.4211 204.528 80.8908 204.659 81.4514 204.659ZM92.2651 200.75V206H90.9241V194.364H92.2651V198.636H92.3787C92.5832 198.186 92.8901 197.828 93.2991 197.562C93.712 197.294 94.2613 197.159 94.9469 197.159C95.5416 197.159 96.0624 197.278 96.5094 197.517C96.9563 197.752 97.3029 198.114 97.5491 198.602C97.7991 199.087 97.9241 199.705 97.9241 200.455V206H96.5832V200.545C96.5832 199.852 96.4033 199.316 96.0435 198.938C95.6874 198.555 95.1931 198.364 94.5605 198.364C94.1211 198.364 93.7272 198.456 93.3787 198.642C93.034 198.828 92.7613 199.098 92.5605 199.455C92.3635 199.811 92.2651 200.242 92.2651 200.75ZM103.577 206V197.273H104.918V206H103.577ZM104.259 195.818C103.998 195.818 103.772 195.729 103.583 195.551C103.397 195.373 103.305 195.159 103.305 194.909C103.305 194.659 103.397 194.445 103.583 194.267C103.772 194.089 103.998 194 104.259 194C104.52 194 104.744 194.089 104.93 194.267C105.119 194.445 105.214 194.659 105.214 194.909C105.214 195.159 105.119 195.373 104.93 195.551C104.744 195.729 104.52 195.818 104.259 195.818ZM110.574 197.273H111.915V206.636C111.915 207.174 111.822 207.64 111.637 208.034C111.455 208.428 111.178 208.733 110.807 208.949C110.44 209.165 109.976 209.273 109.415 209.273C109.37 209.273 109.324 209.273 109.279 209.273C109.233 209.273 109.188 209.273 109.142 209.273V208.023C109.188 208.023 109.229 208.023 109.267 208.023C109.305 208.023 109.347 208.023 109.392 208.023C109.801 208.023 110.101 207.902 110.29 207.659C110.479 207.42 110.574 207.08 110.574 206.636V197.273ZM111.233 195.818C110.972 195.818 110.746 195.729 110.557 195.551C110.371 195.373 110.279 195.159 110.279 194.909C110.279 194.659 110.371 194.445 110.557 194.267C110.746 194.089 110.972 194 111.233 194C111.495 194 111.718 194.089 111.904 194.267C112.093 194.445 112.188 194.659 112.188 194.909C112.188 195.159 112.093 195.373 111.904 195.551C111.718 195.729 111.495 195.818 111.233 195.818ZM118.821 202.818L118.798 201.159H119.071L122.889 197.273H124.548L120.48 201.386H120.366L118.821 202.818ZM117.571 206V194.364H118.912V206H117.571ZM123.116 206L119.707 201.682L120.662 200.75L124.821 206H123.116ZM130.815 194.364V206H129.474V194.364H130.815ZM136.471 206V197.273H137.766V198.636H137.88C138.062 198.17 138.355 197.809 138.761 197.551C139.166 197.29 139.653 197.159 140.221 197.159C140.797 197.159 141.276 197.29 141.659 197.551C142.045 197.809 142.346 198.17 142.562 198.636H142.653C142.876 198.186 143.212 197.828 143.659 197.562C144.105 197.294 144.641 197.159 145.266 197.159C146.047 197.159 146.685 197.403 147.181 197.892C147.677 198.377 147.926 199.133 147.926 200.159V206H146.585V200.159C146.585 199.515 146.409 199.055 146.056 198.778C145.704 198.502 145.289 198.364 144.812 198.364C144.198 198.364 143.723 198.549 143.386 198.92C143.049 199.288 142.88 199.754 142.88 200.318V206H141.516V200.023C141.516 199.527 141.355 199.127 141.034 198.824C140.712 198.517 140.297 198.364 139.789 198.364C139.441 198.364 139.115 198.456 138.812 198.642C138.513 198.828 138.27 199.085 138.085 199.415C137.903 199.741 137.812 200.117 137.812 200.545V206H136.471ZM154.918 200.75V206H153.577V197.273H154.873V198.636H154.986C155.191 198.193 155.502 197.837 155.918 197.568C156.335 197.295 156.873 197.159 157.532 197.159C158.123 197.159 158.64 197.28 159.083 197.523C159.526 197.761 159.871 198.125 160.117 198.614C160.363 199.098 160.486 199.712 160.486 200.455V206H159.145V200.545C159.145 199.86 158.967 199.326 158.611 198.943C158.255 198.557 157.767 198.364 157.145 198.364C156.717 198.364 156.335 198.456 155.998 198.642C155.664 198.828 155.401 199.098 155.208 199.455C155.015 199.811 154.918 200.242 154.918 200.75ZM169.682 206.182C168.894 206.182 168.203 205.994 167.608 205.619C167.017 205.244 166.555 204.72 166.222 204.045C165.892 203.371 165.728 202.583 165.728 201.682C165.728 200.773 165.892 199.979 166.222 199.301C166.555 198.623 167.017 198.097 167.608 197.722C168.203 197.347 168.894 197.159 169.682 197.159C170.47 197.159 171.159 197.347 171.75 197.722C172.345 198.097 172.807 198.623 173.137 199.301C173.47 199.979 173.637 200.773 173.637 201.682C173.637 202.583 173.47 203.371 173.137 204.045C172.807 204.72 172.345 205.244 171.75 205.619C171.159 205.994 170.47 206.182 169.682 206.182ZM169.682 204.977C170.281 204.977 170.773 204.824 171.159 204.517C171.546 204.21 171.832 203.807 172.017 203.307C172.203 202.807 172.296 202.265 172.296 201.682C172.296 201.098 172.203 200.555 172.017 200.051C171.832 199.547 171.546 199.14 171.159 198.83C170.773 198.519 170.281 198.364 169.682 198.364C169.084 198.364 168.591 198.519 168.205 198.83C167.818 199.14 167.532 199.547 167.347 200.051C167.161 200.555 167.068 201.098 167.068 201.682C167.068 202.265 167.161 202.807 167.347 203.307C167.532 203.807 167.818 204.21 168.205 204.517C168.591 204.824 169.084 204.977 169.682 204.977ZM178.884 209.273V197.273H180.179V198.659H180.338C180.437 198.508 180.573 198.314 180.747 198.08C180.925 197.841 181.179 197.629 181.509 197.443C181.842 197.254 182.293 197.159 182.861 197.159C183.596 197.159 184.243 197.343 184.804 197.71C185.365 198.078 185.802 198.598 186.116 199.273C186.431 199.947 186.588 200.742 186.588 201.659C186.588 202.583 186.431 203.384 186.116 204.062C185.802 204.737 185.366 205.259 184.81 205.631C184.253 205.998 183.611 206.182 182.884 206.182C182.323 206.182 181.874 206.089 181.537 205.903C181.2 205.714 180.94 205.5 180.759 205.261C180.577 205.019 180.437 204.818 180.338 204.659H180.224V209.273H178.884ZM180.202 201.636C180.202 202.295 180.298 202.877 180.491 203.381C180.685 203.881 180.967 204.273 181.338 204.557C181.709 204.837 182.164 204.977 182.702 204.977C183.262 204.977 183.73 204.83 184.105 204.534C184.484 204.235 184.768 203.833 184.957 203.33C185.151 202.822 185.247 202.258 185.247 201.636C185.247 201.023 185.152 200.47 184.963 199.977C184.777 199.481 184.495 199.089 184.116 198.801C183.741 198.509 183.27 198.364 182.702 198.364C182.156 198.364 181.698 198.502 181.327 198.778C180.955 199.051 180.675 199.434 180.486 199.926C180.296 200.415 180.202 200.985 180.202 201.636ZM197.788 209.273V204.659H197.674C197.576 204.818 197.436 205.019 197.254 205.261C197.072 205.5 196.813 205.714 196.476 205.903C196.138 206.089 195.69 206.182 195.129 206.182C194.402 206.182 193.76 205.998 193.203 205.631C192.646 205.259 192.21 204.737 191.896 204.062C191.582 203.384 191.424 202.583 191.424 201.659C191.424 200.742 191.582 199.947 191.896 199.273C192.21 198.598 192.648 198.078 193.209 197.71C193.769 197.343 194.417 197.159 195.152 197.159C195.72 197.159 196.169 197.254 196.498 197.443C196.832 197.629 197.085 197.841 197.26 198.08C197.438 198.314 197.576 198.508 197.674 198.659H197.834V197.273H199.129V209.273H197.788ZM195.311 204.977C195.849 204.977 196.303 204.837 196.674 204.557C197.046 204.273 197.328 203.881 197.521 203.381C197.714 202.877 197.811 202.295 197.811 201.636C197.811 200.985 197.716 200.415 197.527 199.926C197.337 199.434 197.057 199.051 196.686 198.778C196.315 198.502 195.856 198.364 195.311 198.364C194.743 198.364 194.269 198.509 193.89 198.801C193.515 199.089 193.233 199.481 193.044 199.977C192.858 200.47 192.765 201.023 192.765 201.636C192.765 202.258 192.86 202.822 193.049 203.33C193.243 203.833 193.527 204.235 193.902 204.534C194.28 204.83 194.75 204.977 195.311 204.977ZM204.784 206V197.273H206.079V198.591H206.17C206.329 198.159 206.617 197.809 207.034 197.54C207.45 197.271 207.92 197.136 208.443 197.136C208.541 197.136 208.664 197.138 208.812 197.142C208.96 197.146 209.071 197.152 209.147 197.159V198.523C209.102 198.511 208.998 198.494 208.835 198.472C208.676 198.445 208.507 198.432 208.329 198.432C207.905 198.432 207.526 198.521 207.193 198.699C206.863 198.873 206.602 199.116 206.409 199.426C206.219 199.733 206.124 200.083 206.124 200.477V206H204.784ZM220.118 199.227L218.914 199.568C218.838 199.367 218.726 199.172 218.579 198.983C218.435 198.79 218.238 198.631 217.988 198.506C217.738 198.381 217.418 198.318 217.028 198.318C216.493 198.318 216.048 198.441 215.692 198.688C215.34 198.93 215.164 199.239 215.164 199.614C215.164 199.947 215.285 200.21 215.528 200.403C215.77 200.597 216.149 200.758 216.664 200.886L217.959 201.205C218.74 201.394 219.321 201.684 219.704 202.074C220.086 202.46 220.278 202.958 220.278 203.568C220.278 204.068 220.134 204.515 219.846 204.909C219.562 205.303 219.164 205.614 218.653 205.841C218.141 206.068 217.547 206.182 216.868 206.182C215.978 206.182 215.242 205.989 214.658 205.602C214.075 205.216 213.706 204.652 213.55 203.909L214.823 203.591C214.944 204.061 215.173 204.413 215.511 204.648C215.851 204.883 216.297 205 216.846 205C217.471 205 217.967 204.867 218.334 204.602C218.706 204.333 218.891 204.011 218.891 203.636C218.891 203.333 218.785 203.08 218.573 202.875C218.361 202.667 218.035 202.511 217.596 202.409L216.141 202.068C215.342 201.879 214.755 201.585 214.38 201.188C214.009 200.786 213.823 200.284 213.823 199.682C213.823 199.189 213.961 198.754 214.238 198.375C214.518 197.996 214.899 197.699 215.38 197.483C215.865 197.267 216.414 197.159 217.028 197.159C217.891 197.159 218.569 197.348 219.062 197.727C219.558 198.106 219.91 198.606 220.118 199.227ZM229.291 197.273V198.409H224.769V197.273H229.291ZM226.087 195.182H227.428V203.5C227.428 203.879 227.483 204.163 227.593 204.352C227.706 204.538 227.85 204.663 228.024 204.727C228.202 204.788 228.39 204.818 228.587 204.818C228.735 204.818 228.856 204.811 228.951 204.795C229.045 204.777 229.121 204.761 229.178 204.75L229.451 205.955C229.36 205.989 229.233 206.023 229.07 206.057C228.907 206.095 228.701 206.114 228.451 206.114C228.072 206.114 227.701 206.032 227.337 205.869C226.977 205.706 226.678 205.458 226.439 205.125C226.204 204.792 226.087 204.371 226.087 203.864V195.182ZM240.009 202.432V197.273H241.349V206H240.009V204.523H239.918C239.713 204.966 239.395 205.343 238.963 205.653C238.531 205.96 237.986 206.114 237.327 206.114C236.781 206.114 236.296 205.994 235.872 205.756C235.448 205.513 235.115 205.15 234.872 204.665C234.63 204.176 234.509 203.561 234.509 202.818V197.273H235.849V202.727C235.849 203.364 236.027 203.871 236.384 204.25C236.743 204.629 237.202 204.818 237.759 204.818C238.092 204.818 238.431 204.733 238.776 204.562C239.124 204.392 239.416 204.131 239.651 203.778C239.889 203.426 240.009 202.977 240.009 202.432ZM254.142 197.273L250.914 206H249.551L246.324 197.273H247.778L250.187 204.227H250.278L252.687 197.273H254.142ZM261.089 206L258.43 197.273H259.839L261.725 203.955H261.816L263.68 197.273H265.112L266.953 203.932H267.043L268.93 197.273H270.339L267.68 206H266.362L264.453 199.295H264.316L262.407 206H261.089ZM276.312 197.273L278.403 200.841L280.493 197.273H282.039L279.221 201.636L282.039 206H280.493L278.403 202.614L276.312 206H274.766L277.539 201.636L274.766 197.273H276.312ZM288.016 209.273C287.789 209.273 287.586 209.254 287.408 209.216C287.23 209.182 287.107 209.148 287.039 209.114L287.38 207.932C287.705 208.015 287.993 208.045 288.243 208.023C288.493 208 288.715 207.888 288.908 207.688C289.105 207.491 289.285 207.17 289.448 206.727L289.698 206.045L286.47 197.273H287.925L290.334 204.227H290.425L292.834 197.273H294.289L290.584 207.273C290.417 207.723 290.211 208.097 289.965 208.392C289.719 208.691 289.433 208.913 289.107 209.057C288.785 209.201 288.421 209.273 288.016 209.273ZM299.009 206V204.977L303.963 198.614V198.523H299.168V197.273H305.69V198.341L300.872 204.659V204.75H305.849V206H299.009Z" fill="white"/>
<path d="M6.05682 183V174.273H9.00568C9.6875 174.273 10.2472 174.389 10.6847 174.622C11.1222 174.852 11.446 175.169 11.6562 175.572C11.8665 175.976 11.9716 176.435 11.9716 176.949C11.9716 177.463 11.8665 177.919 11.6562 178.317C11.446 178.714 11.1236 179.027 10.6889 179.254C10.2543 179.479 9.69886 179.591 9.02273 179.591H6.63636V178.636H8.98864C9.45455 178.636 9.82955 178.568 10.1136 178.432C10.4006 178.295 10.608 178.102 10.7358 177.852C10.8665 177.599 10.9318 177.298 10.9318 176.949C10.9318 176.599 10.8665 176.294 10.7358 176.033C10.6051 175.771 10.3963 175.57 10.1094 175.428C9.82244 175.283 9.44318 175.21 8.97159 175.21H7.11364V183H6.05682ZM10.1648 179.08L12.3125 183H11.0852L8.97159 179.08H10.1648ZM16.2702 183.136C15.6396 183.136 15.0955 182.997 14.6381 182.719C14.1836 182.438 13.8327 182.045 13.5856 181.543C13.3413 181.037 13.2191 180.449 13.2191 179.778C13.2191 179.108 13.3413 178.517 13.5856 178.006C13.8327 177.491 14.1765 177.091 14.6168 176.804C15.06 176.514 15.5771 176.369 16.168 176.369C16.5089 176.369 16.8455 176.426 17.1779 176.54C17.5103 176.653 17.8129 176.838 18.0856 177.094C18.3583 177.347 18.5756 177.682 18.7376 178.099C18.8995 178.517 18.9805 179.031 18.9805 179.642V180.068H13.935V179.199H17.9577C17.9577 178.83 17.8839 178.5 17.7362 178.21C17.5913 177.92 17.3839 177.692 17.114 177.524C16.8469 177.357 16.5316 177.273 16.168 177.273C15.7674 177.273 15.4208 177.372 15.1282 177.571C14.8384 177.767 14.6154 178.023 14.4592 178.338C14.3029 178.653 14.2248 178.991 14.2248 179.352V179.932C14.2248 180.426 14.31 180.845 14.4805 181.189C14.6538 181.53 14.8938 181.79 15.2006 181.969C15.5075 182.145 15.864 182.233 16.2702 182.233C16.5344 182.233 16.7731 182.196 16.9862 182.122C17.2021 182.045 17.3881 181.932 17.5444 181.781C17.7006 181.628 17.8214 181.437 17.9066 181.21L18.8782 181.483C18.7759 181.812 18.604 182.102 18.3626 182.352C18.1211 182.599 17.8228 182.793 17.4677 182.932C17.1126 183.068 16.7134 183.136 16.2702 183.136ZM23.1523 185.591C22.6665 185.591 22.2489 185.528 21.8995 185.403C21.5501 185.281 21.2589 185.119 21.0259 184.918C20.7958 184.719 20.6126 184.506 20.4762 184.278L21.2773 183.716C21.3683 183.835 21.4833 183.972 21.6225 184.125C21.7617 184.281 21.9521 184.416 22.1935 184.53C22.4379 184.646 22.7575 184.705 23.1523 184.705C23.6808 184.705 24.1168 184.577 24.4606 184.321C24.8043 184.065 24.9762 183.665 24.9762 183.119V181.79H24.891C24.8171 181.909 24.712 182.057 24.5756 182.233C24.4421 182.406 24.2489 182.561 23.9961 182.697C23.7461 182.831 23.408 182.898 22.9819 182.898C22.4535 182.898 21.979 182.773 21.5586 182.523C21.141 182.273 20.81 181.909 20.5657 181.432C20.3242 180.955 20.2035 180.375 20.2035 179.693C20.2035 179.023 20.3214 178.439 20.5572 177.942C20.793 177.442 21.1211 177.055 21.5415 176.783C21.962 176.507 22.4478 176.369 22.9989 176.369C23.4251 176.369 23.7631 176.44 24.0131 176.582C24.266 176.722 24.4592 176.881 24.5927 177.06C24.729 177.236 24.8342 177.381 24.908 177.494H25.0103V176.455H25.9819V183.188C25.9819 183.75 25.854 184.207 25.5984 184.56C25.3455 184.915 25.0046 185.175 24.5756 185.339C24.1495 185.507 23.6751 185.591 23.1523 185.591ZM23.1183 181.994C23.5217 181.994 23.8626 181.902 24.141 181.717C24.4194 181.533 24.631 181.267 24.7759 180.92C24.9208 180.574 24.9933 180.159 24.9933 179.676C24.9933 179.205 24.9222 178.788 24.7802 178.428C24.6381 178.067 24.4279 177.784 24.1495 177.58C23.8711 177.375 23.5273 177.273 23.1183 177.273C22.6921 177.273 22.337 177.381 22.0529 177.597C21.7717 177.812 21.56 178.102 21.418 178.466C21.2788 178.83 21.2092 179.233 21.2092 179.676C21.2092 180.131 21.2802 180.533 21.4222 180.882C21.5671 181.229 21.7802 181.501 22.0614 181.7C22.3455 181.896 22.6978 181.994 23.1183 181.994ZM31.9478 180.324V176.455H32.9535V183H31.9478V181.892H31.8796C31.7262 182.224 31.4876 182.507 31.1637 182.74C30.8398 182.97 30.4308 183.085 29.9364 183.085C29.5273 183.085 29.1637 182.996 28.8455 182.817C28.5273 182.635 28.2773 182.362 28.0955 181.999C27.9137 181.632 27.8228 181.17 27.8228 180.614V176.455H28.8285V180.545C28.8285 181.023 28.962 181.403 29.229 181.688C29.4989 181.972 29.8427 182.114 30.2603 182.114C30.5103 182.114 30.7646 182.05 31.0231 181.922C31.2844 181.794 31.5032 181.598 31.6793 181.334C31.8583 181.07 31.9478 180.733 31.9478 180.324ZM35.8011 174.273V183H34.7955V174.273H35.8011ZM39.5692 183.153C39.1545 183.153 38.7781 183.075 38.44 182.919C38.1019 182.76 37.8335 182.531 37.6346 182.233C37.4357 181.932 37.3363 181.568 37.3363 181.142C37.3363 180.767 37.4102 180.463 37.5579 180.23C37.7056 179.994 37.9031 179.81 38.1502 179.676C38.3974 179.543 38.6701 179.443 38.9684 179.378C39.2695 179.31 39.5721 179.256 39.8761 179.216C40.2738 179.165 40.5962 179.126 40.8434 179.101C41.0934 179.072 41.2752 179.026 41.3888 178.96C41.5053 178.895 41.5636 178.781 41.5636 178.619V178.585C41.5636 178.165 41.4485 177.838 41.2184 177.605C40.9911 177.372 40.646 177.256 40.1829 177.256C39.7028 177.256 39.3263 177.361 39.0536 177.571C38.7809 177.781 38.5891 178.006 38.4783 178.244L37.5238 177.903C37.6942 177.506 37.9215 177.196 38.2056 176.974C38.4925 176.75 38.805 176.594 39.1431 176.506C39.484 176.415 39.8192 176.369 40.1488 176.369C40.359 176.369 40.6005 176.395 40.8732 176.446C41.1488 176.494 41.4144 176.595 41.6701 176.749C41.9286 176.902 42.1431 177.134 42.3136 177.443C42.484 177.753 42.5692 178.168 42.5692 178.688V183H41.5636V182.114H41.5124C41.4442 182.256 41.3306 182.408 41.1715 182.57C41.0124 182.732 40.8008 182.869 40.5366 182.983C40.2724 183.097 39.9499 183.153 39.5692 183.153ZM39.7227 182.25C40.1204 182.25 40.4556 182.172 40.7283 182.016C41.0039 181.859 41.2113 181.658 41.3505 181.411C41.4925 181.163 41.5636 180.903 41.5636 180.631V179.71C41.521 179.761 41.4272 179.808 41.2823 179.851C41.1403 179.891 40.9755 179.926 40.788 179.957C40.6033 179.986 40.4229 180.011 40.2468 180.034C40.0735 180.054 39.9329 180.071 39.8249 180.085C39.5636 180.119 39.3192 180.175 39.092 180.251C38.8675 180.325 38.6857 180.437 38.5465 180.588C38.4102 180.736 38.342 180.937 38.342 181.193C38.342 181.543 38.4712 181.807 38.7298 181.986C38.9911 182.162 39.3221 182.25 39.7227 182.25ZM44.4048 183V176.455H45.3764V177.443H45.4446C45.5639 177.119 45.7798 176.857 46.0923 176.655C46.4048 176.453 46.7571 176.352 47.1491 176.352C47.223 176.352 47.3153 176.354 47.4261 176.357C47.5369 176.359 47.6207 176.364 47.6776 176.369V177.392C47.6435 177.384 47.5653 177.371 47.4432 177.354C47.3239 177.334 47.1974 177.324 47.0639 177.324C46.7457 177.324 46.4616 177.391 46.2116 177.524C45.9645 177.655 45.7685 177.837 45.6236 178.07C45.4815 178.3 45.4105 178.562 45.4105 178.858V183H44.4048Z" fill="#A3A5C1"/>
<path d="M8.45455 258.165C7.89773 258.165 7.40152 258.068 6.96591 257.875C6.5303 257.678 6.18561 257.388 5.93182 257.006C5.68182 256.619 5.55682 256.138 5.55682 255.562C5.55682 255.078 5.64583 254.67 5.82386 254.341C6.00189 254.011 6.24432 253.746 6.55114 253.545C6.85795 253.345 7.20644 253.193 7.59659 253.091C7.99053 252.989 8.40341 252.917 8.83523 252.875C9.3428 252.822 9.75189 252.773 10.0625 252.727C10.3731 252.678 10.5985 252.606 10.7386 252.511C10.8788 252.417 10.9489 252.277 10.9489 252.091V252.057C10.9489 251.697 10.8352 251.419 10.608 251.222C10.3845 251.025 10.0663 250.926 9.65341 250.926C9.2178 250.926 8.87121 251.023 8.61364 251.216C8.35606 251.405 8.18561 251.644 8.10227 251.932L5.86364 251.75C5.97727 251.22 6.20076 250.761 6.53409 250.375C6.86742 249.985 7.29735 249.686 7.82386 249.477C8.35417 249.265 8.9678 249.159 9.66477 249.159C10.1496 249.159 10.6136 249.216 11.0568 249.33C11.5038 249.443 11.8996 249.619 12.2443 249.858C12.5928 250.097 12.8674 250.403 13.0682 250.778C13.2689 251.15 13.3693 251.595 13.3693 252.114V258H11.0739V256.79H11.0057C10.8655 257.062 10.678 257.303 10.4432 257.511C10.2083 257.716 9.92614 257.877 9.59659 257.994C9.26705 258.108 8.88636 258.165 8.45455 258.165ZM9.14773 256.494C9.50379 256.494 9.81818 256.424 10.0909 256.284C10.3636 256.14 10.5777 255.947 10.733 255.705C10.8883 255.462 10.9659 255.187 10.9659 254.881V253.955C10.8902 254.004 10.786 254.049 10.6534 254.091C10.5246 254.129 10.3788 254.165 10.2159 254.199C10.053 254.229 9.89015 254.258 9.72727 254.284C9.56439 254.307 9.41667 254.328 9.28409 254.347C9 254.388 8.75189 254.455 8.53977 254.545C8.32765 254.636 8.16288 254.759 8.04545 254.915C7.92803 255.066 7.86932 255.256 7.86932 255.483C7.86932 255.812 7.98864 256.064 8.22727 256.239C8.4697 256.409 8.77652 256.494 9.14773 256.494ZM18.4926 258V246.364H20.9131V250.739H20.9869C21.093 250.504 21.2464 250.265 21.4472 250.023C21.6517 249.777 21.9169 249.572 22.2426 249.409C22.5722 249.242 22.9812 249.159 23.4699 249.159C24.1062 249.159 24.6934 249.326 25.2312 249.659C25.7691 249.989 26.1991 250.487 26.521 251.153C26.843 251.816 27.004 252.648 27.004 253.648C27.004 254.621 26.8468 255.443 26.5324 256.114C26.2218 256.78 25.7975 257.286 25.2597 257.631C24.7256 257.972 24.1271 258.142 23.4642 258.142C22.9945 258.142 22.5949 258.064 22.2653 257.909C21.9396 257.754 21.6725 257.559 21.4642 257.324C21.2559 257.085 21.0968 256.845 20.9869 256.602H20.879V258H18.4926ZM20.8619 253.636C20.8619 254.155 20.9339 254.608 21.0778 254.994C21.2218 255.381 21.4301 255.682 21.7028 255.898C21.9756 256.11 22.307 256.216 22.6972 256.216C23.0911 256.216 23.4244 256.108 23.6972 255.892C23.9699 255.672 24.1763 255.369 24.3165 254.983C24.4604 254.593 24.5324 254.144 24.5324 253.636C24.5324 253.133 24.4623 252.689 24.3222 252.307C24.182 251.924 23.9756 251.625 23.7028 251.409C23.4301 251.193 23.0949 251.085 22.6972 251.085C22.3032 251.085 21.9699 251.189 21.6972 251.398C21.4282 251.606 21.2218 251.902 21.0778 252.284C20.9339 252.667 20.8619 253.117 20.8619 253.636ZM35.7622 258.17C34.8683 258.17 34.0993 257.981 33.4554 257.602C32.8152 257.22 32.3228 256.689 31.9781 256.011C31.6372 255.333 31.4668 254.553 31.4668 253.67C31.4668 252.777 31.6391 251.992 31.9838 251.318C32.3323 250.64 32.8266 250.112 33.4668 249.733C34.1069 249.35 34.8683 249.159 35.7509 249.159C36.5122 249.159 37.1789 249.297 37.7509 249.574C38.3228 249.85 38.7755 250.239 39.1088 250.739C39.4421 251.239 39.6259 251.826 39.6599 252.5H37.3759C37.3115 252.064 37.141 251.714 36.8645 251.449C36.5918 251.18 36.2338 251.045 35.7906 251.045C35.4156 251.045 35.088 251.148 34.8077 251.352C34.5312 251.553 34.3152 251.847 34.1599 252.233C34.0046 252.619 33.927 253.087 33.927 253.636C33.927 254.193 34.0027 254.667 34.1543 255.057C34.3096 255.447 34.5274 255.744 34.8077 255.949C35.088 256.153 35.4156 256.256 35.7906 256.256C36.0671 256.256 36.3152 256.199 36.5349 256.085C36.7584 255.972 36.9421 255.807 37.0861 255.591C37.2338 255.371 37.3304 255.108 37.3759 254.801H39.6599C39.6221 255.468 39.4402 256.055 39.1145 256.562C38.7925 257.066 38.3474 257.46 37.7793 257.744C37.2111 258.028 36.5387 258.17 35.7622 258.17ZM47.6256 258.142C46.9627 258.142 46.3623 257.972 45.8244 257.631C45.2903 257.286 44.8661 256.78 44.5517 256.114C44.2411 255.443 44.0858 254.621 44.0858 253.648C44.0858 252.648 44.2468 251.816 44.5687 251.153C44.8907 250.487 45.3187 249.989 45.8528 249.659C46.3907 249.326 46.9797 249.159 47.6199 249.159C48.1085 249.159 48.5157 249.242 48.8415 249.409C49.171 249.572 49.4362 249.777 49.6369 250.023C49.8415 250.265 49.9968 250.504 50.1028 250.739H50.1767V246.364H52.5915V258H50.2051V256.602H50.1028C49.9892 256.845 49.8282 257.085 49.6199 257.324C49.4153 257.559 49.1483 257.754 48.8187 257.909C48.493 258.064 48.0953 258.142 47.6256 258.142ZM48.3926 256.216C48.7828 256.216 49.1123 256.11 49.3812 255.898C49.654 255.682 49.8623 255.381 50.0062 254.994C50.154 254.608 50.2278 254.155 50.2278 253.636C50.2278 253.117 50.1559 252.667 50.0119 252.284C49.868 251.902 49.6597 251.606 49.3869 251.398C49.1142 251.189 48.7828 251.085 48.3926 251.085C47.9949 251.085 47.6597 251.193 47.3869 251.409C47.1142 251.625 46.9078 251.924 46.7676 252.307C46.6275 252.689 46.5574 253.133 46.5574 253.636C46.5574 254.144 46.6275 254.593 46.7676 254.983C46.9116 255.369 47.118 255.672 47.3869 255.892C47.6597 256.108 47.9949 256.216 48.3926 256.216ZM61.7588 258.17C60.8611 258.17 60.0884 257.989 59.4406 257.625C58.7967 257.258 58.3005 256.739 57.952 256.068C57.6035 255.394 57.4293 254.597 57.4293 253.676C57.4293 252.778 57.6035 251.991 57.952 251.312C58.3005 250.634 58.791 250.106 59.4236 249.727C60.0599 249.348 60.8062 249.159 61.6622 249.159C62.238 249.159 62.774 249.252 63.2702 249.438C63.7702 249.619 64.2058 249.894 64.577 250.261C64.952 250.629 65.2437 251.091 65.452 251.648C65.6603 252.201 65.7645 252.848 65.7645 253.591V254.256H58.3952V252.756H63.4861C63.4861 252.407 63.4103 252.098 63.2588 251.83C63.1073 251.561 62.8971 251.35 62.6281 251.199C62.363 251.044 62.0543 250.966 61.702 250.966C61.3346 250.966 61.0088 251.051 60.7247 251.222C60.4444 251.388 60.2247 251.614 60.0656 251.898C59.9065 252.178 59.8251 252.491 59.8213 252.835V254.261C59.8213 254.693 59.9009 255.066 60.0599 255.381C60.2228 255.695 60.452 255.938 60.7474 256.108C61.0429 256.278 61.3933 256.364 61.7986 256.364C62.0675 256.364 62.3137 256.326 62.5372 256.25C62.7607 256.174 62.952 256.061 63.1111 255.909C63.2702 255.758 63.3914 255.572 63.4747 255.352L65.7134 255.5C65.5997 256.038 65.3668 256.508 65.0145 256.909C64.666 257.307 64.2152 257.617 63.6622 257.841C63.113 258.061 62.4785 258.17 61.7588 258.17ZM75.2372 249.273V251.091H69.8509V249.273H75.2372ZM71.0838 258V248.642C71.0838 248.009 71.2069 247.485 71.4531 247.068C71.7031 246.652 72.044 246.339 72.4759 246.131C72.9077 245.922 73.3982 245.818 73.9474 245.818C74.3187 245.818 74.6577 245.847 74.9645 245.903C75.2751 245.96 75.5062 246.011 75.6577 246.057L75.2259 247.875C75.1312 247.845 75.0137 247.816 74.8736 247.79C74.7372 247.763 74.5971 247.75 74.4531 247.75C74.0971 247.75 73.849 247.833 73.7088 248C73.5687 248.163 73.4986 248.392 73.4986 248.688V258H71.0838ZM83.5352 261.455C82.7511 261.455 82.0788 261.347 81.5182 261.131C80.9614 260.919 80.5182 260.629 80.1886 260.261C79.8591 259.894 79.6451 259.481 79.5466 259.023L81.7852 258.722C81.8534 258.896 81.9614 259.059 82.1091 259.21C82.2568 259.362 82.4519 259.483 82.6943 259.574C82.9405 259.669 83.2398 259.716 83.592 259.716C84.1186 259.716 84.5523 259.587 84.8932 259.33C85.2379 259.076 85.4102 258.65 85.4102 258.051V256.455H85.308C85.2019 256.697 85.0428 256.926 84.8307 257.142C84.6186 257.358 84.3458 257.534 84.0125 257.67C83.6792 257.807 83.2814 257.875 82.8193 257.875C82.164 257.875 81.5674 257.723 81.0295 257.42C80.4955 257.114 80.0693 256.646 79.7511 256.017C79.4367 255.384 79.2795 254.585 79.2795 253.619C79.2795 252.631 79.4405 251.805 79.7625 251.142C80.0845 250.479 80.5125 249.983 81.0466 249.653C81.5845 249.324 82.1735 249.159 82.8136 249.159C83.3023 249.159 83.7114 249.242 84.0409 249.409C84.3705 249.572 84.6356 249.777 84.8364 250.023C85.0409 250.265 85.1981 250.504 85.308 250.739H85.3989V249.273H87.8023V258.085C87.8023 258.828 87.6205 259.449 87.2568 259.949C86.8932 260.449 86.3894 260.824 85.7455 261.074C85.1053 261.328 84.3686 261.455 83.5352 261.455ZM83.5864 256.057C83.9765 256.057 84.3061 255.96 84.575 255.767C84.8477 255.57 85.0561 255.29 85.2 254.926C85.3477 254.559 85.4216 254.119 85.4216 253.608C85.4216 253.097 85.3496 252.653 85.2057 252.278C85.0617 251.9 84.8534 251.606 84.5807 251.398C84.308 251.189 83.9765 251.085 83.5864 251.085C83.1886 251.085 82.8534 251.193 82.5807 251.409C82.308 251.621 82.1015 251.917 81.9614 252.295C81.8212 252.674 81.7511 253.112 81.7511 253.608C81.7511 254.112 81.8212 254.547 81.9614 254.915C82.1053 255.278 82.3117 255.561 82.5807 255.761C82.8534 255.958 83.1886 256.057 83.5864 256.057ZM95.3489 252.955V258H92.9284V246.364H95.2807V250.812H95.383C95.5799 250.297 95.8981 249.894 96.3375 249.602C96.7769 249.307 97.328 249.159 97.9909 249.159C98.597 249.159 99.1254 249.292 99.5761 249.557C100.031 249.818 100.383 250.195 100.633 250.688C100.887 251.176 101.012 251.761 101.008 252.443V258H98.5875V252.875C98.5913 252.337 98.4549 251.919 98.1784 251.619C97.9057 251.32 97.5231 251.17 97.0307 251.17C96.7011 251.17 96.4095 251.241 96.1557 251.381C95.9057 251.521 95.7087 251.725 95.5648 251.994C95.4246 252.259 95.3527 252.58 95.3489 252.955ZM106.113 258V249.273H108.533V258H106.113ZM107.329 248.148C106.969 248.148 106.66 248.028 106.403 247.79C106.149 247.547 106.022 247.258 106.022 246.92C106.022 246.587 106.149 246.301 106.403 246.062C106.66 245.82 106.969 245.699 107.329 245.699C107.689 245.699 107.995 245.82 108.249 246.062C108.507 246.301 108.636 246.587 108.636 246.92C108.636 247.258 108.507 247.547 108.249 247.79C107.995 248.028 107.689 248.148 107.329 248.148ZM113.672 249.273H116.093V258.432C116.093 259.106 115.96 259.652 115.695 260.068C115.43 260.485 115.049 260.79 114.553 260.983C114.06 261.176 113.471 261.273 112.786 261.273C112.702 261.273 112.623 261.271 112.547 261.267C112.468 261.267 112.384 261.265 112.297 261.261V259.369C112.362 259.373 112.418 259.375 112.468 259.375C112.513 259.379 112.562 259.381 112.615 259.381C113.005 259.381 113.278 259.297 113.434 259.131C113.593 258.968 113.672 258.722 113.672 258.392V249.273ZM114.877 248.148C114.521 248.148 114.214 248.028 113.956 247.79C113.699 247.547 113.57 247.258 113.57 246.92C113.57 246.587 113.699 246.301 113.956 246.062C114.214 245.82 114.521 245.699 114.877 245.699C115.24 245.699 115.549 245.82 115.803 246.062C116.06 246.301 116.189 246.587 116.189 246.92C116.189 247.258 116.06 247.547 115.803 247.79C115.549 248.028 115.24 248.148 114.877 248.148ZM123.425 255.489L123.43 252.585H123.783L126.578 249.273H129.357L125.601 253.659H125.027L123.425 255.489ZM121.232 258V246.364H123.652V258H121.232ZM126.686 258L124.118 254.199L125.732 252.489L129.521 258H126.686ZM136.164 246.364V258H133.744V246.364H136.164ZM141.303 258V249.273H143.61V250.812H143.712C143.894 250.301 144.197 249.898 144.622 249.602C145.046 249.307 145.553 249.159 146.144 249.159C146.743 249.159 147.252 249.309 147.673 249.608C148.093 249.903 148.373 250.305 148.514 250.812H148.605C148.783 250.312 149.105 249.913 149.57 249.614C150.04 249.311 150.595 249.159 151.235 249.159C152.05 249.159 152.711 249.419 153.218 249.938C153.73 250.453 153.985 251.184 153.985 252.131V258H151.57V252.608C151.57 252.123 151.442 251.759 151.184 251.517C150.927 251.275 150.605 251.153 150.218 251.153C149.779 251.153 149.436 251.294 149.19 251.574C148.944 251.85 148.82 252.216 148.82 252.67V258H146.474V252.557C146.474 252.129 146.351 251.788 146.105 251.534C145.862 251.28 145.542 251.153 145.144 251.153C144.875 251.153 144.633 251.222 144.417 251.358C144.205 251.491 144.036 251.678 143.911 251.92C143.786 252.159 143.724 252.439 143.724 252.761V258H141.303ZM161.518 252.955V258H159.097V249.273H161.404V250.812H161.506C161.699 250.305 162.023 249.903 162.478 249.608C162.932 249.309 163.484 249.159 164.131 249.159C164.737 249.159 165.266 249.292 165.716 249.557C166.167 249.822 166.518 250.201 166.768 250.693C167.018 251.182 167.143 251.765 167.143 252.443V258H164.722V252.875C164.726 252.341 164.59 251.924 164.313 251.625C164.037 251.322 163.656 251.17 163.171 251.17C162.845 251.17 162.557 251.241 162.307 251.381C162.061 251.521 161.868 251.725 161.728 251.994C161.591 252.259 161.521 252.58 161.518 252.955ZM176.193 258.17C175.311 258.17 174.548 257.983 173.904 257.608C173.264 257.229 172.769 256.703 172.421 256.028C172.072 255.35 171.898 254.564 171.898 253.67C171.898 252.769 172.072 251.981 172.421 251.307C172.769 250.629 173.264 250.102 173.904 249.727C174.548 249.348 175.311 249.159 176.193 249.159C177.076 249.159 177.837 249.348 178.478 249.727C179.121 250.102 179.618 250.629 179.966 251.307C180.315 251.981 180.489 252.769 180.489 253.67C180.489 254.564 180.315 255.35 179.966 256.028C179.618 256.703 179.121 257.229 178.478 257.608C177.837 257.983 177.076 258.17 176.193 258.17ZM176.205 256.295C176.606 256.295 176.942 256.182 177.211 255.955C177.479 255.723 177.682 255.409 177.818 255.011C177.959 254.614 178.029 254.161 178.029 253.653C178.029 253.146 177.959 252.693 177.818 252.295C177.682 251.898 177.479 251.583 177.211 251.352C176.942 251.121 176.606 251.006 176.205 251.006C175.8 251.006 175.459 251.121 175.182 251.352C174.909 251.583 174.703 251.898 174.563 252.295C174.426 252.693 174.358 253.146 174.358 253.653C174.358 254.161 174.426 254.614 174.563 255.011C174.703 255.409 174.909 255.723 175.182 255.955C175.459 256.182 175.8 256.295 176.205 256.295ZM185.263 261.273V249.273H187.649V250.739H187.757C187.863 250.504 188.017 250.265 188.217 250.023C188.422 249.777 188.687 249.572 189.013 249.409C189.342 249.242 189.751 249.159 190.24 249.159C190.876 249.159 191.464 249.326 192.001 249.659C192.539 249.989 192.969 250.487 193.291 251.153C193.613 251.816 193.774 252.648 193.774 253.648C193.774 254.621 193.617 255.443 193.303 256.114C192.992 256.78 192.568 257.286 192.03 257.631C191.496 257.972 190.897 258.142 190.234 258.142C189.765 258.142 189.365 258.064 189.036 257.909C188.71 257.754 188.443 257.559 188.234 257.324C188.026 257.085 187.867 256.845 187.757 256.602H187.683V261.273H185.263ZM187.632 253.636C187.632 254.155 187.704 254.608 187.848 254.994C187.992 255.381 188.2 255.682 188.473 255.898C188.746 256.11 189.077 256.216 189.467 256.216C189.861 256.216 190.195 256.108 190.467 255.892C190.74 255.672 190.946 255.369 191.087 254.983C191.231 254.593 191.303 254.144 191.303 253.636C191.303 253.133 191.232 252.689 191.092 252.307C190.952 251.924 190.746 251.625 190.473 251.409C190.2 251.193 189.865 251.085 189.467 251.085C189.073 251.085 188.74 251.189 188.467 251.398C188.198 251.606 187.992 251.902 187.848 252.284C187.704 252.667 187.632 253.117 187.632 253.636ZM204.355 261.273V256.602H204.281C204.167 256.845 204.006 257.085 203.798 257.324C203.593 257.559 203.326 257.754 202.997 257.909C202.671 258.064 202.273 258.142 201.804 258.142C201.141 258.142 200.54 257.972 200.003 257.631C199.468 257.286 199.044 256.78 198.73 256.114C198.419 255.443 198.264 254.621 198.264 253.648C198.264 252.648 198.425 251.816 198.747 251.153C199.069 250.487 199.497 249.989 200.031 249.659C200.569 249.326 201.158 249.159 201.798 249.159C202.287 249.159 202.694 249.242 203.02 249.409C203.349 249.572 203.614 249.777 203.815 250.023C204.02 250.265 204.175 250.504 204.281 250.739H204.383V249.273H206.77V261.273H204.355ZM202.571 256.216C202.961 256.216 203.29 256.11 203.559 255.898C203.832 255.682 204.04 255.381 204.184 254.994C204.332 254.608 204.406 254.155 204.406 253.636C204.406 253.117 204.334 252.667 204.19 252.284C204.046 251.902 203.838 251.606 203.565 251.398C203.292 251.189 202.961 251.085 202.571 251.085C202.173 251.085 201.838 251.193 201.565 251.409C201.292 251.625 201.086 251.924 200.946 252.307C200.806 252.689 200.736 253.133 200.736 253.636C200.736 254.144 200.806 254.593 200.946 254.983C201.09 255.369 201.296 255.672 201.565 255.892C201.838 256.108 202.173 256.216 202.571 256.216ZM211.913 258V249.273H214.259V250.795H214.35C214.509 250.254 214.776 249.845 215.151 249.568C215.526 249.288 215.958 249.148 216.447 249.148C216.568 249.148 216.699 249.155 216.839 249.17C216.979 249.186 217.102 249.206 217.208 249.233V251.381C217.095 251.347 216.937 251.316 216.737 251.29C216.536 251.263 216.352 251.25 216.186 251.25C215.829 251.25 215.511 251.328 215.231 251.483C214.954 251.634 214.735 251.847 214.572 252.119C214.413 252.392 214.333 252.706 214.333 253.062V258H211.913ZM228.921 251.761L226.705 251.898C226.667 251.708 226.586 251.538 226.461 251.386C226.336 251.231 226.171 251.108 225.966 251.017C225.766 250.922 225.525 250.875 225.245 250.875C224.87 250.875 224.554 250.955 224.296 251.114C224.038 251.269 223.91 251.477 223.91 251.739C223.91 251.947 223.993 252.123 224.16 252.267C224.326 252.411 224.612 252.527 225.018 252.614L226.597 252.932C227.446 253.106 228.078 253.386 228.495 253.773C228.912 254.159 229.12 254.667 229.12 255.295C229.12 255.867 228.951 256.369 228.614 256.801C228.281 257.233 227.823 257.57 227.239 257.812C226.66 258.051 225.991 258.17 225.234 258.17C224.078 258.17 223.158 257.93 222.472 257.449C221.79 256.964 221.391 256.305 221.273 255.472L223.654 255.347C223.726 255.699 223.9 255.968 224.177 256.153C224.453 256.335 224.807 256.426 225.239 256.426C225.663 256.426 226.004 256.345 226.262 256.182C226.523 256.015 226.656 255.801 226.66 255.54C226.656 255.32 226.563 255.14 226.381 255C226.199 254.856 225.919 254.746 225.54 254.67L224.029 254.369C223.177 254.199 222.542 253.903 222.126 253.483C221.713 253.062 221.506 252.527 221.506 251.875C221.506 251.314 221.658 250.831 221.961 250.426C222.268 250.021 222.698 249.708 223.251 249.489C223.807 249.269 224.459 249.159 225.205 249.159C226.307 249.159 227.175 249.392 227.807 249.858C228.444 250.324 228.815 250.958 228.921 251.761ZM238.486 249.273V251.091H233.23V249.273H238.486ZM234.424 247.182H236.844V255.318C236.844 255.542 236.878 255.716 236.946 255.841C237.014 255.962 237.109 256.047 237.23 256.097C237.355 256.146 237.499 256.17 237.662 256.17C237.776 256.17 237.889 256.161 238.003 256.142C238.117 256.119 238.204 256.102 238.264 256.091L238.645 257.892C238.524 257.93 238.354 257.973 238.134 258.023C237.914 258.076 237.647 258.108 237.333 258.119C236.749 258.142 236.238 258.064 235.799 257.886C235.363 257.708 235.024 257.432 234.782 257.057C234.539 256.682 234.42 256.208 234.424 255.636V247.182ZM248.859 254.284V249.273H251.28V258H248.956V256.415H248.865C248.668 256.926 248.34 257.337 247.882 257.648C247.428 257.958 246.873 258.114 246.217 258.114C245.634 258.114 245.121 257.981 244.678 257.716C244.234 257.451 243.888 257.074 243.638 256.585C243.392 256.097 243.267 255.511 243.263 254.83V249.273H245.683V254.398C245.687 254.913 245.825 255.32 246.098 255.619C246.371 255.919 246.736 256.068 247.195 256.068C247.486 256.068 247.759 256.002 248.013 255.869C248.267 255.733 248.471 255.532 248.626 255.267C248.786 255.002 248.863 254.674 248.859 254.284ZM264.552 249.273L261.501 258H258.774L255.723 249.273H258.28L260.092 255.517H260.183L261.99 249.273H264.552ZM270.712 258L268.337 249.273H270.786L272.139 255.136H272.218L273.627 249.273H276.031L277.462 255.102H277.536L278.866 249.273H281.309L278.94 258H276.377L274.877 252.511H274.769L273.269 258H270.712ZM287.823 249.273L289.425 252.324L291.067 249.273H293.55L291.022 253.636L293.618 258H291.147L289.425 254.983L287.732 258H285.232L287.823 253.636L285.323 249.273H287.823ZM299.682 261.273C299.375 261.273 299.087 261.248 298.818 261.199C298.553 261.153 298.334 261.095 298.159 261.023L298.705 259.216C298.989 259.303 299.245 259.35 299.472 259.358C299.703 259.366 299.902 259.313 300.068 259.199C300.239 259.085 300.377 258.892 300.483 258.619L300.625 258.25L297.495 249.273H300.04L301.847 255.682H301.938L303.762 249.273H306.324L302.932 258.943C302.769 259.413 302.548 259.822 302.267 260.17C301.991 260.523 301.64 260.794 301.216 260.983C300.792 261.176 300.281 261.273 299.682 261.273ZM310.717 258V256.557L314.99 251.267V251.205H310.865V249.273H317.905V250.847L313.893 256.006V256.068H318.053V258H310.717Z" fill="white"/>
<path d="M6.05682 235V226.273H9.10795C9.71591 226.273 10.2173 226.378 10.6122 226.588C11.0071 226.795 11.3011 227.075 11.4943 227.428C11.6875 227.777 11.7841 228.165 11.7841 228.591C11.7841 228.966 11.7173 229.276 11.5838 229.52C11.4531 229.764 11.2798 229.957 11.0639 230.099C10.8509 230.241 10.6193 230.347 10.3693 230.415V230.5C10.6364 230.517 10.9048 230.611 11.1747 230.781C11.4446 230.952 11.6705 231.196 11.8523 231.514C12.0341 231.832 12.125 232.222 12.125 232.682C12.125 233.119 12.0256 233.513 11.8267 233.862C11.6278 234.212 11.3139 234.489 10.8849 234.693C10.456 234.898 9.89773 235 9.21023 235H6.05682ZM7.11364 234.062H9.21023C9.90057 234.062 10.3906 233.929 10.6804 233.662C10.973 233.392 11.1193 233.065 11.1193 232.682C11.1193 232.386 11.044 232.114 10.8935 231.864C10.7429 231.611 10.5284 231.409 10.25 231.259C9.97159 231.105 9.64205 231.028 9.26136 231.028H7.11364V234.062ZM7.11364 230.108H9.07386C9.39205 230.108 9.67898 230.045 9.93466 229.92C10.1932 229.795 10.3977 229.619 10.5483 229.392C10.7017 229.165 10.7784 228.898 10.7784 228.591C10.7784 228.207 10.6449 227.882 10.3778 227.615C10.1108 227.345 9.6875 227.21 9.10795 227.21H7.11364V230.108ZM16.3842 235.136C15.7933 235.136 15.2749 234.996 14.8288 234.714C14.3857 234.433 14.0391 234.04 13.7891 233.534C13.5419 233.028 13.4183 232.437 13.4183 231.761C13.4183 231.08 13.5419 230.484 13.7891 229.976C14.0391 229.467 14.3857 229.072 14.8288 228.791C15.2749 228.51 15.7933 228.369 16.3842 228.369C16.9751 228.369 17.4922 228.51 17.9354 228.791C18.3814 229.072 18.728 229.467 18.9751 229.976C19.2251 230.484 19.3501 231.08 19.3501 231.761C19.3501 232.437 19.2251 233.028 18.9751 233.534C18.728 234.04 18.3814 234.433 17.9354 234.714C17.4922 234.996 16.9751 235.136 16.3842 235.136ZM16.3842 234.233C16.8331 234.233 17.2024 234.118 17.4922 233.888C17.782 233.658 17.9964 233.355 18.1357 232.98C18.2749 232.605 18.3445 232.199 18.3445 231.761C18.3445 231.324 18.2749 230.916 18.1357 230.538C17.9964 230.161 17.782 229.855 17.4922 229.622C17.2024 229.389 16.8331 229.273 16.3842 229.273C15.9354 229.273 15.5661 229.389 15.2763 229.622C14.9865 229.855 14.772 230.161 14.6328 230.538C14.4936 230.916 14.424 231.324 14.424 231.761C14.424 232.199 14.4936 232.605 14.6328 232.98C14.772 233.355 14.9865 233.658 15.2763 233.888C15.5661 234.118 15.9354 234.233 16.3842 234.233ZM21.891 226.273V235H20.8853V226.273H21.891ZM26.2045 235.136C25.6591 235.136 25.1776 234.999 24.7599 234.723C24.3423 234.445 24.0156 234.053 23.7798 233.547C23.544 233.038 23.4261 232.438 23.4261 231.744C23.4261 231.057 23.544 230.46 23.7798 229.955C24.0156 229.449 24.3438 229.058 24.7642 228.783C25.1847 228.507 25.6705 228.369 26.2216 228.369C26.6477 228.369 26.9844 228.44 27.2315 228.582C27.4815 228.722 27.6719 228.881 27.8026 229.06C27.9361 229.236 28.0398 229.381 28.1136 229.494H28.1989V226.273H29.2045V235H28.233V233.994H28.1136C28.0398 234.114 27.9347 234.264 27.7983 234.446C27.6619 234.625 27.4673 234.786 27.2145 234.928C26.9616 235.067 26.625 235.136 26.2045 235.136ZM26.3409 234.233C26.7443 234.233 27.0852 234.128 27.3636 233.918C27.642 233.705 27.8537 233.411 27.9986 233.036C28.1435 232.658 28.2159 232.222 28.2159 231.727C28.2159 231.239 28.1449 230.811 28.0028 230.445C27.8608 230.075 27.6506 229.788 27.3722 229.584C27.0938 229.376 26.75 229.273 26.3409 229.273C25.9148 229.273 25.5597 229.382 25.2756 229.601C24.9943 229.817 24.7827 230.111 24.6406 230.483C24.5014 230.852 24.4318 231.267 24.4318 231.727C24.4318 232.193 24.5028 232.616 24.6449 232.997C24.7898 233.375 25.0028 233.676 25.2841 233.901C25.5682 234.122 25.9205 234.233 26.3409 234.233Z" fill="#A3A5C1"/>
<path d="M13.8864 35.4545V82H4.04545V35.4545H13.8864ZM31.483 61.8182V82H21.8011V47.0909H31.0284V53.25H31.4375C32.2102 51.2197 33.5057 49.6136 35.3239 48.4318C37.142 47.2348 39.3466 46.6364 41.9375 46.6364C44.3617 46.6364 46.4754 47.1667 48.2784 48.2273C50.0814 49.2879 51.483 50.803 52.483 52.7727C53.483 54.7273 53.983 57.0606 53.983 59.7727V82H44.3011V61.5C44.3163 59.3636 43.7708 57.697 42.6648 56.5C41.5587 55.2879 40.036 54.6818 38.0966 54.6818C36.7936 54.6818 35.642 54.9621 34.642 55.5227C33.6572 56.0833 32.8845 56.9015 32.3239 57.9773C31.7784 59.0379 31.4981 60.3182 31.483 61.8182ZM80.1818 47.0909V54.3636H59.1591V47.0909H80.1818ZM63.9318 38.7273H73.6136V71.2727C73.6136 72.1667 73.75 72.8636 74.0227 73.3636C74.2955 73.8485 74.6742 74.1894 75.1591 74.3864C75.6591 74.5833 76.2348 74.6818 76.8864 74.6818C77.3409 74.6818 77.7955 74.6439 78.25 74.5682C78.7045 74.4773 79.053 74.4091 79.2955 74.3636L80.8182 81.5682C80.3333 81.7197 79.6515 81.8939 78.7727 82.0909C77.8939 82.303 76.8258 82.4318 75.5682 82.4773C73.2348 82.5682 71.1894 82.2576 69.4318 81.5455C67.6894 80.8333 66.3333 79.7273 65.3636 78.2273C64.3939 76.7273 63.9167 74.8333 63.9318 72.5455V38.7273ZM102.023 82.6818C98.4318 82.6818 95.3409 81.9545 92.75 80.5C90.1742 79.0303 88.1894 76.9545 86.7955 74.2727C85.4015 71.5758 84.7045 68.3864 84.7045 64.7045C84.7045 61.1136 85.4015 57.9621 86.7955 55.25C88.1894 52.5379 90.1515 50.4242 92.6818 48.9091C95.2273 47.3939 98.2121 46.6364 101.636 46.6364C103.939 46.6364 106.083 47.0076 108.068 47.75C110.068 48.4773 111.811 49.5758 113.295 51.0455C114.795 52.5152 115.962 54.3636 116.795 56.5909C117.629 58.803 118.045 61.3939 118.045 64.3636V67.0227H88.5682V61.0227H108.932C108.932 59.6288 108.629 58.3939 108.023 57.3182C107.417 56.2424 106.576 55.4015 105.5 54.7955C104.439 54.1742 103.205 53.8636 101.795 53.8636C100.326 53.8636 99.0227 54.2045 97.8864 54.8864C96.7652 55.553 95.8864 56.4545 95.25 57.5909C94.6136 58.7121 94.2879 59.9621 94.2727 61.3409V67.0455C94.2727 68.7727 94.5909 70.2652 95.2273 71.5227C95.8788 72.7803 96.7955 73.75 97.9773 74.4318C99.1591 75.1136 100.561 75.4545 102.182 75.4545C103.258 75.4545 104.242 75.303 105.136 75C106.03 74.697 106.795 74.2424 107.432 73.6364C108.068 73.0303 108.553 72.2879 108.886 71.4091L117.841 72C117.386 74.1515 116.455 76.0303 115.045 77.6364C113.652 79.2273 111.848 80.4697 109.636 81.3636C107.439 82.2424 104.902 82.6818 102.023 82.6818ZM124.364 82V47.0909H133.75V53.1818H134.114C134.75 51.0152 135.818 49.3788 137.318 48.2727C138.818 47.1515 140.545 46.5909 142.5 46.5909C142.985 46.5909 143.508 46.6212 144.068 46.6818C144.629 46.7424 145.121 46.8258 145.545 46.9318V55.5227C145.091 55.3864 144.462 55.2652 143.659 55.1591C142.856 55.053 142.121 55 141.455 55C140.03 55 138.758 55.3106 137.636 55.9318C136.53 56.5379 135.652 57.3864 135 58.4773C134.364 59.5682 134.045 60.8258 134.045 62.25V82H124.364Z" fill="white"/>
<path d="M3.88494 14V3.81818H7.90199C8.67424 3.81818 9.33215 3.96567 9.87571 4.26065C10.4193 4.55232 10.8336 4.95833 11.1186 5.47869C11.407 5.99574 11.5511 6.59233 11.5511 7.26847C11.5511 7.9446 11.4053 8.54119 11.1136 9.05824C10.822 9.57528 10.3994 9.97798 9.84588 10.2663C9.29569 10.5547 8.6295 10.6989 7.8473 10.6989H5.28693V8.97372H7.49929C7.91359 8.97372 8.25497 8.90246 8.52344 8.75994C8.79522 8.61411 8.9974 8.41359 9.12997 8.15838C9.26586 7.89986 9.33381 7.60322 9.33381 7.26847C9.33381 6.9304 9.26586 6.63542 9.12997 6.38352C8.9974 6.12831 8.79522 5.93111 8.52344 5.7919C8.25166 5.64938 7.90696 5.57812 7.48935 5.57812H6.03764V14H3.88494ZM12.9096 14V6.36364H14.9629V7.69602H15.0424C15.1816 7.22206 15.4153 6.86411 15.7434 6.62216C16.0716 6.37689 16.4494 6.25426 16.877 6.25426C16.983 6.25426 17.0974 6.26089 17.22 6.27415C17.3426 6.28741 17.4503 6.30563 17.5431 6.32883V8.2081C17.4437 8.17827 17.3062 8.15175 17.1305 8.12855C16.9548 8.10535 16.7941 8.09375 16.6483 8.09375C16.3367 8.09375 16.0583 8.1617 15.813 8.29759C15.5711 8.43016 15.3788 8.61577 15.2363 8.8544C15.0971 9.09304 15.0275 9.36813 15.0275 9.67969V14H12.9096ZM18.6381 14V6.36364H20.756V14H18.6381ZM19.7021 5.37926C19.3872 5.37926 19.1171 5.27486 18.8917 5.06605C18.6696 4.85393 18.5586 4.60038 18.5586 4.3054C18.5586 4.01373 18.6696 3.76349 18.8917 3.55469C19.1171 3.34257 19.3872 3.23651 19.7021 3.23651C20.0169 3.23651 20.2854 3.34257 20.5075 3.55469C20.7328 3.76349 20.8455 4.01373 20.8455 4.3054C20.8455 4.60038 20.7328 4.85393 20.5075 5.06605C20.2854 5.27486 20.0169 5.37926 19.7021 5.37926ZM22.4526 14V6.36364H24.4711V7.71094H24.5605C24.7196 7.26349 24.9848 6.91051 25.356 6.65199C25.7272 6.39347 26.1713 6.2642 26.6884 6.2642C27.2121 6.2642 27.6578 6.39512 28.0257 6.65696C28.3936 6.91548 28.6389 7.26681 28.7615 7.71094H28.8411C28.9969 7.27344 29.2786 6.92377 29.6863 6.66193C30.0972 6.39678 30.5828 6.2642 31.1429 6.2642C31.8555 6.2642 32.4339 6.49124 32.878 6.94531C33.3255 7.39607 33.5492 8.03575 33.5492 8.86435V14H31.4363V9.28196C31.4363 8.85772 31.3236 8.53954 31.0982 8.32741C30.8728 8.11529 30.5911 8.00923 30.253 8.00923C29.8685 8.00923 29.5686 8.13187 29.3532 8.37713C29.1377 8.61908 29.03 8.93892 29.03 9.33665V14H26.9767V9.23722C26.9767 8.86269 26.869 8.56439 26.6536 8.34233C26.4415 8.12026 26.1614 8.00923 25.8134 8.00923C25.5781 8.00923 25.3659 8.06889 25.177 8.18821C24.9914 8.30421 24.8439 8.46828 24.7346 8.6804C24.6252 8.8892 24.5705 9.13447 24.5705 9.41619V14H22.4526ZM37.3997 14.1442C36.9125 14.1442 36.4783 14.0597 36.0971 13.8906C35.716 13.7183 35.4144 13.4647 35.1923 13.13C34.9735 12.7919 34.8642 12.371 34.8642 11.8672C34.8642 11.4429 34.9421 11.0866 35.0978 10.7983C35.2536 10.5099 35.4657 10.2779 35.7342 10.1023C36.0027 9.92661 36.3076 9.79403 36.649 9.70455C36.9937 9.61506 37.3549 9.55208 37.7328 9.51562C38.1769 9.46922 38.5349 9.42614 38.8066 9.38636C39.0784 9.34328 39.2756 9.2803 39.3983 9.19744C39.5209 9.11458 39.5822 8.99195 39.5822 8.82955V8.79972C39.5822 8.48485 39.4828 8.24124 39.2839 8.06889C39.0884 7.89654 38.81 7.81037 38.4487 7.81037C38.0675 7.81037 37.7643 7.89489 37.5389 8.06392C37.3135 8.22964 37.1644 8.43845 37.0914 8.69034L35.1326 8.53125C35.2321 8.06723 35.4276 7.66619 35.7193 7.32812C36.0109 6.98674 36.3871 6.7249 36.8478 6.54261C37.3118 6.35701 37.8488 6.2642 38.4586 6.2642C38.8829 6.2642 39.2889 6.31392 39.6767 6.41335C40.0678 6.51278 40.4141 6.6669 40.7157 6.87571C41.0207 7.08452 41.2609 7.35298 41.4366 7.68111C41.6123 8.00592 41.7001 8.39536 41.7001 8.84943V14H39.6916V12.9411H39.6319C39.5093 13.1797 39.3452 13.3902 39.1397 13.5724C38.9342 13.7514 38.6873 13.8923 38.399 13.995C38.1106 14.0945 37.7775 14.1442 37.3997 14.1442ZM38.0062 12.6825C38.3178 12.6825 38.5929 12.6212 38.8315 12.4986C39.0701 12.3726 39.2574 12.2036 39.3933 11.9915C39.5292 11.7794 39.5971 11.5391 39.5971 11.2706V10.4602C39.5308 10.5033 39.4397 10.5431 39.3237 10.5795C39.211 10.6127 39.0834 10.6442 38.9409 10.674C38.7984 10.7005 38.6558 10.7254 38.5133 10.7486C38.3708 10.7685 38.2415 10.7867 38.1255 10.8033C37.877 10.8397 37.6599 10.8977 37.4743 10.9773C37.2886 11.0568 37.1445 11.1645 37.0417 11.3004C36.939 11.433 36.8876 11.5987 36.8876 11.7976C36.8876 12.0859 36.992 12.3063 37.2008 12.4588C37.4129 12.608 37.6814 12.6825 38.0062 12.6825ZM43.3432 14V6.36364H45.3965V7.69602H45.476C45.6152 7.22206 45.8489 6.86411 46.177 6.62216C46.5051 6.37689 46.883 6.25426 47.3105 6.25426C47.4166 6.25426 47.531 6.26089 47.6536 6.27415C47.7762 6.28741 47.8839 6.30563 47.9767 6.32883V8.2081C47.8773 8.17827 47.7398 8.15175 47.5641 8.12855C47.3884 8.10535 47.2277 8.09375 47.0819 8.09375C46.7703 8.09375 46.4919 8.1617 46.2466 8.29759C46.0047 8.43016 45.8124 8.61577 45.6699 8.8544C45.5307 9.09304 45.4611 9.36813 45.4611 9.67969V14H43.3432ZM50.6117 16.8636C50.3432 16.8636 50.0913 16.8421 49.856 16.799C49.624 16.7592 49.4318 16.7079 49.2793 16.6449L49.7566 15.0639C50.0051 15.1402 50.2289 15.1816 50.4277 15.1882C50.6299 15.1948 50.8039 15.1484 50.9498 15.049C51.0989 14.9496 51.2199 14.7805 51.3127 14.5419L51.437 14.2188L48.6976 6.36364H50.9249L52.5059 11.9716H52.5854L54.1813 6.36364H56.4235L53.4554 14.8253C53.3129 15.2363 53.119 15.5942 52.8738 15.8991C52.6318 16.2074 52.3252 16.4444 51.954 16.6101C51.5828 16.7791 51.1354 16.8636 50.6117 16.8636ZM60.3995 5.59304V3.81818H68.7617V5.59304H65.6445V14H63.5167V5.59304H60.3995ZM70.5316 16.8636C70.2631 16.8636 70.0112 16.8421 69.7759 16.799C69.5439 16.7592 69.3517 16.7079 69.1992 16.6449L69.6765 15.0639C69.9251 15.1402 70.1488 15.1816 70.3477 15.1882C70.5498 15.1948 70.7238 15.1484 70.8697 15.049C71.0188 14.9496 71.1398 14.7805 71.2326 14.5419L71.3569 14.2188L68.6175 6.36364H70.8448L72.4258 11.9716H72.5053L74.1012 6.36364H76.3434L73.3754 14.8253C73.2328 15.2363 73.0389 15.5942 72.7937 15.8991C72.5517 16.2074 72.2451 16.4444 71.8739 16.6101C71.5027 16.7791 71.0553 16.8636 70.5316 16.8636ZM77.4272 16.8636V6.36364H79.5153V7.64631H79.6097C79.7025 7.44081 79.8368 7.23201 80.0124 7.01989C80.1914 6.80445 80.4234 6.62547 80.7085 6.48295C80.9968 6.33712 81.3548 6.2642 81.7823 6.2642C82.3391 6.2642 82.8529 6.41004 83.3235 6.7017C83.7942 6.99006 84.1703 7.4259 84.4521 8.00923C84.7338 8.58925 84.8746 9.31676 84.8746 10.1918C84.8746 11.0436 84.7371 11.7628 84.462 12.3494C84.1902 12.9328 83.819 13.3752 83.3484 13.6768C82.881 13.9751 82.3574 14.1243 81.7773 14.1243C81.3664 14.1243 81.0167 14.0563 80.7283 13.9205C80.4433 13.7846 80.2096 13.6139 80.0273 13.4084C79.8451 13.1996 79.7058 12.9891 79.6097 12.777H79.5451V16.8636H77.4272ZM79.5004 10.1818C79.5004 10.6359 79.5633 11.032 79.6893 11.37C79.8152 11.7081 79.9975 11.9716 80.2362 12.1605C80.4748 12.3461 80.7648 12.4389 81.1062 12.4389C81.4509 12.4389 81.7425 12.3445 81.9812 12.1555C82.2198 11.9633 82.4004 11.6982 82.5231 11.3601C82.649 11.0187 82.712 10.6259 82.712 10.1818C82.712 9.741 82.6507 9.35322 82.5281 9.01847C82.4054 8.68371 82.2248 8.42187 81.9862 8.23295C81.7475 8.04403 81.4542 7.94957 81.1062 7.94957C80.7615 7.94957 80.4698 8.04072 80.2312 8.22301C79.9959 8.4053 79.8152 8.66383 79.6893 8.99858C79.5633 9.33333 79.5004 9.72775 79.5004 10.1818ZM89.7667 14.1491C88.9812 14.1491 88.305 13.9901 87.7383 13.6719C87.1748 13.3504 86.7406 12.8963 86.4357 12.3097C86.1308 11.7197 85.9783 11.022 85.9783 10.2166C85.9783 9.43111 86.1308 8.74171 86.4357 8.14844C86.7406 7.55516 87.1699 7.0928 87.7234 6.76136C88.2802 6.42992 88.9331 6.2642 89.6822 6.2642C90.186 6.2642 90.6549 6.34541 91.0891 6.50781C91.5266 6.6669 91.9078 6.9072 92.2326 7.22869C92.5607 7.55019 92.8159 7.95455 92.9982 8.44176C93.1805 8.92566 93.2717 9.49242 93.2717 10.142V10.7237H86.8235V9.41122H91.2781C91.2781 9.1063 91.2118 8.83617 91.0792 8.60085C90.9466 8.36553 90.7627 8.18158 90.5273 8.04901C90.2953 7.91312 90.0252 7.84517 89.717 7.84517C89.3955 7.84517 89.1104 7.91974 88.8619 8.06889C88.6166 8.21473 88.4244 8.41193 88.2852 8.66051C88.146 8.90578 88.0747 9.17921 88.0714 9.48082V10.7287C88.0714 11.1065 88.141 11.433 88.2802 11.7081C88.4227 11.9832 88.6232 12.1953 88.8817 12.3445C89.1403 12.4936 89.4469 12.5682 89.8015 12.5682C90.0368 12.5682 90.2522 12.535 90.4478 12.4688C90.6433 12.4025 90.8107 12.303 90.9499 12.1705C91.0891 12.0379 91.1952 11.8755 91.2681 11.6832L93.2269 11.8125C93.1275 12.2831 92.9237 12.6941 92.6154 13.0455C92.3105 13.3935 91.9161 13.6652 91.4322 13.8608C90.9516 14.053 90.3964 14.1491 89.7667 14.1491ZM98.7603 6.36364V7.95455H94.0472V6.36364H98.7603ZM95.1261 14V5.81179C95.1261 5.25829 95.2338 4.79924 95.4492 4.43466C95.668 4.07008 95.9663 3.79664 96.3441 3.61435C96.7219 3.43205 97.1512 3.34091 97.6317 3.34091C97.9566 3.34091 98.2532 3.36577 98.5217 3.41548C98.7934 3.4652 98.9956 3.50994 99.1282 3.54972L98.7504 5.14062C98.6675 5.11411 98.5647 5.08925 98.4421 5.06605C98.3228 5.04285 98.2002 5.03125 98.0742 5.03125C97.7627 5.03125 97.5456 5.10417 97.4229 5.25C97.3003 5.39252 97.239 5.59304 97.239 5.85156V14H95.1261ZM101.958 14.1442C101.471 14.1442 101.037 14.0597 100.656 13.8906C100.275 13.7183 99.973 13.4647 99.7509 13.13C99.5321 12.7919 99.4228 12.371 99.4228 11.8672C99.4228 11.4429 99.5007 11.0866 99.6564 10.7983C99.8122 10.5099 100.024 10.2779 100.293 10.1023C100.561 9.92661 100.866 9.79403 101.208 9.70455C101.552 9.61506 101.914 9.55208 102.291 9.51562C102.735 9.46922 103.093 9.42614 103.365 9.38636C103.637 9.34328 103.834 9.2803 103.957 9.19744C104.079 9.11458 104.141 8.99195 104.141 8.82955V8.79972C104.141 8.48485 104.041 8.24124 103.843 8.06889C103.647 7.89654 103.369 7.81037 103.007 7.81037C102.626 7.81037 102.323 7.89489 102.097 8.06392C101.872 8.22964 101.723 8.43845 101.65 8.69034L99.6912 8.53125C99.7907 8.06723 99.9862 7.66619 100.278 7.32812C100.57 6.98674 100.946 6.7249 101.406 6.54261C101.87 6.35701 102.407 6.2642 103.017 6.2642C103.441 6.2642 103.847 6.31392 104.235 6.41335C104.626 6.51278 104.973 6.6669 105.274 6.87571C105.579 7.08452 105.82 7.35298 105.995 7.68111C106.171 8.00592 106.259 8.39536 106.259 8.84943V14H104.25V12.9411H104.191C104.068 13.1797 103.904 13.3902 103.698 13.5724C103.493 13.7514 103.246 13.8923 102.958 13.995C102.669 14.0945 102.336 14.1442 101.958 14.1442ZM102.565 12.6825C102.876 12.6825 103.151 12.6212 103.39 12.4986C103.629 12.3726 103.816 12.2036 103.952 11.9915C104.088 11.7794 104.156 11.5391 104.156 11.2706V10.4602C104.089 10.5033 103.998 10.5431 103.882 10.5795C103.77 10.6127 103.642 10.6442 103.499 10.674C103.357 10.7005 103.214 10.7254 103.072 10.7486C102.929 10.7685 102.8 10.7867 102.684 10.8033C102.436 10.8397 102.218 10.8977 102.033 10.9773C101.847 11.0568 101.703 11.1645 101.6 11.3004C101.498 11.433 101.446 11.5987 101.446 11.7976C101.446 12.0859 101.551 12.3063 101.759 12.4588C101.972 12.608 102.24 12.6825 102.565 12.6825ZM111.352 14.1491C110.57 14.1491 109.897 13.9834 109.334 13.652C108.773 13.3172 108.343 12.8532 108.041 12.2599C107.743 11.6667 107.594 10.9839 107.594 10.2116C107.594 9.42945 107.744 8.74337 108.046 8.15341C108.351 7.56013 108.783 7.09777 109.344 6.76633C109.904 6.43158 110.57 6.2642 111.342 6.2642C112.008 6.2642 112.592 6.38518 113.092 6.62713C113.593 6.86908 113.989 7.20881 114.28 7.64631C114.572 8.08381 114.733 8.59754 114.763 9.1875H112.764C112.708 8.80634 112.559 8.49976 112.317 8.26776C112.078 8.03243 111.765 7.91477 111.377 7.91477C111.049 7.91477 110.762 8.00426 110.517 8.18324C110.275 8.3589 110.086 8.61577 109.95 8.95384C109.814 9.2919 109.746 9.70123 109.746 10.1818C109.746 10.669 109.813 11.0833 109.945 11.4247C110.081 11.7661 110.272 12.0263 110.517 12.2053C110.762 12.3842 111.049 12.4737 111.377 12.4737C111.619 12.4737 111.836 12.424 112.028 12.3246C112.224 12.2251 112.385 12.081 112.51 11.892C112.64 11.6998 112.724 11.4695 112.764 11.201H114.763C114.729 11.7843 114.57 12.2981 114.285 12.7422C114.004 13.183 113.614 13.5277 113.117 13.7763C112.62 14.0249 112.032 14.1491 111.352 14.1491ZM119.599 14.1491C118.813 14.1491 118.137 13.9901 117.57 13.6719C117.007 13.3504 116.573 12.8963 116.268 12.3097C115.963 11.7197 115.81 11.022 115.81 10.2166C115.81 9.43111 115.963 8.74171 116.268 8.14844C116.573 7.55516 117.002 7.0928 117.555 6.76136C118.112 6.42992 118.765 6.2642 119.514 6.2642C120.018 6.2642 120.487 6.34541 120.921 6.50781C121.359 6.6669 121.74 6.9072 122.065 7.22869C122.393 7.55019 122.648 7.95455 122.83 8.44176C123.013 8.92566 123.104 9.49242 123.104 10.142V10.7237H116.656V9.41122H121.11C121.11 9.1063 121.044 8.83617 120.911 8.60085C120.779 8.36553 120.595 8.18158 120.359 8.04901C120.127 7.91312 119.857 7.84517 119.549 7.84517C119.228 7.84517 118.942 7.91974 118.694 8.06889C118.449 8.21473 118.256 8.41193 118.117 8.66051C117.978 8.90578 117.907 9.17921 117.903 9.48082V10.7287C117.903 11.1065 117.973 11.433 118.112 11.7081C118.255 11.9832 118.455 12.1953 118.714 12.3445C118.972 12.4936 119.279 12.5682 119.634 12.5682C119.869 12.5682 120.084 12.535 120.28 12.4688C120.475 12.4025 120.643 12.303 120.782 12.1705C120.921 12.0379 121.027 11.8755 121.1 11.6832L123.059 11.8125C122.96 12.2831 122.756 12.6941 122.447 13.0455C122.143 13.3935 121.748 13.6652 121.264 13.8608C120.784 14.053 120.228 14.1491 119.599 14.1491Z" fill="#A3A5C1"/>
</svg>
