<svg width="24" height="24" viewBox="0 0 24 24" fill="none" xmlns="http://www.w3.org/2000/svg">
<path d="M0 3V17H24V3H0ZM4.54492 5H19.4551L19.791 5.28906C19.7321 5.48644 19.7388 5.71197 19.8103 5.93743C19.8819 6.16289 20.0151 6.37828 20.1934 6.55664C20.4012 6.76439 20.6583 6.91016 20.9218 6.96954C21.1852 7.02891 21.439 6.9983 21.6406 6.88281L22 7.19336V12.8066L21.6387 13.1172C21.4372 13.0022 21.1837 12.9719 20.9207 13.0312C20.6577 13.0906 20.4009 13.2361 20.1934 13.4434C20.0149 13.6215 19.8813 13.8368 19.8094 14.0623C19.7375 14.2877 19.7304 14.5134 19.7891 14.7109L19.4551 15H4.54492L4.20898 14.7109C4.26794 14.5136 4.26122 14.288 4.18965 14.0626C4.11809 13.8371 3.98486 13.6217 3.80664 13.4434C3.59885 13.2356 3.3417 13.0898 3.07823 13.0305C2.81477 12.9711 2.56099 13.0017 2.35938 13.1172L2 12.8066V7.19336L2.36133 6.88281C2.56285 6.99778 2.81627 7.02811 3.0793 6.96875C3.34234 6.90939 3.59906 6.76393 3.80664 6.55664C3.98512 6.37848 4.11867 6.1632 4.19058 5.93774C4.26249 5.71227 4.26957 5.48663 4.21094 5.28906L4.54492 5ZM12 7C11.2044 7 10.4413 7.31607 9.87868 7.87868C9.31607 8.44129 9 9.20435 9 10C9 10.7956 9.31607 11.5587 9.87868 12.1213C10.4413 12.6839 11.2044 13 12 13C12.7956 13 13.5587 12.6839 14.1213 12.1213C14.6839 11.5587 15 10.7956 15 10C15 9.20435 14.6839 8.44129 14.1213 7.87868C13.5587 7.31607 12.7956 7 12 7ZM6 9C5.73478 9 5.48043 9.10536 5.29289 9.29289C5.10536 9.48043 5 9.73478 5 10C5 10.2652 5.10536 10.5196 5.29289 10.7071C5.48043 10.8946 5.73478 11 6 11C6.26522 11 6.51957 10.8946 6.70711 10.7071C6.89464 10.5196 7 10.2652 7 10C7 9.73478 6.89464 9.48043 6.70711 9.29289C6.51957 9.10536 6.26522 9 6 9ZM18 9C17.7348 9 17.4804 9.10536 17.2929 9.29289C17.1054 9.48043 17 9.73478 17 10C17 10.2652 17.1054 10.5196 17.2929 10.7071C17.4804 10.8946 17.7348 11 18 11C18.2652 11 18.5196 10.8946 18.7071 10.7071C18.8946 10.5196 19 10.2652 19 10C19 9.73478 18.8946 9.48043 18.7071 9.29289C18.5196 9.10536 18.2652 9 18 9ZM11 18V20H8.5L11.9688 24L15.5 20H13V18H11Z" fill="url(#paint0_linear_73_48)"/>
<defs>
<linearGradient id="paint0_linear_73_48" x1="12" y1="3" x2="12" y2="24" gradientUnits="userSpaceOnUse">
<stop stop-color="#2E27FE"/>
<stop offset="1" stop-color="#9A12FF"/>
</linearGradient>
</defs>
</svg>
