<svg width="100" height="100" viewBox="0 0 100 100" fill="none" xmlns="http://www.w3.org/2000/svg">
<path d="M76.0294 4.16666C75.4397 4.16915 74.8627 4.33843 74.3652 4.65494L52.6366 18.4814C50.4867 16.0454 47.379 14.5833 44.0551 14.5833H36.4583C32.4688 14.5833 29.1666 17.8855 29.1666 21.875V33.3333H14.5833C9.98117 33.3333 6.24992 37.0646 6.24992 41.6667V50C6.24992 54.6021 9.98117 58.3333 14.5833 58.3333H54.1666C58.7687 58.3333 62.4999 54.6021 62.4999 50V42.7083V39.5833V36.4583C62.4995 35.9271 62.3636 35.4047 62.1052 34.9406L55.9203 23.7996L75.3539 11.4339L88.5212 27.8931L75.9154 40.4989C75.0217 41.3926 74.7505 42.7359 75.2359 43.9046C75.7193 45.0734 76.8603 45.8333 78.1249 45.8333H88.5416C92.5624 45.8333 95.8332 42.5625 95.8332 38.5417V28.125C95.8332 28.1223 95.8333 28.1196 95.8332 28.1169C95.832 27.8092 95.7854 27.5035 95.6949 27.2095C95.6949 27.2095 95.6949 27.2054 95.6949 27.2054C95.606 26.9169 95.4758 26.6428 95.3083 26.3916C95.3062 26.3884 95.3023 26.3866 95.3002 26.3835C95.253 26.3109 95.2027 26.2403 95.1497 26.1719L78.483 5.33853C78.1887 4.97099 77.8152 4.6747 77.3903 4.47178C76.9654 4.26885 76.5002 4.16455 76.0294 4.16666ZM36.4583 20.8333H44.0551C45.9523 20.8333 47.6886 21.8553 48.6083 23.5107L56.2499 37.2681V39.5833H44.2545C42.5961 39.5833 41.0084 38.9231 39.8355 37.7523L37.2476 35.1644C36.7163 34.6321 36.0877 34.2221 35.4166 33.9152V21.875C35.4166 21.2603 35.8436 20.8333 36.4583 20.8333ZM14.5833 64.5833C7.6895 64.5833 2.08325 70.1896 2.08325 77.0833C2.08325 83.9771 7.6895 89.5833 14.5833 89.5833H56.2499C63.1437 89.5833 68.7499 83.9771 68.7499 77.0833C68.7499 70.1896 63.1437 64.5833 56.2499 64.5833H14.5833ZM18.7499 72.9167C21.052 72.9167 22.9166 74.7813 22.9166 77.0833C22.9166 79.3854 21.052 81.25 18.7499 81.25C16.4478 81.25 14.5833 79.3854 14.5833 77.0833C14.5833 74.7813 16.4478 72.9167 18.7499 72.9167ZM35.4166 72.9167C37.7187 72.9167 39.5833 74.7813 39.5833 77.0833C39.5833 79.3854 37.7187 81.25 35.4166 81.25C33.1145 81.25 31.2499 79.3854 31.2499 77.0833C31.2499 74.7813 33.1145 72.9167 35.4166 72.9167ZM52.0833 72.9167C54.3853 72.9167 56.2499 74.7813 56.2499 77.0833C56.2499 79.3854 54.3853 81.25 52.0833 81.25C49.7812 81.25 47.9166 79.3854 47.9166 77.0833C47.9166 74.7813 49.7812 72.9167 52.0833 72.9167Z" fill="url(#paint0_linear_73_141)"/>
<defs>
<linearGradient id="paint0_linear_73_141" x1="95.8332" y1="89.5859" x2="2.08325" y2="89.5859" gradientUnits="userSpaceOnUse">
<stop stop-color="#2E27FE"/>
<stop offset="0.739583" stop-color="#9A12FF"/>
<stop offset="1" stop-color="#CD05FF"/>
</linearGradient>
</defs>
</svg>
