<svg width="24" height="24" viewBox="0 0 24 24" fill="none" xmlns="http://www.w3.org/2000/svg">
<path d="M15.2812 4C15.0156 4.01953 14.7539 4.125 14.4688 4.28125C13.2148 4.97266 10.2109 6.72657 8.78125 7.625C8.29688 7.91016 7.875 8.35547 7.875 8.96875C7.875 9.75782 8.48828 10.4063 9.25 10.4063C9.54297 10.4063 9.77344 10.2578 10.0312 10.125C10.6602 9.8086 12.1758 9.02344 13.1875 8.46875C14.293 7.86328 14.9688 8.5625 14.9688 8.5625C14.9688 8.5625 18.9414 12.668 20.0625 13.7813C20.7891 14.5078 21.8047 14.168 22.125 14.125C22.4453 14.0859 24 13.7813 24 13.7813V6.21875C24 6.21875 21.1289 6.96094 20.2188 7.09375C19.7852 7.15625 19.25 6.90625 19.25 6.90625C19.25 6.90625 18.1016 5.875 16.8125 4.75C16.1602 4.17969 15.7227 3.96875 15.2812 4ZM9.03125 4.09375C7.5625 4.09375 4.5 6.1875 4.5 6.1875C4.5 6.1875 3.61328 6.76953 2.375 6.25L0 5.40625V14C0 14 0.667969 14.2109 1.28125 14.4688C1.42188 14.0586 1.65625 13.6875 1.96875 13.375C2.98828 12.3672 4.66797 12.3555 5.59375 13.3438C5.87109 13.6445 6.08594 14.0117 6.1875 14.4063C6.5625 14.5273 6.88281 14.7422 7.15625 15.0313C7.43359 15.3281 7.61719 15.6992 7.71875 16.0938C8.09375 16.2148 8.44531 16.4258 8.71875 16.7188C9.02734 17.0469 9.21484 17.4453 9.3125 17.875C9.70312 17.9922 10.0586 18.1953 10.3438 18.5C10.8984 19.0938 11.0898 19.9102 10.9688 20.6875C10.9688 20.6875 11.3164 21.0898 11.5312 21.3125C11.9414 21.7383 12.6211 21.7383 13.0312 21.3125C13.4414 20.8867 13.4414 20.1758 13.0312 19.75C13.0156 19.7344 11.5195 18.1719 11.6562 18.0313C11.793 17.8906 13.6523 19.9023 13.6875 19.9375C14.0977 20.3633 14.7773 20.3633 15.1875 19.9375C15.5977 19.5117 15.5977 18.832 15.1875 18.4063C15.168 18.3867 13.4531 16.5195 13.5625 16.4063C13.6836 16.2773 15.7773 18.5 15.7812 18.5C16.1953 18.8867 16.8203 18.8828 17.2188 18.4688C17.6055 18.0703 17.6211 17.4297 17.2812 17C17.2734 16.9766 15.5469 15.0508 15.6562 14.9375C15.7656 14.8242 17.5273 16.6523 17.5312 16.6563C17.9414 17.082 18.6211 17.082 19.0312 16.6563C19.4414 16.2305 19.4414 15.5195 19.0312 15.0938C19.0234 15.0859 16.7227 12.7188 14.4062 10.3125C14.4062 10.3125 13.6992 9.58203 12.7812 10C12.1367 10.293 11.3125 10.6953 10.6875 11C10 11.3711 9.40625 11.5 9.28125 11.5C7.95703 11.5 6.875 10.375 6.875 9C6.875 8.10938 7.35156 7.34766 8.03125 6.90625C8.98828 6.21875 11.1875 5 11.1875 5C11.1875 5 10.5 4.09375 9.03125 4.09375ZM3.8125 13.75C3.44531 13.7617 3.04688 13.9258 2.75 14.2188C2.15625 14.8086 1.78516 15.875 2.3125 16.5C2.83984 17.125 3.44141 16.7344 3.90625 16.625C3.77734 17.1016 3.40234 17.5664 3.875 18.1875C4.34766 18.8125 5.00391 18.4219 5.46875 18.3125C5.33984 18.7891 4.98047 19.2656 5.4375 19.8438C5.89844 20.4219 6.62891 20.1289 7.125 19.9688C6.93359 20.4805 6.53516 21.0352 7.0625 21.6563C7.58984 22.2773 8.80859 21.9961 9.40625 21.4063C10 20.8164 10.0547 19.8711 9.53125 19.3125C9.17188 18.9297 8.62109 18.8398 8.125 19C8.31641 18.4844 8.27734 17.9258 7.90625 17.5313C7.57422 17.1758 7.08984 17.0781 6.625 17.1875C6.75391 16.7109 6.67969 16.2031 6.34375 15.8438C6.01172 15.4883 5.52734 15.3906 5.0625 15.5C5.19141 15.0234 5.11719 14.5156 4.78125 14.1563C4.51953 13.8789 4.17969 13.7383 3.8125 13.75Z" fill="url(#paint0_linear_73_83)"/>
<defs>
<linearGradient id="paint0_linear_73_83" x1="12" y1="3.99701" x2="12" y2="22.0065" gradientUnits="userSpaceOnUse">
<stop stop-color="#2E27FE"/>
<stop offset="1" stop-color="#9A12FF"/>
</linearGradient>
</defs>
</svg>
