<svg width="100" height="100" viewBox="0 0 100 100" fill="none" xmlns="http://www.w3.org/2000/svg">
<path d="M59.1309 10.5957C58.509 10.5959 57.9013 10.7816 57.3855 11.129C56.8697 11.4765 56.4693 11.97 56.2356 12.5463C56.0018 13.1226 55.9453 13.7556 56.0733 14.3642C56.2013 14.9728 56.5079 15.5294 56.954 15.9627C67.1492 26.1579 67.1492 42.5961 56.954 52.7913C56.6541 53.0793 56.4147 53.4242 56.2497 53.8058C56.0848 54.1875 55.9976 54.5982 55.9934 55.014C55.9892 55.4297 56.0679 55.8421 56.2251 56.2271C56.3822 56.612 56.6146 56.9617 56.9086 57.2557C57.2026 57.5497 57.5523 57.7821 57.9372 57.9392C58.3222 58.0964 58.7346 58.1751 59.1503 58.1709C59.5661 58.1667 59.9768 58.0795 60.3585 57.9146C60.7401 57.7496 61.085 57.5102 61.373 57.2103C73.9569 44.6263 73.9569 24.1277 61.373 11.5438C61.0817 11.2438 60.7332 11.0053 60.348 10.8425C59.9629 10.6796 59.5491 10.5957 59.1309 10.5957V10.5957ZM23.9096 16.6219C23.0815 16.6348 22.2924 16.9759 21.7156 17.5703C21.1388 18.1646 20.8215 18.9636 20.8334 19.7917V62.5H19.7917C14.6511 62.5 10.4167 66.7344 10.4167 71.875V80.2083C10.4167 85.349 14.6511 89.5833 19.7917 89.5833H80.2084C85.349 89.5833 89.5834 85.349 89.5834 80.2083V71.875C89.5834 66.7344 85.349 62.5 80.2084 62.5H41.6667V34.375C41.6727 33.9567 41.5947 33.5415 41.4373 33.154C41.2799 32.7664 41.0462 32.4144 40.7503 32.1188C40.4543 31.8232 40.102 31.5901 39.7142 31.4331C39.3265 31.2762 38.9112 31.1987 38.4929 31.2052C37.6648 31.2182 36.8757 31.5593 36.2989 32.1536C35.7222 32.7479 35.4049 33.5469 35.4167 34.375V62.5H27.0834V19.7917C27.0894 19.3734 27.0114 18.9582 26.854 18.5706C26.6965 18.1831 26.4629 17.8311 26.1669 17.5355C25.871 17.2399 25.5187 17.0067 25.1309 16.8498C24.7431 16.6929 24.3278 16.6154 23.9096 16.6219V16.6219ZM50.293 19.4336C49.6711 19.4337 49.0634 19.6194 48.5476 19.9669C48.0318 20.3144 47.6314 20.8079 47.3977 21.3842C47.1639 21.9605 47.1074 22.5935 47.2354 23.2021C47.3634 23.8107 47.67 24.3673 48.1161 24.8006C53.43 30.1145 53.43 38.6355 48.1161 43.9494C47.8162 44.2373 47.5768 44.5822 47.4118 44.9639C47.2469 45.3455 47.1597 45.7563 47.1555 46.172C47.1513 46.5878 47.2301 47.0002 47.3872 47.3851C47.5444 47.77 47.7767 48.1197 48.0707 48.4137C48.3647 48.7077 48.7144 48.9401 49.0994 49.0972C49.4843 49.2544 49.8967 49.3332 50.3124 49.3289C50.7282 49.3247 51.1389 49.2376 51.5206 49.0726C51.9022 48.9077 52.2471 48.6682 52.5351 48.3683C60.2379 40.6655 60.2379 28.0845 52.5351 20.3817C52.2438 20.0817 51.8953 19.8432 51.5102 19.6804C51.125 19.5175 50.7112 19.4336 50.293 19.4336ZM23.9584 71.875C26.2605 71.875 28.1251 73.7396 28.1251 76.0417C28.1251 78.3437 26.2605 80.2083 23.9584 80.2083C21.6563 80.2083 19.7917 78.3437 19.7917 76.0417C19.7917 73.7396 21.6563 71.875 23.9584 71.875ZM61.4584 71.875C63.7605 71.875 65.6251 73.7396 65.6251 76.0417C65.6251 78.3437 63.7605 80.2083 61.4584 80.2083C59.1563 80.2083 57.2917 78.3437 57.2917 76.0417C57.2917 73.7396 59.1563 71.875 61.4584 71.875ZM76.0417 71.875C78.3438 71.875 80.2084 73.7396 80.2084 76.0417C80.2084 78.3437 78.3438 80.2083 76.0417 80.2083C73.7397 80.2083 71.8751 78.3437 71.8751 76.0417C71.8751 73.7396 73.7397 71.875 76.0417 71.875Z" fill="url(#paint0_linear_73_158)"/>
<defs>
<linearGradient id="paint0_linear_73_158" x1="89.5834" y1="89.5857" x2="10.4167" y2="89.5857" gradientUnits="userSpaceOnUse">
<stop stop-color="#2E27FE"/>
<stop offset="0.739583" stop-color="#9A12FF"/>
<stop offset="1" stop-color="#CD05FF"/>
</linearGradient>
</defs>
</svg>
