<svg width="60" height="60" viewBox="0 0 60 60" fill="none" xmlns="http://www.w3.org/2000/svg">
<path d="M12.5 7.5C9.76734 7.5 7.5 9.76734 7.5 12.5V17.5H12.5V12.5H17.5V7.5H12.5ZM22.5 7.5V12.5H27.5V7.5H22.5ZM32.5 7.5V12.5H37.5V7.5H32.5ZM42.5 7.5V12.5H47.5V17.5H52.5V12.5C52.5 9.76734 50.2327 7.5 47.5 7.5H42.5ZM17.5 17.5V22.5H42.5V17.5H17.5ZM7.5 22.5V27.5H12.5V22.5H7.5ZM47.5 22.5V27.5H52.5V22.5H47.5ZM17.5 27.5V32.5H35V27.5H17.5ZM52.4756 32.2119L47.4756 32.2363L47.5 37.5098L52.5 37.4902L52.4756 32.2119ZM7.5 32.5V37.5H12.5V32.5H7.5ZM17.5 37.5V42.5H42.5V37.5H17.5ZM7.5 42.5V47.5C7.5 50.2327 9.76734 52.5 12.5 52.5H17.5V47.5H12.5V42.5H7.5ZM47.5 42.5V47.5H42.5V52.5H47.5C50.2327 52.5 52.5 50.2327 52.5 47.5V42.5H47.5ZM22.5 47.5V52.5H27.5V47.5H22.5ZM32.5 47.5V52.5H37.5V47.5H32.5Z" fill="white"/>
</svg>
