<svg width="100" height="100" viewBox="0 0 100 100" fill="none" xmlns="http://www.w3.org/2000/svg">
<path d="M50 8.53271C47.491 8.53271 44.985 9.34879 42.9118 10.9823L13.6922 34.0047C13.1827 34.4068 12.811 34.9576 12.6288 35.5806C12.4466 36.2036 12.4628 36.8678 12.6753 37.4812C12.8878 38.0945 13.286 38.6264 13.8146 39.0031C14.3432 39.3798 14.9759 39.5826 15.625 39.5833H84.375C85.0241 39.5826 85.6568 39.3798 86.1854 39.0031C86.714 38.6264 87.1122 38.0945 87.3247 37.4812C87.5372 36.8678 87.5534 36.2036 87.3712 35.5806C87.189 34.9576 86.8173 34.4068 86.3078 34.0047L57.0923 10.9823C55.019 9.34879 52.509 8.53271 50 8.53271ZM50 20.8333C52.3021 20.8333 54.1667 22.6979 54.1667 25C54.1667 27.3021 52.3021 29.1667 50 29.1667C47.6979 29.1667 45.8333 27.3021 45.8333 25C45.8333 22.6979 47.6979 20.8333 50 20.8333ZM19.7917 43.75V75C15.7708 75 12.5 78.2708 12.5 82.2917C12.5 86.3125 15.7708 89.5833 19.7917 89.5833H45.8333V75H39.5833V43.75H33.3333V75H26.0417V43.75H19.7917ZM46.875 43.75V63.9811C48.1458 61.8561 50.4583 60.4167 53.125 60.4167V43.75H46.875ZM60.4167 43.75V60.4167H66.6667V43.75H60.4167ZM73.9583 43.75V60.4167H80.2083V43.75H73.9583ZM55.2083 64.5833C52.3333 64.5833 50 66.9167 50 69.7917V72.9167H95.8333V69.7917C95.8333 66.9167 93.5 64.5833 90.625 64.5833H55.2083ZM50 77.0833V90.625C50 93.5 52.3333 95.8333 55.2083 95.8333H90.625C93.5 95.8333 95.8333 93.5 95.8333 90.625V77.0833H50Z" fill="url(#paint0_linear_73_171)"/>
<defs>
<linearGradient id="paint0_linear_73_171" x1="95.8333" y1="95.836" x2="12.5" y2="95.836" gradientUnits="userSpaceOnUse">
<stop stop-color="#2E27FE"/>
<stop offset="0.739583" stop-color="#9A12FF"/>
<stop offset="1" stop-color="#CD05FF"/>
</linearGradient>
</defs>
</svg>
