<svg width="60" height="60" viewBox="0 0 60 60" fill="none" xmlns="http://www.w3.org/2000/svg">
<path d="M14.3749 5C11.2737 5 8.74992 7.52375 8.74992 10.625V40.625C8.74992 41.66 9.58992 42.5 10.6249 42.5H22.9394C22.6669 41.9288 22.4999 41.2987 22.4999 40.625V20.625C22.4999 16.145 26.1449 12.5 30.6249 12.5H34.9999V10.625C34.9999 7.52375 32.4762 5 29.3749 5H14.3749ZM16.2499 13.75H18.7499C19.4399 13.75 19.9999 14.31 19.9999 15V17.5C19.9999 18.19 19.4399 18.75 18.7499 18.75H16.2499C15.5599 18.75 14.9999 18.19 14.9999 17.5V15C14.9999 14.31 15.5599 13.75 16.2499 13.75ZM30.6249 15C27.5237 15 24.9999 17.5238 24.9999 20.625V40.625C24.9999 41.66 25.8399 42.5 26.8749 42.5H49.3749C50.4099 42.5 51.2499 41.66 51.2499 40.625V20.625C51.2499 17.5238 48.7262 15 45.6249 15H30.6249ZM16.2499 22.5H18.7499C19.4399 22.5 19.9999 23.06 19.9999 23.75V26.25C19.9999 26.94 19.4399 27.5 18.7499 27.5H16.2499C15.5599 27.5 14.9999 26.94 14.9999 26.25V23.75C14.9999 23.06 15.5599 22.5 16.2499 22.5ZM32.4999 22.5H34.9999C35.6899 22.5 36.2499 23.06 36.2499 23.75V26.25C36.2499 26.94 35.6899 27.5 34.9999 27.5H32.4999C31.8099 27.5 31.2499 26.94 31.2499 26.25V23.75C31.2499 23.06 31.8099 22.5 32.4999 22.5ZM41.2499 22.5H43.7499C44.4399 22.5 44.9999 23.06 44.9999 23.75V26.25C44.9999 26.94 44.4399 27.5 43.7499 27.5H41.2499C40.5599 27.5 39.9999 26.94 39.9999 26.25V23.75C39.9999 23.06 40.5599 22.5 41.2499 22.5ZM6.24992 31.189C5.33492 31.8977 4.63191 32.8818 4.29191 34.0381L0.2465 47.7856C-0.25725 49.5031 0.065113 51.3104 1.13761 52.7441C2.21136 54.1779 3.85445 55 5.64445 55H54.3578C56.1478 55 57.7885 54.1779 58.8622 52.7441C59.9322 51.3116 60.2571 49.5056 59.7533 47.7881L55.7104 34.0381C55.3704 32.8806 54.6661 31.8977 53.7523 31.189V40.625C53.7523 43.0412 51.7936 45 49.3773 45H33.1274H26.8774H10.6274C8.20986 45 6.24992 43.0412 6.24992 40.625V31.189ZM16.2499 31.25H18.7499C19.4399 31.25 19.9999 31.81 19.9999 32.5V35C19.9999 35.69 19.4399 36.25 18.7499 36.25H16.2499C15.5599 36.25 14.9999 35.69 14.9999 35V32.5C14.9999 31.81 15.5599 31.25 16.2499 31.25ZM32.4999 31.25H34.9999C35.6899 31.25 36.2499 31.81 36.2499 32.5V35C36.2499 35.69 35.6899 36.25 34.9999 36.25H32.4999C31.8099 36.25 31.2499 35.69 31.2499 35V32.5C31.2499 31.81 31.8099 31.25 32.4999 31.25ZM41.2499 31.25H43.7499C44.4399 31.25 44.9999 31.81 44.9999 32.5V35C44.9999 35.69 44.4399 36.25 43.7499 36.25H41.2499C40.5599 36.25 39.9999 35.69 39.9999 35V32.5C39.9999 31.81 40.5599 31.25 41.2499 31.25Z" fill="url(#paint0_linear_73_122)"/>
<defs>
<linearGradient id="paint0_linear_73_122" x1="59.9854" y1="55.0015" x2="0.013916" y2="55.0015" gradientUnits="userSpaceOnUse">
<stop stop-color="#2E27FE"/>
<stop offset="0.739583" stop-color="#9A12FF"/>
<stop offset="1" stop-color="#CD05FF"/>
</linearGradient>
</defs>
</svg>
