<svg width="24" height="24" viewBox="0 0 24 24" fill="none" xmlns="http://www.w3.org/2000/svg">
<path d="M12 1C10.3438 1 9 2.34375 9 4C9 5.65625 10.3438 7 12 7C13.6562 7 15 5.65625 15 4C15 2.34375 13.6562 1 12 1ZM4 3C2.34375 3 1 4.34375 1 6C1 7.65625 2.34375 9 4 9C5.65625 9 7 7.65625 7 6C7 4.34375 5.65625 3 4 3ZM20 3C18.3438 3 17 4.34375 17 6C17 7.65625 18.3438 9 20 9C21.6562 9 23 7.65625 23 6C23 4.34375 21.6562 3 20 3ZM10.3125 7.59375C9.22656 7.87891 8.39062 8.55078 8 10V11C7.75 9.78125 5.6875 9.59375 5.6875 9.59375C5.1875 9.86328 4.60938 10 4 10C3.39453 10 2.8125 9.86328 2.3125 9.59375C1.23047 9.87891 0.390625 10.5508 0 12V16C0 19.0156 2.49609 21.6367 6.1875 23H7C7.48438 21.1875 8.55469 20.3555 9.90625 20C10.5312 20.3359 11.2422 20.5312 12 20.5312C12.7617 20.5312 13.4688 20.3359 14.0938 20C15.4453 20.3555 16.5156 21.1875 17 23H17.8125C21.5039 21.6367 24 19.0156 24 16V12C23.6094 10.5508 22.7695 9.87891 21.6875 9.59375C21.1875 9.86328 20.6094 10 20 10C19.3945 10 18.8125 9.86328 18.3125 9.59375C18.3125 9.59375 16.3906 9.78125 16 11V10C15.6094 8.55078 14.7695 7.87891 13.6875 7.59375C13.1875 7.86328 12.6094 8 12 8C11.3945 8 10.8125 7.86328 10.3125 7.59375ZM12 13C13.6562 13 15 14.3438 15 16C15 17.6562 13.6562 19 12 19C10.3438 19 9 17.6562 9 16C9 14.3438 10.3438 13 12 13Z" fill="url(#paint0_linear_73_69)"/>
<defs>
<linearGradient id="paint0_linear_73_69" x1="12" y1="1" x2="12" y2="23" gradientUnits="userSpaceOnUse">
<stop stop-color="#2E27FE"/>
<stop offset="1" stop-color="#9A12FF"/>
</linearGradient>
</defs>
</svg>
