<svg width="60" height="60" viewBox="0 0 60 60" fill="none" xmlns="http://www.w3.org/2000/svg">
<g clip-path="url(#clip0_73_248)">
<path d="M22.5001 2.5C14.8785 2.5 8.55878 8.25541 7.63189 15.6348C6.07987 16.4899 5.00005 18.1261 5.00005 20V41.2256C4.91033 44.3226 7.03461 47.091 10.0489 47.8076L10.127 47.8272L11.0206 47.9785C14.7177 55.8919 22.3869 59.9945 29.9659 60C37.5493 60.0055 45.225 55.9101 48.9307 47.9932L49.8829 47.8223L49.9512 47.8076C52.9655 47.091 55.0898 44.3226 55.0001 41.2256V20C55.0001 18.1261 53.9202 16.4899 52.3682 15.6348C51.4413 8.25541 45.1216 2.5 37.5001 2.5H22.5001ZM22.5001 7.5H37.5001C42.1643 7.5 45.8785 10.7046 47.002 15H12.9981C14.1216 10.7046 17.8359 7.5 22.5001 7.5ZM10.0001 20H50.0001V41.3379V41.3721C50.0215 42.118 49.5465 42.7431 48.8282 42.9297L48.3301 43.0225L47.4952 43.1641L46.8995 43.2813L46.7237 43.3154L44.9463 43.6426C35.071 45.4613 24.9489 45.4589 15.0733 43.6426L11.0547 42.8711C10.4098 42.6463 9.97978 42.0717 10.0001 41.3721V41.3379V20ZM17.6856 25C14.9588 25 12.6856 27.2732 12.6856 30V35C12.6856 37.7268 14.9588 40 17.6856 40H42.3145C45.0413 40 47.3145 37.7268 47.3145 35V30C47.3145 27.2732 45.0413 25 42.3145 25H17.6856ZM17.6856 30H42.3145V35H17.6856V30ZM17.6563 49.126C25.8276 50.2897 34.1232 50.2902 42.295 49.1309C39.1715 53.0436 34.6338 55.0034 29.9708 55C25.3118 54.9966 20.7741 53.0363 17.6563 49.126Z" fill="white"/>
</g>
<defs>
<clipPath id="clip0_73_248">
<rect width="60" height="60" fill="white"/>
</clipPath>
</defs>
</svg>
