<svg width="24" height="24" viewBox="0 0 24 24" fill="none" xmlns="http://www.w3.org/2000/svg">
<path d="M2 0V2H3V4H4.125C4.72266 8.32031 7.16406 10.9531 8.53125 12.125C7.49219 13.0586 4.82031 15.668 4.15625 20H3V22H2V24H22V22H21V20H19.8438C19.1797 15.668 16.5078 13.0586 15.4688 12.125C16.8398 10.9688 19.2812 8.35547 19.875 4H21V2H22V0H2ZM6.15625 4H17.8438C17.0664 9.12109 13.5 11.125 13.5 11.125L12.2188 11.875L13.375 12.7812C13.375 12.7812 16.918 15.6484 17.8125 20H17.2812C16.0781 18.043 13.6133 16 12 16C10.3867 16 7.92188 18.043 6.71875 20H6.1875C7.08203 15.6484 10.625 12.7812 10.625 12.7812L11.75 11.875L10.5 11.1562C10.5 11.1562 6.93359 9.07031 6.15625 4ZM10 8C10 8.89844 11.1016 11 12 11C12.8984 11 14 8.89844 14 8H10Z" fill="url(#paint0_linear_73_62)"/>
<defs>
<linearGradient id="paint0_linear_73_62" x1="12" y1="0" x2="12" y2="24" gradientUnits="userSpaceOnUse">
<stop stop-color="#2E27FE"/>
<stop offset="1" stop-color="#9A12FF"/>
</linearGradient>
</defs>
</svg>
