<svg width="60" height="60" viewBox="0 0 60 60" fill="none" xmlns="http://www.w3.org/2000/svg">
<path d="M12.5 7.5C9.7425 7.5 7.5 9.7425 7.5 12.5V47.5C7.5 50.2575 9.7425 52.5 12.5 52.5H26.4697C25.8297 50.9225 25.3884 49.2475 25.1709 47.5H12.5V27.5H35.3271C38.1946 25.91 41.49 25 45 25C47.655 25 50.1825 25.5297 52.5 26.4697V12.5C52.5 9.7425 50.2575 7.5 47.5 7.5H12.5ZM12.5 12.5H47.5V22.5H12.5V12.5ZM17.5 15C16.837 15 16.2011 15.2634 15.7322 15.7322C15.2634 16.2011 15 16.837 15 17.5C15 18.163 15.2634 18.7989 15.7322 19.2678C16.2011 19.7366 16.837 20 17.5 20C18.163 20 18.7989 19.7366 19.2678 19.2678C19.7366 18.7989 20 18.163 20 17.5C20 16.837 19.7366 16.2011 19.2678 15.7322C18.7989 15.2634 18.163 15 17.5 15ZM25 15C24.337 15 23.7011 15.2634 23.2322 15.7322C22.7634 16.2011 22.5 16.837 22.5 17.5C22.5 18.163 22.7634 18.7989 23.2322 19.2678C23.7011 19.7366 24.337 20 25 20C25.663 20 26.2989 19.7366 26.7678 19.2678C27.2366 18.7989 27.5 18.163 27.5 17.5C27.5 16.837 27.2366 16.2011 26.7678 15.7322C26.2989 15.2634 25.663 15 25 15ZM32.5 15V20H42.5V15H32.5ZM45 30C36.7453 30 30 36.7453 30 45C30 53.2547 36.7453 60 45 60C53.2547 60 60 53.2547 60 45C60 36.7453 53.2547 30 45 30ZM47.4365 35.3271C51.7907 36.4109 55 40.2943 55 45C55 47.6228 53.9811 49.9755 52.3486 51.7529C52.0264 50.7447 51.1147 50 50 50V47.5C50 46.12 48.88 45 47.5 45H42.5V42.5C43.88 42.5 45 41.38 45 40V37.5C46.264 37.5 47.2696 36.5455 47.4365 35.3271ZM35.2637 42.7637L37.5 45L40 47.5V50C40 51.38 41.12 52.5 42.5 52.5H42.7783V54.7363C38.3123 53.7313 35 49.7845 35 45C35 44.2271 35.1003 43.4847 35.2637 42.7637Z" fill="white"/>
</svg>
