<svg width="60" height="60" viewBox="0 0 60 60" fill="none" xmlns="http://www.w3.org/2000/svg">
<path d="M12.5 7.5C9.76734 7.5 7.5 9.76734 7.5 12.5V47.5C7.5 50.2327 9.76734 52.5 12.5 52.5H47.5C50.2327 52.5 52.5 50.2327 52.5 47.5V12.5C52.5 9.76734 50.2327 7.5 47.5 7.5H12.5ZM12.5 12.5H47.5V22.5H12.5V12.5ZM17.5 15C16.837 15 16.2011 15.2634 15.7322 15.7322C15.2634 16.2011 15 16.837 15 17.5C15 18.163 15.2634 18.7989 15.7322 19.2678C16.2011 19.7366 16.837 20 17.5 20C18.163 20 18.7989 19.7366 19.2678 19.2678C19.7366 18.7989 20 18.163 20 17.5C20 16.837 19.7366 16.2011 19.2678 15.7322C18.7989 15.2634 18.163 15 17.5 15ZM25 15C24.337 15 23.7011 15.2634 23.2322 15.7322C22.7634 16.2011 22.5 16.837 22.5 17.5C22.5 18.163 22.7634 18.7989 23.2322 19.2678C23.7011 19.7366 24.337 20 25 20C25.663 20 26.2989 19.7366 26.7678 19.2678C27.2366 18.7989 27.5 18.163 27.5 17.5C27.5 16.837 27.2366 16.2011 26.7678 15.7322C26.2989 15.2634 25.663 15 25 15ZM32.5 15V20H42.5V15H32.5ZM12.5 27.5H20V47.5H12.5V27.5ZM25 27.5H47.5V47.5H25V27.5ZM30 30V35H42.5V30H30ZM30 37.5V42.5H42.5V37.5H30Z" fill="white"/>
</svg>
