<svg width="733" height="185" viewBox="0 0 733 185" fill="none" xmlns="http://www.w3.org/2000/svg">
<path fill-rule="evenodd" clip-rule="evenodd" d="M256.557 119.668C256.557 122.804 254.259 125.382 250.988 125.382C247.806 125.382 245.507 122.798 245.507 119.668V65.1842C245.507 62.0478 247.806 59.4697 251.077 59.4697C254.258 59.4697 256.557 62.0537 256.557 65.1842V119.668Z" fill="white"/>
<path fill-rule="evenodd" clip-rule="evenodd" d="M327.984 65.1839V114.969C327.984 121.7 324.538 125.482 319.057 125.482H318.618C313.403 125.482 310.924 122.346 308.717 117.735L297.577 95.1479L287.676 71.8261L287.943 94.4138L288.031 119.58C288.031 122.716 285.735 125.294 282.462 125.294C279.28 125.294 276.983 122.71 276.983 119.58V69.7941C276.983 63.6159 280.429 59.2815 286.443 59.2815H286.884C292.454 59.2815 294.751 62.4178 296.963 67.028L307.922 89.4334L317.293 111.193L317.029 90.3554L316.94 65.1899C316.94 62.0535 319.237 59.4754 322.51 59.4754C325.685 59.4694 327.984 62.0478 327.984 65.1839Z" fill="white"/>
<path fill-rule="evenodd" clip-rule="evenodd" d="M372.277 119.58C372.277 122.716 369.98 125.294 366.707 125.294C363.527 125.294 361.229 122.71 361.229 119.58V70.2583H347.526C344.699 70.2583 342.403 68.0442 342.403 64.8198C342.403 61.6837 344.699 59.4756 347.526 59.4756H385.979C388.806 59.4756 391.105 61.6896 391.105 64.9138C391.105 68.0502 388.806 70.2583 385.979 70.2583H372.277V119.58Z" fill="white"/>
<path fill-rule="evenodd" clip-rule="evenodd" d="M405.515 117.736V66.5706C405.515 61.7781 408.077 59.106 412.764 59.2881H444.589C447.416 59.2881 449.712 61.5902 449.712 64.7265C449.712 67.8626 447.416 70.0708 444.589 70.0708H416.474V85.9279H441.316C444.059 85.9279 446.266 88.048 446.266 91.0904C446.266 94.1326 444.059 96.2526 441.316 96.2526H416.474V114.506H444.589C447.416 114.506 449.712 116.808 449.712 119.944C449.712 123.081 447.416 125.289 444.589 125.289H412.498C407.902 125.295 405.342 122.622 405.515 117.736Z" fill="white"/>
<path fill-rule="evenodd" clip-rule="evenodd" d="M509.92 125.571C513.013 123.909 513.987 120.496 512.483 117.824L501.432 97.3626C510.539 95.5185 515.845 88.512 515.845 79.0154C515.845 69.0607 509.836 59.2881 495.423 59.2881H474.474C469.79 59.106 467.227 61.7781 467.227 66.5706V119.674C467.227 122.804 469.523 125.389 472.705 125.389C475.979 125.389 478.275 122.81 478.275 119.674L478.186 99.5767H489.854L502.142 123.268C503.64 125.941 506.913 127.139 509.92 125.571ZM495.682 89.1524H478.179V70.0651H495.593C501.427 70.0651 504.7 73.9353 504.7 79.5617C504.7 85.1879 501.607 89.1524 495.682 89.1524Z" fill="white"/>
<path fill-rule="evenodd" clip-rule="evenodd" d="M538.647 120.408C532.019 114.229 529.012 104.551 529.012 92.3821C529.012 80.1191 531.93 70.5344 538.474 64.4499C542.539 60.7618 548.017 58.2717 555.977 58.2717C562.96 58.2717 568.355 59.9337 572.42 63.5279C575.957 66.4763 578.52 70.6284 580.022 76.4369C580.817 79.479 578.784 82.5211 575.427 83.1671C572.245 83.7194 569.684 81.5991 568.71 78.557C567.649 75.6088 566.231 73.4885 564.554 72.0085C562.255 69.8884 559.428 68.9664 555.711 68.9664C551.735 68.9664 548.284 70.1644 545.721 72.8365C542.009 76.707 540.415 83.6255 540.415 92.3821C540.415 101.05 541.92 107.963 545.81 111.833C548.373 114.506 551.735 115.704 555.622 115.704C559.687 115.704 562.78 114.6 565.348 112.109C566.67 110.817 567.825 109.161 568.619 107.223C569.768 104.363 572.156 102.243 575.247 102.983C578.34 103.723 580.289 106.853 579.314 109.895C577.721 114.964 574.983 119.022 571.271 121.788C567.206 124.83 562.166 126.398 555.802 126.398C547.67 126.398 542.539 123.908 538.647 120.408Z" fill="white"/>
<path fill-rule="evenodd" clip-rule="evenodd" d="M619.803 58.2717C600.618 58.2717 592.485 71.7325 592.485 92.3821C592.485 113.677 600.534 126.492 619.803 126.492C638.72 126.492 647.033 113.677 647.033 92.3821C647.033 71.3625 638.811 58.2717 619.803 58.2717ZM619.714 69.0604C630.235 69.0604 635.713 76.707 635.713 92.3821C635.713 108.051 630.144 115.704 619.714 115.704C609.194 115.704 603.889 108.057 603.889 92.3821C603.889 76.7129 609.369 69.0604 619.714 69.0604Z" fill="white"/>
<path fill-rule="evenodd" clip-rule="evenodd" d="M732.783 119.579C732.783 122.716 730.484 125.294 727.213 125.294C724.031 125.294 721.733 122.71 721.733 119.579V94.8719L721.999 70.8102L714.305 95.2419L706.528 119.303C705.206 123.544 702.463 125.206 699.015 125.206C695.389 125.206 692.737 123.456 691.324 119.215L683.366 95.2478L676.028 71.1861L676.292 94.8778V119.585C676.292 122.722 673.993 125.3 670.722 125.3C667.54 125.3 665.244 122.716 665.244 119.585V70.264C665.244 63.4395 668.778 59.4754 674.967 59.4754C680.803 59.4754 684.074 62.6995 685.926 68.602L694.059 93.7678L699.01 110.917L704.049 93.7678L712.182 68.602C714.041 62.6995 717.224 59.4754 723.057 59.4754C729.246 59.4754 732.692 63.3456 732.692 70.264L732.783 119.579Z" fill="white"/>
<path d="M156.282 101.801C156.282 103.45 155.651 105.032 154.526 106.198C153.402 107.364 151.877 108.019 150.286 108.019C148.696 108.019 147.171 107.364 146.046 106.198C144.922 105.032 144.29 103.45 144.29 101.801V46.2503C144.29 44.6011 144.922 43.0195 146.046 41.8535C147.171 40.6873 148.696 40.0321 150.286 40.0321C151.877 40.0321 153.402 40.6873 154.526 41.8535C155.651 43.0195 156.282 44.6011 156.282 46.2503V101.801ZM154.201 140.291C153.408 141.114 131.109 160.385 90.2266 160.385C49.3442 160.385 27.1937 141.216 26.2522 140.394C25.6587 139.875 25.17 139.24 24.8139 138.525C24.4577 137.81 24.2413 137.029 24.1767 136.227C24.1123 135.425 24.2011 134.618 24.4382 133.851C24.6752 133.085 25.0558 132.374 25.5583 131.761C26.5933 130.519 28.0595 129.752 29.6376 129.627C31.2158 129.502 32.7777 130.029 33.9824 131.093C34.3295 131.35 54.2502 148.103 90.177 148.103C126.104 148.103 146.173 131.247 146.372 131.093C147.59 130.038 149.157 129.518 150.739 129.643C152.322 129.768 153.795 130.528 154.845 131.761C155.856 132.984 156.361 134.572 156.25 136.179C156.138 137.786 155.42 139.282 154.251 140.343L154.201 140.291ZM24.1212 46.2503C24.2108 44.5959 24.9283 43.0457 26.117 41.9381C27.3054 40.8308 28.8685 40.2564 30.4642 40.3405C31.9435 40.4275 33.3394 41.0797 34.3825 42.171C35.4256 43.2622 36.0423 44.7153 36.1133 46.2503V101.699C36.1133 103.348 35.4816 104.929 34.3571 106.095C33.2328 107.262 31.7077 107.916 30.1174 107.916C28.5272 107.916 27.002 107.262 25.8775 106.095C24.7529 104.929 24.1212 103.348 24.1212 101.699V46.2503ZM54.2006 33.9171C54.2904 32.2627 55.0077 30.7124 56.1964 29.6048C57.3848 28.4976 58.9479 27.9231 60.5436 28.0072C62.0228 28.0943 63.4187 28.7464 64.4619 29.8377C65.505 30.9289 66.1217 32.3821 66.1927 33.9171V116.139C66.1927 117.788 65.561 119.369 64.4367 120.536C63.3122 121.702 61.787 122.357 60.1968 122.357C58.6065 122.357 57.0814 121.702 55.9568 120.536C54.8323 119.369 54.2006 117.788 54.2006 116.139V33.9171ZM84.4287 30.8337C84.4287 29.1845 85.0604 27.6029 86.185 26.4369C87.3095 25.2707 88.8347 24.6155 90.4249 24.6155C92.0152 24.6155 93.5403 25.2707 94.6646 26.4369C95.7891 27.6029 96.4208 29.1845 96.4208 30.8337V120.25C96.4208 121.899 95.7891 123.481 94.6646 124.647C93.5403 125.813 92.0152 126.468 90.4249 126.468C88.8347 126.468 87.3095 125.813 86.185 124.647C85.0604 123.481 84.4287 121.899 84.4287 120.25V30.8337ZM114.161 33.9171C114.161 32.2678 114.793 30.6862 115.918 29.5202C117.042 28.354 118.567 27.6989 120.157 27.6989C121.748 27.6989 123.273 28.354 124.397 29.5202C125.522 30.6862 126.153 32.2678 126.153 33.9171V116.139C126.153 117.788 125.522 119.369 124.397 120.536C123.273 121.702 121.748 122.357 120.157 122.357C118.567 122.357 117.042 121.702 115.918 120.536C114.793 119.369 114.161 117.788 114.161 116.139V33.9171ZM157.918 0.000521625H22.7337C19.788 -0.0199516 16.8675 0.562429 14.1394 1.71436C11.411 2.86604 8.92884 4.56458 6.83441 6.71254C4.73997 8.86075 3.07473 11.416 1.93415 14.2324C0.79332 17.0486 0.199597 20.0707 0.186523 23.1254V161.875C0.199597 164.929 0.79332 167.951 1.93415 170.768C3.07473 173.584 4.73997 176.139 6.83441 178.287C8.92884 180.435 11.411 182.134 14.1394 183.286C16.8675 184.438 19.788 185.019 22.7337 185H157.918C160.859 185.019 163.776 184.439 166.501 183.291C169.226 182.142 171.706 180.448 173.8 178.305C175.893 176.163 177.559 173.614 178.703 170.803C179.847 167.993 180.445 164.976 180.465 161.926V23.1254C180.452 20.0749 179.86 17.0572 178.722 14.2442C177.584 11.4313 175.924 8.87827 173.835 6.7308C171.745 4.58357 169.269 2.88404 166.546 1.72915C163.824 0.574266 160.909 -0.013045 157.967 0.000521625" fill="white"/>
</svg>
