<svg width="508" height="654" viewBox="0 0 508 654" fill="none" xmlns="http://www.w3.org/2000/svg">
<path d="M249.97 397.99L337.843 266.181H151.298L239.17 397.99C241.748 401.795 247.393 401.795 249.97 397.99Z" fill="url(#paint0_linear_503_927)"/>
<path d="M343.243 328.036L384.479 266.181H291.207L332.443 328.036C335.021 331.84 340.666 331.84 343.243 328.036Z" fill="url(#paint1_linear_503_927)"/>
<path d="M156.698 328.036L197.935 266.181H104.662L145.898 328.036C148.476 331.84 154.121 331.84 156.698 328.036Z" fill="url(#paint2_linear_503_927)"/>
<path d="M269.361 266.181H219.78H120.616L189.248 369.898C191.988 373.973 197.99 373.973 200.73 369.898L244.57 303.645L288.411 369.898C291.151 373.973 297.153 373.973 299.893 369.898L368.525 266.181H269.361Z" fill="url(#paint3_linear_503_927)"/>
<path d="M157.557 160.268L104.662 266.181H221.253L168.357 160.268C166.148 155.85 159.766 155.85 157.557 160.268Z" fill="url(#paint4_linear_503_927)"/>
<path d="M320.785 160.268L267.89 266.181H384.48L331.585 160.268C329.376 155.85 322.994 155.85 320.785 160.268Z" fill="url(#paint5_linear_503_927)"/>
<path d="M239.17 90.3136L151.298 266.181H337.843L249.97 90.3136C247.761 85.8955 241.379 85.8955 239.17 90.3136Z" fill="url(#paint6_linear_503_927)"/>
<path d="M219.779 266.181L269.361 266.181L368.524 266.181L299.893 162.465C297.153 158.39 291.151 158.39 288.411 162.465L244.57 228.717L200.73 162.465C197.99 158.39 191.988 158.39 189.248 162.465L120.616 266.181L219.779 266.181Z" fill="url(#paint7_linear_503_927)"/>
<g style="mix-blend-mode:overlay" filter="url(#filter0_f_503_927)">
<circle cx="245.058" cy="243.674" r="143.449" fill="#A86DFD"/>
</g>
<path d="M38.4 543L57.6 543L96 543L69.4232 503.174C68.3621 501.609 66.0379 501.609 64.9768 503.174L48 528.614L31.0232 503.174C29.9621 501.609 27.6379 501.609 26.5768 503.174L0 543L38.4 543Z" fill="#1D1F36"/>
<path d="M14.0756 642.455C14.0245 642.023 13.8171 641.688 13.4535 641.449C13.0898 641.21 12.6438 641.091 12.1154 641.091C11.729 641.091 11.391 641.153 11.1012 641.278C10.8143 641.403 10.5898 641.575 10.4279 641.794C10.2688 642.013 10.1893 642.261 10.1893 642.54C10.1893 642.773 10.2447 642.973 10.3555 643.141C10.4691 643.305 10.614 643.443 10.7901 643.554C10.9663 643.662 11.1509 643.751 11.3441 643.822C11.5373 643.891 11.7148 643.946 11.8768 643.989L12.7631 644.227C12.9904 644.287 13.2433 644.369 13.5217 644.474C13.8029 644.58 14.0714 644.723 14.3271 644.905C14.5856 645.084 14.7987 645.314 14.9663 645.595C15.1339 645.876 15.2177 646.222 15.2177 646.631C15.2177 647.102 15.0941 647.528 14.8469 647.909C14.6026 648.29 14.2447 648.592 13.7731 648.817C13.3043 649.041 12.7347 649.153 12.0643 649.153C11.4393 649.153 10.8981 649.053 10.4407 648.851C9.98615 648.649 9.6282 648.368 9.36683 648.007C9.10831 647.646 8.962 647.227 8.92791 646.75H10.0188C10.0472 647.08 10.158 647.352 10.3512 647.568C10.5472 647.781 10.7944 647.94 11.0927 648.045C11.3938 648.148 11.7177 648.199 12.0643 648.199C12.4677 648.199 12.8299 648.134 13.1509 648.003C13.4719 647.869 13.7262 647.685 13.9137 647.449C14.1012 647.21 14.195 646.932 14.195 646.614C14.195 646.324 14.114 646.088 13.9521 645.906C13.7901 645.724 13.5771 645.577 13.3129 645.463C13.0487 645.349 12.7631 645.25 12.4563 645.165L11.3825 644.858C10.7006 644.662 10.1609 644.382 9.76314 644.018C9.36541 643.655 9.16655 643.179 9.16655 642.591C9.16655 642.102 9.29865 641.676 9.56286 641.312C9.8299 640.946 10.1879 640.662 10.6367 640.46C11.0884 640.256 11.5927 640.153 12.1495 640.153C12.712 640.153 13.212 640.254 13.6495 640.456C14.087 640.655 14.4336 640.928 14.6893 641.274C14.9478 641.621 15.0842 642.014 15.0984 642.455H14.0756ZM18.0121 640.273V649H16.9553V640.273H18.0121ZM22.8242 649H20.131V640.273H22.9435C23.7901 640.273 24.5146 640.447 25.1168 640.797C25.7191 641.143 26.1808 641.642 26.5018 642.293C26.8228 642.94 26.9833 643.716 26.9833 644.619C26.9833 645.528 26.8214 646.311 26.4975 646.967C26.1737 647.621 25.7021 648.124 25.0827 648.476C24.4634 648.825 23.7106 649 22.8242 649ZM21.1879 648.062H22.756C23.4776 648.062 24.0756 647.923 24.5501 647.645C25.0245 647.366 25.3782 646.97 25.6112 646.456C25.8441 645.942 25.9606 645.33 25.9606 644.619C25.9606 643.915 25.8455 643.308 25.6154 642.8C25.3853 642.288 25.0415 641.896 24.5842 641.624C24.1268 641.348 23.5572 641.21 22.8754 641.21H21.1879V648.062ZM28.756 649V640.273H34.0231V641.21H29.8129V644.159H33.7504V645.097H29.8129V648.062H34.0913V649H28.756ZM37.5131 649L35.1268 640.273H36.2006L38.0245 647.381H38.1097L39.9677 640.273H41.1609L43.0188 647.381H43.104L44.9279 640.273H46.0018L43.6154 649H42.5245L40.5984 642.045H40.5302L38.604 649H37.5131ZM46.9968 649H45.8888L49.0934 640.273H50.1843L53.3888 649H52.2809L49.6729 641.653H49.6048L46.9968 649ZM47.4059 645.591H51.8718V646.528H47.4059V645.591ZM53.1076 640.273H54.3178L56.7383 644.347H56.8406L59.261 640.273H60.4712L57.3178 645.403V649H56.261V645.403L53.1076 640.273ZM66.6108 642.455C66.5597 642.023 66.3523 641.688 65.9886 641.449C65.625 641.21 65.179 641.091 64.6506 641.091C64.2642 641.091 63.9261 641.153 63.6364 641.278C63.3494 641.403 63.125 641.575 62.9631 641.794C62.804 642.013 62.7244 642.261 62.7244 642.54C62.7244 642.773 62.7798 642.973 62.8906 643.141C63.0043 643.305 63.1491 643.443 63.3253 643.554C63.5014 643.662 63.6861 643.751 63.8793 643.822C64.0724 643.891 64.25 643.946 64.4119 643.989L65.2983 644.227C65.5256 644.287 65.7784 644.369 66.0568 644.474C66.3381 644.58 66.6065 644.723 66.8622 644.905C67.1207 645.084 67.3338 645.314 67.5014 645.595C67.669 645.876 67.7528 646.222 67.7528 646.631C67.7528 647.102 67.6293 647.528 67.3821 647.909C67.1378 648.29 66.7798 648.592 66.3082 648.817C65.8395 649.041 65.2699 649.153 64.5994 649.153C63.9744 649.153 63.4332 649.053 62.9759 648.851C62.5213 648.649 62.1634 648.368 61.902 648.007C61.6435 647.646 61.4972 647.227 61.4631 646.75H62.554C62.5824 647.08 62.6932 647.352 62.8864 647.568C63.0824 647.781 63.3295 647.94 63.6278 648.045C63.929 648.148 64.2528 648.199 64.5994 648.199C65.0028 648.199 65.3651 648.134 65.6861 648.003C66.0071 647.869 66.2614 647.685 66.4489 647.449C66.6364 647.21 66.7301 646.932 66.7301 646.614C66.7301 646.324 66.6491 646.088 66.4872 645.906C66.3253 645.724 66.1122 645.577 65.848 645.463C65.5838 645.349 65.2983 645.25 64.9915 645.165L63.9176 644.858C63.2358 644.662 62.696 644.382 62.2983 644.018C61.9006 643.655 61.7017 643.179 61.7017 642.591C61.7017 642.102 61.8338 641.676 62.098 641.312C62.3651 640.946 62.723 640.662 63.1719 640.46C63.6236 640.256 64.1278 640.153 64.6847 640.153C65.2472 640.153 65.7472 640.254 66.1847 640.456C66.6222 640.655 66.9688 640.928 67.2244 641.274C67.483 641.621 67.6193 642.014 67.6335 642.455H66.6108ZM72.3881 643V642.233C72.3881 642 72.4293 641.753 72.5117 641.491C72.5969 641.227 72.7191 640.973 72.8782 640.729C73.0401 640.482 73.2347 640.267 73.462 640.085L74.0075 640.528C73.8285 640.784 73.6722 641.051 73.5387 641.33C73.408 641.605 73.3427 641.901 73.3427 642.216V643H72.3881ZM74.57 643V642.233C74.57 642 74.6112 641.753 74.6935 641.491C74.7788 641.227 74.9009 640.973 75.06 640.729C75.2219 640.482 75.4165 640.267 75.6438 640.085L76.1893 640.528C76.0103 640.784 75.854 641.051 75.7205 641.33C75.5898 641.605 75.5245 641.901 75.5245 642.216V643H74.57ZM77.4357 649V640.273H80.4869C81.0948 640.273 81.5962 640.378 81.9911 640.588C82.386 640.795 82.68 641.075 82.8732 641.428C83.0664 641.777 83.163 642.165 83.163 642.591C83.163 642.966 83.0962 643.276 82.9627 643.52C82.832 643.764 82.6587 643.957 82.4428 644.099C82.2298 644.241 81.9982 644.347 81.7482 644.415V644.5C82.0153 644.517 82.2837 644.611 82.5536 644.781C82.8235 644.952 83.0494 645.196 83.2312 645.514C83.413 645.832 83.5039 646.222 83.5039 646.682C83.5039 647.119 83.4045 647.513 83.2056 647.862C83.0067 648.212 82.6928 648.489 82.2638 648.693C81.8349 648.898 81.2766 649 80.5891 649H77.4357ZM78.4925 648.062H80.5891C81.2795 648.062 81.7695 647.929 82.0593 647.662C82.3519 647.392 82.4982 647.065 82.4982 646.682C82.4982 646.386 82.4229 646.114 82.2724 645.864C82.1218 645.611 81.9073 645.409 81.6289 645.259C81.3505 645.105 81.021 645.028 80.6403 645.028H78.4925V648.062ZM78.4925 644.108H80.4528C80.771 644.108 81.0579 644.045 81.3136 643.92C81.5721 643.795 81.7766 643.619 81.9272 643.392C82.0806 643.165 82.1573 642.898 82.1573 642.591C82.1573 642.207 82.0238 641.882 81.7567 641.615C81.4897 641.345 81.0664 641.21 80.4869 641.21H78.4925V644.108ZM85.9904 640.273V641.04C85.9904 641.273 85.9478 641.521 85.8626 641.786C85.7802 642.047 85.658 642.301 85.4961 642.548C85.337 642.793 85.1438 643.006 84.9165 643.188L84.3711 642.744C84.5501 642.489 84.7049 642.223 84.8356 641.947C84.9691 641.669 85.0359 641.372 85.0359 641.057V640.273H85.9904ZM88.1722 640.273V641.04C88.1722 641.273 88.1296 641.521 88.0444 641.786C87.962 642.047 87.8398 642.301 87.6779 642.548C87.5188 642.793 87.3256 643.006 87.0984 643.188L86.5529 642.744C86.7319 642.489 86.8867 642.223 87.0174 641.947C87.1509 641.669 87.2177 641.372 87.2177 641.057V640.273H88.1722Z" fill="#A3A5C1"/>
<path d="M65 608.955L30.0909 608.955L30.0909 597.619C30.0909 595.506 30.4659 593.722 31.2159 592.267C31.9659 590.812 33.017 589.71 34.3693 588.96C35.7216 588.199 37.2955 587.818 39.0909 587.818C40.5 587.818 41.75 588.045 42.8409 588.5C43.9318 588.955 44.8352 589.591 45.5511 590.409C46.2557 591.216 46.7443 592.165 47.017 593.256L47.2216 593.256C47.3125 592.051 47.733 590.932 48.483 589.898C49.2216 588.864 50.2273 588.034 51.5 587.409C52.7727 586.773 54.2557 586.455 55.9489 586.455C57.733 586.455 59.3068 586.841 60.6705 587.614C62.0227 588.375 63.0852 589.517 63.858 591.04C64.6193 592.562 65 594.449 65 596.699L65 608.955ZM63.0227 606.824L63.0227 596.699C63.0227 594.074 62.3636 592.057 61.0455 590.648C59.7273 589.227 58.0284 588.517 55.9489 588.517C54.483 588.517 53.1705 588.864 52.0114 589.557C50.8523 590.239 49.9375 591.187 49.267 592.403C48.5852 593.619 48.2443 595.028 48.2443 596.631L48.2443 606.824L63.0227 606.824ZM46.3011 606.824L46.3011 596.886C46.3011 595.398 45.9773 594.136 45.3295 593.102C44.6818 592.057 43.8125 591.261 42.7216 590.716C41.6307 590.159 40.4205 589.881 39.0909 589.881C36.9318 589.881 35.2216 590.551 33.9602 591.892C32.6989 593.233 32.0682 595.142 32.0682 597.619L32.0682 606.824L46.3011 606.824Z" fill="white"/>
<path d="M439.737 541.663L473.879 490.449H401.397L435.54 541.663C436.542 543.142 438.735 543.142 439.737 541.663Z" fill="#1D1F36"/>
<path d="M475.976 514.483L491.999 490.449H455.758L471.78 514.483C472.782 515.961 474.975 515.961 475.976 514.483Z" fill="#1D1F36"/>
<path d="M403.495 514.483L419.517 490.449H383.276L399.299 514.483C400.3 515.961 402.494 515.961 403.495 514.483Z" fill="#1D1F36"/>
<path d="M376.061 640.273H377.118V646.051C377.118 646.648 376.978 647.18 376.696 647.649C376.418 648.115 376.025 648.483 375.516 648.753C375.007 649.02 374.411 649.153 373.726 649.153C373.042 649.153 372.445 649.02 371.936 648.753C371.428 648.483 371.033 648.115 370.752 647.649C370.473 647.18 370.334 646.648 370.334 646.051V640.273H371.391V645.966C371.391 646.392 371.485 646.771 371.672 647.104C371.86 647.433 372.127 647.693 372.473 647.884C372.823 648.071 373.24 648.165 373.726 648.165C374.212 648.165 374.63 648.071 374.979 647.884C375.328 647.693 375.596 647.433 375.78 647.104C375.968 646.771 376.061 646.392 376.061 645.966V640.273ZM379.229 649V640.273H382.178C382.862 640.273 383.422 640.396 383.857 640.643C384.294 640.888 384.618 641.219 384.828 641.636C385.038 642.054 385.143 642.52 385.143 643.034C385.143 643.548 385.038 644.016 384.828 644.436C384.621 644.857 384.3 645.192 383.865 645.442C383.43 645.689 382.874 645.812 382.195 645.812H380.081V644.875H382.161C382.629 644.875 383.006 644.794 383.29 644.632C383.574 644.47 383.78 644.251 383.908 643.976C384.038 643.697 384.104 643.384 384.104 643.034C384.104 642.685 384.038 642.372 383.908 642.097C383.78 641.821 383.572 641.605 383.286 641.449C382.999 641.29 382.618 641.21 382.143 641.21H380.286V649H379.229ZM386.846 649V640.273H389.795C390.477 640.273 391.036 640.389 391.474 640.622C391.911 640.852 392.235 641.169 392.445 641.572C392.656 641.976 392.761 642.435 392.761 642.949C392.761 643.463 392.656 643.919 392.445 644.317C392.235 644.714 391.913 645.027 391.478 645.254C391.043 645.479 390.488 645.591 389.812 645.591H387.425V644.636H389.778C390.244 644.636 390.619 644.568 390.903 644.432C391.19 644.295 391.397 644.102 391.525 643.852C391.656 643.599 391.721 643.298 391.721 642.949C391.721 642.599 391.656 642.294 391.525 642.033C391.394 641.771 391.185 641.57 390.898 641.428C390.612 641.283 390.232 641.21 389.761 641.21H387.903V649H386.846ZM390.954 645.08L393.102 649H391.874L389.761 645.08H390.954ZM395.578 640.273V649H394.522V640.273H395.578ZM403.663 643C403.57 642.713 403.446 642.456 403.293 642.229C403.142 641.999 402.962 641.803 402.751 641.641C402.544 641.479 402.308 641.355 402.044 641.27C401.78 641.185 401.49 641.142 401.175 641.142C400.658 641.142 400.188 641.276 399.764 641.543C399.341 641.81 399.004 642.203 398.754 642.723C398.504 643.243 398.379 643.881 398.379 644.636C398.379 645.392 398.506 646.03 398.759 646.55C399.011 647.07 399.354 647.463 399.786 647.73C400.217 647.997 400.703 648.131 401.243 648.131C401.743 648.131 402.183 648.024 402.564 647.811C402.947 647.595 403.246 647.291 403.459 646.899C403.675 646.504 403.783 646.04 403.783 645.506L404.107 645.574H401.482V644.636H404.805V645.574C404.805 646.293 404.652 646.918 404.345 647.449C404.041 647.98 403.621 648.392 403.084 648.685C402.55 648.974 401.936 649.119 401.243 649.119C400.47 649.119 399.791 648.938 399.206 648.574C398.624 648.21 398.169 647.693 397.842 647.023C397.518 646.352 397.357 645.557 397.357 644.636C397.357 643.946 397.449 643.325 397.634 642.774C397.821 642.22 398.085 641.749 398.426 641.359C398.767 640.97 399.17 640.672 399.636 640.464C400.102 640.257 400.615 640.153 401.175 640.153C401.635 640.153 402.064 640.223 402.462 640.362C402.862 640.499 403.219 640.693 403.531 640.946C403.847 641.196 404.109 641.496 404.32 641.845C404.53 642.192 404.675 642.577 404.754 643H403.663ZM406.615 649V640.273H407.672V644.159H412.326V640.273H413.382V649H412.326V645.097H407.672V649H406.615ZM415.021 641.21V640.273H421.566V641.21H418.822V649H417.765V641.21H415.021ZM426.095 643V642.233C426.095 642 426.136 641.753 426.219 641.491C426.304 641.227 426.426 640.973 426.585 640.729C426.747 640.482 426.942 640.267 427.169 640.085L427.714 640.528C427.536 640.784 427.379 641.051 427.246 641.33C427.115 641.605 427.05 641.901 427.05 642.216V643H426.095ZM428.277 643V642.233C428.277 642 428.318 641.753 428.401 641.491C428.486 641.227 428.608 640.973 428.767 640.729C428.929 640.482 429.124 640.267 429.351 640.085L429.896 640.528C429.717 640.784 429.561 641.051 429.428 641.33C429.297 641.605 429.232 641.901 429.232 642.216V643H428.277ZM432.728 649L430.342 640.273H431.415L433.239 647.381H433.325L435.183 640.273H436.376L438.234 647.381H438.319L440.143 640.273H441.217L438.83 649H437.739L435.813 642.045H435.745L433.819 649H432.728ZM443.283 640.273V641.04C443.283 641.273 443.241 641.521 443.156 641.786C443.073 642.047 442.951 642.301 442.789 642.548C442.63 642.793 442.437 643.006 442.21 643.188L441.664 642.744C441.843 642.489 441.998 642.223 442.129 641.947C442.262 641.669 442.329 641.372 442.329 641.057V640.273H443.283ZM445.465 640.273V641.04C445.465 641.273 445.423 641.521 445.337 641.786C445.255 642.047 445.133 642.301 444.971 642.548C444.812 642.793 444.619 643.006 444.391 643.188L443.846 642.744C444.025 642.489 444.18 642.223 444.31 641.947C444.444 641.669 444.511 641.372 444.511 641.057V640.273H445.465ZM453.428 639.864L450.615 650.312H449.695L452.507 639.864H453.428ZM459.188 640.273V649H458.131V640.273H459.188ZM468.33 643H467.273C467.21 642.696 467.101 642.429 466.945 642.199C466.791 641.969 466.604 641.776 466.382 641.619C466.163 641.46 465.92 641.341 465.653 641.261C465.386 641.182 465.108 641.142 464.818 641.142C464.29 641.142 463.811 641.276 463.382 641.543C462.956 641.81 462.616 642.203 462.364 642.723C462.114 643.243 461.989 643.881 461.989 644.636C461.989 645.392 462.114 646.03 462.364 646.55C462.616 647.07 462.956 647.463 463.382 647.73C463.811 647.997 464.29 648.131 464.818 648.131C465.108 648.131 465.386 648.091 465.653 648.011C465.92 647.932 466.163 647.814 466.382 647.658C466.604 647.499 466.791 647.304 466.945 647.074C467.101 646.841 467.21 646.574 467.273 646.273H468.33C468.25 646.719 468.105 647.118 467.895 647.47C467.685 647.822 467.423 648.122 467.111 648.369C466.798 648.614 466.447 648.8 466.058 648.928C465.672 649.055 465.259 649.119 464.818 649.119C464.074 649.119 463.412 648.938 462.832 648.574C462.253 648.21 461.797 647.693 461.464 647.023C461.132 646.352 460.966 645.557 460.966 644.636C460.966 643.716 461.132 642.92 461.464 642.25C461.797 641.58 462.253 641.062 462.832 640.699C463.412 640.335 464.074 640.153 464.818 640.153C465.259 640.153 465.672 640.217 466.058 640.345C466.447 640.473 466.798 640.661 467.111 640.908C467.423 641.152 467.685 641.45 467.895 641.803C468.105 642.152 468.25 642.551 468.33 643ZM470.037 649V640.273H475.304V641.21H471.094V644.159H475.032V645.097H471.094V648.062H475.373V649H470.037ZM477.209 649V640.273H480.26C480.868 640.273 481.37 640.378 481.765 640.588C482.159 640.795 482.453 641.075 482.647 641.428C482.84 641.777 482.936 642.165 482.936 642.591C482.936 642.966 482.87 643.276 482.736 643.52C482.605 643.764 482.432 643.957 482.216 644.099C482.003 644.241 481.772 644.347 481.522 644.415V644.5C481.789 644.517 482.057 644.611 482.327 644.781C482.597 644.952 482.823 645.196 483.005 645.514C483.186 645.832 483.277 646.222 483.277 646.682C483.277 647.119 483.178 647.513 482.979 647.862C482.78 648.212 482.466 648.489 482.037 648.693C481.608 648.898 481.05 649 480.363 649H477.209ZM478.266 648.062H480.363C481.053 648.062 481.543 647.929 481.833 647.662C482.125 647.392 482.272 647.065 482.272 646.682C482.272 646.386 482.196 646.114 482.046 645.864C481.895 645.611 481.681 645.409 481.402 645.259C481.124 645.105 480.794 645.028 480.414 645.028H478.266V648.062ZM478.266 644.108H480.226C480.544 644.108 480.831 644.045 481.087 643.92C481.346 643.795 481.55 643.619 481.701 643.392C481.854 643.165 481.931 642.898 481.931 642.591C481.931 642.207 481.797 641.882 481.53 641.615C481.263 641.345 480.84 641.21 480.26 641.21H478.266V644.108ZM485.014 649V640.273H490.281V641.21H486.071V644.159H490.008V645.097H486.071V648.062H490.349V649H485.014ZM492.186 649V640.273H495.135C495.816 640.273 496.376 640.389 496.814 640.622C497.251 640.852 497.575 641.169 497.785 641.572C497.995 641.976 498.1 642.435 498.1 642.949C498.1 643.463 497.995 643.919 497.785 644.317C497.575 644.714 497.252 645.027 496.818 645.254C496.383 645.479 495.828 645.591 495.152 645.591H492.765V644.636H495.118C495.583 644.636 495.958 644.568 496.243 644.432C496.529 644.295 496.737 644.102 496.865 643.852C496.995 643.599 497.061 643.298 497.061 642.949C497.061 642.599 496.995 642.294 496.865 642.033C496.734 641.771 496.525 641.57 496.238 641.428C495.951 641.283 495.572 641.21 495.1 641.21H493.243V649H492.186ZM496.294 645.08L498.441 649H497.214L495.1 645.08H496.294ZM505.827 643C505.734 642.713 505.61 642.456 505.457 642.229C505.306 641.999 505.126 641.803 504.915 641.641C504.708 641.479 504.472 641.355 504.208 641.27C503.944 641.185 503.654 641.142 503.339 641.142C502.822 641.142 502.352 641.276 501.928 641.543C501.505 641.81 501.168 642.203 500.918 642.723C500.668 643.243 500.543 643.881 500.543 644.636C500.543 645.392 500.67 646.03 500.923 646.55C501.175 647.07 501.518 647.463 501.95 647.73C502.381 647.997 502.867 648.131 503.407 648.131C503.907 648.131 504.347 648.024 504.728 647.811C505.112 647.595 505.41 647.291 505.623 646.899C505.839 646.504 505.947 646.04 505.947 645.506L506.271 645.574H503.646V644.636H506.969V645.574C506.969 646.293 506.816 646.918 506.509 647.449C506.205 647.98 505.785 648.392 505.248 648.685C504.714 648.974 504.1 649.119 503.407 649.119C502.634 649.119 501.955 648.938 501.37 648.574C500.788 648.21 500.333 647.693 500.006 647.023C499.683 646.352 499.521 645.557 499.521 644.636C499.521 643.946 499.613 643.325 499.798 642.774C499.985 642.22 500.249 641.749 500.59 641.359C500.931 640.97 501.335 640.672 501.8 640.464C502.266 640.257 502.779 640.153 503.339 640.153C503.799 640.153 504.228 640.223 504.626 640.362C505.026 640.499 505.383 640.693 505.695 640.946C506.011 641.196 506.273 641.496 506.484 641.845C506.694 642.192 506.839 642.577 506.918 643H505.827Z" fill="#A3A5C1"/>
<path d="M429.023 609L421.182 582.818H423.364L430.114 605.949H430.301L437.068 582.818H439.233L445.983 605.932H446.153L452.903 582.818H455.085L447.244 609H444.926L438.244 586.21H438.023L431.341 609H429.023Z" fill="white"/>
<path d="M211.817 500.986L191.265 542.139H236.566L216.013 500.986C215.155 499.27 212.675 499.27 211.817 500.986Z" fill="#1D1F36" fill-opacity="0.5"/>
<path d="M275.239 500.986L254.687 542.139H299.988L279.435 500.986C278.577 499.27 276.097 499.27 275.239 500.986Z" fill="#1D1F36" fill-opacity="0.5"/>
<path d="M243.529 473.806L209.386 542.139H281.868L247.725 473.806C246.867 472.089 244.387 472.089 243.529 473.806Z" fill="#1D1F36"/>
<path d="M176.49 640.273H177.752L180.718 647.517H180.82L183.786 640.273H185.047V649H184.059V642.369H183.973L181.246 649H180.292L177.564 642.369H177.479V649H176.49V640.273ZM194.53 644.636C194.53 645.557 194.364 646.352 194.031 647.023C193.699 647.693 193.243 648.21 192.663 648.574C192.084 648.938 191.422 649.119 190.678 649.119C189.933 649.119 189.271 648.938 188.692 648.574C188.112 648.21 187.656 647.693 187.324 647.023C186.991 646.352 186.825 645.557 186.825 644.636C186.825 643.716 186.991 642.92 187.324 642.25C187.656 641.58 188.112 641.062 188.692 640.699C189.271 640.335 189.933 640.153 190.678 640.153C191.422 640.153 192.084 640.335 192.663 640.699C193.243 641.062 193.699 641.58 194.031 642.25C194.364 642.92 194.53 643.716 194.53 644.636ZM193.507 644.636C193.507 643.881 193.381 643.243 193.128 642.723C192.878 642.203 192.538 641.81 192.109 641.543C191.683 641.276 191.206 641.142 190.678 641.142C190.149 641.142 189.67 641.276 189.241 641.543C188.815 641.81 188.476 642.203 188.223 642.723C187.973 643.243 187.848 643.881 187.848 644.636C187.848 645.392 187.973 646.03 188.223 646.55C188.476 647.07 188.815 647.463 189.241 647.73C189.67 647.997 190.149 648.131 190.678 648.131C191.206 648.131 191.683 647.997 192.109 647.73C192.538 647.463 192.878 647.07 193.128 646.55C193.381 646.03 193.507 645.392 193.507 644.636ZM202.034 640.273H203.091V646.051C203.091 646.648 202.95 647.18 202.669 647.649C202.391 648.115 201.997 648.483 201.489 648.753C200.98 649.02 200.384 649.153 199.699 649.153C199.014 649.153 198.418 649.02 197.909 648.753C197.401 648.483 197.006 648.115 196.724 647.649C196.446 647.18 196.307 646.648 196.307 646.051V640.273H197.364V645.966C197.364 646.392 197.457 646.771 197.645 647.104C197.832 647.433 198.099 647.693 198.446 647.884C198.795 648.071 199.213 648.165 199.699 648.165C200.185 648.165 200.602 648.071 200.952 647.884C201.301 647.693 201.568 647.433 201.753 647.104C201.94 646.771 202.034 646.392 202.034 645.966V640.273ZM212.122 640.273V649H211.099L206.343 642.148H206.258V649H205.201V640.273H206.224L210.997 647.142H211.082V640.273H212.122ZM213.759 641.21V640.273H220.305V641.21H217.56V649H216.504V641.21H213.759ZM221.274 649H220.166L223.371 640.273H224.462L227.666 649H226.558L223.95 641.653H223.882L221.274 649ZM221.683 645.591H226.149V646.528H221.683V645.591ZM230.082 640.273V649H229.026V640.273H230.082ZM239.122 640.273V649H238.099L233.343 642.148H233.258V649H232.201V640.273H233.224L237.997 647.142H238.082V640.273H239.122ZM246.009 642.455C245.958 642.023 245.751 641.688 245.387 641.449C245.023 641.21 244.577 641.091 244.049 641.091C243.663 641.091 243.325 641.153 243.035 641.278C242.748 641.403 242.523 641.575 242.362 641.794C242.202 642.013 242.123 642.261 242.123 642.54C242.123 642.773 242.178 642.973 242.289 643.141C242.403 643.305 242.548 643.443 242.724 643.554C242.9 643.662 243.085 643.751 243.278 643.822C243.471 643.891 243.648 643.946 243.81 643.989L244.697 644.227C244.924 644.287 245.177 644.369 245.455 644.474C245.737 644.58 246.005 644.723 246.261 644.905C246.519 645.084 246.732 645.314 246.9 645.595C247.067 645.876 247.151 646.222 247.151 646.631C247.151 647.102 247.028 647.528 246.781 647.909C246.536 648.29 246.178 648.592 245.707 648.817C245.238 649.041 244.668 649.153 243.998 649.153C243.373 649.153 242.832 649.053 242.374 648.851C241.92 648.649 241.562 648.368 241.3 648.007C241.042 647.646 240.896 647.227 240.862 646.75H241.952C241.981 647.08 242.092 647.352 242.285 647.568C242.481 647.781 242.728 647.94 243.026 648.045C243.327 648.148 243.651 648.199 243.998 648.199C244.401 648.199 244.763 648.134 245.085 648.003C245.406 647.869 245.66 647.685 245.847 647.449C246.035 647.21 246.129 646.932 246.129 646.614C246.129 646.324 246.048 646.088 245.886 645.906C245.724 645.724 245.511 645.577 245.246 645.463C244.982 645.349 244.697 645.25 244.39 645.165L243.316 644.858C242.634 644.662 242.094 644.382 241.697 644.018C241.299 643.655 241.1 643.179 241.1 642.591C241.1 642.102 241.232 641.676 241.496 641.312C241.763 640.946 242.121 640.662 242.57 640.46C243.022 640.256 243.526 640.153 244.083 640.153C244.646 640.153 245.146 640.254 245.583 640.456C246.021 640.655 246.367 640.928 246.623 641.274C246.881 641.621 247.018 642.014 247.032 642.455H246.009ZM255.213 639.864L252.4 650.312H251.48L254.292 639.864H255.213ZM265.882 643C265.788 642.713 265.665 642.456 265.511 642.229C265.361 641.999 265.18 641.803 264.97 641.641C264.763 641.479 264.527 641.355 264.263 641.27C263.999 641.185 263.709 641.142 263.393 641.142C262.876 641.142 262.406 641.276 261.983 641.543C261.56 641.81 261.223 642.203 260.973 642.723C260.723 643.243 260.598 643.881 260.598 644.636C260.598 645.392 260.724 646.03 260.977 646.55C261.23 647.07 261.572 647.463 262.004 647.73C262.436 647.997 262.922 648.131 263.462 648.131C263.962 648.131 264.402 648.024 264.783 647.811C265.166 647.595 265.464 647.291 265.678 646.899C265.893 646.504 266.001 646.04 266.001 645.506L266.325 645.574H263.7V644.636H267.024V645.574C267.024 646.293 266.871 646.918 266.564 647.449C266.26 647.98 265.839 648.392 265.303 648.685C264.768 648.974 264.155 649.119 263.462 649.119C262.689 649.119 262.01 648.938 261.425 648.574C260.842 648.21 260.388 647.693 260.061 647.023C259.737 646.352 259.575 645.557 259.575 644.636C259.575 643.946 259.668 643.325 259.852 642.774C260.04 642.22 260.304 641.749 260.645 641.359C260.986 640.97 261.389 640.672 261.855 640.464C262.321 640.257 262.834 640.153 263.393 640.153C263.854 640.153 264.283 640.223 264.68 640.362C265.081 640.499 265.438 640.693 265.75 640.946C266.065 641.196 266.328 641.496 266.538 641.845C266.749 642.192 266.893 642.577 266.973 643H265.882ZM268.834 649V640.273H271.783C272.465 640.273 273.025 640.389 273.462 640.622C273.9 640.852 274.223 641.169 274.434 641.572C274.644 641.976 274.749 642.435 274.749 642.949C274.749 643.463 274.644 643.919 274.434 644.317C274.223 644.714 273.901 645.027 273.466 645.254C273.032 645.479 272.476 645.591 271.8 645.591H269.414V644.636H271.766C272.232 644.636 272.607 644.568 272.891 644.432C273.178 644.295 273.385 644.102 273.513 643.852C273.644 643.599 273.709 643.298 273.709 642.949C273.709 642.599 273.644 642.294 273.513 642.033C273.382 641.771 273.174 641.57 272.887 641.428C272.6 641.283 272.221 641.21 271.749 641.21H269.891V649H268.834ZM272.942 645.08L275.09 649H273.863L271.749 645.08H272.942ZM283.874 644.636C283.874 645.557 283.707 646.352 283.375 647.023C283.043 647.693 282.587 648.21 282.007 648.574C281.428 648.938 280.766 649.119 280.021 649.119C279.277 649.119 278.615 648.938 278.036 648.574C277.456 648.21 277 647.693 276.668 647.023C276.335 646.352 276.169 645.557 276.169 644.636C276.169 643.716 276.335 642.92 276.668 642.25C277 641.58 277.456 641.062 278.036 640.699C278.615 640.335 279.277 640.153 280.021 640.153C280.766 640.153 281.428 640.335 282.007 640.699C282.587 641.062 283.043 641.58 283.375 642.25C283.707 642.92 283.874 643.716 283.874 644.636ZM282.851 644.636C282.851 643.881 282.724 643.243 282.472 642.723C282.222 642.203 281.882 641.81 281.453 641.543C281.027 641.276 280.55 641.142 280.021 641.142C279.493 641.142 279.014 641.276 278.585 641.543C278.159 641.81 277.82 642.203 277.567 642.723C277.317 643.243 277.192 643.881 277.192 644.636C277.192 645.392 277.317 646.03 277.567 646.55C277.82 647.07 278.159 647.463 278.585 647.73C279.014 647.997 279.493 648.131 280.021 648.131C280.55 648.131 281.027 647.997 281.453 647.73C281.882 647.463 282.222 647.07 282.472 646.55C282.724 646.03 282.851 645.392 282.851 644.636ZM287.236 649L284.849 640.273H285.923L287.747 647.381H287.832L289.69 640.273H290.884L292.741 647.381H292.827L294.651 640.273H295.724L293.338 649H292.247L290.321 642.045H290.253L288.327 649H287.236ZM296.564 641.21V640.273H303.109V641.21H300.365V649H299.308V641.21H296.564ZM304.74 649V640.273H305.797V644.159H310.451V640.273H311.507V649H310.451V645.097H305.797V649H304.74Z" fill="#A3A5C1"/>
<path d="M245.922 582.091L239.332 593.476C239.315 593.5 239.301 593.524 239.287 593.552L236.011 599.207L233.34 596.536L224.644 612.96H226.637L233.78 599.464L236.389 602.07L240.298 595.315L242.732 597.398L245.812 594.758L248.892 597.398L250.958 595.625L258.104 609.409L259.892 606.731L263.353 612.96H265.368L260.029 603.349L258.297 605.951L252.119 594.04C252.119 594.037 252.119 594.037 252.119 594.037C252.085 593.878 252.009 593.734 251.903 593.617L245.922 582.091ZM245.839 585.749L250.129 594.023L248.892 595.082L245.812 592.442L242.732 595.082L241.195 593.765L245.839 585.749Z" fill="white"/>
<circle cx="262" cy="380" r="13.5" stroke="white" stroke-opacity="0.5"/>
<path d="M259.113 380L262 382.887L264.887 380L262 377.113L259.113 380ZM437 380H437.5V379.5H437V380ZM437 529.887L439.887 527L437 524.113L434.113 527L437 529.887ZM262 380.5H262.994V379.5H262V380.5ZM264.983 380.5H266.972V379.5H264.983V380.5ZM268.96 380.5H270.949V379.5H268.96V380.5ZM272.938 380.5H274.926V379.5H272.938V380.5ZM276.915 380.5H278.903V379.5H276.915V380.5ZM280.892 380.5H282.881V379.5H280.892V380.5ZM284.869 380.5H286.858V379.5H284.869V380.5ZM288.847 380.5H290.835V379.5H288.847V380.5ZM292.824 380.5H294.812V379.5H292.824V380.5ZM296.801 380.5H298.79V379.5H296.801V380.5ZM300.778 380.5H302.767V379.5H300.778V380.5ZM304.756 380.5H306.744V379.5H304.756V380.5ZM308.733 380.5H310.722V379.5H308.733V380.5ZM312.71 380.5H314.699V379.5H312.71V380.5ZM316.687 380.5H318.676V379.5H316.687V380.5ZM320.665 380.5H322.653V379.5H320.665V380.5ZM324.642 380.5H326.631V379.5H324.642V380.5ZM328.619 380.5H330.608V379.5H328.619V380.5ZM332.597 380.5H334.585V379.5H332.597V380.5ZM336.574 380.5H338.563V379.5H336.574V380.5ZM340.551 380.5H342.54V379.5H340.551V380.5ZM344.528 380.5H346.517V379.5H344.528V380.5ZM348.506 380.5H350.494V379.5H348.506V380.5ZM352.483 380.5H354.472V379.5H352.483V380.5ZM356.46 380.5H358.449V379.5H356.46V380.5ZM360.438 380.5H362.426V379.5H360.438V380.5ZM364.415 380.5H366.403V379.5H364.415V380.5ZM368.392 380.5H370.381V379.5H368.392V380.5ZM372.369 380.5H374.358V379.5H372.369V380.5ZM376.347 380.5H378.335V379.5H376.347V380.5ZM380.324 380.5H382.313V379.5H380.324V380.5ZM384.301 380.5H386.29V379.5H384.301V380.5ZM388.279 380.5H390.267V379.5H388.279V380.5ZM392.256 380.5H394.244V379.5H392.256V380.5ZM396.233 380.5H398.222V379.5H396.233V380.5ZM400.21 380.5H402.199V379.5H400.21V380.5ZM404.188 380.5H406.176V379.5H404.188V380.5ZM408.165 380.5H410.153V379.5H408.165V380.5ZM412.142 380.5H414.131V379.5H412.142V380.5ZM416.119 380.5H418.108V379.5H416.119V380.5ZM420.097 380.5H422.085V379.5H420.097V380.5ZM424.074 380.5H426.063V379.5H424.074V380.5ZM428.051 380.5H430.04V379.5H428.051V380.5ZM432.028 380.5H434.017V379.5H432.028V380.5ZM436.006 380.5H437V379.5H436.006V380.5ZM436.5 380V380.993H437.5V380H436.5ZM436.5 382.98V384.966H437.5V382.98H436.5ZM436.5 386.953V388.939H437.5V386.953H436.5ZM436.5 390.926V392.912H437.5V390.926H436.5ZM436.5 394.899V396.885H437.5V394.899H436.5ZM436.5 398.872V400.858H437.5V398.872H436.5ZM436.5 402.845V404.831H437.5V402.845H436.5ZM436.5 406.818V408.804H437.5V406.818H436.5ZM436.5 410.791V412.777H437.5V410.791H436.5ZM436.5 414.764V416.75H437.5V414.764H436.5ZM436.5 418.736V420.723H437.5V418.736H436.5ZM436.5 422.709V424.696H437.5V422.709H436.5ZM436.5 426.682V428.669H437.5V426.682H436.5ZM436.5 430.655V432.642H437.5V430.655H436.5ZM436.5 434.628V436.615H437.5V434.628H436.5ZM436.5 438.601V440.588H437.5V438.601H436.5ZM436.5 442.574V444.561H437.5V442.574H436.5ZM436.5 446.547V448.534H437.5V446.547H436.5ZM436.5 450.52V452.507H437.5V450.52H436.5ZM436.5 454.493V456.48H437.5V454.493H436.5ZM436.5 458.466V460.453H437.5V458.466H436.5ZM436.5 462.439V464.426H437.5V462.439H436.5ZM436.5 466.412V468.399H437.5V466.412H436.5ZM436.5 470.385V472.372H437.5V470.385H436.5ZM436.5 474.358V476.345H437.5V474.358H436.5ZM436.5 478.331V480.318H437.5V478.331H436.5ZM436.5 482.304V484.291H437.5V482.304H436.5ZM436.5 486.277V488.264H437.5V486.277H436.5ZM436.5 490.25V492.237H437.5V490.25H436.5ZM436.5 494.223V496.21H437.5V494.223H436.5ZM436.5 498.196V500.183H437.5V498.196H436.5ZM436.5 502.169V504.155H437.5V502.169H436.5ZM436.5 506.142V508.128H437.5V506.142H436.5ZM436.5 510.115V512.101H437.5V510.115H436.5ZM436.5 514.088V516.074H437.5V514.088H436.5ZM436.5 518.061V520.047H437.5V518.061H436.5ZM436.5 522.034V524.02H437.5V522.034H436.5ZM436.5 526.007V527H437.5V526.007H436.5Z" fill="white" fill-opacity="0.5"/>
<circle cx="243.5" cy="156.5" r="14" stroke="white" stroke-opacity="0.5"/>
<path d="M246.887 156L244 153.113L241.113 156L244 158.887L246.887 156ZM199 156V155.5H198.5V156H199ZM246.887 514L244 511.113L241.113 514L244 516.887L246.887 514ZM199 514H198.5V514.5H199V514ZM244 155.5H242.977V156.5H244V155.5ZM240.932 155.5H238.886V156.5H240.932V155.5ZM236.841 155.5H234.795V156.5H236.841V155.5ZM232.75 155.5H230.705V156.5H232.75V155.5ZM228.659 155.5H226.614V156.5H228.659V155.5ZM224.568 155.5H222.523V156.5H224.568V155.5ZM220.477 155.5H218.432V156.5H220.477V155.5ZM216.386 155.5H214.341V156.5H216.386V155.5ZM212.295 155.5H210.25V156.5H212.295V155.5ZM208.205 155.5H206.159V156.5H208.205V155.5ZM204.114 155.5H202.068V156.5H204.114V155.5ZM200.023 155.5H199V156.5H200.023V155.5ZM198.5 156V156.994H199.5V156H198.5ZM198.5 158.983V160.972H199.5V158.983H198.5ZM198.5 162.961V164.95H199.5V162.961H198.5ZM198.5 166.939V168.928H199.5V166.939H198.5ZM198.5 170.917V172.906H199.5V170.917H198.5ZM198.5 174.894V176.883H199.5V174.894H198.5ZM198.5 178.872V180.861H199.5V178.872H198.5ZM198.5 182.85V184.839H199.5V182.85H198.5ZM198.5 186.828V188.817H199.5V186.828H198.5ZM198.5 190.806V192.794H199.5V190.806H198.5ZM198.5 194.783V196.772H199.5V194.783H198.5ZM198.5 198.761V200.75H199.5V198.761H198.5ZM198.5 202.739V204.728H199.5V202.739H198.5ZM198.5 206.717V208.706H199.5V206.717H198.5ZM198.5 210.694V212.683H199.5V210.694H198.5ZM198.5 214.672V216.661H199.5V214.672H198.5ZM198.5 218.65V220.639H199.5V218.65H198.5ZM198.5 222.628V224.617H199.5V222.628H198.5ZM198.5 226.606V228.594H199.5V226.606H198.5ZM198.5 230.583V232.572H199.5V230.583H198.5ZM198.5 234.561V236.55H199.5V234.561H198.5ZM198.5 238.539V240.528H199.5V238.539H198.5ZM198.5 242.517V244.506H199.5V242.517H198.5ZM198.5 246.494V248.483H199.5V246.494H198.5ZM198.5 250.472V252.461H199.5V250.472H198.5ZM198.5 254.45V256.439H199.5V254.45H198.5ZM198.5 258.428V260.417H199.5V258.428H198.5ZM198.5 262.406V264.395H199.5V262.406H198.5ZM198.5 266.383V268.372H199.5V266.383H198.5ZM198.5 270.361V272.35H199.5V270.361H198.5ZM198.5 274.339V276.328H199.5V274.339H198.5ZM198.5 278.317V280.306H199.5V278.317H198.5ZM198.5 282.295V284.283H199.5V282.295H198.5ZM198.5 286.272V288.261H199.5V286.272H198.5ZM198.5 290.25V292.239H199.5V290.25H198.5ZM198.5 294.228V296.217H199.5V294.228H198.5ZM198.5 298.206V300.195H199.5V298.206H198.5ZM198.5 302.183V304.172H199.5V302.183H198.5ZM198.5 306.161V308.15H199.5V306.161H198.5ZM198.5 310.139V312.128H199.5V310.139H198.5ZM198.5 314.117V316.106H199.5V314.117H198.5ZM198.5 318.095V320.083H199.5V318.095H198.5ZM198.5 322.072V324.061H199.5V322.072H198.5ZM198.5 326.05V328.039H199.5V326.05H198.5ZM198.5 330.028V332.017H199.5V330.028H198.5ZM198.5 334.006V335.995H199.5V334.006H198.5ZM198.5 337.983V339.972H199.5V337.983H198.5ZM198.5 341.961V343.95H199.5V341.961H198.5ZM198.5 345.939V347.928H199.5V345.939H198.5ZM198.5 349.917V351.906H199.5V349.917H198.5ZM198.5 353.895V355.884H199.5V353.895H198.5ZM198.5 357.872V359.861H199.5V357.872H198.5ZM198.5 361.85V363.839H199.5V361.85H198.5ZM198.5 365.828V367.817H199.5V365.828H198.5ZM198.5 369.806V371.795H199.5V369.806H198.5ZM198.5 373.784V375.772H199.5V373.784H198.5ZM198.5 377.761V379.75H199.5V377.761H198.5ZM198.5 381.739V383.728H199.5V381.739H198.5ZM198.5 385.717V387.706H199.5V385.717H198.5ZM198.5 389.695V391.684H199.5V389.695H198.5ZM198.5 393.672V395.661H199.5V393.672H198.5ZM198.5 397.65V399.639H199.5V397.65H198.5ZM198.5 401.628V403.617H199.5V401.628H198.5ZM198.5 405.606V407.595H199.5V405.606H198.5ZM198.5 409.584V411.572H199.5V409.584H198.5ZM198.5 413.561V415.55H199.5V413.561H198.5ZM198.5 417.539V419.528H199.5V417.539H198.5ZM198.5 421.517V423.506H199.5V421.517H198.5ZM198.5 425.495V427.484H199.5V425.495H198.5ZM198.5 429.472V431.461H199.5V429.472H198.5ZM198.5 433.45V435.439H199.5V433.45H198.5ZM198.5 437.428V439.417H199.5V437.428H198.5ZM198.5 441.406V443.395H199.5V441.406H198.5ZM198.5 445.384V447.373H199.5V445.384H198.5ZM198.5 449.361V451.35H199.5V449.361H198.5ZM198.5 453.339V455.328H199.5V453.339H198.5ZM198.5 457.317V459.306H199.5V457.317H198.5ZM198.5 461.295V463.284H199.5V461.295H198.5ZM198.5 465.273V467.261H199.5V465.273H198.5ZM198.5 469.25V471.239H199.5V469.25H198.5ZM198.5 473.228V475.217H199.5V473.228H198.5ZM198.5 477.206V479.195H199.5V477.206H198.5ZM198.5 481.184V483.173H199.5V481.184H198.5ZM198.5 485.161V487.15H199.5V485.161H198.5ZM198.5 489.139V491.128H199.5V489.139H198.5ZM198.5 493.117V495.106H199.5V493.117H198.5ZM198.5 497.095V499.084H199.5V497.095H198.5ZM198.5 501.073V503.061H199.5V501.073H198.5ZM198.5 505.05V507.039H199.5V505.05H198.5ZM198.5 509.028V511.017H199.5V509.028H198.5ZM198.5 513.006V514H199.5V513.006H198.5ZM199 514.5H200.023V513.5H199V514.5ZM202.068 514.5H204.114V513.5H202.068V514.5ZM206.159 514.5H208.205V513.5H206.159V514.5ZM210.25 514.5H212.295V513.5H210.25V514.5ZM214.341 514.5H216.386V513.5H214.341V514.5ZM218.432 514.5H220.477V513.5H218.432V514.5ZM222.523 514.5H224.568V513.5H222.523V514.5ZM226.614 514.5H228.659V513.5H226.614V514.5ZM230.705 514.5H232.75V513.5H230.705V514.5ZM234.795 514.5H236.841V513.5H234.795V514.5ZM238.886 514.5H240.932V513.5H238.886V514.5ZM242.977 514.5H244V513.5H242.977V514.5Z" fill="white" fill-opacity="0.5"/>
<circle cx="149.5" cy="242.5" r="14" stroke="white" stroke-opacity="0.5"/>
<path d="M151.887 242L149 239.113L146.113 242L149 244.887L151.887 242ZM49 242V241.5H48.5V242H49ZM49 535.887L51.8868 533L49 530.113L46.1132 533L49 535.887ZM49.5 533V531.975H48.5V533H49.5ZM49.5 529.925V527.875H48.5V529.925H49.5ZM49.5 525.825V523.775H48.5V525.825H49.5ZM49.5 521.725V519.675H48.5V521.725H49.5ZM49.5 517.625V515.575H48.5V517.625H49.5ZM49.5 513.525V511.475H48.5V513.525H49.5ZM49.5 509.425V507.375H48.5V509.425H49.5ZM49.5 505.325V503.275H48.5V505.325H49.5ZM49.5 501.225V499.175H48.5V501.225H49.5ZM49.5 497.125V495.075H48.5V497.125H49.5ZM49.5 493.025V490.975H48.5V493.025H49.5ZM49.5 488.925V486.875H48.5V488.925H49.5ZM49.5 484.825V482.775H48.5V484.825H49.5ZM49.5 480.725V478.675H48.5V480.725H49.5ZM49.5 476.625V474.575H48.5V476.625H49.5ZM49.5 472.525V470.475H48.5V472.525H49.5ZM49.5 468.425V466.375H48.5V468.425H49.5ZM49.5 464.325V462.275H48.5V464.325H49.5ZM49.5 460.225V458.175H48.5V460.225H49.5ZM49.5 456.125V455.1H48.5V456.125H49.5ZM49.5 455.1V454.095H48.5V455.1H49.5ZM49.5 452.085V450.074H48.5V452.085H49.5ZM49.5 448.064V446.054H48.5V448.064H49.5ZM49.5 444.043V442.033H48.5V444.043H49.5ZM49.5 440.023V438.012H48.5V440.023H49.5ZM49.5 436.002V433.991H48.5V436.002H49.5ZM49.5 431.981V429.971H48.5V431.981H49.5ZM49.5 427.96V425.95H48.5V427.96H49.5ZM49.5 423.939V421.929H48.5V423.939H49.5ZM49.5 419.919V417.908H48.5V419.919H49.5ZM49.5 415.898V413.888H48.5V415.898H49.5ZM49.5 411.877V409.867H48.5V411.877H49.5ZM49.5 407.856V405.846H48.5V407.856H49.5ZM49.5 403.836V401.825H48.5V403.836H49.5ZM49.5 399.815V397.805H48.5V399.815H49.5ZM49.5 395.794V393.784H48.5V395.794H49.5ZM49.5 391.773V389.763H48.5V391.773H49.5ZM49.5 387.753V385.742H48.5V387.753H49.5ZM49.5 383.732V381.721H48.5V383.732H49.5ZM49.5 379.711V377.701H48.5V379.711H49.5ZM49.5 375.69V373.68H48.5V375.69H49.5ZM49.5 371.67V369.659H48.5V371.67H49.5ZM49.5 367.649V365.638H48.5V367.649H49.5ZM49.5 363.628V361.618H48.5V363.628H49.5ZM49.5 359.607V357.597H48.5V359.607H49.5ZM49.5 355.586V353.576H48.5V355.586H49.5ZM49.5 351.566V349.555H48.5V351.566H49.5ZM49.5 347.545V345.535H48.5V347.545H49.5ZM49.5 343.524V341.514H48.5V343.524H49.5ZM49.5 339.503V337.493H48.5V339.503H49.5ZM49.5 335.483V333.472H48.5V335.483H49.5ZM49.5 331.462V329.452H48.5V331.462H49.5ZM49.5 327.441V325.431H48.5V327.441H49.5ZM49.5 323.42V321.41H48.5V323.42H49.5ZM49.5 319.4V317.389H48.5V319.4H49.5ZM49.5 315.379V313.368H48.5V315.379H49.5ZM49.5 311.358V309.348H48.5V311.358H49.5ZM49.5 307.337V305.327H48.5V307.337H49.5ZM49.5 303.317V301.306H48.5V303.317H49.5ZM49.5 299.296V297.285H48.5V299.296H49.5ZM49.5 295.275V293.265H48.5V295.275H49.5ZM49.5 291.254V289.244H48.5V291.254H49.5ZM49.5 287.234V285.223H48.5V287.234H49.5ZM49.5 283.213V281.202H48.5V283.213H49.5ZM49.5 279.192V277.182H48.5V279.192H49.5ZM49.5 275.171V273.161H48.5V275.171H49.5ZM49.5 271.151V269.14H48.5V271.151H49.5ZM49.5 267.13V265.119H48.5V267.13H49.5ZM49.5 263.109V261.099H48.5V263.109H49.5ZM49.5 259.088V257.078H48.5V259.088H49.5ZM49.5 255.068V253.057H48.5V255.068H49.5ZM49.5 251.047V249.036H48.5V251.047H49.5ZM49.5 247.026V245.016H48.5V247.026H49.5ZM49.5 243.005V242H48.5V243.005H49.5ZM49 242.5H50V241.5H49V242.5ZM52 242.5H54V241.5H52V242.5ZM56 242.5H58V241.5H56V242.5ZM60 242.5H62V241.5H60V242.5ZM64 242.5H66V241.5H64V242.5ZM68 242.5H70V241.5H68V242.5ZM72 242.5H74V241.5H72V242.5ZM76 242.5H78V241.5H76V242.5ZM80 242.5H82V241.5H80V242.5ZM84 242.5H86V241.5H84V242.5ZM88 242.5H90V241.5H88V242.5ZM92 242.5H94V241.5H92V242.5ZM96 242.5H98V241.5H96V242.5ZM100 242.5H102V241.5H100V242.5ZM104 242.5H106V241.5H104V242.5ZM108 242.5H110V241.5H108V242.5ZM112 242.5H114V241.5H112V242.5ZM116 242.5H118V241.5H116V242.5ZM120 242.5H122V241.5H120V242.5ZM124 242.5H126V241.5H124V242.5ZM128 242.5H130V241.5H128V242.5ZM132 242.5H134V241.5H132V242.5ZM136 242.5H138V241.5H136V242.5ZM140 242.5H142V241.5H140V242.5ZM144 242.5H146V241.5H144V242.5ZM148 242.5H149V241.5H148V242.5Z" fill="white" fill-opacity="0.5"/>
<defs>
<filter id="filter0_f_503_927" x="1.60938" y="0.22583" width="486.897" height="486.897" filterUnits="userSpaceOnUse" color-interpolation-filters="sRGB">
<feFlood flood-opacity="0" result="BackgroundImageFix"/>
<feBlend mode="normal" in="SourceGraphic" in2="BackgroundImageFix" result="shape"/>
<feGaussianBlur stdDeviation="50" result="effect1_foregroundBlur_503_927"/>
</filter>
<linearGradient id="paint0_linear_503_927" x1="244.298" y1="277.001" x2="240.48" y2="429.182" gradientUnits="userSpaceOnUse">
<stop stop-color="#CE0CFF"/>
<stop offset="1" stop-color="#AD00FF"/>
</linearGradient>
<linearGradient id="paint1_linear_503_927" x1="337.512" y1="279.34" x2="333.694" y2="431.521" gradientUnits="userSpaceOnUse">
<stop stop-color="#6F25F7"/>
<stop offset="0.8966" stop-color="#B67EFF"/>
</linearGradient>
<linearGradient id="paint2_linear_503_927" x1="151.085" y1="274.663" x2="147.267" y2="426.844" gradientUnits="userSpaceOnUse">
<stop stop-color="#6F25F7"/>
<stop offset="0.8966" stop-color="#B67EFF"/>
</linearGradient>
<linearGradient id="paint3_linear_503_927" x1="244.57" y1="266.181" x2="244.57" y2="372.954" gradientUnits="userSpaceOnUse">
<stop stop-color="#6714FF"/>
<stop offset="1" stop-color="#6F25F7" stop-opacity="0"/>
<stop offset="1" stop-color="#5A00FF"/>
</linearGradient>
<linearGradient id="paint4_linear_503_927" x1="163.008" y1="272.159" x2="162.035" y2="150.961" gradientUnits="userSpaceOnUse">
<stop offset="1.24601e-07" stop-color="#0500FF"/>
<stop offset="1" stop-color="#00C2FF"/>
</linearGradient>
<linearGradient id="paint5_linear_503_927" x1="326.235" y1="272.159" x2="325.262" y2="150.961" gradientUnits="userSpaceOnUse">
<stop offset="1.24601e-07" stop-color="#0500FF"/>
<stop offset="1" stop-color="#00C2FF"/>
</linearGradient>
<linearGradient id="paint6_linear_503_927" x1="244.651" y1="275.987" x2="243.014" y2="77.1694" gradientUnits="userSpaceOnUse">
<stop offset="1.24601e-07" stop-color="#0500FF"/>
<stop offset="1" stop-color="#00C2FF"/>
</linearGradient>
<linearGradient id="paint7_linear_503_927" x1="244.57" y1="266.181" x2="244.57" y2="159.409" gradientUnits="userSpaceOnUse">
<stop stop-color="#C731D1" stop-opacity="0.4"/>
<stop offset="1" stop-color="#041DFF" stop-opacity="0"/>
</linearGradient>
</defs>
</svg>
