<svg width="589" height="98" viewBox="0 0 589 98" fill="none" xmlns="http://www.w3.org/2000/svg">
<path d="M44.0212 51.3981L87.2466 93.9496H0.795898L44.0212 51.3981Z" fill="white"/>
<path d="M0.795898 8.8465L44.0212 51.398L87.2466 8.8465H0.795898Z" fill="white"/>
<path d="M44.0281 51.398L87.2534 93.9494L130.479 51.398L87.2534 8.8465L44.0281 51.398Z" fill="white"/>
<path d="M783.062 29.0144C783.062 29.6327 782.207 29.9036 781.804 29.4312C778.643 25.7561 773.419 22.9703 766.27 22.9703C750.799 22.9703 742.004 35.4613 742.004 50.5854C742.004 65.6121 750.799 78.0962 766.27 78.0962C773.516 78.0962 779.178 75.5605 782.694 71.1837C783.09 70.6974 783.972 70.9614 783.972 71.5867V76.2621C783.972 76.6095 784.25 76.8874 784.59 76.8874H794.469C794.816 76.8874 795.094 76.6095 795.094 76.2621V1.3646C795.094 1.19877 795.028 1.03974 794.911 0.92248C794.794 0.805223 794.635 0.739349 794.469 0.739349H783.68C783.515 0.741179 783.358 0.807859 783.242 0.924918C783.127 1.04198 783.062 1.19997 783.062 1.3646V29.0144ZM783.562 50.5854C783.562 60.0335 778.004 67.4392 768.799 67.4392C759.698 67.4392 754.037 60.0266 754.037 50.5854C754.037 40.9427 759.698 33.6342 768.799 33.6342C778.004 33.6342 783.562 40.9427 783.562 50.5854ZM739.003 24.3598C739.003 24.2039 738.945 24.0535 738.839 23.9389C738.734 23.8242 738.589 23.7537 738.433 23.7415C738.049 23.7119 737.665 23.6934 737.28 23.6859C729.846 23.6859 725.518 26.6662 723.135 29.584C722.732 30.0703 721.809 29.8063 721.809 29.1672V24.8113C721.809 24.6467 721.744 24.4887 721.628 24.3716C721.512 24.2546 721.355 24.1879 721.19 24.1861H711.304C711.14 24.1879 710.983 24.2546 710.867 24.3716C710.751 24.4887 710.686 24.6467 710.686 24.8113V76.2621C710.686 76.6095 710.964 76.8874 711.304 76.8874H722.1C722.265 76.8855 722.422 76.8189 722.538 76.7018C722.654 76.5847 722.719 76.4268 722.719 76.2621V49.4738C722.719 39.317 727.776 34.85 736.273 34.85C736.995 34.85 737.759 34.9195 738.287 34.9681C738.376 34.9777 738.466 34.9689 738.551 34.942C738.636 34.9152 738.715 34.8711 738.782 34.8123C738.849 34.7536 738.904 34.6815 738.942 34.6007C738.98 34.5199 739 34.4321 739.003 34.3429V24.3598ZM688.045 52.2179C688.134 52.205 688.225 52.2113 688.311 52.2364C688.397 52.2615 688.476 52.3049 688.544 52.3635C688.612 52.4222 688.667 52.4948 688.704 52.5763C688.741 52.6579 688.761 52.7465 688.761 52.8362V55.4623C688.761 62.5692 684.009 68.6619 674.297 68.6619C668.531 68.6619 664.988 66.7306 664.988 61.7564C664.988 58.1022 667.419 55.365 674.804 54.2396L688.045 52.2249V52.2179ZM671.872 78.1031C679.354 78.1031 684.982 75.9217 688.629 71.6423C689.025 71.1698 689.893 71.4338 689.921 72.0591C690.067 75.0811 690.498 76.8804 690.581 76.8804H701.064C701.509 76.8804 701.821 76.4219 701.683 75.9981C700.953 73.6917 700.488 69.9541 700.488 66.9321V42.6656C700.488 30.5844 693.207 22.9703 677.84 22.9703C662.355 22.9703 656.012 31.0846 654.761 40.0534C654.752 40.1397 654.76 40.227 654.786 40.3098C654.813 40.3925 654.856 40.4688 654.914 40.5337C654.971 40.5986 655.042 40.6506 655.121 40.6863C655.2 40.7221 655.286 40.7408 655.373 40.7412H665.884C666.189 40.7412 666.439 40.5189 666.509 40.2202C667.489 35.6559 671.198 32.9256 677.534 32.9256C684.711 32.9256 688.761 36.17 688.761 42.5683V42.8392C688.761 42.9894 688.707 43.1344 688.608 43.2479C688.51 43.3615 688.374 43.4359 688.226 43.4576L673.588 45.5139C659.735 47.4383 653.469 53.2253 653.469 62.1594C653.469 71.1907 658.825 78.1031 671.872 78.1031V78.1031ZM621.616 78.1031C638.401 78.1031 648.919 65.4106 648.919 50.5923C648.919 35.767 638.401 22.9703 621.616 22.9703C604.929 22.9703 594.418 35.767 594.418 50.5854C594.418 65.4106 604.929 78.0962 621.616 78.0962V78.1031ZM606.451 50.5923C606.451 40.3313 612.918 33.6342 621.616 33.6342C630.418 33.6342 636.886 40.3313 636.886 50.5854C636.886 60.7421 630.418 67.4392 621.616 67.4392C612.918 67.4392 606.451 60.7421 606.451 50.5854V50.5923ZM550.102 29.4312C549.699 29.9036 548.852 29.6327 548.852 29.0144V1.3646C548.852 1.19877 548.786 1.03974 548.668 0.92248C548.551 0.805223 548.392 0.739349 548.226 0.739349H537.437C537.272 0.739349 537.112 0.805223 536.995 0.92248C536.878 1.03974 536.812 1.19877 536.812 1.3646V76.2552C536.812 76.6025 537.09 76.8804 537.437 76.8804H547.316C547.664 76.8804 547.941 76.6025 547.941 76.2552V71.5311C547.941 70.9058 548.803 70.6419 549.192 71.1282C552.784 75.5396 558.453 78.1031 565.636 78.1031C581.205 78.1031 590.007 65.6121 590.007 50.5923C590.007 35.4613 581.205 22.9703 565.636 22.9703C558.571 22.9703 553.284 25.7561 550.102 29.4312V29.4312ZM548.442 50.5854C548.442 40.9427 553.999 33.6342 563.204 33.6342C572.305 33.6342 577.974 40.9427 577.974 50.5854C577.974 60.0335 572.305 67.4392 563.204 67.4392C554.006 67.4392 548.442 60.0266 548.442 50.5854V50.5854ZM526.593 66.9529C526.59 66.8552 526.565 66.7594 526.521 66.6722C526.477 66.585 526.415 66.5085 526.338 66.4482C526.261 66.3879 526.172 66.3452 526.077 66.3232C525.981 66.3012 525.882 66.3003 525.787 66.3207C525.092 66.4597 524.022 66.6333 522.855 66.6333C518.708 66.6333 516.992 64.5978 516.992 60.4365V34.454C516.994 34.2894 517.06 34.1321 517.177 34.0164C517.294 33.9006 517.452 33.8357 517.617 33.8357H526.176C526.523 33.8357 526.801 33.5578 526.801 33.2105V24.8252C526.801 24.6594 526.735 24.5004 526.618 24.3831C526.501 24.2658 526.342 24.2 526.176 24.2H517.61C517.528 24.2 517.447 24.1838 517.371 24.1524C517.295 24.121 517.226 24.0749 517.168 24.0168C517.11 23.9588 517.064 23.8899 517.032 23.814C517.001 23.7381 516.985 23.6568 516.985 23.5747V11.1184C516.985 10.9538 516.92 10.7958 516.804 10.6788C516.688 10.5617 516.531 10.495 516.367 10.4932H505.578C505.412 10.4932 505.253 10.5591 505.135 10.6763C505.018 10.7936 504.952 10.9526 504.952 11.1184V23.5817C504.952 23.6638 504.936 23.7451 504.905 23.8209C504.873 23.8968 504.827 23.9657 504.769 24.0238C504.711 24.0818 504.642 24.1279 504.566 24.1593C504.491 24.1907 504.409 24.2069 504.327 24.2069H497.588C497.424 24.2069 497.266 24.2718 497.149 24.3876C497.032 24.5033 496.965 24.6606 496.963 24.8252V33.2244C496.963 33.5717 497.241 33.8496 497.588 33.8496H504.327C504.674 33.8496 504.952 34.1275 504.952 34.4679V61.6661C504.952 71.6145 509.607 77.2 520.326 77.2C523.3 77.2 525.287 76.8665 526.134 76.6928C526.267 76.6639 526.385 76.5898 526.468 76.4833C526.552 76.3769 526.596 76.2446 526.593 76.1093V66.9529V66.9529ZM441.712 50.5854C441.712 65.8136 452.432 78.0962 467.903 78.0962C483.09 78.0962 490.968 67.7727 492.663 58.5051C492.678 58.4175 492.674 58.3276 492.65 58.2417C492.627 58.1559 492.585 58.0763 492.527 58.0086C492.47 57.941 492.398 57.8868 492.317 57.8502C492.235 57.8135 492.147 57.7952 492.058 57.7965H480.929C480.789 57.7978 480.654 57.8446 480.544 57.9299C480.433 58.0152 480.354 58.1343 480.318 58.2689C478.761 63.6947 474.093 67.4392 467.799 67.4392C459.205 67.4392 453.745 60.4365 453.745 50.5854C453.745 40.637 459.205 33.6342 467.799 33.6342C474.093 33.6342 478.761 37.3788 480.318 42.8045C480.394 43.0824 480.644 43.2769 480.929 43.2769H492.058C492.147 43.2783 492.235 43.2599 492.317 43.2233C492.398 43.1866 492.47 43.1325 492.527 43.0648C492.585 42.9971 492.627 42.9175 492.65 42.8317C492.674 42.7459 492.678 42.6559 492.663 42.5683C490.968 33.3008 483.09 22.9773 467.903 22.9773C452.432 22.9773 441.712 35.2599 441.712 50.5854V50.5854ZM421.447 54.5452C421.447 63.1736 416.8 67.7449 409.317 67.7449C402.037 67.7449 399.105 62.9722 399.105 55.7679V24.8113C399.105 24.6455 399.039 24.4865 398.922 24.3692C398.805 24.2519 398.646 24.1861 398.48 24.1861H387.691C387.525 24.1861 387.366 24.2519 387.249 24.3692C387.132 24.4865 387.066 24.6455 387.066 24.8113V57.3936C387.066 69.6762 393.645 78.0962 406.379 78.0962C413.451 78.0962 418.279 75.4354 420.982 72.1355C421.392 71.6353 422.364 71.9201 422.364 72.5662V76.2621C422.364 76.6095 422.642 76.8874 422.99 76.8874H432.861C433.209 76.8874 433.487 76.6095 433.487 76.2621V24.8113C433.487 24.6455 433.421 24.4865 433.304 24.3692C433.186 24.2519 433.027 24.1861 432.861 24.1861H422.072C421.907 24.1861 421.748 24.2519 421.63 24.3692C421.513 24.4865 421.447 24.6455 421.447 24.8113V54.5452ZM365.8 29.0144C365.8 29.6327 364.946 29.9036 364.543 29.4312C361.382 25.7561 356.158 22.9703 349.009 22.9703C333.538 22.9703 324.736 35.4613 324.736 50.5854C324.736 65.6121 333.538 78.0962 349.009 78.0962C356.248 78.0962 361.91 75.5605 365.432 71.1837C365.828 70.6974 366.703 70.9614 366.703 71.5867V76.2621C366.703 76.6095 366.981 76.8874 367.329 76.8874H377.208C377.555 76.8874 377.833 76.6095 377.833 76.2621V1.3646C377.833 1.19877 377.767 1.03974 377.65 0.92248C377.532 0.805223 377.373 0.739349 377.208 0.739349H366.419C366.253 0.739349 366.094 0.805223 365.977 0.92248C365.859 1.03974 365.793 1.19877 365.793 1.3646V29.0144H365.8ZM366.301 50.5854C366.301 60.0335 360.743 67.4392 351.538 67.4392C342.437 67.4392 336.768 60.0266 336.768 50.5854C336.768 40.9427 342.437 33.6342 351.538 33.6342C360.736 33.6342 366.301 40.9427 366.301 50.5854ZM292.577 78.1031C309.368 78.1031 319.879 65.4106 319.879 50.5923C319.879 35.7601 309.375 22.9703 292.577 22.9703C275.897 22.9703 265.379 35.767 265.379 50.5854C265.379 65.4106 275.897 78.0962 292.577 78.0962V78.1031ZM277.411 50.5923C277.411 40.3313 283.879 33.6342 292.577 33.6342C301.379 33.6342 307.847 40.3313 307.847 50.5854C307.847 60.7421 301.379 67.4392 292.577 67.4392C283.879 67.4392 277.411 60.7421 277.411 50.5854V50.5923ZM263.996 24.3598C263.997 24.2039 263.938 24.0535 263.833 23.9389C263.727 23.8242 263.582 23.7537 263.427 23.7415C263.045 23.7119 262.663 23.6934 262.28 23.6859C254.847 23.6859 250.512 26.6662 248.129 29.584C247.726 30.0703 246.809 29.8063 246.809 29.1672V24.8113C246.809 24.6455 246.743 24.4865 246.626 24.3692C246.509 24.2519 246.35 24.1861 246.184 24.1861H236.305C236.139 24.1861 235.98 24.2519 235.863 24.3692C235.746 24.4865 235.68 24.6455 235.68 24.8113V76.2621C235.68 76.6095 235.958 76.8874 236.305 76.8874H247.094C247.441 76.8874 247.719 76.6095 247.719 76.2621V49.4738C247.719 39.317 252.77 34.85 261.266 34.85C261.996 34.85 262.753 34.9195 263.281 34.9681C263.37 34.9777 263.459 34.9689 263.545 34.942C263.63 34.9152 263.708 34.8711 263.776 34.8123C263.843 34.7536 263.897 34.6815 263.935 34.6007C263.973 34.5199 263.994 34.4321 263.996 34.3429V24.3598ZM187.091 72.1008C187.091 71.4755 187.953 71.2046 188.362 71.6839C191.537 75.4007 196.824 78.1031 203.882 78.1031C219.451 78.1031 228.253 65.6121 228.253 50.5923C228.253 35.4613 219.451 22.9703 203.882 22.9703C196.692 22.9703 191.023 25.6172 187.432 29.987C187.042 30.4663 186.181 30.1954 186.181 29.5701V24.8113C186.181 24.6455 186.115 24.4865 185.998 24.3692C185.881 24.2519 185.722 24.1861 185.556 24.1861H175.684C175.518 24.1861 175.359 24.2519 175.242 24.3692C175.124 24.4865 175.059 24.6455 175.059 24.8113V97.3746C175.059 97.722 175.336 97.9998 175.684 97.9998H186.473C186.82 97.9998 187.098 97.722 187.098 97.3746V72.1008H187.091ZM186.688 50.5854C186.688 40.8385 192.246 33.4258 201.451 33.4258C210.552 33.4258 216.221 40.8385 216.221 50.5854C216.221 60.0335 210.552 67.4392 201.451 67.4392C192.253 67.4392 186.688 60.0266 186.688 50.5854Z" fill="white"/>
</svg>
