<svg width="64" height="64" viewBox="0 0 64 64" fill="none" xmlns="http://www.w3.org/2000/svg">
<path d="M15 2C13.3477 2 12 3.34766 12 5V27C12 28.6523 13.3477 30 15 30H25.9727L12.9062 39.6992C12.793 39.7812 12.7031 39.8867 12.6367 40H3C1.34766 40 0 41.3477 0 43V55C0 56.6523 1.34766 58 3 58H10V60H7C6.44531 60 6 60.4453 6 61C6 61.5547 6.44531 62 7 62H21C21.5547 62 22 61.5547 22 61C22 60.4453 21.5547 60 21 60H18V58H25C26.6523 58 28 56.6523 28 55V43C28 41.3477 26.6523 40 25 40H15.8516L29.3281 30H34.6602L47.7031 40H39C37.3477 40 36 41.3477 36 43V55C36 56.6523 37.3477 58 39 58H46V60H43C42.4453 60 42 60.4453 42 61C42 61.5547 42.4453 62 43 62H57C57.5547 62 58 61.5547 58 61C58 60.4453 57.5547 60 57 60H54V58H61C62.6523 58 64 56.6523 64 55V43C64 41.3477 62.6523 40 61 40H50.8633C50.8008 39.8906 50.7148 39.7891 50.6094 39.7031L37.9492 30H49C50.6523 30 52 28.6523 52 27V5C52 3.34766 50.6523 2 49 2H15ZM15 4H49C49.5508 4 50 4.44922 50 5V6H14V5C14 4.44922 14.4492 4 15 4ZM14 8H50V27C50 27.5508 49.5508 28 49 28H15C14.4492 28 14 27.5508 14 27V8ZM21.0391 12.0469C20.5586 12.0469 20.0781 12.4453 20.0781 13.0469C20.0781 13.6445 20.4375 14.0469 21.0391 14.0469H23C23.6016 14.0469 23.9609 13.6445 23.9609 13.0469C23.9609 12.4453 23.6016 12.0469 23 12.0469H21.0391ZM27 12.0469C26.4453 12.0469 26 12.4922 26 13.0469C26 13.5977 26.4453 14.0469 27 14.0469H43C43.5547 14.0469 44 13.5977 44 13.0469C44 12.4922 43.5547 12.0469 43 12.0469H27ZM21.0391 16.0469C20.5586 16.0469 20.0781 16.4453 20.0781 17.0469C20.0781 17.6445 20.4375 18.0469 21.0391 18.0469H23C23.6016 18.0469 23.9609 17.6445 23.9609 17.0469C23.9609 16.4453 23.6016 16.0469 23 16.0469H21.0391ZM27 16.0469C26.4453 16.0469 26 16.4922 26 17.0469C26 17.5977 26.4453 18.0469 27 18.0469H43C43.5547 18.0469 44 17.5977 44 17.0469C44 16.4922 43.5547 16.0469 43 16.0469H27ZM17 22C16.4453 22 16 22.4453 16 23V25C16 25.5547 16.4453 26 17 26C17.5547 26 18 25.5547 18 25V23C18 22.4453 17.5547 22 17 22ZM22 22C21.4453 22 21 22.4453 21 23V25C21 25.5547 21.4453 26 22 26C22.5547 26 23 25.5547 23 25V23C23 22.4453 22.5547 22 22 22ZM27 22C26.4453 22 26 22.4453 26 23V25C26 25.5547 26.4453 26 27 26C27.5547 26 28 25.5547 28 25V23C28 22.4453 27.5547 22 27 22ZM32 22C31.4453 22 31 22.4453 31 23V25C31 25.5547 31.4453 26 32 26C32.5547 26 33 25.5547 33 25V23C33 22.4453 32.5547 22 32 22ZM37 22C36.4453 22 36 22.4453 36 23V25C36 25.5547 36.4453 26 37 26C37.5547 26 38 25.5547 38 25V23C38 22.4453 37.5547 22 37 22ZM42 22C41.4453 22 41 22.4453 41 23V25C41 25.5547 41.4453 26 42 26C42.5547 26 43 25.5547 43 25V23C43 22.4453 42.5547 22 42 22ZM47 22C46.4453 22 46 22.4453 46 23V25C46 25.5547 46.4453 26 47 26C47.5547 26 48 25.5547 48 25V23C48 22.4453 47.5547 22 47 22ZM3 42H25C25.5508 42 26 42.4492 26 43V52H23C22.4453 52 22 52.4453 22 53C22 53.5547 22.4453 54 23 54H26V55C26 55.5508 25.5508 56 25 56H3C2.44922 56 2 55.5508 2 55V54H19.082C19.6367 54 20.082 53.5547 20.082 53C20.082 52.4453 19.6367 52 19.082 52H2V43C2 42.4492 2.44922 42 3 42ZM39 42H61C61.5508 42 62 42.4492 62 43V52H59C58.4453 52 58 52.4453 58 53C58 53.5547 58.4453 54 59 54H62V55C62 55.5508 61.5508 56 61 56H39C38.4492 56 38 55.5508 38 55V54H55.082C55.6367 54 56.082 53.5547 56.082 53C56.082 52.4453 55.6367 52 55.082 52H38V43C38 42.4492 38.4492 42 39 42ZM12 58H16V60H12V58ZM48 58H52V60H48V58Z" fill="url(#paint0_linear_516_234)"/>
<defs>
<linearGradient id="paint0_linear_516_234" x1="42.5722" y1="-15.4593" x2="57.2408" y2="33.8273" gradientUnits="userSpaceOnUse">
<stop stop-color="#2E27FE"/>
<stop offset="1" stop-color="#9A12FF"/>
</linearGradient>
</defs>
</svg>
