<svg width="64" height="64" viewBox="0 0 64 64" fill="none" xmlns="http://www.w3.org/2000/svg">
<path d="M39.0001 4C38.5331 4 38.1295 4.32234 38.0255 4.77734L37.1563 8.59375C36.3903 8.82975 35.6504 9.13581 34.9434 9.50781L31.6329 7.42578C31.2389 7.17978 30.7236 7.23345 30.3926 7.56445L27.5645 10.3926C27.2345 10.7226 27.1778 11.2378 27.4258 11.6328L29.5079 14.9434C29.1359 15.6504 28.8298 16.3903 28.5938 17.1562L24.7774 18.0254C24.3224 18.1294 24.0001 18.533 24.0001 19V23C24.0001 23.467 24.3224 23.8706 24.7774 23.9746L28.5938 24.8438C28.8298 25.6098 29.1359 26.3496 29.5079 27.0566L27.4258 30.3672C27.1778 30.7612 27.2345 31.2774 27.5645 31.6074L30.3926 34.4355C30.7236 34.7655 31.2379 34.8202 31.6329 34.5742L34.9434 32.4922C35.6504 32.8642 36.3903 33.1702 37.1563 33.4062L38.0255 37.2227C38.1295 37.6777 38.5331 38 39.0001 38H43.0001C43.4671 38 43.8707 37.6777 43.9747 37.2227L44.8438 33.4062C45.6098 33.1702 46.3497 32.8642 47.0567 32.4922L50.3673 34.5742C50.7613 34.8202 51.2765 34.7655 51.6075 34.4355L54.4356 31.6074C54.7656 31.2774 54.8223 30.7622 54.5743 30.3672L52.4923 27.0566C52.8643 26.3496 53.1703 25.6098 53.4063 24.8438L57.2227 23.9746C57.6777 23.8706 58.0001 23.467 58.0001 23V19C58.0001 18.533 57.6777 18.1294 57.2227 18.0254L53.4063 17.1562C53.1703 16.3903 52.8643 15.6504 52.4923 14.9434L54.5743 11.6328C54.8223 11.2388 54.7656 10.7226 54.4356 10.3926L51.6075 7.56445C51.2765 7.23345 50.7623 7.17978 50.3673 7.42578L47.0567 9.50781C46.3497 9.13581 45.6098 8.82975 44.8438 8.59375L43.9747 4.77734C43.8707 4.32234 43.4671 4 43.0001 4H39.0001ZM39.7989 6H42.2012L43.0255 9.61523C43.1085 9.98023 43.39 10.2693 43.752 10.3633C44.748 10.6203 45.6991 11.0132 46.5801 11.5332C46.9011 11.7232 47.3042 11.7166 47.6192 11.5176L50.7579 9.54492L52.4571 11.2422L50.4825 14.3809C50.2825 14.6969 50.2788 15.0999 50.4688 15.4219C50.9888 16.3029 51.3817 17.254 51.6387 18.25C51.7327 18.613 52.0198 18.8916 52.3848 18.9746L56.0001 19.7988V22.2012L52.3848 23.0254C52.0198 23.1084 51.7308 23.39 51.6368 23.752C51.3798 24.748 50.9869 25.6991 50.4669 26.5801C50.2769 26.9021 50.2835 27.3031 50.4825 27.6191L52.4551 30.7578L50.7579 32.457L47.6192 30.4824C47.3032 30.2834 46.8982 30.2787 46.5782 30.4688C45.6972 30.9888 44.7461 31.3817 43.7501 31.6387C43.3871 31.7327 43.1085 32.0198 43.0255 32.3848L42.2012 36H39.7989L38.9747 32.3848C38.8917 32.0198 38.6101 31.7307 38.2481 31.6367C37.2521 31.3797 36.301 30.9868 35.42 30.4668C35.1 30.2768 34.6979 30.2854 34.3809 30.4824L31.2423 32.4551L29.543 30.7578L31.5176 27.6191C31.7176 27.3031 31.7213 26.9001 31.5313 26.5781C31.0113 25.6971 30.6184 24.746 30.3614 23.75C30.2674 23.387 29.9803 23.1084 29.6153 23.0254L26.0001 22.2012V19.7988L29.6153 18.9746C29.9803 18.8916 30.2693 18.61 30.3633 18.248C30.6203 17.252 31.0133 16.3009 31.5333 15.4199C31.7233 15.0979 31.7166 14.6969 31.5176 14.3809L29.545 11.2422L31.2423 9.54297L34.3809 11.5176C34.6969 11.7176 35.1019 11.7203 35.4219 11.5312C36.3029 11.0113 37.2541 10.6183 38.2501 10.3613C38.6131 10.2673 38.8917 9.98023 38.9747 9.61523L39.7989 6ZM41.0001 12C36.0371 12 32.0001 16.038 32.0001 21C32.0001 25.962 36.0371 30 41.0001 30C45.9631 30 50.0001 25.962 50.0001 21C50.0001 20.633 49.9759 20.2531 49.9239 19.8691C49.8529 19.3221 49.3488 18.9368 48.8028 19.0078C48.2548 19.0798 47.8695 19.5829 47.9415 20.1309C47.9795 20.4159 48.0001 20.705 48.0001 21C48.0001 24.86 44.8591 28 41.0001 28C37.1411 28 34.0001 24.86 34.0001 21C34.0001 17.14 37.1411 14 41.0001 14C41.2981 14 41.59 14.0255 41.877 14.0605C42.427 14.1335 42.9233 13.7414 42.9923 13.1934C43.0613 12.6454 42.6711 12.1442 42.1231 12.0762C41.7021 12.0232 41.3471 12 41.0001 12ZM45.8907 13.7793C45.6366 13.8074 45.3938 13.9315 45.2208 14.1465C44.8748 14.5775 44.9431 15.2077 45.3751 15.5527C45.7911 15.8867 46.156 16.249 46.459 16.627C46.6571 16.873 46.9473 17 47.2403 17C47.4603 17 47.6803 16.9283 47.8653 16.7793C48.2953 16.4333 48.3656 15.804 48.0196 15.373C47.6246 14.882 47.1551 14.4172 46.6251 13.9922C46.4096 13.8197 46.1448 13.7512 45.8907 13.7793ZM41.0001 16C38.2431 16 36.0001 18.243 36.0001 21C36.0001 23.757 38.2431 26 41.0001 26C43.7571 26 46.0001 23.757 46.0001 21C46.0001 18.243 43.7571 16 41.0001 16ZM41.0001 18C42.6541 18 44.0001 19.346 44.0001 21C44.0001 22.654 42.6541 24 41.0001 24C39.3461 24 38.0001 22.654 38.0001 21C38.0001 19.346 39.3461 18 41.0001 18ZM41.0001 20C40.7348 20 40.4805 20.1054 40.293 20.2929C40.1054 20.4804 40.0001 20.7348 40.0001 21C40.0001 21.2652 40.1054 21.5196 40.293 21.7071C40.4805 21.8946 40.7348 22 41.0001 22C41.2653 22 41.5196 21.8946 41.7072 21.7071C41.8947 21.5196 42.0001 21.2652 42.0001 21C42.0001 20.7348 41.8947 20.4804 41.7072 20.2929C41.5196 20.1054 41.2653 20 41.0001 20ZM18.336 35.3223C17.7319 35.309 17.1241 35.3387 16.5196 35.4102L4.65046 36.8008C3.13146 36.9788 1.99007 38.2718 2.00007 39.8008V52.4395C2.00007 54.0965 3.34307 55.4395 5.00007 55.4395C5.24607 55.4395 5.49153 55.4096 5.73053 55.3496L12.2891 53.7109C13.9721 53.2839 15.7541 53.4975 17.2891 54.3105L29.8809 60.9395C32.4929 62.3055 35.6088 62.3055 38.2208 60.9395L59.5196 49.9395C61.8156 48.7415 62.7078 45.9083 61.5098 43.6113C61.1988 43.0143 60.7625 42.4931 60.2305 42.0801L60.1798 42.0508C59.0457 41.1718 57.5698 40.8657 56.1798 41.2207L42.7403 44.6992C42.0123 42.5382 39.9147 41.1455 37.6407 41.3105L35.4493 41.4707C34.6063 41.5237 33.7641 41.361 33.0001 41L23.5899 36.5605C21.9384 35.782 20.1484 35.3622 18.336 35.3223ZM18.252 37.3203C19.791 37.3594 21.3115 37.7224 22.711 38.3906L32.1192 42.8301C33.2072 43.3431 34.4094 43.5675 35.6094 43.4805L37.8008 43.3203C39.4528 43.1983 40.8898 44.4398 41.0118 46.0918C41.0178 46.1678 41.0196 46.2443 41.0196 46.3203V46.7305C41.0186 47.1235 40.7878 47.4796 40.4298 47.6406L37.4298 48.9707C35.2128 49.9637 32.6878 50.0161 30.4298 49.1191L25.4298 47.1191C24.9158 46.9151 24.3349 47.1657 24.1309 47.6797C23.9269 48.1937 24.1755 48.7765 24.6895 48.9805L29.6895 50.9805C32.4625 52.0845 35.5641 52.0198 38.2891 50.8008L41.2891 49.4707C42.3511 48.9657 43.0201 47.8869 43.0001 46.7109L56.6505 43.1699C58.0595 42.7159 59.5695 43.4894 60.0235 44.8984C60.4435 46.2024 59.8126 47.6129 58.5606 48.1699L58.5508 48.1406L37.2501 59.1406C35.2201 60.2006 32.7996 60.2006 30.7696 59.1406L18.1798 52.5391C16.2228 51.5081 13.9566 51.2345 11.8106 51.7695L5.2403 53.4102C4.7043 53.5432 4.16236 53.2157 4.02936 52.6797C4.00736 52.5917 3.99707 52.5012 4.00007 52.4102V39.7793C3.99607 39.2703 4.37592 38.8403 4.88092 38.7793L16.711 37.3906C17.2245 37.3314 17.739 37.3073 18.252 37.3203ZM7.00007 40C6.44807 40 6.00007 40.448 6.00007 41C6.00007 41.552 6.44807 42 7.00007 42H9.00007C9.55207 42 10.0001 41.552 10.0001 41C10.0001 40.448 9.55207 40 9.00007 40H7.00007ZM7.00007 45C6.44807 45 6.00007 45.448 6.00007 46C6.00007 46.552 6.44807 47 7.00007 47H9.00007C9.55207 47 10.0001 46.552 10.0001 46C10.0001 45.448 9.55207 45 9.00007 45H7.00007ZM7.00007 50C6.44807 50 6.00007 50.448 6.00007 51C6.00007 51.552 6.44807 52 7.00007 52H9.00007C9.55207 52 10.0001 51.552 10.0001 51C10.0001 50.448 9.55207 50 9.00007 50H7.00007Z" fill="url(#paint0_linear_516_238)"/>
<defs>
<linearGradient id="paint0_linear_516_238" x1="41.9395" y1="-12.8668" x2="56.4606" y2="34.5145" gradientUnits="userSpaceOnUse">
<stop stop-color="#2E27FE"/>
<stop offset="1" stop-color="#9A12FF"/>
</linearGradient>
</defs>
</svg>
