<svg width="64" height="64" viewBox="0 0 64 64" fill="none" xmlns="http://www.w3.org/2000/svg">
<path d="M30.0626 4C29.0665 4 28.1368 4.49219 27.5782 5.32031L7.28132 35.3164C6.66022 36.2422 6.59772 37.4219 7.11725 38.4062C7.64069 39.3906 8.65632 40 9.76569 40H19.1876L7.18366 57.9375C6.63679 58.75 6.75007 59.7969 7.45319 60.4844C7.84382 60.8633 8.33991 61.0586 8.84382 61.0586C9.24225 61.0586 9.6485 60.9336 10.004 60.6836L51.0157 31.6328C51.7305 31.125 52.0313 30.2266 51.7657 29.3906C51.5001 28.5586 50.7305 28 49.8594 28H38.2188L55.6563 9.03125C56.4727 8.14062 56.6758 6.90234 56.1915 5.79688C55.7071 4.6875 54.6563 4 53.4454 4H30.0626ZM30.0626 6H53.4454C54.0508 6 54.3008 6.45703 54.3594 6.59766C54.4219 6.73828 54.5899 7.23047 54.1837 7.67969L52.9962 8.96875C52.9766 8.42969 52.5391 8 52.0001 8C51.4493 8 51.0001 8.44531 51.0001 9V11C51.0001 11.0391 51.0196 11.0742 51.0235 11.1133L36.7462 26.6445C36.1993 27.2383 36.0626 28.0664 36.3907 28.8047C36.711 29.543 37.4141 30 38.2188 30H49.8594L8.84382 59.0508L21.8907 39.5586C22.0938 39.25 22.1173 38.8555 21.9415 38.5312C21.7657 38.2031 21.4258 38 21.0587 38H9.76569C9.22272 38 8.96882 37.6289 8.88288 37.4688C8.80085 37.3086 8.63288 36.8867 8.93757 36.4375L26.0352 11.1719C26.1173 11.6367 26.5079 12 27.0001 12C27.5508 12 28.0001 11.5547 28.0001 11V9C28.0001 8.8125 27.9337 8.64453 27.8438 8.49219L29.2344 6.4375C29.418 6.16406 29.7305 6 30.0626 6ZM32.0001 8C31.4493 8 31.0001 8.44531 31.0001 9V11C31.0001 11.5547 31.4493 12 32.0001 12C32.5508 12 33.0001 11.5547 33.0001 11V9C33.0001 8.44531 32.5508 8 32.0001 8ZM37.0001 8C36.4493 8 36.0001 8.44531 36.0001 9V11C36.0001 11.5547 36.4493 12 37.0001 12C37.5508 12 38.0001 11.5547 38.0001 11V9C38.0001 8.44531 37.5508 8 37.0001 8ZM42.0001 8C41.4493 8 41.0001 8.44531 41.0001 9V11C41.0001 11.5547 41.4493 12 42.0001 12C42.5508 12 43.0001 11.5547 43.0001 11V9C43.0001 8.44531 42.5508 8 42.0001 8ZM47.0001 8C46.4493 8 46.0001 8.44531 46.0001 9V11C46.0001 11.5547 46.4493 12 47.0001 12C47.5508 12 48.0001 11.5547 48.0001 11V9C48.0001 8.44531 47.5508 8 47.0001 8ZM40.2696 32.1914C40.0157 32.1484 39.7501 32.2031 39.5235 32.3594L37.4844 33.8086C37.0313 34.125 36.9258 34.75 37.2462 35.2031C37.4376 35.4766 37.7501 35.625 38.0626 35.625C38.2618 35.625 38.461 35.5625 38.6407 35.4375L40.6798 33.9961C41.129 33.6758 41.2383 33.0508 40.918 32.5977C40.7579 32.375 40.5235 32.2383 40.2696 32.1914ZM34.9923 35.9297C34.7383 35.8867 34.4727 35.9414 34.2462 36.0977L25.2969 42.4414C24.8438 42.7617 24.7383 43.3828 25.0587 43.8359C25.2501 44.1094 25.5587 44.2578 25.8751 44.2578C26.0743 44.2578 26.2735 44.1992 26.4532 44.0742L35.4024 37.7344C35.8516 37.4141 35.961 36.7891 35.6407 36.3398C35.4805 36.1133 35.2462 35.9727 34.9923 35.9297Z" fill="url(#paint0_linear_516_246)"/>
<defs>
<linearGradient id="paint0_linear_516_246" x1="39.8163" y1="-12.6034" x2="56.2357" y2="32.4324" gradientUnits="userSpaceOnUse">
<stop stop-color="#2E27FE"/>
<stop offset="1" stop-color="#9A12FF"/>
</linearGradient>
</defs>
</svg>
