<svg width="64" height="64" viewBox="0 0 64 64" fill="none" xmlns="http://www.w3.org/2000/svg">
<path d="M31.9999 0.0566411C31.3283 0.0570161 30.6558 0.27961 30.1073 0.72461L26.7811 3.44141C26.5601 3.61941 26.278 3.69539 25.996 3.65039L21.7655 2.98242C20.3615 2.74742 18.9727 3.54114 18.4667 4.86914L16.9276 8.87109C16.8266 9.13409 16.6175 9.34331 16.3515 9.44531L12.3534 10.9863C11.0374 11.4893 10.2418 12.8649 10.4628 14.2559L11.1327 18.4961C11.1767 18.7751 11.0997 19.0603 10.9237 19.2793L8.2245 22.6094C7.3355 23.7044 7.3355 25.2956 8.2245 26.3906L10.9413 29.7383C11.1193 29.9583 11.1962 30.2434 11.1522 30.5234L10.4823 34.7637C10.2623 36.1557 11.058 37.5302 12.371 38.0332L13.1073 38.3164L5.67762 55.1836C5.53762 55.5006 5.57147 55.8683 5.76747 56.1543C5.96447 56.4403 6.29651 56.5999 6.64051 56.5879L15.0761 56.1758L20.4667 62.6758C20.6577 62.9068 20.9412 63.0371 21.2362 63.0371C21.2822 63.0371 21.3279 63.0343 21.3749 63.0273C21.7179 62.9793 22.0113 62.7584 22.1503 62.4414L28.8417 47.25L30.1093 48.2773C30.6573 48.7213 31.3289 48.9434 31.9999 48.9434C32.6709 48.9434 33.3426 48.7213 33.8886 48.2773L35.2421 47.1777L41.9647 62.4414C42.1047 62.7584 42.3981 62.9793 42.7401 63.0273C42.7871 63.0343 42.8347 63.0371 42.8807 63.0371C43.1757 63.0371 43.4583 62.9068 43.6503 62.6758L49.039 56.1758L57.4745 56.5879C57.8165 56.6019 58.1515 56.4413 58.3475 56.1543C58.5415 55.8683 58.5764 55.5006 58.4374 55.1836L50.9862 38.2695L51.6464 38.0156C52.9624 37.5126 53.758 36.1351 53.537 34.7441L52.8671 30.5059C52.8231 30.2269 52.9001 29.9397 53.0761 29.7207L55.7753 26.3906C56.6643 25.2956 56.6643 23.7063 55.7753 22.6113L53.0565 19.2617C52.8785 19.0417 52.8035 18.7566 52.8475 18.4766L53.5175 14.2363C53.7375 12.8443 52.9418 11.4698 51.6288 10.9668L47.6268 9.42578C47.3638 9.32478 47.1546 9.11461 47.0526 8.84961L45.5136 4.85156C45.0096 3.53556 43.6341 2.74089 42.2421 2.96289L38.0038 3.63281C37.7258 3.67881 37.4376 3.59983 37.2186 3.42383L33.8886 0.722657C33.3416 0.278157 32.6715 0.0562661 31.9999 0.0566411ZM31.9999 2.05469C32.2236 2.05469 32.4482 2.12884 32.6307 2.27734L35.9628 4.97852C36.6218 5.50952 37.4793 5.73842 38.3163 5.60742L42.5565 4.9375C43.0145 4.8655 43.4784 5.12836 43.6464 5.56836L45.1854 9.56836C45.4904 10.3604 46.119 10.989 46.91 11.293L50.912 12.834C51.351 13.002 51.6159 13.4598 51.5429 13.9238L50.8729 18.1621C50.7389 18.9991 50.9698 19.8585 51.5038 20.5195L54.2245 23.8691C54.5205 24.2341 54.5205 24.7659 54.2245 25.1309L51.5214 28.4629C50.9894 29.1229 50.7595 29.9804 50.8925 30.8164L51.5624 35.0566C51.6354 35.5206 51.3705 35.9785 50.9315 36.1465L46.9315 37.6875C46.1395 37.9915 45.51 38.6182 45.205 39.4102L43.6659 43.4121C43.4979 43.8501 43.0481 44.119 42.5761 44.043L38.3358 43.3711C37.5018 43.2381 36.6414 43.4689 35.9804 44.0039L32.6307 46.7227C32.2657 47.0197 31.734 47.0187 31.369 46.7227L28.037 44.0215C27.5 43.5885 26.8323 43.3555 26.1503 43.3555C25.9953 43.3555 25.8385 43.3686 25.6835 43.3926L21.4432 44.0625C20.9832 44.1365 20.5214 43.8726 20.3534 43.4316L18.8143 39.4316C18.5093 38.6396 17.8807 38.011 17.0897 37.707L13.0878 36.166C12.6488 35.998 12.3839 35.5402 12.4569 35.0762L13.1268 30.8379C13.2608 30.0009 13.03 29.1415 12.496 28.4805L9.77528 25.1309C9.47928 24.7659 9.47928 24.2341 9.77528 23.8691L12.4784 20.5371C13.0104 19.8771 13.2403 19.0196 13.1073 18.1836L12.4374 13.9434C12.3644 13.4794 12.6312 13.0215 13.0702 12.8535L17.0682 11.3125C17.8602 11.0085 18.4898 10.3818 18.7948 9.58984L20.3358 5.58594C20.5048 5.14294 20.9722 4.87703 21.4432 4.95703L25.6835 5.62891C26.5205 5.75891 27.3789 5.53014 28.0429 4.99414L31.369 2.27734C31.5515 2.12884 31.7761 2.05469 31.9999 2.05469ZM31.9999 8.5C23.1779 8.5 15.9999 15.678 15.9999 24.5C15.9999 25.229 16.0494 25.9627 16.1464 26.6797C16.2144 27.1807 16.6436 27.5449 17.1366 27.5449C17.1816 27.5449 17.2273 27.5422 17.2733 27.5352C17.8193 27.4612 18.2028 26.9572 18.1288 26.4102C18.0428 25.7822 17.9999 25.139 17.9999 24.5C17.9999 16.78 24.2799 10.5 31.9999 10.5C32.5529 10.5 32.9999 10.052 32.9999 9.5C32.9999 8.948 32.5529 8.5 31.9999 8.5ZM38.5604 10.209C38.1703 10.1866 37.7896 10.3963 37.6073 10.7676C37.3643 11.2636 37.5674 11.8615 38.0624 12.1055C38.9874 12.5605 39.862 13.1205 40.664 13.7695C40.849 13.9195 41.0719 13.9922 41.2929 13.9922C41.5849 13.9922 41.8722 13.8661 42.0702 13.6211C42.4182 13.1921 42.3537 12.5628 41.9237 12.2148C41.0067 11.4728 40.0042 10.8315 38.9452 10.3105C38.82 10.249 38.6905 10.2164 38.5604 10.209ZM45.4725 16.998C45.3425 17.0043 45.2111 17.0362 45.0858 17.0957C44.5888 17.3357 44.379 17.9336 44.619 18.4316C45.534 20.3326 45.9999 22.373 45.9999 24.5C45.9999 27.24 45.2098 29.8948 43.7128 32.1738C43.4098 32.6358 43.5359 33.2556 43.9979 33.5586C44.1669 33.6696 44.3588 33.7227 44.5468 33.7227C44.8718 33.7227 45.1917 33.5635 45.3847 33.2715C47.0967 30.6655 47.9999 27.632 47.9999 24.5C47.9999 22.07 47.4698 19.7355 46.4218 17.5625C46.2433 17.189 45.8627 16.9792 45.4725 16.998ZM39.9999 19C39.7441 19 39.4884 19.0975 39.2929 19.293L29.9999 28.5859L24.7069 23.293C24.3159 22.902 23.6839 22.902 23.2929 23.293C22.9019 23.684 22.9019 24.316 23.2929 24.707L29.2929 30.707C29.4879 30.902 29.7439 31 29.9999 31C30.2559 31 30.5119 30.902 30.7069 30.707L40.7069 20.707C41.0979 20.316 41.0979 19.684 40.7069 19.293C40.5114 19.0975 40.2556 19 39.9999 19ZM19.9003 30.7832C19.7719 30.8024 19.6447 30.8479 19.5272 30.9199L17.8202 31.9609C17.3482 32.2489 17.1982 32.8639 17.4862 33.3359C17.6742 33.6449 18.0047 33.8145 18.3417 33.8145C18.5197 33.8145 18.6982 33.7689 18.8612 33.6699L20.5682 32.627C21.0402 32.339 21.1883 31.724 20.9003 31.252C20.6843 30.898 20.2853 30.7257 19.9003 30.7832ZM23.0077 34.2988C22.7531 34.3235 22.506 34.4457 22.33 34.6582L21.0585 36.2012C20.7075 36.6272 20.7672 37.2574 21.1932 37.6094C21.3802 37.7634 21.604 37.8379 21.828 37.8379C22.116 37.8379 22.4035 37.7146 22.6015 37.4746L23.8729 35.9316C24.2239 35.5056 24.1642 34.8754 23.7382 34.5234C23.5247 34.3474 23.2623 34.2742 23.0077 34.2988ZM40.5956 34.6562C40.342 34.6219 40.0763 34.6846 39.8573 34.8516C39.4183 35.1856 39.3339 35.8149 39.6679 36.2539L40.8788 37.8457C41.0758 38.1047 41.3737 38.2402 41.6757 38.2402C41.8867 38.2402 42.0992 38.1732 42.2792 38.0352C42.7182 37.7012 42.8026 37.0738 42.4686 36.6348L41.2577 35.043C41.0902 34.8235 40.8492 34.6906 40.5956 34.6562ZM27.0936 36.627C26.704 36.645 26.3451 36.8888 26.2011 37.2773L25.5077 39.1523C25.3157 39.6703 25.5795 40.2455 26.0975 40.4375C26.2135 40.4785 26.3302 40.5 26.4452 40.5C26.8522 40.5 27.2337 40.2507 27.3827 39.8477L28.0761 37.9727C28.2681 37.4547 28.0042 36.8795 27.4862 36.6875C27.356 36.64 27.2235 36.6209 27.0936 36.627ZM36.4198 36.8145C36.2904 36.8034 36.1563 36.8164 36.0253 36.8594C35.4993 37.0304 35.2117 37.5941 35.3827 38.1191L36.0018 40.0215C36.1398 40.4435 36.531 40.7129 36.953 40.7129C37.056 40.7129 37.1606 40.6961 37.2636 40.6621C37.7896 40.4911 38.0752 39.9273 37.9042 39.4023L37.285 37.502C37.1568 37.1082 36.8081 36.8475 36.4198 36.8145ZM31.7225 37.4863C31.1795 37.4863 30.7335 37.9218 30.7225 38.4668L30.6815 40.4668C30.6705 41.0188 31.109 41.4753 31.662 41.4863H31.6815C32.2245 41.4863 32.6705 41.0538 32.6815 40.5078L32.7225 38.5078C32.7335 37.9558 32.2941 37.4973 31.7421 37.4863H31.7225ZM49.119 38.9883L55.955 54.5098L48.6386 54.1523C48.3196 54.1413 48.0212 54.2707 47.8202 54.5137L43.1425 60.1543L36.8534 45.8711L37.2382 45.5586C37.4592 45.3816 37.7453 45.3076 38.0233 45.3496L42.2636 46.0195C43.6456 46.2345 45.0291 45.4449 45.5331 44.1309L47.0722 40.1309C47.1732 39.8679 47.3823 39.6567 47.6483 39.5547L49.119 38.9883ZM14.9745 39.0371L16.371 39.5742C16.634 39.6752 16.8432 39.8854 16.9452 40.1504L18.4862 44.1484C18.9892 45.4634 20.3617 46.2541 21.7557 46.0371L25.996 45.3672C26.277 45.3232 26.5612 45.4002 26.7792 45.5762L27.2304 45.9414L20.9706 60.1523L16.2948 54.5137C16.1048 54.2837 15.8203 54.1504 15.5233 54.1504C15.5063 54.1504 15.4915 54.1513 15.4745 54.1523L8.15809 54.5098L14.9745 39.0371Z" fill="url(#paint0_linear_516_250)"/>
<defs>
<linearGradient id="paint0_linear_516_250" x1="40.8004" y1="-18.2699" x2="59.4175" y2="31.0149" gradientUnits="userSpaceOnUse">
<stop stop-color="#2E27FE"/>
<stop offset="1" stop-color="#9A12FF"/>
</linearGradient>
</defs>
</svg>
