<svg width="64" height="64" viewBox="0 0 64 64" fill="none" xmlns="http://www.w3.org/2000/svg">
<path d="M31 2C15.0078 2 2 15.0117 2 31C2 46.9883 15.0078 60 31 60C46.9922 60 60 46.9883 60 31C60 15.0117 46.9922 2 31 2ZM31 4C45.8867 4 58 16.1133 58 31C58 45.8867 45.8867 58 31 58C16.1133 58 4 45.8867 4 31C4 16.1133 16.1133 4 31 4ZM31.2656 8C25.2852 7.92578 19.6328 10.1211 15.25 14.2344C10.6445 18.5664 8 24.6797 8 31C8 35.4336 9.26562 39.7383 11.6562 43.4492C12.1562 44.2227 12.9609 44.7227 13.8633 44.8281C14.7656 44.9258 15.6719 44.6172 16.3359 43.9688C20.2773 40.1211 25.4883 38 31 38C36.5117 38 41.7188 40.1211 45.6641 43.9688C46.2461 44.5352 47.0078 44.8438 47.7969 44.8438C47.9102 44.8438 48.0273 44.8398 48.1406 44.8281C49.0391 44.7227 49.8438 44.2227 50.3398 43.4531C52.9141 39.4648 54.1758 34.8281 53.9805 30.0469C53.7188 23.5352 50.6289 17.3945 45.5156 13.2031C45.0859 12.8516 44.457 12.9141 44.1094 13.3438C43.7578 13.7695 43.8164 14.3984 44.2461 14.75C48.9219 18.5781 51.7422 24.1875 51.9844 30.125C52.1602 34.4922 51.0078 38.7266 48.6562 42.3711C48.4844 42.6367 48.2227 42.8047 47.9141 42.8398C47.6094 42.875 47.293 42.7617 47.0625 42.5352C43.9609 39.5117 40.1406 37.4805 36 36.5625V23C36 22.5273 35.668 22.1211 35.207 22.0195C34.75 21.9258 34.2773 22.1641 34.0898 22.5938L28.0312 36.2148C23.1133 36.8477 18.543 39.0195 14.9375 42.5352C14.7031 42.7656 14.4023 42.8711 14.0898 42.8398C13.7773 42.8047 13.5156 42.6367 13.3398 42.3633C11.1562 38.9805 10 35.0508 10 31C10 25.1445 12.3516 19.707 16.6211 15.6914C20.8867 11.6836 26.4648 9.67578 32.3438 10.043C32.875 10.0742 33.3984 10.1289 33.9219 10.2031C34.4688 10.2812 34.9727 9.89844 35.0508 9.35156C35.1289 8.80078 34.7461 8.29688 34.1992 8.21875C33.6289 8.14062 33.0469 8.07812 32.4688 8.04688C32.0664 8.01953 31.6641 8.00391 31.2656 8ZM38.6602 9.38672C38.2695 9.40234 37.9102 9.64844 37.7656 10.0352C37.5703 10.5547 37.832 11.1289 38.3516 11.3242C39.0625 11.5859 39.7656 11.8945 40.4492 12.2383C40.5938 12.3125 40.75 12.3477 40.9023 12.3477C41.2656 12.3477 41.6172 12.1484 41.7969 11.7969C42.043 11.3086 41.8438 10.7031 41.3516 10.4531C40.6016 10.0781 39.8281 9.73828 39.0508 9.44531C38.9219 9.39844 38.7891 9.38281 38.6602 9.38672ZM31 14C30.4492 14 30 14.4453 30 15V17C30 17.5547 30.4492 18 31 18C31.5508 18 32 17.5547 32 17V15C32 14.4453 31.5508 14 31 14ZM25.0234 15.1641C24.8945 15.1602 24.7617 15.1875 24.6328 15.2383C24.1211 15.4453 23.8711 16.0273 24.0781 16.5391L24.8281 18.3906C24.9844 18.7812 25.3594 19.0195 25.7539 19.0195C25.8789 19.0195 26.0078 18.9961 26.1289 18.9453C26.6445 18.7383 26.8906 18.1562 26.6836 17.6445L25.9336 15.793C25.7773 15.4062 25.4141 15.1719 25.0234 15.1641ZM36.9805 15.1641C36.5898 15.1719 36.2227 15.4062 36.0664 15.793L35.3164 17.6445C35.1094 18.1562 35.3555 18.7383 35.8711 18.9453C35.9922 18.9961 36.1211 19.0195 36.2461 19.0195C36.6406 19.0195 37.0156 18.7812 37.1719 18.3906L37.9219 16.5391C38.1289 16.0273 37.8789 15.4453 37.3672 15.2383C37.2383 15.1875 37.1094 15.1602 36.9805 15.1641ZM42.0977 18.4883C41.8398 18.4961 41.5859 18.5977 41.3945 18.7969L40.0039 20.2344C39.6211 20.6328 39.6328 21.2656 40.0312 21.6484C40.2266 21.8359 40.4727 21.9297 40.7227 21.9297C40.9883 21.9297 41.2461 21.8242 41.4414 21.625L42.832 20.1836C43.2188 19.7852 43.207 19.1523 42.8086 18.7695C42.6094 18.5781 42.3555 18.4844 42.0977 18.4883ZM19.9023 18.4922C19.6445 18.4883 19.3867 18.5781 19.1875 18.7695C18.793 19.1562 18.7812 19.7891 19.1641 20.1875L20.5547 21.625C20.75 21.8281 21.0117 21.9297 21.2773 21.9297C21.5273 21.9297 21.7734 21.8359 21.9688 21.6523C22.3672 21.2656 22.3789 20.6328 21.9961 20.2344L20.6055 18.7969C20.4141 18.5977 20.1602 18.4961 19.9023 18.4922ZM16.4023 23.4922C16.0117 23.4844 15.6406 23.707 15.4688 24.0898C15.2461 24.5938 15.4727 25.1836 15.9766 25.4062L17.8047 26.2188C17.9375 26.2773 18.0742 26.3086 18.2109 26.3086C18.5938 26.3086 18.957 26.0859 19.125 25.7148C19.3477 25.207 19.1211 24.6172 18.6172 24.3906L16.7891 23.5781C16.6641 23.5234 16.5312 23.4961 16.4023 23.4922ZM45.5977 23.4922C45.4688 23.4961 45.3359 23.5195 45.2109 23.5781L43.3828 24.3906C42.8789 24.6172 42.6523 25.207 42.875 25.7109C43.043 26.082 43.4062 26.3047 43.7891 26.3047C43.9258 26.3047 44.0625 26.2773 44.1953 26.2188L46.0234 25.4062C46.5273 25.1797 46.7539 24.5898 46.5312 24.0859C46.3594 23.707 45.9883 23.4844 45.5977 23.4922ZM34 27.7148V36.2188C33.0117 36.0898 32.0117 36 31 36C30.7656 36 30.5352 36.0273 30.3008 36.0312L34 27.7148ZM15 30C14.4492 30 14 30.4453 14 31C14 31.5547 14.4492 32 15 32H17C17.5508 32 18 31.5547 18 31C18 30.4453 17.5508 30 17 30H15ZM45 30C44.4492 30 44 30.4453 44 31C44 31.5547 44.4492 32 45 32H47C47.5508 32 48 31.5547 48 31C48 30.4453 47.5508 30 47 30H45ZM18.0352 35.2461C17.9062 35.2422 17.7734 35.2656 17.6445 35.3164L15.793 36.0664C15.2773 36.2734 15.0312 36.8555 15.2383 37.3711C15.3945 37.7578 15.7695 37.9961 16.168 37.9961C16.293 37.9961 16.418 37.9727 16.543 37.9219L18.3945 37.1719C18.9062 36.9648 19.1523 36.3828 18.9492 35.8711C18.793 35.4844 18.4258 35.25 18.0352 35.2461ZM43.9648 35.2461C43.5742 35.25 43.207 35.4844 43.0508 35.8711C42.8477 36.3828 43.0938 36.9648 43.6055 37.1719L45.457 37.9219C45.582 37.9727 45.707 37.9961 45.832 37.9961C46.2305 37.9961 46.6055 37.7578 46.7617 37.3711C46.9688 36.8555 46.7227 36.2734 46.2109 36.0664L44.3555 35.3164C44.2266 35.2656 44.0938 35.2422 43.9648 35.2461ZM22.918 44C22.3672 44 21.918 44.4453 21.918 45C21.918 45.5547 22.3672 46 22.918 46H39.168C39.7188 46 40.168 45.5547 40.168 45C40.168 44.4453 39.7188 44 39.168 44H22.918ZM24.918 48C24.3672 48 23.918 48.4453 23.918 49C23.918 49.5547 24.3672 50 24.918 50H31.168C31.7188 50 32.168 49.5547 32.168 49C32.168 48.4453 31.7188 48 31.168 48H24.918ZM34.918 48C34.3672 48 33.918 48.4453 33.918 49C33.918 49.5547 34.3672 50 34.918 50H37.168C37.7188 50 38.168 49.5547 38.168 49C38.168 48.4453 37.7188 48 37.168 48H34.918Z" fill="url(#paint0_linear_516_248)"/>
<defs>
<linearGradient id="paint0_linear_516_248" x1="40.581" y1="-14.8773" x2="55.5383" y2="32.2382" gradientUnits="userSpaceOnUse">
<stop stop-color="#2E27FE"/>
<stop offset="1" stop-color="#9A12FF"/>
</linearGradient>
</defs>
</svg>
