<svg width="64" height="64" viewBox="0 0 64 64" fill="none" xmlns="http://www.w3.org/2000/svg">
<path d="M27 4C25.897 4 25 4.897 25 6V9H12C10.346 9 9 10.346 9 12C9 12.552 9.447 13 10 13C10.553 13 11 12.552 11 12C11 11.449 11.448 11 12 11H25V14C25 15.103 25.897 16 27 16H37C38.103 16 39 15.103 39 14V6C39 4.897 38.103 4 37 4H27ZM27 6H37L37.002 14H27V6ZM43 8C42.447 8 42 8.448 42 9V11C42 11.552 42.447 12 43 12C43.553 12 44 11.552 44 11V9C44 8.448 43.553 8 43 8ZM48 8C47.447 8 47 8.448 47 9V11C47 11.552 47.447 12 48 12C48.553 12 49 11.552 49 11V9C49 8.448 48.553 8 48 8ZM52 9C51.447 9 51 9.448 51 10C51 10.552 51.447 11 52 11C52.552 11 53 11.449 53 12V25H50C48.897 25 48 25.897 48 27V37C48 38.103 48.897 39 50 39H58C59.103 39 60 38.103 60 37V27C60 25.897 59.103 25 58 25H55V12C55 10.346 53.654 9 52 9ZM9 15C8.447 15 8 15.448 8 16C8 16.552 8.447 17 9 17H11C11.553 17 12 16.552 12 16C12 15.448 11.553 15 11 15H9ZM9 20C8.447 20 8 20.448 8 21C8 21.552 8.447 22 9 22H11C11.553 22 12 21.552 12 21C12 20.448 11.553 20 11 20H9ZM6 25C4.897 25 4 25.897 4 27V37C4 38.103 4.897 39 6 39H9V52C9 53.654 10.346 55 12 55C12.553 55 13 54.553 13 54C13 53.447 12.553 53 12 53C11.448 53 11 52.552 11 52V39H14C15.103 39 16 38.103 16 37V27C16 25.897 15.103 25 14 25H6ZM14 26.998V37H6V27L14 26.998ZM58 26.998V37H50V27L58 26.998ZM53 42C52.447 42 52 42.447 52 43C52 43.553 52.447 44 53 44H55C55.553 44 56 43.553 56 43C56 42.447 55.553 42 55 42H53ZM53 47C52.447 47 52 47.447 52 48C52 48.553 52.447 49 53 49H55C55.553 49 56 48.553 56 48C56 47.447 55.553 47 55 47H53ZM27 48C25.897 48 25 48.897 25 50V58C25 59.103 25.897 60 27 60H37C38.103 60 39 59.103 39 58V55H52C53.654 55 55 53.654 55 52C55 51.447 54.553 51 54 51C53.447 51 53 51.447 53 52C53 52.552 52.552 53 52 53H39V50C39 48.897 38.103 48 37 48H27ZM27 50H37L37.002 58H27V50ZM16 52C15.447 52 15 52.447 15 53V55C15 55.553 15.447 56 16 56C16.553 56 17 55.553 17 55V53C17 52.447 16.553 52 16 52ZM21 52C20.447 52 20 52.447 20 53V55C20 55.553 20.447 56 21 56C21.553 56 22 55.553 22 55V53C22 52.447 21.553 52 21 52Z" fill="url(#paint0_linear_516_228)"/>
<defs>
<linearGradient id="paint0_linear_516_228" x1="41.2507" y1="-12.2954" x2="55.6922" y2="33.1955" gradientUnits="userSpaceOnUse">
<stop stop-color="#2E27FE"/>
<stop offset="1" stop-color="#9A12FF"/>
</linearGradient>
</defs>
</svg>
