<svg width="64" height="64" viewBox="0 0 64 64" fill="none" xmlns="http://www.w3.org/2000/svg">
<path d="M12.6114 6C11.7084 6 11.0034 6.59182 10.7852 7.42773L5.4454 19.7637C5.21659 20.0495 5.06792 20.395 5.02353 20.7734C4.9952 20.8877 4.98727 21.006 5.00009 21.123V31C5.00009 31.3875 5.22219 31.6914 5.41806 32C5.22219 32.3086 5.00009 32.6125 5.00009 33V43C5.00009 43.3875 5.22219 43.6914 5.41806 44C5.22219 44.3086 5.00009 44.6125 5.00009 45V55C5.00009 56.0931 5.90703 57 7.00009 57H57.0001C58.0932 57 59.0001 56.0931 59.0001 55V45C59.0001 44.6125 58.778 44.3086 58.5821 44C58.778 43.6914 59.0001 43.3875 59.0001 43V33C59.0001 32.6125 58.778 32.3086 58.5821 32C58.778 31.6914 59.0001 31.3875 59.0001 31V21.0508C59.0151 20.9176 59.0031 20.7828 58.9649 20.6543C58.9121 20.3598 58.7955 20.0879 58.627 19.8516L53.2657 7.43945C53.051 6.59642 52.345 6 51.4376 6H12.6114ZM12.6993 8H51.3497C51.3627 8.05882 51.381 8.11635 51.4044 8.17188L56.0802 19H7.95517L12.6427 8.17383C12.6668 8.11774 12.6858 8.05955 12.6993 8ZM7.08994 21H56.9454L57.0001 21.1289V31H53.0587C52.9262 30.9981 52.7946 31.0226 52.6716 31.072C52.5487 31.1214 52.4368 31.1948 52.3424 31.2878C52.248 31.3809 52.1731 31.4918 52.1219 31.614C52.0708 31.7363 52.0444 31.8675 52.0444 32C52.0444 32.1325 52.0708 32.2637 52.1219 32.386C52.1731 32.5082 52.248 32.6191 52.3424 32.7122C52.4368 32.8052 52.5487 32.8786 52.6716 32.928C52.7946 32.9774 52.9262 33.0019 53.0587 33H57.0001V43H26.045C25.9125 42.9981 25.7809 43.0226 25.658 43.072C25.535 43.1214 25.4231 43.1948 25.3287 43.2878C25.2343 43.3809 25.1594 43.4918 25.1083 43.614C25.0571 43.7363 25.0308 43.8675 25.0308 44C25.0308 44.1325 25.0571 44.2637 25.1083 44.386C25.1594 44.5082 25.2343 44.6191 25.3287 44.7122C25.4231 44.8052 25.535 44.8786 25.658 44.928C25.7809 44.9774 25.9125 45.0019 26.045 45H57.0001V55H7.00009V45H14.0352C14.1678 45.0019 14.2993 44.9774 14.4223 44.928C14.5453 44.8786 14.6572 44.8052 14.7516 44.7122C14.8459 44.6191 14.9209 44.5082 14.972 44.386C15.0232 44.2637 15.0495 44.1325 15.0495 44C15.0495 43.8675 15.0232 43.7363 14.972 43.614C14.9209 43.4918 14.8459 43.3809 14.7516 43.2878C14.6572 43.1948 14.5453 43.1214 14.4223 43.072C14.2993 43.0226 14.1678 42.9981 14.0352 43H7.00009V33H40.9708C41.1033 33.0019 41.2349 32.9774 41.3578 32.928C41.4808 32.8786 41.5927 32.8052 41.6871 32.7122C41.7815 32.6191 41.8564 32.5082 41.9076 32.386C41.9587 32.2637 41.985 32.1325 41.985 32C41.985 31.8675 41.9587 31.7363 41.9076 31.614C41.8564 31.4918 41.7815 31.3809 41.6871 31.2878C41.5927 31.1948 41.4808 31.1214 41.3578 31.072C41.2349 31.0226 41.1033 30.9981 40.9708 31H7.00009V21.207L7.08994 21ZM12.0001 23C10.3545 23 9.00009 24.3555 9.00009 26C9.00009 27.6445 10.3545 29 12.0001 29C13.6457 29 15.0001 27.6445 15.0001 26C15.0001 24.3555 13.6457 23 12.0001 23ZM33.0001 24.0176C32.4481 24.0176 32.0001 24.4637 32.0001 25.0137V27.0059C32.0001 27.5549 32.4481 28 33.0001 28C33.5521 28 34.0001 27.5539 34.0001 27.0039V25.0117C34.0001 24.4627 33.5521 24.0176 33.0001 24.0176ZM38.0001 24.0176C37.4481 24.0176 37.0001 24.4637 37.0001 25.0137V27.0059C37.0001 27.5549 37.4481 28 38.0001 28C38.5521 28 39.0001 27.5539 39.0001 27.0039V25.0117C39.0001 24.4627 38.5521 24.0176 38.0001 24.0176ZM43.0001 24.0176C42.4481 24.0176 42.0001 24.4637 42.0001 25.0137V27.0059C42.0001 27.5549 42.4481 28 43.0001 28C43.5521 28 44.0001 27.5539 44.0001 27.0039V25.0117C44.0001 24.4627 43.5521 24.0176 43.0001 24.0176ZM48.0001 24.0176C47.4481 24.0176 47.0001 24.4637 47.0001 25.0137V27.0059C47.0001 27.5549 47.4481 28 48.0001 28C48.5521 28 49.0001 27.5539 49.0001 27.0039V25.0117C49.0001 24.4627 48.5521 24.0176 48.0001 24.0176ZM53.0001 24.0176C52.4481 24.0176 52.0001 24.4637 52.0001 25.0137V27.0059C52.0001 27.5549 52.4481 28 53.0001 28C53.5521 28 54.0001 27.5539 54.0001 27.0039V25.0117C54.0001 24.4627 53.5521 24.0176 53.0001 24.0176ZM12.0001 25C12.5645 25 13.0001 25.4365 13.0001 26C13.0001 26.5635 12.5645 27 12.0001 27C11.4357 27 11.0001 26.5635 11.0001 26C11.0001 25.4365 11.4357 25 12.0001 25ZM44.9747 31C44.8422 30.9981 44.7106 31.0226 44.5877 31.072C44.4647 31.1214 44.3528 31.1948 44.2584 31.2878C44.164 31.3809 44.0891 31.4918 44.0379 31.614C43.9868 31.7363 43.9605 31.8675 43.9605 32C43.9605 32.1325 43.9868 32.2637 44.0379 32.386C44.0891 32.5082 44.164 32.6191 44.2584 32.7122C44.3528 32.8052 44.4647 32.8786 44.5877 32.928C44.7106 32.9774 44.8422 33.0019 44.9747 33H49.0177C49.1502 33.0019 49.2817 32.9774 49.4047 32.928C49.5277 32.8786 49.6396 32.8052 49.734 32.7122C49.8283 32.6191 49.9033 32.5082 49.9544 32.386C50.0056 32.2637 50.0319 32.1325 50.0319 32C50.0319 31.8675 50.0056 31.7363 49.9544 31.614C49.9033 31.4918 49.8283 31.3809 49.734 31.2878C49.6396 31.1948 49.5277 31.1214 49.4047 31.072C49.2817 31.0226 49.1502 30.9981 49.0177 31H44.9747ZM12.0001 35C10.3545 35 9.00009 36.3555 9.00009 38C9.00009 39.6445 10.3545 41 12.0001 41C13.6457 41 15.0001 39.6445 15.0001 38C15.0001 36.3555 13.6457 35 12.0001 35ZM33.0001 36.0176C32.4481 36.0176 32.0001 36.4637 32.0001 37.0137V39.0059C32.0001 39.5549 32.4481 40 33.0001 40C33.5521 40 34.0001 39.5539 34.0001 39.0039V37.0117C34.0001 36.4627 33.5521 36.0176 33.0001 36.0176ZM38.0001 36.0176C37.4481 36.0176 37.0001 36.4637 37.0001 37.0137V39.0059C37.0001 39.5549 37.4481 40 38.0001 40C38.5521 40 39.0001 39.5539 39.0001 39.0039V37.0117C39.0001 36.4627 38.5521 36.0176 38.0001 36.0176ZM43.0001 36.0176C42.4481 36.0176 42.0001 36.4637 42.0001 37.0137V39.0059C42.0001 39.5549 42.4481 40 43.0001 40C43.5521 40 44.0001 39.5539 44.0001 39.0039V37.0117C44.0001 36.4627 43.5521 36.0176 43.0001 36.0176ZM48.0001 36.0176C47.4481 36.0176 47.0001 36.4637 47.0001 37.0137V39.0059C47.0001 39.5549 47.4481 40 48.0001 40C48.5521 40 49.0001 39.5539 49.0001 39.0039V37.0117C49.0001 36.4627 48.5521 36.0176 48.0001 36.0176ZM53.0001 36.0176C52.4481 36.0176 52.0001 36.4637 52.0001 37.0137V39.0059C52.0001 39.5549 52.4481 40 53.0001 40C53.5521 40 54.0001 39.5539 54.0001 39.0039V37.0117C54.0001 36.4627 53.5521 36.0176 53.0001 36.0176ZM12.0001 37C12.5645 37 13.0001 37.4365 13.0001 38C13.0001 38.5635 12.5645 39 12.0001 39C11.4357 39 11.0001 38.5635 11.0001 38C11.0001 37.4365 11.4357 37 12.0001 37ZM18.0255 43C17.893 42.9981 17.7614 43.0226 17.6384 43.072C17.5155 43.1214 17.4036 43.1948 17.3092 43.2878C17.2148 43.3809 17.1399 43.4918 17.0887 43.614C17.0376 43.7363 17.0112 43.8675 17.0112 44C17.0112 44.1325 17.0376 44.2637 17.0887 44.386C17.1399 44.5082 17.2148 44.6191 17.3092 44.7122C17.4036 44.8052 17.5155 44.8786 17.6384 44.928C17.7614 44.9774 17.893 45.0019 18.0255 45H22.0528C22.1853 45.0019 22.3169 44.9774 22.4399 44.928C22.5628 44.8786 22.6748 44.8052 22.7691 44.7122C22.8635 44.6191 22.9384 44.5082 22.9896 44.386C23.0407 44.2637 23.0671 44.1325 23.0671 44C23.0671 43.8675 23.0407 43.7363 22.9896 43.614C22.9384 43.4918 22.8635 43.3809 22.7691 43.2878C22.6748 43.1948 22.5628 43.1214 22.4399 43.072C22.3169 43.0226 22.1853 42.9981 22.0528 43H18.0255ZM12.0001 47C10.3545 47 9.00009 48.3555 9.00009 50C9.00009 51.6445 10.3545 53 12.0001 53C13.6457 53 15.0001 51.6445 15.0001 50C15.0001 48.3555 13.6457 47 12.0001 47ZM33.0001 48.0176C32.4481 48.0176 32.0001 48.4637 32.0001 49.0137V51.0059C32.0001 51.5549 32.4481 52 33.0001 52C33.5521 52 34.0001 51.5539 34.0001 51.0039V49.0117C34.0001 48.4627 33.5521 48.0176 33.0001 48.0176ZM38.0001 48.0176C37.4481 48.0176 37.0001 48.4637 37.0001 49.0137V51.0059C37.0001 51.5549 37.4481 52 38.0001 52C38.5521 52 39.0001 51.5539 39.0001 51.0039V49.0117C39.0001 48.4627 38.5521 48.0176 38.0001 48.0176ZM43.0001 48.0176C42.4481 48.0176 42.0001 48.4637 42.0001 49.0137V51.0059C42.0001 51.5549 42.4481 52 43.0001 52C43.5521 52 44.0001 51.5539 44.0001 51.0039V49.0117C44.0001 48.4627 43.5521 48.0176 43.0001 48.0176ZM48.0001 48.0176C47.4481 48.0176 47.0001 48.4637 47.0001 49.0137V51.0059C47.0001 51.5549 47.4481 52 48.0001 52C48.5521 52 49.0001 51.5539 49.0001 51.0039V49.0117C49.0001 48.4627 48.5521 48.0176 48.0001 48.0176ZM53.0001 48.0176C52.4481 48.0176 52.0001 48.4637 52.0001 49.0137V51.0059C52.0001 51.5549 52.4481 52 53.0001 52C53.5521 52 54.0001 51.5539 54.0001 51.0039V49.0117C54.0001 48.4627 53.5521 48.0176 53.0001 48.0176ZM12.0001 49C12.5645 49 13.0001 49.4365 13.0001 50C13.0001 50.5635 12.5645 51 12.0001 51C11.4357 51 11.0001 50.5635 11.0001 50C11.0001 49.4365 11.4357 49 12.0001 49Z" fill="url(#paint0_linear_516_244)"/>
<defs>
<linearGradient id="paint0_linear_516_244" x1="40.9225" y1="-8.84041" x2="53.4657" y2="33.0041" gradientUnits="userSpaceOnUse">
<stop stop-color="#2E27FE"/>
<stop offset="1" stop-color="#9A12FF"/>
</linearGradient>
</defs>
</svg>
