<svg width="64" height="64" viewBox="0 0 64 64" fill="none" xmlns="http://www.w3.org/2000/svg">
<path d="M47.58 1.60548C47.3295 1.61831 47.093 1.72478 46.9174 1.90378C46.7417 2.08279 46.6397 2.32126 46.6316 2.57193C46.6235 2.82261 46.7098 3.06717 46.8736 3.25716C47.0373 3.44715 47.2664 3.56868 47.5156 3.59767C54.2113 4.4855 59.5144 9.7886 60.4023 16.4844C60.4174 16.6164 60.4587 16.744 60.5238 16.8598C60.5888 16.9757 60.6762 17.0774 60.781 17.1591C60.8858 17.2407 61.0058 17.3007 61.134 17.3355C61.2622 17.3703 61.396 17.3792 61.5277 17.3617C61.6594 17.3441 61.7863 17.3006 61.9009 17.2335C62.0156 17.1664 62.1157 17.0771 62.1955 16.9709C62.2753 16.8647 62.3331 16.7437 62.3656 16.6149C62.3981 16.4861 62.4046 16.3521 62.3847 16.2207C61.3785 8.6325 55.3674 2.62141 47.7792 1.61525C47.7133 1.60536 47.6466 1.60209 47.58 1.60548ZM47.0488 5.57228C46.7984 5.58544 46.5621 5.69218 46.3866 5.87134C46.2112 6.05051 46.1095 6.28903 46.1017 6.53964C46.0938 6.79026 46.1804 7.03468 46.3442 7.22449C46.508 7.4143 46.7372 7.53564 46.9863 7.56447C51.8998 8.21258 55.7864 12.0999 56.4355 17.0137C56.4498 17.1463 56.4904 17.2747 56.555 17.3913C56.6197 17.508 56.707 17.6105 56.8118 17.6929C56.9167 17.7753 57.0369 17.8359 57.1655 17.8712C57.2942 17.9064 57.4285 17.9156 57.5607 17.8981C57.6929 17.8807 57.8203 17.837 57.9354 17.7695C58.0504 17.7021 58.1509 17.6124 58.2307 17.5056C58.3106 17.3988 58.3683 17.2771 58.4005 17.1477C58.4326 17.0183 58.4385 16.8837 58.4179 16.752C57.651 10.9458 53.0544 6.34793 47.248 5.58205C47.1821 5.57216 47.1153 5.56889 47.0488 5.57228ZM37.7558 9.35158C35.9623 9.35158 34.1692 10.0339 32.8066 11.3965L5.05658 39.1445C2.3314 41.8697 2.3314 46.3198 5.05658 49.0449L14.955 58.9434C17.6802 61.6685 22.1302 61.6685 24.8554 58.9434L52.6035 31.1934C55.3286 28.4682 55.3286 24.0201 52.6035 21.2949L42.705 11.3965C41.3424 10.0339 39.5493 9.35158 37.7558 9.35158ZM46.5175 9.53908C46.2672 9.55257 46.0311 9.65957 45.8559 9.8389C45.6808 10.0182 45.5793 10.2568 45.5717 10.5073C45.5641 10.7579 45.6509 11.0022 45.8148 11.1918C45.9787 11.3814 46.2079 11.5026 46.457 11.5313C49.5883 11.94 52.06 14.4117 52.4687 17.543C52.4822 17.6761 52.5223 17.8051 52.5866 17.9224C52.6509 18.0397 52.7381 18.1429 52.843 18.2259C52.9479 18.3089 53.0683 18.37 53.1973 18.4057C53.3262 18.4413 53.4609 18.4507 53.5936 18.4333C53.7262 18.4159 53.854 18.3721 53.9694 18.3045C54.0848 18.2368 54.1854 18.1467 54.2654 18.0395C54.3454 17.9323 54.403 17.8101 54.4349 17.6802C54.4668 17.5503 54.4723 17.4153 54.4511 17.2832C53.9258 13.2585 50.7414 10.0741 46.7167 9.54884C46.6508 9.53896 46.5841 9.53569 46.5175 9.53908ZM37.7558 11.3399C39.0333 11.3399 40.3105 11.8301 41.291 12.8106L51.1894 22.709C53.1502 24.6698 53.1502 27.8185 51.1894 29.7793L23.4413 57.5293C21.4805 59.4901 18.3299 59.4901 16.3691 57.5293L6.47064 47.6309C4.50981 45.67 4.50981 42.5194 6.47064 40.5586L34.2206 12.8106C35.201 11.8301 36.4783 11.3399 37.7558 11.3399ZM37.7441 15.334C37.5447 15.3336 37.3498 15.3929 37.1844 15.5041C37.019 15.6153 36.8905 15.7734 36.8156 15.9581C36.7406 16.1429 36.7226 16.3458 36.7638 16.5408C36.805 16.7358 36.9036 16.9141 37.0468 17.0527L38.4609 18.4668C38.5537 18.5598 38.664 18.6336 38.7853 18.6839C38.9067 18.7343 39.0368 18.7603 39.1682 18.7604C39.2996 18.7605 39.4297 18.7347 39.5512 18.6845C39.6726 18.6343 39.7829 18.5606 39.8759 18.4678C39.9689 18.3749 40.0427 18.2647 40.093 18.1433C40.1434 18.022 40.1694 17.8919 40.1695 17.7605C40.1696 17.6291 40.1438 17.4989 40.0936 17.3775C40.0434 17.2561 39.9697 17.1457 39.8769 17.0527L38.4628 15.6387C38.3696 15.5423 38.2579 15.4657 38.1344 15.4133C38.0109 15.361 37.8782 15.334 37.7441 15.334ZM41.9882 19.5781C41.7893 19.5782 41.5949 19.6376 41.4299 19.7487C41.2649 19.8598 41.1367 20.0176 41.0619 20.2019C40.987 20.3862 40.9688 20.5887 41.0096 20.7834C41.0504 20.9781 41.1484 21.1562 41.291 21.2949L42.705 22.709C42.7972 22.805 42.9075 22.8816 43.0297 22.9344C43.1518 22.9872 43.2832 23.015 43.4163 23.0164C43.5493 23.0177 43.6813 22.9925 43.8044 22.9423C43.9276 22.892 44.0395 22.8176 44.1336 22.7235C44.2277 22.6294 44.302 22.5175 44.3523 22.3944C44.4026 22.2712 44.4278 22.1392 44.4265 22.0062C44.4251 21.8731 44.3972 21.7417 44.3445 21.6196C44.2917 21.4974 44.215 21.3871 44.1191 21.2949L42.705 19.8809C42.6118 19.7851 42.5004 19.7089 42.3773 19.6569C42.2541 19.6049 42.1219 19.5781 41.9882 19.5781ZM33.9921 23.2578C33.7505 23.2651 33.5196 23.3597 33.3424 23.5241C33.1651 23.6885 33.0534 23.9116 33.0279 24.152C33.0024 24.3924 33.0648 24.6339 33.2037 24.8319C33.3425 25.0298 33.5484 25.1707 33.7831 25.2285C34.9446 25.5331 36.0363 26.1379 36.9492 27.0508C39.6909 29.7926 39.6909 34.2075 36.9492 36.9492C34.2074 39.691 29.7925 39.691 27.0507 36.9492C24.3089 34.2075 24.3089 29.7926 27.0507 27.0508C27.7363 26.3652 28.5238 25.8544 29.3652 25.5137C29.487 25.4643 29.5979 25.3914 29.6916 25.2992C29.7853 25.207 29.8599 25.0972 29.9112 24.9761C29.9624 24.855 29.9893 24.7251 29.9903 24.5936C29.9913 24.4621 29.9664 24.3318 29.9171 24.2099C29.8677 24.0881 29.7948 23.9772 29.7025 23.8835C29.6103 23.7898 29.5005 23.7152 29.3794 23.664C29.2583 23.6128 29.1284 23.5859 28.9969 23.5849C28.8654 23.5839 28.7351 23.6088 28.6132 23.6582C27.5286 24.0975 26.513 24.7604 25.6367 25.6367C22.1304 29.143 22.1304 34.8571 25.6367 38.3633C29.1429 41.8695 34.857 41.8695 38.3632 38.3633C41.8694 34.8571 41.8694 29.143 38.3632 25.6367C37.1961 24.4696 35.7816 23.6864 34.289 23.2949C34.1925 23.2677 34.0924 23.2552 33.9921 23.2578ZM46.2285 23.8203C46.0293 23.8204 45.8346 23.8799 45.6695 23.9912C45.5044 24.1026 45.3762 24.2607 45.3015 24.4454C45.2268 24.63 45.209 24.8327 45.2502 25.0276C45.2915 25.2225 45.39 25.4006 45.5331 25.5391L46.9472 26.9531C47.0402 27.046 47.1505 27.1196 47.272 27.1698C47.3934 27.22 47.5235 27.2458 47.6549 27.2457C47.7863 27.2456 47.9164 27.2197 48.0378 27.1693C48.1591 27.1189 48.2694 27.0451 48.3622 26.9522C48.4551 26.8592 48.5287 26.7488 48.5789 26.6274C48.6291 26.506 48.6549 26.3758 48.6548 26.2444C48.6547 26.113 48.6288 25.9829 48.5784 25.8616C48.528 25.7402 48.4542 25.63 48.3613 25.5371L46.9472 24.1231C46.8538 24.027 46.742 23.9507 46.6186 23.8987C46.4951 23.8467 46.3624 23.8201 46.2285 23.8203ZM31.9999 29C31.2043 29 30.4412 29.3161 29.8786 29.8787C29.316 30.4413 28.9999 31.2044 28.9999 32C28.9999 32.7957 29.316 33.5587 29.8786 34.1213C30.4412 34.6839 31.2043 35 31.9999 35C32.7956 35 33.5586 34.6839 34.1213 34.1213C34.6839 33.5587 34.9999 32.7957 34.9999 32C34.9999 31.2044 34.6839 30.4413 34.1213 29.8787C33.5586 29.3161 32.7956 29 31.9999 29ZM17.0663 36.0137C16.8676 36.0141 16.6734 36.0738 16.5087 36.185C16.344 36.2963 16.2162 36.4541 16.1416 36.6384C16.067 36.8226 16.049 37.0249 16.0898 37.2194C16.1307 37.4139 16.2286 37.5919 16.371 37.7305L17.7851 39.1445C17.8772 39.2405 17.9876 39.3171 18.1097 39.3699C18.2319 39.4227 18.3633 39.4506 18.4963 39.4519C18.6294 39.4533 18.7613 39.4281 18.8845 39.3778C19.0077 39.3275 19.1196 39.2532 19.2137 39.1591C19.3078 39.065 19.3821 38.9531 19.4324 38.8299C19.4827 38.7067 19.5079 38.5748 19.5066 38.4417C19.5052 38.3087 19.4773 38.1773 19.4245 38.0551C19.3717 37.933 19.2951 37.8226 19.1992 37.7305L17.7831 36.3164C17.6899 36.2206 17.5785 36.1445 17.4554 36.0925C17.3323 36.0405 17.2 36.0137 17.0663 36.0137ZM13.5312 39.5488C13.3323 39.5489 13.1379 39.6083 12.9728 39.7194C12.8078 39.8305 12.6797 39.9883 12.6049 40.1726C12.53 40.3569 12.5118 40.5594 12.5526 40.7541C12.5934 40.9488 12.6914 41.1269 12.8339 41.2656L14.248 42.6797C14.3408 42.7727 14.4511 42.8465 14.5724 42.8968C14.6938 42.9472 14.8239 42.9732 14.9553 42.9733C15.0867 42.9733 15.2168 42.9476 15.3383 42.8974C15.4597 42.8472 15.57 42.7735 15.663 42.6807C15.756 42.5878 15.8298 42.4776 15.8801 42.3562C15.9305 42.2349 15.9565 42.1048 15.9566 41.9734C15.9567 41.842 15.9309 41.7118 15.8807 41.5904C15.8305 41.469 15.7568 41.3586 15.664 41.2656L14.2499 39.8516C14.1565 39.7555 14.0448 39.6793 13.9213 39.6273C13.7978 39.5753 13.6652 39.5486 13.5312 39.5488ZM21.3085 40.2559C21.1098 40.2563 20.9156 40.316 20.7509 40.4272C20.5862 40.5385 20.4584 40.6963 20.3838 40.8805C20.3092 41.0648 20.2911 41.2671 20.332 41.4616C20.3729 41.6561 20.4708 41.834 20.6132 41.9727L22.0273 43.3867C22.1194 43.4827 22.2298 43.5593 22.3519 43.6121C22.474 43.6649 22.6055 43.6928 22.7385 43.6941C22.8716 43.6955 23.0035 43.6703 23.1267 43.62C23.2499 43.5697 23.3618 43.4953 23.4559 43.4013C23.5499 43.3072 23.6243 43.1953 23.6746 43.0721C23.7249 42.9489 23.7501 42.817 23.7487 42.6839C23.7474 42.5509 23.7195 42.4194 23.6667 42.2973C23.6139 42.1752 23.5373 42.0648 23.4413 41.9727L22.0273 40.5586C21.9339 40.4626 21.8221 40.3863 21.6986 40.3343C21.5752 40.2823 21.4425 40.2556 21.3085 40.2559ZM9.99603 43.084C9.7971 43.0841 9.6027 43.1434 9.43769 43.2545C9.27268 43.3657 9.14455 43.5235 9.0697 43.7078C8.99484 43.8921 8.97665 44.0945 9.01746 44.2892C9.05826 44.4839 9.1562 44.662 9.29876 44.8008L10.7148 46.2149C10.8061 46.3141 10.9166 46.3939 11.0396 46.4494C11.1625 46.5049 11.2954 46.5349 11.4303 46.5376C11.5652 46.5404 11.6992 46.5159 11.8244 46.4655C11.9495 46.4151 12.0631 46.3399 12.1585 46.2444C12.2538 46.149 12.3288 46.0352 12.379 45.91C12.4292 45.7848 12.4536 45.6507 12.4507 45.5159C12.4477 45.381 12.4175 45.2481 12.3619 45.1252C12.3062 45.0024 12.2263 44.892 12.1269 44.8008L10.7128 43.3867C10.6196 43.2909 10.5082 43.2148 10.3851 43.1628C10.262 43.1108 10.1297 43.084 9.99603 43.084ZM17.7753 43.791C17.5764 43.7911 17.382 43.8505 17.217 43.9616C17.052 44.0727 16.9239 44.2305 16.849 44.4148C16.7741 44.5991 16.7559 44.8016 16.7968 44.9963C16.8376 45.191 16.9355 45.3691 17.0781 45.5078L18.4921 46.9219C18.5843 47.0179 18.6946 47.0945 18.8168 47.1473C18.9389 47.2001 19.0703 47.2279 19.2034 47.2293C19.3364 47.2306 19.4684 47.2054 19.5916 47.1551C19.7147 47.1049 19.8266 47.0305 19.9207 46.9364C20.0148 46.8423 20.0892 46.7304 20.1394 46.6073C20.1897 46.4841 20.2149 46.3521 20.2136 46.2191C20.2122 46.086 20.1843 45.9546 20.1316 45.8325C20.0788 45.7103 20.0022 45.6 19.9062 45.5078L18.4921 44.0938C18.3989 43.998 18.2875 43.9218 18.1644 43.8698C18.0413 43.8178 17.909 43.791 17.7753 43.791ZM25.5527 44.4981C25.3537 44.4981 25.1593 44.5575 24.9943 44.6686C24.8293 44.7797 24.7012 44.9375 24.6263 45.1218C24.5515 45.3061 24.5333 45.5086 24.5741 45.7033C24.6149 45.898 24.7128 46.0761 24.8554 46.2149L26.2695 47.6289C26.3607 47.7283 26.471 47.8083 26.5939 47.8639C26.7168 47.9195 26.8497 47.9497 26.9846 47.9527C27.1194 47.9556 27.2535 47.9313 27.3787 47.8811C27.5039 47.8308 27.6177 47.7558 27.7131 47.6605C27.8086 47.5652 27.8837 47.4515 27.9341 47.3264C27.9845 47.2013 28.0091 47.0672 28.0063 46.9323C28.0035 46.7975 27.9735 46.6646 27.9181 46.5416C27.8626 46.4186 27.7828 46.3081 27.6835 46.2168L26.2695 44.8008C26.1763 44.705 26.0648 44.6289 25.9417 44.5769C25.8186 44.5249 25.6863 44.4981 25.5527 44.4981ZM14.2382 47.3262C14.0389 47.3258 13.844 47.3851 13.6785 47.4963C13.5131 47.6075 13.3847 47.7656 13.3097 47.9503C13.2348 48.135 13.2168 48.3379 13.258 48.533C13.2992 48.728 13.3977 48.9063 13.541 49.0449L14.955 50.459C15.1428 50.6465 15.3974 50.7518 15.6627 50.7516C15.9281 50.7514 16.1825 50.6458 16.3701 50.458C16.5576 50.2702 16.6628 50.0157 16.6626 49.7503C16.6624 49.4849 16.5569 49.2305 16.3691 49.043L14.957 47.6309C14.8637 47.5345 14.752 47.4578 14.6285 47.4055C14.5051 47.3532 14.3723 47.3262 14.2382 47.3262ZM22.0156 48.0332C21.8164 48.0333 21.6218 48.0928 21.4566 48.2041C21.2915 48.3155 21.1633 48.4736 21.0887 48.6583C21.014 48.8429 20.9961 49.0456 21.0374 49.2405C21.0786 49.4354 21.1771 49.6135 21.3202 49.752L22.7343 51.166C22.8273 51.2589 22.9376 51.3326 23.0591 51.3828C23.1805 51.4331 23.3107 51.4589 23.4421 51.4588C23.5735 51.4587 23.7036 51.4328 23.825 51.3824C23.9464 51.332 24.0567 51.2582 24.1495 51.1652C24.2424 51.0723 24.316 50.9619 24.3662 50.8404C24.4164 50.719 24.4422 50.5888 24.4421 50.4574C24.442 50.326 24.416 50.1959 24.3656 50.0745C24.3152 49.9531 24.2414 49.8429 24.1484 49.75L22.7343 48.336C22.6409 48.2399 22.5291 48.1636 22.4057 48.1116C22.2822 48.0596 22.1495 48.033 22.0156 48.0332ZM18.4824 51.5684C18.2834 51.5684 18.089 51.6278 17.924 51.7389C17.759 51.85 17.6309 52.0078 17.556 52.1921C17.4812 52.3765 17.463 52.5789 17.5038 52.7736C17.5446 52.9683 17.6425 53.1464 17.7851 53.2852L19.1992 54.7012C19.2913 54.7972 19.4017 54.8738 19.5238 54.9266C19.6459 54.9793 19.7774 55.0072 19.9104 55.0086C20.0434 55.0099 20.1754 54.9847 20.2986 54.9344C20.4218 54.8842 20.5337 54.8098 20.6277 54.7157C20.7218 54.6216 20.7962 54.5097 20.8465 54.3866C20.8968 54.2634 20.922 54.1314 20.9206 53.9984C20.9193 53.8653 20.8914 53.7339 20.8386 53.6118C20.7858 53.4896 20.7092 53.3793 20.6132 53.2871L19.1992 51.8731C19.1061 51.7769 18.9948 51.7004 18.8716 51.6481C18.7485 51.5957 18.6161 51.5686 18.4824 51.5684Z" fill="url(#paint0_linear_516_240)"/>
<defs>
<linearGradient id="paint0_linear_516_240" x1="42.5139" y1="-15.6756" x2="57.8278" y2="32.5634" gradientUnits="userSpaceOnUse">
<stop stop-color="#2E27FE"/>
<stop offset="1" stop-color="#9A12FF"/>
</linearGradient>
</defs>
</svg>
