<svg width="150" height="22" viewBox="0 0 150 22" fill="none" xmlns="http://www.w3.org/2000/svg">
<path fill-rule="evenodd" clip-rule="evenodd" d="M6.13051 11.7643L14.4534 3.33945C15.0189 2.76705 15.7713 2.45231 16.5733 2.45231C17.3747 2.45231 18.1271 2.76675 18.692 3.33915L19.3404 3.99554L20.6376 2.68246L19.9892 2.02608C19.0782 1.10397 17.8652 0.596133 16.5727 0.596133C15.2808 0.596432 14.0675 1.10426 13.1565 2.02667L4.83362 10.4512L6.13051 11.7643Z" fill="white"/>
<path fill-rule="evenodd" clip-rule="evenodd" d="M17.266 6.13786L15.9627 4.82674L7.60068 13.2391C6.42641 14.4204 4.51577 14.4207 3.3418 13.2397C2.16753 12.0584 2.16753 10.136 3.3418 8.95472L10.5574 1.69621L9.25409 0.385376L2.03877 7.64389C0.145932 9.54805 0.145932 12.6466 2.03877 14.5505C2.95403 15.4713 4.17281 15.9786 5.47079 15.9786C6.76908 15.9786 7.98844 15.471 8.90371 14.5502L17.266 6.13786Z" fill="white"/>
<path fill-rule="evenodd" clip-rule="evenodd" d="M25.5393 7.71338C24.6243 6.79262 23.4055 6.28553 22.1069 6.28553C20.8087 6.28583 19.5893 6.79292 18.674 7.71398L10.3123 16.1262L11.615 17.4373L19.9773 9.02483C21.1519 7.84351 23.0623 7.84381 24.2362 9.02453C24.8041 9.59579 25.1168 10.3563 25.1168 11.1666C25.1168 11.9772 24.8041 12.738 24.2362 13.3093L17.0209 20.5679L18.3242 21.8788L25.5393 14.6204C27.4324 12.7162 27.4324 9.61758 25.5393 7.71338Z" fill="white"/>
<path fill-rule="evenodd" clip-rule="evenodd" d="M21.448 10.4999L13.1252 18.9247C11.9562 20.1075 10.0549 20.1081 8.88646 18.925L8.23802 18.2686L6.94086 19.5817L7.58929 20.2381C8.50023 21.1602 9.71324 21.668 11.006 21.668C12.2978 21.6677 13.5108 21.1599 14.4221 20.2375L22.7449 11.813L21.448 10.4999Z" fill="white"/>
<path fill-rule="evenodd" clip-rule="evenodd" d="M34.645 13.3258C34.7524 13.8633 35.004 14.2842 35.3992 14.5874C35.7941 14.8913 36.3138 15.0429 36.9582 15.0429C37.5924 15.0429 38.0826 14.8937 38.4291 14.5949C38.7757 14.2965 38.9488 13.9033 38.9488 13.4154C38.9488 13.1766 38.9025 12.975 38.8099 12.8107C38.717 12.6465 38.5878 12.5072 38.422 12.3926C38.2557 12.2786 38.051 12.1811 37.8071 12.1017C37.5632 12.022 37.2898 11.9375 36.9871 11.8478L36.197 11.624C35.7283 11.4946 35.3086 11.3379 34.9379 11.1535C34.5669 10.9694 34.2498 10.7528 33.9864 10.504C33.723 10.2552 33.5228 9.96915 33.3862 9.64546C33.2497 9.32208 33.1812 8.94605 33.1812 8.51827C33.1812 8.07034 33.2691 7.65731 33.4449 7.27887C33.6204 6.90103 33.8693 6.57704 34.1914 6.30841C34.5135 6.03977 34.9037 5.82829 35.3626 5.67367C35.821 5.51994 36.338 5.44263 36.914 5.44263C37.9973 5.44263 38.8559 5.70375 39.4906 6.22628C40.1247 6.74912 40.4955 7.44824 40.6031 8.32424L38.8465 8.47345C38.7388 8.02552 38.5244 7.67716 38.2023 7.42838C37.8802 7.1796 37.4313 7.05506 36.8556 7.05506C36.3188 7.05506 35.8991 7.182 35.5968 7.4359C35.2939 7.6898 35.1426 8.01589 35.1426 8.41388C35.1426 8.64281 35.1868 8.83414 35.2747 8.98846C35.3626 9.14309 35.4891 9.27725 35.6552 9.39157C35.821 9.50618 36.0236 9.60816 36.2625 9.69751C36.5017 9.78715 36.7724 9.88221 37.075 9.98149L37.8218 10.2203C38.2899 10.3696 38.7123 10.5263 39.0877 10.6905C39.4635 10.8548 39.7832 11.0515 40.0466 11.2805C40.3102 11.5094 40.5129 11.7831 40.6541 12.1017C40.7957 12.4203 40.8665 12.8135 40.8665 13.2812C40.8665 13.7791 40.7689 14.2346 40.5739 14.6473C40.3784 15.0606 40.1056 15.4114 39.754 15.6999C39.4027 15.9887 38.9857 16.2128 38.5023 16.3716C38.0191 16.5308 37.485 16.6108 36.8996 16.6108C35.8162 16.6108 34.9134 16.3521 34.1914 15.8343C33.4691 15.3166 33.0252 14.5354 32.8592 13.49L34.645 13.3258Z" fill="white"/>
<path fill-rule="evenodd" clip-rule="evenodd" d="M48.4231 7.25838C47.8965 7.25838 47.4257 7.3575 47.0111 7.55513C46.5963 7.75306 46.2451 8.02734 45.9577 8.37829C45.6696 8.72953 45.45 9.14515 45.2987 9.62425C45.1477 10.1043 45.0723 10.6259 45.0723 11.1894C45.0723 11.7533 45.1501 12.2773 45.3064 12.7621C45.462 13.2466 45.6843 13.6667 45.9721 14.023C46.2596 14.3788 46.611 14.6581 47.0259 14.8611C47.4401 15.0636 47.911 15.1648 48.4378 15.1648C48.9647 15.1648 49.4353 15.0687 49.8501 14.8758C50.2643 14.683 50.6158 14.4135 50.9036 14.067C51.1913 13.7212 51.4133 13.3032 51.5693 12.8139C51.7253 12.3243 51.8034 11.7877 51.8034 11.2044C51.8034 10.6307 51.7253 10.1016 51.5693 9.61707C51.4133 9.13287 51.1913 8.71725 50.9036 8.3711C50.6158 8.02525 50.262 7.75306 49.8424 7.55513C49.4232 7.3575 48.95 7.25838 48.4231 7.25838ZM48.4378 5.65339C49.228 5.65339 49.9501 5.78963 50.6037 6.06212C51.2571 6.33461 51.8131 6.7158 52.2719 7.20628C52.7301 7.69706 53.0859 8.28396 53.3401 8.96758C53.5937 9.6512 53.7204 10.3992 53.7204 11.2116C53.7204 12.0542 53.5863 12.8145 53.3183 13.493C53.0494 14.1718 52.667 14.7587 52.1693 15.254L53.5742 16.9336V17.4537H51.789L50.8083 16.2353C50.4669 16.3937 50.1007 16.5173 49.7109 16.6066C49.3206 16.6958 48.901 16.7404 48.4526 16.7404C47.6427 16.7404 46.9135 16.6039 46.2649 16.3317C45.6159 16.0592 45.0646 15.6777 44.6111 15.1872C44.1574 14.6968 43.8062 14.1126 43.5577 13.4334C43.3088 12.7549 43.1844 12.0144 43.1844 11.2116C43.1844 10.3992 43.3088 9.6539 43.5577 8.97477C43.8062 8.29654 44.1597 7.71174 44.6185 7.22125C45.0767 6.73077 45.6304 6.34689 46.2793 6.06931C46.9283 5.79233 47.6477 5.65339 48.4378 5.65339Z" fill="white"/>
<path fill-rule="evenodd" clip-rule="evenodd" d="M60.885 15.0732C61.6336 15.0732 62.2168 14.8371 62.6349 14.3642C63.0527 13.8914 63.2619 13.1674 63.2619 12.1919V5.65339H65.0994V12.2367C65.0994 13.0131 65.0021 13.6772 64.8076 14.2298C64.6128 14.782 64.336 15.235 63.9764 15.5884C63.6168 15.9419 63.1743 16.2005 62.6496 16.3648C62.1245 16.529 61.5363 16.6108 60.885 16.6108C60.2236 16.6108 59.633 16.529 59.1133 16.3648C58.5929 16.2005 58.1531 15.9419 57.7935 15.5884C57.4339 15.235 57.1568 14.782 56.962 14.2298C56.7675 13.6772 56.6706 13.0131 56.6706 12.2367V5.65339H58.508V12.1919C58.508 13.1674 58.7169 13.8914 59.135 14.3642C59.5531 14.8371 60.1363 15.0732 60.885 15.0732Z" fill="white"/>
<path fill-rule="evenodd" clip-rule="evenodd" d="M70.3635 11.807H73.8795L73.3009 10.1342C73.0731 9.47905 72.8905 8.94568 72.7521 8.53502C72.6134 8.12405 72.4896 7.76217 72.3811 7.44907H71.9214C71.8619 7.61523 71.8025 7.78169 71.7433 7.94784C71.6838 8.1143 71.6171 8.30027 71.543 8.50545C71.4686 8.71093 71.3873 8.94568 71.2982 9.21C71.2091 9.47372 71.1003 9.78209 70.9718 10.1342L70.3635 11.807ZM66.9958 15.8865L70.779 5.86406H73.583L77.3211 15.8865V16.4001H75.4816L74.4137 13.3918H69.7998L68.7318 16.4001H66.9958V15.8865Z" fill="white"/>
<path fill-rule="evenodd" clip-rule="evenodd" d="M81.461 10.6772H83.0626C83.768 10.6772 84.3236 10.5486 84.7301 10.2919C85.1365 10.035 85.3402 9.61574 85.3402 9.03358C85.3402 8.44225 85.1342 8.03039 84.7227 7.79771C84.3115 7.56531 83.7582 7.44882 83.0626 7.44882H81.461V10.6772ZM87.6466 16.4001H85.8686L82.6511 12.2619H81.461V16.4001H79.6393V5.86406H83.0626C83.601 5.86406 84.1132 5.90073 84.5978 5.97405C85.0827 6.04737 85.5211 6.2162 85.913 6.48023C86.7452 7.0278 87.162 7.85447 87.162 8.95937C87.162 9.43894 87.0909 9.85701 86.9486 10.2142C86.8065 10.571 86.6179 10.8741 86.3831 11.1236C86.1478 11.3732 85.876 11.576 85.5679 11.7321C85.2591 11.8888 84.9382 12.0062 84.6052 12.0842L87.6466 15.8862V16.4001Z" fill="white"/>
<path fill-rule="evenodd" clip-rule="evenodd" d="M89.9642 5.86406H96.8147V7.47805H91.7763V10.2368H96.4612V11.8215H91.7763V14.7858H96.918V16.4001H89.9642V5.86406Z" fill="white"/>
<path fill-rule="evenodd" clip-rule="evenodd" d="M101.022 13.3258C101.129 13.8633 101.381 14.2842 101.776 14.5874C102.171 14.8913 102.691 15.0429 103.335 15.0429C103.969 15.0429 104.459 14.8937 104.806 14.5949C105.152 14.2965 105.326 13.9033 105.326 13.4154C105.326 13.1766 105.28 12.975 105.187 12.8107C105.094 12.6465 104.965 12.5072 104.799 12.3926C104.633 12.2786 104.428 12.1811 104.184 12.1017C103.94 12.022 103.667 11.9375 103.364 11.8478L102.574 11.624C102.106 11.4946 101.686 11.3379 101.315 11.1535C100.944 10.9694 100.627 10.7528 100.364 10.504C100.1 10.2552 99.8998 9.96915 99.7632 9.64546C99.6267 9.32208 99.5582 8.94605 99.5582 8.51827C99.5582 8.07034 99.6461 7.65731 99.8219 7.27887C99.9974 6.90103 100.246 6.57704 100.568 6.30841C100.89 6.03977 101.281 5.82829 101.74 5.67367C102.198 5.51994 102.715 5.44263 103.291 5.44263C104.374 5.44263 105.233 5.70375 105.867 6.22628C106.501 6.74912 106.873 7.44824 106.98 8.32424L105.223 8.47345C105.116 8.02552 104.901 7.67716 104.579 7.42838C104.257 7.1796 103.808 7.05506 103.232 7.05506C102.696 7.05506 102.276 7.182 101.974 7.4359C101.671 7.6898 101.52 8.01589 101.52 8.41388C101.52 8.64281 101.564 8.83414 101.652 8.98846C101.74 9.14309 101.866 9.27725 102.032 9.39157C102.198 9.50618 102.4 9.60816 102.64 9.69751C102.879 9.78715 103.15 9.88221 103.452 9.98149L104.199 10.2203C104.667 10.3696 105.089 10.5263 105.465 10.6905C105.84 10.8548 106.16 11.0515 106.423 11.2805C106.687 11.5094 106.89 11.7831 107.031 12.1017C107.172 12.4203 107.244 12.8135 107.244 13.2812C107.244 13.7791 107.146 14.2346 106.951 14.6473C106.755 15.0606 106.482 15.4114 106.131 15.6999C105.779 15.9887 105.362 16.2128 104.879 16.3716C104.396 16.5308 103.862 16.6108 103.276 16.6108C102.193 16.6108 101.29 16.3521 100.568 15.8343C99.8461 15.3166 99.4022 14.5354 99.2362 13.49L101.022 13.3258Z" fill="white"/>
<path fill-rule="evenodd" clip-rule="evenodd" d="M111.85 10.7651H113.642C113.971 10.7651 114.272 10.7385 114.546 10.685C114.819 10.6318 115.059 10.5422 115.263 10.416C115.467 10.29 115.626 10.1203 115.741 9.90686C115.855 9.69369 115.912 9.43174 115.912 9.1213C115.912 8.8014 115.855 8.53265 115.741 8.31446C115.626 8.09626 115.469 7.92419 115.27 7.79795C115.071 7.6717 114.834 7.58212 114.561 7.5289C114.287 7.47568 113.99 7.44878 113.672 7.44878H111.85V10.7651ZM109.983 5.86406H113.896C114.623 5.86406 115.233 5.94714 115.726 6.1136C116.219 6.27975 116.617 6.50948 116.921 6.80336C117.224 7.09665 117.443 7.44139 117.578 7.83786C117.712 8.23374 117.779 8.66185 117.779 9.1216C117.779 9.66974 117.687 10.1463 117.503 10.5523C117.319 10.9582 117.053 11.2932 116.704 11.5575C116.355 11.8215 115.932 12.0196 115.434 12.1518C114.936 12.2839 114.374 12.3499 113.747 12.3499H111.85V16.4001H109.983V5.86406Z" fill="white"/>
<path fill-rule="evenodd" clip-rule="evenodd" d="M121.569 11.807H125.085L124.506 10.1342C124.278 9.47905 124.095 8.94568 123.957 8.53502C123.819 8.12405 123.695 7.76217 123.586 7.44907H123.126C123.067 7.61523 123.008 7.78169 122.948 7.94784C122.889 8.1143 122.822 8.30027 122.748 8.50545C122.674 8.71093 122.592 8.94568 122.503 9.21C122.414 9.47372 122.305 9.78209 122.177 10.1342L121.569 11.807ZM118.201 15.8865L121.984 5.86406H124.788L128.526 15.8865V16.4001H126.687L125.619 13.3918H121.005L119.937 16.4001H118.201V15.8865Z" fill="white"/>
<path fill-rule="evenodd" clip-rule="evenodd" d="M139.694 13.6144C139.527 14.0258 139.307 14.4129 139.037 14.776C138.765 15.1391 138.438 15.4572 138.054 15.7289C137.669 16.0006 137.223 16.2154 136.716 16.3735C136.208 16.5315 135.644 16.6108 135.023 16.6108C134.235 16.6108 133.518 16.4735 132.872 16.1991C132.227 15.9254 131.676 15.5457 131.22 15.0613C130.763 14.5762 130.411 13.9988 130.163 13.3279C129.914 12.6573 129.79 11.9302 129.79 11.1466C129.79 10.3635 129.914 9.63641 130.163 8.96551C130.411 8.29492 130.766 7.71458 131.227 7.2248C131.688 6.73562 132.242 6.3509 132.887 6.07212C133.533 5.79275 134.254 5.65337 135.053 5.65337C136.215 5.65337 137.189 5.92297 137.972 6.46128C138.756 6.99959 139.31 7.71458 139.635 8.60565L137.758 8.97262C137.502 8.4343 137.144 8.01052 136.686 7.70215C136.228 7.39378 135.674 7.2396 135.023 7.2396C134.501 7.2396 134.035 7.33963 133.626 7.53968C133.217 7.73974 132.872 8.01525 132.592 8.36653C132.311 8.71752 132.096 9.13213 131.949 9.61036C131.801 10.0883 131.727 10.6003 131.727 11.1466C131.727 11.7027 131.803 12.2173 131.956 12.6905C132.108 13.164 132.33 13.5733 132.621 13.9198C132.912 14.2661 133.264 14.5366 133.678 14.7316C134.092 14.9269 134.565 15.0246 135.097 15.0246C135.787 15.0246 136.356 14.8579 136.804 14.525C137.253 14.1921 137.6 13.7858 137.847 13.3058L139.694 13.6144Z" fill="white"/>
<path fill-rule="evenodd" clip-rule="evenodd" d="M142.105 5.73686H148.994V7.36648H143.927V10.152H148.639V11.752H143.927V14.745H149.098V16.3749H142.105V5.73686Z" fill="white"/>
</svg>
