<svg width="204" height="36" viewBox="0 0 204 36" fill="none" xmlns="http://www.w3.org/2000/svg">
<path d="M16.6175 35.5649L26.6666 20.4912H5.33325L15.3824 35.5649C15.6771 36 16.3227 36 16.6175 35.5649Z" fill="url(#paint0_linear_39_2)"/>
<path d="M27.2841 27.5649L31.9999 20.4912H21.3333L26.049 27.5649C26.3438 28 26.9894 28 27.2841 27.5649Z" fill="url(#paint1_linear_39_2)"/>
<path d="M5.95088 27.5649L10.6667 20.4912H0L4.71579 27.5649C5.01053 28 5.65614 28 5.95088 27.5649Z" fill="url(#paint2_linear_39_2)"/>
<path d="M18.835 20.4912H13.1648H1.82446L9.67318 32.3522C9.98653 32.8182 10.6729 32.8182 10.9863 32.3522L15.9999 24.7756L21.0135 32.3522C21.3269 32.8182 22.0133 32.8182 22.3266 32.3522L30.1753 20.4912H18.835Z" fill="url(#paint3_linear_39_2)"/>
<path d="M6.04912 8.37895L0 20.4912H13.3333L7.28421 8.37895C7.03158 7.87368 6.30175 7.87368 6.04912 8.37895Z" fill="url(#paint4_linear_39_2)"/>
<path d="M24.7156 8.37895L18.6665 20.4912H31.9998L25.9507 8.37895C25.6981 7.87368 24.9683 7.87368 24.7156 8.37895Z" fill="url(#paint5_linear_39_2)"/>
<path d="M15.3824 0.378947L5.33325 20.4912H26.6666L16.6175 0.378947C16.3648 -0.126316 15.635 -0.126316 15.3824 0.378947Z" fill="url(#paint6_linear_39_2)"/>
<path d="M13.165 20.4912L18.8352 20.4912L30.1755 20.4912L22.3268 8.6302C22.0135 8.16418 21.3271 8.16418 21.0137 8.6302L16.0001 16.2068L10.9865 8.6302C10.6731 8.16418 9.98673 8.16418 9.67338 8.6302L1.82466 20.4912L13.165 20.4912Z" fill="url(#paint7_linear_39_2)"/>
<path d="M58.72 17.216C59.728 16.544 60.4 15.2 60.4 13.736C60.4 11.24 58.408 9.44 55.864 9.44H47.368V26H56.392C59.104 26 61.144 24.152 61.144 21.488C61.144 19.592 60.136 17.864 58.72 17.216ZM54.688 13.568C55.264 13.568 55.696 14 55.696 14.576C55.696 15.152 55.264 15.584 54.688 15.584H51.808V13.568H54.688ZM55.24 21.872H51.808V19.472H55.24C55.912 19.472 56.44 20 56.44 20.672C56.44 21.344 55.912 21.872 55.24 21.872ZM67.3739 21.68V9.44H62.7899V26H73.6379V21.68H67.3739ZM86.7646 26H91.7806L85.8286 9.44H80.4286L74.4766 26H79.3966L80.1406 23.72H86.0206L86.7646 26ZM81.4846 19.496L83.0926 14.528L84.6766 19.496H81.4846ZM100.033 26.288C103.177 26.288 105.841 24.848 107.401 22.568L103.441 20.12C102.697 21.2 101.473 21.872 100.033 21.872C97.705 21.872 95.929 20.096 95.929 17.72C95.929 15.344 97.705 13.568 100.033 13.568C101.473 13.568 102.697 14.24 103.441 15.32L107.401 12.872C105.841 10.592 103.177 9.152 100.033 9.152C95.017 9.152 91.225 12.848 91.225 17.72C91.225 22.592 95.017 26.288 100.033 26.288ZM118.776 26H124.704L117.576 17.36L124.32 9.44H118.512L113.616 15.704V9.44H109.032V26H113.616V21.992L114.696 20.72L118.776 26ZM146.554 9.44L141.946 24.104L137.266 9.44H135.898L131.194 24.104L126.586 9.44H125.002L130.378 26H131.914L136.57 11.552L141.202 26H142.714L148.09 9.44H146.554ZM161.447 26H163.103L156.119 9.44H154.343L147.359 26H148.967L150.863 21.464H159.551L161.447 26ZM151.439 20.096L155.207 11.024L158.999 20.096H151.439ZM174.964 9.44H162.268V10.832H167.884V26H169.348V10.832H174.964V9.44ZM179.327 24.608V18.368H187.727V16.976H179.327V10.832H188.519V9.44H177.863V26H188.639V24.608H179.327ZM201.882 26H203.706L197.994 18.992H198.546C201.306 18.992 203.394 16.952 203.394 14.24C203.394 11.504 201.306 9.44 198.522 9.44H192.042V26H193.506V18.992H196.194L201.882 26ZM193.506 10.832H198.498C200.418 10.832 201.882 12.296 201.882 14.264C201.882 16.232 200.418 17.696 198.498 17.696H193.506V10.832Z" fill="white"/>
<defs>
<linearGradient id="paint0_linear_39_2" x1="15.9688" y1="21.7286" x2="15.5321" y2="39.132" gradientUnits="userSpaceOnUse">
<stop stop-color="#CE0CFF"/>
<stop offset="1" stop-color="#AD00FF"/>
</linearGradient>
<linearGradient id="paint1_linear_39_2" x1="26.6287" y1="21.996" x2="26.1921" y2="39.3995" gradientUnits="userSpaceOnUse">
<stop stop-color="#6F25F7"/>
<stop offset="0.8966" stop-color="#B67EFF"/>
</linearGradient>
<linearGradient id="paint2_linear_39_2" x1="5.30893" y1="21.4611" x2="4.87228" y2="38.8646" gradientUnits="userSpaceOnUse">
<stop stop-color="#6F25F7"/>
<stop offset="0.8966" stop-color="#B67EFF"/>
</linearGradient>
<linearGradient id="paint3_linear_39_2" x1="15.9999" y1="20.4912" x2="15.9999" y2="32.7017" gradientUnits="userSpaceOnUse">
<stop stop-color="#6714FF"/>
<stop offset="1" stop-color="#6F25F7" stop-opacity="0"/>
<stop offset="1" stop-color="#5A00FF"/>
</linearGradient>
<linearGradient id="paint4_linear_39_2" x1="6.67242" y1="21.1748" x2="6.56116" y2="7.31464" gradientUnits="userSpaceOnUse">
<stop offset="1.24601e-07" stop-color="#0500FF"/>
<stop offset="1" stop-color="#00C2FF"/>
</linearGradient>
<linearGradient id="paint5_linear_39_2" x1="25.3389" y1="21.1748" x2="25.2277" y2="7.31464" gradientUnits="userSpaceOnUse">
<stop offset="1.24601e-07" stop-color="#0500FF"/>
<stop offset="1" stop-color="#00C2FF"/>
</linearGradient>
<linearGradient id="paint6_linear_39_2" x1="16.0091" y1="21.6126" x2="15.822" y2="-1.12422" gradientUnits="userSpaceOnUse">
<stop offset="1.24601e-07" stop-color="#0500FF"/>
<stop offset="1" stop-color="#00C2FF"/>
</linearGradient>
<linearGradient id="paint7_linear_39_2" x1="16.0001" y1="20.4912" x2="16.0001" y2="8.28069" gradientUnits="userSpaceOnUse">
<stop stop-color="#C731D1" stop-opacity="0.4"/>
<stop offset="1" stop-color="#041DFF" stop-opacity="0"/>
</linearGradient>
</defs>
</svg>
